<svg xmlns="http://www.w3.org/2000/svg" viewBox="0 0 18.4 29.98"><defs><style>.cls-1{fill:none;}.cls-2{fill:#4d495b;}.cls-3{fill:#eef8f9;}.cls-4{fill:#ea8b5c;}.cls-5{fill:#e57e51;}.cls-6{fill:#964236;}.cls-7{fill:#843a32;}.cls-8{fill:#ffd8a6;}.cls-9{fill:#fccb95;}.cls-10{fill:#f7be86;}.cls-11{fill:#fcf1e6;}.cls-12{fill:#451711;}.cls-13{fill:#f9d9d7;}</style></defs><g id="coffee_types_illustration_pack" data-name="coffee types illustration pack"><rect class="cls-1" width="18.4" height="29.98" rx="8"/><path class="cls-2" d="M4.85,20.63S4.75,18.69,9,18.69s4.23,1.94,4.23,1.94.14,1.31-4.23,1.31S4.85,20.63,4.85,20.63Z"/><path class="cls-3" d="M12.67,11.2v.57s2-.49,2,1.4-2,1.41-2,1.41v.63s2.73.33,2.73-2.16S12.67,11.2,12.67,11.2Z"/><path class="cls-3" d="M12.54,19.29l.68-12h-8l.6,12.27a1.18,1.18,0,0,0,1.31,1.1H11A1.41,1.41,0,0,0,12.54,19.29Z"/><polygon class="cls-4" points="12.5 14.67 12.89 7.26 5.51 7.26 5.85 14.67 12.5 14.67"/><polygon class="cls-5" points="11.58 7.26 11.19 14.67 12.5 14.67 12.89 7.26 11.58 7.26"/><path class="cls-3" d="M9.2,5.65c-3.88,0-4,1.61-4,1.61s.68,1.53,4.15,1.53,3.9-1.53,3.9-1.53S13.07,5.65,9.2,5.65Z"/><path class="cls-6" d="M9.2,14.45a5,5,0,0,1-3.41-1l.27,5.82a1.11,1.11,0,0,0,1.2,1.08h3.6a1.34,1.34,0,0,0,1.4-1.32l.29-5.53A5.08,5.08,0,0,1,9.2,14.45Z"/><path class="cls-7" d="M11.24,14.19,11,19.06a1.35,1.35,0,0,1-1.41,1.32h1.29a1.34,1.34,0,0,0,1.4-1.32l.29-5.53A3.64,3.64,0,0,1,11.24,14.19Z"/><path class="cls-8" d="M11.68,5.17A3.14,3.14,0,0,0,9,2.53a2,2,0,0,1-.07,1.41c-.35.5-2.56.45-2.69,1.94,0,0-1.16.62-.58,1.63,0,0,.81,1.08,3.52,1.08s3.72-1.08,3.72-1.08S13.17,5.55,11.68,5.17Z"/><path class="cls-9" d="M11.68,5.17A3.15,3.15,0,0,0,9,2.53,3.23,3.23,0,0,1,9.08,3a1.87,1.87,0,0,1,1.56,1.16c.34,1.2-.49,1.5-.36,2.09S12,5.62,12,6.76a1.79,1.79,0,0,1-.51,1.49,3.5,3.5,0,0,0,1.36-.74S13.16,5.55,11.68,5.17Z"/><path class="cls-10" d="M6.62,6.09a.77.77,0,0,1-.48-.44c-.14,0,0,.39.48.54s.8,0,.78-.06S7,6.24,6.62,6.09Z"/><path class="cls-11" d="M8.41,4.42c-.14-.18-.4.17-.66.28a2,2,0,0,1-.6.12c-.11.08,0,.31.63.2S8.55,4.6,8.41,4.42Z"/><path class="cls-11" d="M6,6.54c.09-.24.12-.29,0-.3a.87.87,0,0,0-.38.58c-.05.37.23.75.43.62S5.92,6.79,6,6.54Z"/><path class="cls-10" d="M11.8,4.83a1.44,1.44,0,0,1-.44.7c-.3.19-.64.2-.63.3s.38,0,.79-.34S11.88,4.81,11.8,4.83Z"/><path class="cls-12" d="M13.49,25.78a2,2,0,0,1-2,2H6.87a2,2,0,0,1-2-2h0a2,2,0,0,1,2-2h4.58a2,2,0,0,1,2,2Z"/><path class="cls-13" d="M6.69,24.55l.09,0c.18,0,.26,0,.26.05s0,0,0,0,0,0,0,0l-.29-.05a.66.66,0,0,1,0,.11v.13c0,.3,0,.56,0,.78v0a.05.05,0,0,0,0,0H7l0,0v0s0,0-.06,0H6.75c0,.38,0,.64,0,.78s0,.11,0,.22l0,0,0,0v-.83a.13.13,0,0,0,0-.06.18.18,0,0,1,0-.06,1.36,1.36,0,0,1,0-.18c0-.43,0-.68,0-.74a.41.41,0,0,0,0-.12.5.5,0,0,0,0-.16S6.68,24.55,6.69,24.55Z"/><path class="cls-13" d="M7.48,24.46h0s0,0,.11,0a.37.37,0,0,1,.19.18,1,1,0,0,1,.11.38v.06a.71.71,0,0,1-.24.6c.19,0,.29.26.32.65v.24s0,.09,0,.16H8l0,0a1.49,1.49,0,0,1,0-.19v-.22a1,1,0,0,0-.14-.49.3.3,0,0,0-.18-.09h0a1.72,1.72,0,0,1,0,.2v.24c0,.21,0,.32,0,.35h0s0,0,0,0l0,0v0c0-.18,0-.3,0-.35V25.8s0,0,0,0h0s0,0,0,0c0-.57,0-1-.08-1.25Zm0,.09c0,.31,0,.68.07,1.14a.59.59,0,0,0,.25-.54v-.09a1,1,0,0,0-.14-.42.29.29,0,0,0-.16-.09Z"/><path class="cls-13" d="M8.61,24.64h0c.06,0,.11.1.15.22A6.8,6.8,0,0,1,9,26.24a2.17,2.17,0,0,1,.05.48s0,0,0,0a4.45,4.45,0,0,1-.07-.5s0-.17-.07-.42H8.85q-.33,0-.33.06v.25l0,.58a.08.08,0,0,1,0,0s0,0,0,0-.06,0-.06-.07c0-.44,0-.71,0-.8v-.17a6.58,6.58,0,0,1,.07-1C8.54,24.68,8.57,24.64,8.61,24.64Zm0,.08a3.76,3.76,0,0,0-.09.91v.17a1.24,1.24,0,0,1,.38-.05h0a4.6,4.6,0,0,0-.21-.91A.21.21,0,0,0,8.61,24.72Z"/><path class="cls-13" d="M9.65,24.57a.41.41,0,0,1,.41.27.68.68,0,0,1,0,.15,2.8,2.8,0,0,1-.14.86.42.42,0,0,1-.18.17s-.07,0-.07,0h0v.21c0,.23,0,.37,0,.4s0,0,0,.05v0a.1.1,0,0,1,0,.06h0l0,0v0h0s0-.09,0-.16h0l0-.26a.34.34,0,0,0,0-.09,1.14,1.14,0,0,1,0-.15s0,0,0,0,0,0,0,0,0-.18,0-.21l0-1.14h0v0S9.64,24.59,9.65,24.57Zm0,.07,0,1.13a1.58,1.58,0,0,1,0,.19h0a.21.21,0,0,0,.15-.07c.07-.05.13-.31.17-.78A1,1,0,0,0,10,25a.37.37,0,0,0-.19-.29Z"/><path class="cls-13" d="M10.53,24.57a.4.4,0,0,1,.4.27A.68.68,0,0,1,11,25a2.8,2.8,0,0,1-.14.86.42.42,0,0,1-.18.17c-.05,0-.07,0-.07,0h0v.21c0,.23,0,.37,0,.4s0,0,0,.05v0a.1.1,0,0,1,0,.06h0l0,0v0a0,0,0,0,1,0,0,.63.63,0,0,1,0-.16h0l0-.26a.34.34,0,0,0,0-.09c0-.08,0-.13,0-.15s0,0,0,0,0,0,0,0,0-.18,0-.21l0-1.14h0v0S10.51,24.59,10.53,24.57Zm.05.07,0,1.13a1.58,1.58,0,0,1,0,.19h0a.21.21,0,0,0,.15-.07c.07-.05.13-.31.17-.78a1,1,0,0,0,0-.15.37.37,0,0,0-.19-.29Z"/><path class="cls-13" d="M11.41,24.59a.32.32,0,0,0,.14,0h.17l0,0v0l0,0h-.25a3.13,3.13,0,0,1,0,.34c0,.37,0,.58,0,.65l.26,0,0,0h0s0,0,0,0l-.26,0c0,.41,0,.69,0,.84v.11a0,0,0,0,0,0,0h0l.24,0h0l0,0h0l0,0h-.06l-.2,0h0a.07.07,0,0,1-.07-.08v-.1c0-.18,0-.7.08-1.58v0a1,1,0,0,0,0-.38S11.39,24.6,11.41,24.59Z"/><path class="cls-12" d="M2.91,24.46c-.36.67,1.36,1.08,1.51.56C4.42,25,3.26,23.79,2.91,24.46Z"/><path class="cls-12" d="M2.39,26.38c.09.82,1.89.15,1.71-.4C4.1,26,2.31,25.56,2.39,26.38Z"/><path class="cls-12" d="M15.5,24.46c.35.67-1.37,1.08-1.52.56C14,25,15.14,23.79,15.5,24.46Z"/><path class="cls-12" d="M16,26.38c-.08.82-1.89.15-1.71-.4C14.3,26,16.09,25.56,16,26.38Z"/></g></svg>