<svg xmlns="http://www.w3.org/2000/svg" viewBox="0 0 92.06 150"><defs><style>.cls-1{fill:none;}.cls-2{fill:#4d495b;}.cls-3{fill:#eef8f9;}.cls-4{fill:#ea8b5c;}.cls-5{fill:#e57e51;}.cls-6{fill:#964236;}.cls-7{fill:#843a32;}.cls-8{fill:#ffd8a6;}.cls-9{fill:#fccb95;}.cls-10{fill:#f7be86;}.cls-11{fill:#fcf1e6;}.cls-12{fill:#451711;}.cls-13{font-size:15.33px;fill:#f5f4ff;font-family:AmaticSC-Regular, Amatic SC;}</style></defs><g id="coffee_types_illustration_pack" data-name="coffee types illustration pack"><rect class="cls-1" x="-0.05" y="-0.09" width="92.17" height="150.17" rx="8"/><path class="cls-2" d="M24.26,103.23S23.72,93.5,45,93.5s21.17,9.73,21.17,9.73.71,6.55-21.17,6.55S24.26,103.23,24.26,103.23Z"/><path class="cls-3" d="M63.4,56l-.07,2.87s10-2.44,10.16,7c.2,9.11-10.16,7.06-10.16,7.06v3.13S77,77.76,77,65.25,63.4,56,63.4,56Z"/><path class="cls-3" d="M62.75,96.5l3.39-60.23H25.86l3,61.44c.13,1.37,1,5.52,6.57,5.52H55.07C61.55,103.23,62.58,98.2,62.75,96.5Z"/><polygon class="cls-4" points="62.55 73.38 64.51 36.27 27.56 36.27 29.25 73.38 62.55 73.38"/><polygon class="cls-5" points="57.96 36.27 56 73.38 62.55 73.38 64.51 36.27 57.96 36.27"/><path class="cls-3" d="M46,28.21c-19.38,0-20.14,8.06-20.14,8.06S29.26,44,46.63,44s19.51-7.68,19.51-7.68S65.39,28.21,46,28.21Z"/><path class="cls-6" d="M46,72.27c-10,0-14.92-2.94-17-4.83l1.33,29.11a5.59,5.59,0,0,0,6,5.43h18c6,0,6.89-4.94,7-6.61l1.46-27.7C60.54,69.56,55.59,72.27,46,72.27Z"/><path class="cls-7" d="M56.23,71l-1.29,24.4c-.15,1.67-1.09,6.61-7,6.61h6.42c6,0,6.89-4.94,7-6.61l1.46-27.7A18.26,18.26,0,0,1,56.23,71Z"/><path class="cls-8" d="M58.46,25.82S56.58,13.61,45,12.6c0,0,1.38,4.53-.38,7s-12.84,2.27-13.47,9.69c0,0-5.79,3.15-2.9,8.19,0,0,4,5.41,17.64,5.41s18.62-5.41,18.62-5.41S65.89,27.71,58.46,25.82Z"/><path class="cls-9" d="M58.44,25.82S56.55,13.61,45,12.6A14.4,14.4,0,0,1,45.43,15c2.77.54,6.71,2,7.79,5.79,1.71,6-2.43,7.55-1.76,10.49s8.81-3.28,8.8,2.43-2.55,7.48-2.56,7.49c4.81-1.59,6.78-3.71,6.78-3.71S65.87,27.71,58.44,25.82Z"/><path class="cls-10" d="M33.11,30.39a3.73,3.73,0,0,1-2.42-2.18c-.69.15-.09,1.93,2.42,2.73s4,.21,3.91-.34S35.13,31.15,33.11,30.39Z"/><path class="cls-11" d="M42.07,22c-.69-.91-2,.89-3.31,1.42a10.32,10.32,0,0,1-3,.6c-.53.38.26,1.54,3.17,1S42.76,23,42.07,22Z"/><path class="cls-11" d="M30,32.68c.41-1.23.56-1.48.12-1.51a4.36,4.36,0,0,0-1.92,2.9c-.22,1.85,1.16,3.77,2.2,3.11S29.61,33.91,30,32.68Z"/><path class="cls-10" d="M59.05,24.1s-.75,2.6-2.22,3.52-3.19,1-3.15,1.52,1.89,0,4-1.7S59.43,24,59.05,24.1Z"/><path class="cls-12" d="M67.51,129a10.2,10.2,0,0,1-10.2,10.2H34.38A10.19,10.19,0,0,1,24.18,129h0a10.2,10.2,0,0,1,10.2-10.2H57.31A10.2,10.2,0,0,1,67.51,129Z"/><path class="cls-12" d="M14.51,122.43c-1.77,3.36,6.84,5.38,7.57,2.8C22.08,125.23,16.28,119.06,14.51,122.43Z"/><path class="cls-12" d="M11.93,132c.42,4.11,9.45.75,8.55-2C20.48,130,11.51,127.92,11.93,132Z"/><path class="cls-12" d="M77.56,122.43c1.77,3.36-6.85,5.38-7.57,2.8C70,125.23,75.79,119.06,77.56,122.43Z"/><path class="cls-12" d="M80.13,132c-.42,4.11-9.44.75-8.55-2C71.58,130,80.55,127.92,80.13,132Z"/><text class="cls-13" transform="translate(32.4 135.23)">FRAPPE</text></g></svg>