<svg xmlns="http://www.w3.org/2000/svg" viewBox="0 0 18.4 29.98"><defs><style>.cls-1{fill:none;}.cls-2{fill:#4d495b;}.cls-3{fill:#eef8f9;}.cls-4{fill:#ea8b5c;}.cls-5{fill:#e57e51;}.cls-6{fill:#964236;}.cls-7{fill:#843a32;}.cls-8{fill:#ffd8a6;}.cls-9{fill:#fccb95;}.cls-10{fill:#f7be86;}.cls-11{fill:#fcf1e6;}.cls-12{fill:#451711;}.cls-13{font-size:3.06px;fill:#f5f4ff;font-family:AmaticSC-Regular, Amatic SC;}</style></defs><g id="coffee_types_illustration_pack" data-name="coffee types illustration pack"><rect class="cls-1" width="18.4" height="29.98" rx="8"/><path class="cls-2" d="M4.85,20.63S4.75,18.69,9,18.69s4.23,1.94,4.23,1.94.14,1.31-4.23,1.31S4.85,20.63,4.85,20.63Z"/><path class="cls-3" d="M12.67,11.2v.57s2-.49,2,1.4-2,1.41-2,1.41v.63s2.73.33,2.73-2.16S12.67,11.2,12.67,11.2Z"/><path class="cls-3" d="M12.54,19.29l.68-12h-8l.6,12.27a1.18,1.18,0,0,0,1.31,1.1H11A1.41,1.41,0,0,0,12.54,19.29Z"/><polygon class="cls-4" points="12.5 14.67 12.89 7.26 5.51 7.26 5.85 14.67 12.5 14.67"/><polygon class="cls-5" points="11.58 7.26 11.19 14.67 12.5 14.67 12.89 7.26 11.58 7.26"/><path class="cls-3" d="M9.2,5.65c-3.88,0-4,1.61-4,1.61s.68,1.53,4.15,1.53,3.9-1.53,3.9-1.53S13.07,5.65,9.2,5.65Z"/><path class="cls-6" d="M9.2,14.45a5,5,0,0,1-3.41-1l.27,5.82a1.11,1.11,0,0,0,1.2,1.08h3.6a1.34,1.34,0,0,0,1.4-1.32l.29-5.53A5.08,5.08,0,0,1,9.2,14.45Z"/><path class="cls-7" d="M11.24,14.19,11,19.06a1.35,1.35,0,0,1-1.41,1.32h1.29a1.34,1.34,0,0,0,1.4-1.32l.29-5.53A3.64,3.64,0,0,1,11.24,14.19Z"/><path class="cls-8" d="M11.68,5.17A3.14,3.14,0,0,0,9,2.53a2,2,0,0,1-.07,1.41c-.35.5-2.56.45-2.69,1.94,0,0-1.16.62-.58,1.63,0,0,.81,1.08,3.52,1.08s3.72-1.08,3.72-1.08S13.17,5.55,11.68,5.17Z"/><path class="cls-9" d="M11.68,5.17A3.15,3.15,0,0,0,9,2.53,3.23,3.23,0,0,1,9.08,3a1.87,1.87,0,0,1,1.56,1.16c.34,1.2-.49,1.5-.36,2.09S12,5.62,12,6.76a1.79,1.79,0,0,1-.51,1.49,3.5,3.5,0,0,0,1.36-.74S13.16,5.55,11.68,5.17Z"/><path class="cls-10" d="M6.62,6.09a.77.77,0,0,1-.48-.44c-.14,0,0,.39.48.54s.8,0,.78-.06S7,6.24,6.62,6.09Z"/><path class="cls-11" d="M8.41,4.42c-.14-.18-.4.17-.66.28a2,2,0,0,1-.6.12c-.11.08,0,.31.63.2S8.55,4.6,8.41,4.42Z"/><path class="cls-11" d="M6,6.54c.09-.24.12-.29,0-.3a.87.87,0,0,0-.38.58c-.05.37.23.75.43.62S5.92,6.79,6,6.54Z"/><path class="cls-10" d="M11.8,4.83a1.44,1.44,0,0,1-.44.7c-.3.19-.64.2-.63.3s.38,0,.79-.34S11.88,4.81,11.8,4.83Z"/><path class="cls-12" d="M13.49,25.78a2,2,0,0,1-2,2H6.87a2,2,0,0,1-2-2h0a2,2,0,0,1,2-2h4.58a2,2,0,0,1,2,2Z"/><path class="cls-12" d="M2.91,24.46c-.36.67,1.36,1.08,1.51.56C4.42,25,3.26,23.79,2.91,24.46Z"/><path class="cls-12" d="M2.39,26.38c.09.82,1.89.15,1.71-.4C4.1,26,2.31,25.56,2.39,26.38Z"/><path class="cls-12" d="M15.5,24.46c.35.67-1.37,1.08-1.52.56C14,25,15.14,23.79,15.5,24.46Z"/><path class="cls-12" d="M16,26.38c-.08.82-1.89.15-1.71-.4C14.3,26,16.09,25.56,16,26.38Z"/><text class="cls-13" transform="translate(6.48 27.02)">FRAPPE</text></g></svg>