<svg xmlns="http://www.w3.org/2000/svg" viewBox="0 0 18.4 29.98"><defs><style>.cls-1{fill:none;}.cls-2{fill:#4d495b;}.cls-3{fill:#eef8f9;}.cls-4{fill:#dae4e5;}.cls-5{fill:#964236;}.cls-6{fill:#7f372f;}.cls-7{fill:#ea8b5c;}.cls-8{fill:#e57b4c;}.cls-9{fill:#f9dccf;}.cls-10{fill:#e0d9f9;}.cls-11{fill:#451711;}.cls-12{font-size:2.26px;fill:#f5f4ff;font-family:AmaticSC-Regular, Amatic SC;}.cls-13{letter-spacing:-0.02em;}</style></defs><g id="coffee_types_illustration_pack" data-name="coffee types illustration pack"><rect class="cls-1" width="18.4" height="29.98" rx="8"/><path class="cls-2" d="M4.5,20.37s-.11-1.94,4.13-1.94,4.23,1.94,4.23,1.94.14,1.31-4.23,1.31S4.5,20.37,4.5,20.37Z"/><path class="cls-3" d="M8.8,17c-4.91,0-4.6,1.83-4.6,1.83s.2.67,2,1h0s-.22.76,2.56.76c2.59,0,2.55-.76,2.55-.76h0c1.79-.34,2-1,2-1S13.72,17,8.8,17Z"/><path class="cls-4" d="M8.78,17.5c-3.41,0-3.53.93-3.53.93s.15.64,3.5.64c3.08,0,3.36-.64,3.36-.64S12,17.5,8.78,17.5Z"/><path class="cls-4" d="M8.86,20a12.86,12.86,0,0,0-1.29,0,10,10,0,0,1-1.7-.21c-.06.14,1,.23,1.69.29A2.89,2.89,0,0,0,8.86,20Z"/><path class="cls-3" d="M13.89,12.89l-.1.5s1.56-.21,1.56.86-1.94.72-1.94.72l-.12.55s2.59.73,2.59-1.18S13.89,12.89,13.89,12.89Z"/><path class="cls-3" d="M14.07,11.3H3.46s-.85,7.34,5.3,7.34S14.07,11.3,14.07,11.3Z"/><path class="cls-5" d="M3.82,14.35c.43,2,1.65,4.19,4.95,4.19s4.52-2.21,5-4.19Z"/><path class="cls-6" d="M12.11,14.35c-.4,1.81-1.45,3.81-4.15,4.14a5.26,5.26,0,0,0,.81.05c3.29,0,4.52-2.21,5-4.19Z"/><path class="cls-7" d="M13.71,14.37a10.5,10.5,0,0,0,.2-3.07H3.63a10.29,10.29,0,0,0,.19,3.07Z"/><path class="cls-8" d="M13.91,11.3H12.27a10.29,10.29,0,0,1-.19,3.07h1.63A10.5,10.5,0,0,0,13.91,11.3Z"/><path class="cls-3" d="M8.76,9.54c-5.06,0-5.3,1.76-5.3,1.76s.42,1.59,5.3,1.59,5.31-1.59,5.31-1.59S13.83,9.54,8.76,9.54Z"/><path class="cls-7" d="M8.87,9.79c-4.4,0-5.06,1.56-5.06,1.56s.72,1.23,5.13,1.23,4.85-1.28,4.85-1.28S13.28,9.79,8.87,9.79Z"/><path class="cls-8" d="M11.63,10.06a1.71,1.71,0,0,1,.64,1.36c-.08,1.09-5.16,1.16-6.4.89h0a14.57,14.57,0,0,0,3,.27c4.41,0,4.86-1.28,4.86-1.28S13.49,10.49,11.63,10.06Z"/><path class="cls-9" d="M4.63,11c0-.14.25-.26.14-.29s-.5.13-.56.51.49.67.66.49S4.56,11.22,4.63,11Z"/><path class="cls-9" d="M4.91,10.56s0,0,0,.09,0,.07,0,.07,0,0,0-.08S4.91,10.56,4.91,10.56Z"/><path class="cls-9" d="M5,10.66a0,0,0,0,0,0-.05s0-.06,0-.06,0,0,0,.06S5,10.66,5,10.66Z"/><path class="cls-9" d="M5.07,11.55s-.1,0-.1.17.1.15.1.15a.16.16,0,0,0,.11-.16A.15.15,0,0,0,5.07,11.55Z"/><path class="cls-10" d="M8.46,7.56c0-.61-.75-.72-.74-.38a.38.38,0,0,1,.35.43c0,.41-.54.29-.56.76s.66.77.81.49S8,8.49,8,8.29,8.49,8.16,8.46,7.56Z"/><path class="cls-10" d="M9.63,7.12c0-.61-.75-.72-.74-.38a.38.38,0,0,1,.35.43c0,.41-.54.29-.56.76s.66.77.81.49-.35-.37-.29-.57S9.66,7.72,9.63,7.12Z"/><path class="cls-10" d="M10.25,8.49c.06-.2.45-.13.42-.73S9.92,7,9.93,7.38a.38.38,0,0,1,.35.43c0,.41-.54.29-.56.76s.66.77.82.49S10.18,8.69,10.25,8.49Z"/><path class="cls-11" d="M13.37,25.73a2.08,2.08,0,0,1-2.08,2.08H6.62a2.08,2.08,0,0,1-2.08-2.08h0a2.08,2.08,0,0,1,2.08-2.08h4.67a2.08,2.08,0,0,1,2.08,2.08Z"/><path class="cls-11" d="M2.53,24.42c.11-.77,1.78-.07,1.59.44C4.12,24.86,2.42,25.18,2.53,24.42Z"/><path class="cls-11" d="M3.26,22.52c.56-.63,1.65,1,1.17,1.36C4.43,23.88,2.69,23.15,3.26,22.52Z"/><path class="cls-11" d="M14.13,28.91c.64-.45-.74-1.62-1.11-1.22C13,27.69,13.5,29.35,14.13,28.91Z"/><path class="cls-11" d="M15.49,27.4c.31-.78-1.64-1-1.74-.43C13.75,27,15.19,28.19,15.49,27.4Z"/><text class="cls-12" transform="translate(6.64 25.56)">espre<tspan class="cls-13" x="2.96" y="0">s</tspan><tspan x="3.47" y="0">so</tspan><tspan x="-0.95" y="1.84">macchiato</tspan></text></g></svg>