<svg xmlns="http://www.w3.org/2000/svg" viewBox="0 0 92.06 150"><defs><style>.cls-1{fill:none;}.cls-2{fill:#4d495b;}.cls-3{fill:#eef8f9;}.cls-4{fill:#dae4e5;}.cls-5{fill:#964236;}.cls-6{fill:#7f372f;}.cls-7{fill:#ea8b5c;}.cls-8{fill:#e57b4c;}.cls-9{fill:#f9dccf;}.cls-10{fill:#e0d9f9;}.cls-11{fill:#451711;}.cls-12{fill:#f5f4ff;}</style></defs><g id="coffee_types_illustration_pack" data-name="coffee types illustration pack"><rect class="cls-1" x="-0.05" y="-0.09" width="92.17" height="150.17" rx="8"/><path class="cls-2" d="M22.47,101.93s-.54-9.73,20.71-9.73,21.17,9.73,21.17,9.73.71,6.55-21.17,6.55S22.47,101.93,22.47,101.93Z"/><path class="cls-3" d="M44,84.88C19.42,84.88,21,94,21,94s1,3.35,10,5.09h0s-1.08,3.77,12.8,3.77c13,0,12.79-3.77,12.79-3.77h0c9-1.74,10-5.09,10-5.09S68.64,84.88,44,84.88Z"/><path class="cls-4" d="M43.9,87.57c-17,0-17.67,4.66-17.67,4.66s.74,3.21,17.52,3.21c15.45,0,16.83-3.21,16.83-3.21S60.21,87.57,43.9,87.57Z"/><path class="cls-4" d="M44.3,99.82c-.17-.29-1.47.17-6.42,0a45.14,45.14,0,0,1-8.51-1.06c-.33.74,4.9,1.19,8.43,1.48S44.47,100.11,44.3,99.82Z"/><path class="cls-3" d="M69.52,64.49,69,67s7.8-1.07,7.8,4.33-9.69,3.58-9.69,3.58l-.63,2.79s13,3.65,13-5.92S69.52,64.49,69.52,64.49Z"/><path class="cls-3" d="M70.4,56.49H17.28S13,93.27,43.84,93.27,70.4,56.49,70.4,56.49Z"/><path class="cls-5" d="M19.07,71.78c2.17,9.92,8.29,21,24.79,21s22.63-11.08,24.8-21Z"/><path class="cls-6" d="M60.58,71.78c-2,9.07-7.26,19.1-20.76,20.76a32.51,32.51,0,0,0,4,.24c16.51,0,22.63-11.08,24.8-21Z"/><path class="cls-7" d="M68.63,71.9a52.05,52.05,0,0,0,1-15.41H18.13a52.45,52.45,0,0,0,1,15.41Z"/><path class="cls-8" d="M69.59,56.49H61.41a52.45,52.45,0,0,1-1,15.41h8.18A52.05,52.05,0,0,0,69.59,56.49Z"/><path class="cls-3" d="M43.84,47.71c-25.38,0-26.56,8.78-26.56,8.78s2.1,8,26.56,8,26.56-8,26.56-8S69.23,47.71,43.84,47.71Z"/><path class="cls-7" d="M44.39,49C22.32,49,19,56.77,19,56.77s3.61,6.13,25.68,6.13S69,56.49,69,56.49,66.46,49,44.39,49Z"/><path class="cls-8" d="M58.17,50.31a8.47,8.47,0,0,1,3.21,6.8c-.38,5.48-25.83,5.79-32,4.44v0A75.51,75.51,0,0,0,44.6,62.9c22.07,0,24.29-6.41,24.29-6.41S67.52,52.47,58.17,50.31Z"/><path class="cls-9" d="M23.13,54.82c.19-.71,1.26-1.32.73-1.48,0,0-2.55.68-2.8,2.59s2.42,3.33,3.3,2.44S22.8,56.1,23.13,54.82Z"/><path class="cls-9" d="M24.53,52.82s-.23,0-.23.42.23.35.23.35a.37.37,0,0,0,.28-.39A.36.36,0,0,0,24.53,52.82Z"/><path class="cls-9" d="M25.13,53.29a.28.28,0,0,0,0-.52s-.15,0-.15.28S25.13,53.29,25.13,53.29Z"/><path class="cls-9" d="M25.33,57.77s-.47.11-.47.85.47.73.47.73a.84.84,0,0,0,0-1.58Z"/><path class="cls-10" d="M42.33,37.76c-.13-3-3.78-3.58-3.71-1.89A1.92,1.92,0,0,1,40.38,38c0,2.08-2.71,1.45-2.83,3.84s3.33,3.84,4.09,2.46-1.76-1.89-1.45-2.9S42.46,40.78,42.33,37.76Z"/><path class="cls-10" d="M48.19,35.56c-.13-3-3.78-3.59-3.72-1.89a1.92,1.92,0,0,1,1.76,2.14c0,2.08-2.7,1.45-2.83,3.84s3.34,3.84,4.09,2.46-1.76-1.89-1.44-2.9S48.31,38.58,48.19,35.56Z"/><path class="cls-10" d="M51.27,42.42c.31-1,2.26-.63,2.14-3.65s-3.78-3.59-3.72-1.89A1.92,1.92,0,0,1,51.45,39c0,2.08-2.7,1.45-2.83,3.84S52,46.7,52.71,45.32,51,43.43,51.27,42.42Z"/><path class="cls-11" d="M66.92,128.79a10.41,10.41,0,0,1-10.41,10.42H33.08a10.42,10.42,0,0,1-10.42-10.42h0a10.42,10.42,0,0,1,10.42-10.41H56.51a10.41,10.41,0,0,1,10.41,10.41Z"/><path class="cls-11" d="M12.63,122.2c.55-3.85,8.88-.35,7.94,2.22C20.57,124.42,12.07,126,12.63,122.2Z"/><path class="cls-11" d="M16.26,112.71c2.81-3.16,8.26,5,5.86,6.79C22.12,119.5,13.44,115.86,16.26,112.71Z"/><path class="cls-11" d="M70.72,144.69c3.18-2.23-3.71-8.08-5.57-6.08C65.15,138.61,67.54,146.92,70.72,144.69Z"/><path class="cls-11" d="M77.54,137.16c1.55-3.94-8.22-5.09-8.71-2.16C68.83,135,76,141.1,77.54,137.16Z"/><path class="cls-12" d="M34,127.83v-.15s0-.08,0-.14l0,0a1.29,1.29,0,0,0,.09-.46q0-.27,0-.75l0-.75c0-.37,0-.94,0-1.69s0-1.24,0-1.71l0-.68c0-.2,0-.43,0-.68a.33.33,0,0,1,.08-.24.36.36,0,0,1,.25-.07.24.24,0,0,1,.18.07l.33,0a2.51,2.51,0,0,1,.48.1c.15,0,.22.1.22.17s-.07.15-.22.23a3.61,3.61,0,0,0-.91-.22l-.06.07c0,.07,0,.23,0,.49s0,.61,0,.87,0,.56,0,.88,0,.32.16.32l.18,0h.19c.29,0,.44.07.44.21a.46.46,0,0,1,0,.21.21.21,0,0,1-.17.08.34.34,0,0,1-.26-.09l-.37-.06h0l-.06.06v0c0,.13,0,.43,0,.9,0,.29,0,.56,0,.8v.8c0,.3,0,.6,0,.91a.43.43,0,0,0,.11.34.57.57,0,0,0,.37.09l.2,0h.23q.33,0,.33.15c0,.14-.17.2-.5.2h-.93C34.09,128.06,34,128,34,127.83Z"/><path class="cls-12" d="M36.79,128a.25.25,0,0,1-.13-.18l.06-.09.21,0a.45.45,0,0,0,.2,0,.62.62,0,0,0,.44-.2,1.16,1.16,0,0,0,.29-.51A4.08,4.08,0,0,0,38,126a3.63,3.63,0,0,0-.47-1.67c-.2-.35-.35-.62-.46-.83a5.36,5.36,0,0,1-.28-.7,2.91,2.91,0,0,1-.15-.89,2.79,2.79,0,0,1,.21-1,1,1,0,0,1,.29-.43.57.57,0,0,1,.4-.16.48.48,0,0,1,.29.1.29.29,0,0,1,.14.22q0,.09-.15.09a.19.19,0,0,1-.11,0l-.13,0a.41.41,0,0,0-.3.13,1,1,0,0,0-.21.35,2.53,2.53,0,0,0-.13.77,1.67,1.67,0,0,0,.06.44.37.37,0,0,0,0,.12.2.2,0,0,1,0,.07l.07.22.05.21.09.2s.05.1.08.14l.07.12.14.24s.09.15.19.32a5.28,5.28,0,0,1,.27.53,2.54,2.54,0,0,1,.17.45,4.4,4.4,0,0,1,.1.5,5.9,5.9,0,0,1,0,.63,3.29,3.29,0,0,1-.15,1,1.42,1.42,0,0,1-.59.79.92.92,0,0,1-.5.14l0,0A.54.54,0,0,1,36.79,128Zm1.14-7.28a0,0,0,0,0,0,0h0Z"/><path class="cls-12" d="M39.84,128.05a9.78,9.78,0,0,1-.12-1.63q0-.36,0-1l0-1.05a.63.63,0,0,1-.08-.26,2.51,2.51,0,0,0,.12-1,17.26,17.26,0,0,0-.06-2.19c.07-.19.12-.28.16-.28h.5a.84.84,0,0,1,.35.12,1.75,1.75,0,0,1,.39.25c.19.17.28.62.28,1.33,0,.39,0,.68,0,.89a1.17,1.17,0,0,1-.07.33,2.19,2.19,0,0,1-.16.29,1.36,1.36,0,0,1-.57.45,2.45,2.45,0,0,1-.48.18v1.35c0,.18,0,.55.06,1.1l0,.37,0,.73c0,.14-.08.2-.22.2Zm.92-4.35a1.2,1.2,0,0,0,.14-.3A1.39,1.39,0,0,0,41,123a3.42,3.42,0,0,0,.07-.75V122a2.81,2.81,0,0,0,0-.3,2.54,2.54,0,0,0,0-.29.67.67,0,0,0-.12-.24.64.64,0,0,0-.2-.16.67.67,0,0,0-.33-.07.22.22,0,0,0-.19.07.33.33,0,0,0-.06.23c0,.18,0,.46,0,.82l0,.81c0,.2,0,.37,0,.53l0,.53.08.12A.69.69,0,0,0,40.76,123.7Z"/><path class="cls-12" d="M44.38,128.05a2.22,2.22,0,0,1-.29-.78c-.1-.42-.2-.89-.29-1.42a11.16,11.16,0,0,0-.26-1.28c-.09-.38-.18-.56-.26-.56h0c-.16,0-.25,0-.25.15,0,.55,0,1.37.09,2.48a8.12,8.12,0,0,0,.11,1.19l-.09.19h-.16l-.09-.09c-.12-3.48-.18-5.86-.18-7.12a1.28,1.28,0,0,1,0-.21.39.39,0,0,1,.08-.14.15.15,0,0,1,.16-.08,1.4,1.4,0,0,1,.92.28,1,1,0,0,1,.35.81v.83a1.63,1.63,0,0,1-.14.58,5.05,5.05,0,0,1-.31.66l-.15.29c.09.38.25,1.07.5,2.07s.37,1.53.4,1.59,0,0,0,.05,0,.08.08.14a.72.72,0,0,1,.08.27c0,.11,0,.16-.13.16Zm-.94-4.54a1.76,1.76,0,0,0,.27-.55,4.65,4.65,0,0,0,.18-1.1,2.46,2.46,0,0,0,0-.43,2,2,0,0,0-.1-.36.59.59,0,0,0-.64-.4s-.07,0-.09.1a.65.65,0,0,0,0,.2c0,.5,0,1,0,1.36s0,.87,0,1.37l0,0A.51.51,0,0,0,43.44,123.51Z"/><path class="cls-12" d="M45.92,127.83v-.15a.57.57,0,0,0,0-.14l0,0A1.29,1.29,0,0,0,46,127q0-.27,0-.75l0-.75c0-.37,0-.94,0-1.69s0-1.24,0-1.71l0-.68c0-.2,0-.43,0-.68a.29.29,0,0,1,.08-.24.33.33,0,0,1,.24-.07.21.21,0,0,1,.18.07l.33,0a2.81,2.81,0,0,1,.49.1c.14,0,.21.1.21.17s-.07.15-.21.23a3.66,3.66,0,0,0-.92-.22l0,.07c0,.07,0,.23,0,.49s0,.61,0,.87,0,.56,0,.88.06.32.16.32l.18,0h.2c.29,0,.44.07.44.21a.37.37,0,0,1-.06.21A.2.2,0,0,1,47,124a.36.36,0,0,1-.26-.09l-.36-.06h-.06l-.05.06v0c0,.13,0,.43,0,.9,0,.29,0,.56,0,.8v.8c0,.3,0,.6,0,.91a.47.47,0,0,0,.11.34.59.59,0,0,0,.38.09l.2,0h.22q.33,0,.33.15c0,.14-.16.2-.49.2h-.93C46,128.06,45.94,128,45.92,127.83Z"/><path class="cls-12" d="M48.71,128a.27.27,0,0,1-.12-.18l.06-.09.2,0a.45.45,0,0,0,.2,0,.59.59,0,0,0,.44-.2,1.28,1.28,0,0,0,.3-.51A4.51,4.51,0,0,0,50,126a3.53,3.53,0,0,0-.48-1.67c-.19-.35-.35-.62-.45-.83a3.52,3.52,0,0,1-.28-.7,2.91,2.91,0,0,1-.15-.89,3,3,0,0,1,.2-1,1.13,1.13,0,0,1,.29-.43.6.6,0,0,1,.4-.16.46.46,0,0,1,.29.1.27.27,0,0,1,.14.22c0,.06,0,.09-.14.09a.24.24,0,0,1-.12,0,.27.27,0,0,0-.12,0,.42.42,0,0,0-.31.13.87.87,0,0,0-.2.35,2.57,2.57,0,0,0-.14.77,1.67,1.67,0,0,0,.06.44.74.74,0,0,1,0,.12.2.2,0,0,1,0,.07l.07.22.06.21.09.2.07.14.08.12.13.24a2.87,2.87,0,0,1,.19.32c.1.17.19.35.28.53a2.45,2.45,0,0,1,.16.45,4.24,4.24,0,0,1,.11.5,6.05,6.05,0,0,1,0,.63,3.29,3.29,0,0,1-.15,1,1.41,1.41,0,0,1-.58.79.94.94,0,0,1-.5.14l-.06,0A.59.59,0,0,1,48.71,128Zm1.15-7.28h0Z"/><path class="cls-12" d="M51.27,128a.25.25,0,0,1-.13-.18l.06-.09.21,0a.45.45,0,0,0,.2,0,.62.62,0,0,0,.44-.2,1.16,1.16,0,0,0,.29-.51A4.08,4.08,0,0,0,52.5,126a3.63,3.63,0,0,0-.47-1.67c-.2-.35-.35-.62-.46-.83a4.25,4.25,0,0,1-.28-.7,2.91,2.91,0,0,1-.15-.89,2.79,2.79,0,0,1,.21-1,1,1,0,0,1,.29-.43.57.57,0,0,1,.4-.16.48.48,0,0,1,.29.1.29.29,0,0,1,.14.22q0,.09-.15.09a.19.19,0,0,1-.11,0l-.13,0a.41.41,0,0,0-.3.13,1,1,0,0,0-.21.35,2.53,2.53,0,0,0-.13.77,2.2,2.2,0,0,0,.05.44,1,1,0,0,0,0,.12.2.2,0,0,1,0,.07l.07.22,0,.21.09.2s0,.1.08.14l.07.12.14.24s.09.15.19.32a5.28,5.28,0,0,1,.27.53,2.54,2.54,0,0,1,.17.45,4.4,4.4,0,0,1,.1.5,6.05,6.05,0,0,1,0,.63,3.29,3.29,0,0,1-.14,1,1.42,1.42,0,0,1-.59.79.92.92,0,0,1-.5.14l-.05,0A.5.5,0,0,1,51.27,128Zm1.14-7.28a0,0,0,0,0,0,0h0Z"/><path class="cls-12" d="M54,124v-.39c0-2.11.27-3.16.81-3.16a.41.41,0,0,1,.16,0,3.8,3.8,0,0,0,.71.16c.14,0,.29.17.43.44a3.18,3.18,0,0,1,.36,1.07,8.74,8.74,0,0,1,.11,1.37l0,0c0,.25,0,.47,0,.67v.68c0,.38,0,.73,0,1a6.06,6.06,0,0,1-.23,1.21,2.43,2.43,0,0,1-.23.51,1.3,1.3,0,0,1-.32.34.72.72,0,0,1-.44.13C54.46,128.13,54,126.75,54,124ZM56,127.18a5.18,5.18,0,0,0,.26-1.29c0-.45,0-.81,0-1.08s0-.75-.06-1.34-.06-1.09-.06-1.33l-.05-.09,0-.06a1.43,1.43,0,0,0-.28-.86.83.83,0,0,0-.67-.36.58.58,0,0,0-.63.5c0,.11,0,.28,0,.49a5.86,5.86,0,0,1-.07,1.14c0,.11,0,.29,0,.53l0,.53c0,.17,0,.31,0,.44v.45a9.35,9.35,0,0,0,.09,1.22,6.37,6.37,0,0,0,.16.86,1.65,1.65,0,0,0,.26.6.47.47,0,0,0,.39.27C55.59,127.8,55.81,127.6,56,127.18Z"/><path class="cls-12" d="M33.49,137v-.74q0-1.64-.06-2.55l0-.41a3.22,3.22,0,0,1,0-.5c0-.26,0-.49,0-.7l0-.7a2.36,2.36,0,0,0,0-.53A27.59,27.59,0,0,0,32,135.63v.17a2.2,2.2,0,0,1-.09.46.49.49,0,0,1-.1.19.21.21,0,0,1-.14.07.3.3,0,0,1-.26-.1.41.41,0,0,1-.08-.28,9.78,9.78,0,0,0-.29-1.58c-.19-.85-.4-1.67-.62-2.45a4.74,4.74,0,0,0-.46-1.3q0,.39-.09,1.86c-.1,1.74-.15,3.1-.15,4.09v.46a.22.22,0,0,1-.24.14.24.24,0,0,1-.11-.06c-.06,0-.08-.07-.08-.09,0-.68.06-1.87.18-3.58s.17-2.77.17-3.56a.52.52,0,0,0,0-.11.22.22,0,0,1,0-.1c0-.11.1-.17.3-.17a.2.2,0,0,1,.22.17,2,2,0,0,1,.05.34v.13a4.35,4.35,0,0,0,.33.91,7.25,7.25,0,0,1,.32.84c.05.19.09.33.13.45.12.43.2.76.24,1l.14.29c0,.11.07.3.14.55s.11.53.14.71a2.35,2.35,0,0,1,.05.52,20.17,20.17,0,0,0,.71-2.32c.38-1.41.61-2.31.68-2.7,0,0,0,0,0-.06s0-.07,0-.11a3.94,3.94,0,0,1,.11-.44c.06-.15.15-.23.27-.23a.32.32,0,0,1,.18.07.17.17,0,0,1,.1.13,35.25,35.25,0,0,0,.15,5v.59c0,.17,0,.37,0,.6a5.82,5.82,0,0,0,.07,1.08.05.05,0,0,1,0,0s0,0,0,0a.34.34,0,0,1,0,.1.45.45,0,0,1-.07.25.23.23,0,0,1-.18.13C33.57,137.74,33.49,137.5,33.49,137Zm-.14-6.2h0Z"/><path class="cls-12" d="M37.68,137.21a.36.36,0,0,1-.07-.21c-.07-.55-.11-.89-.12-1l-.06-.45a2.49,2.49,0,0,0-.57-.06l-.4,0-.4,0a.08.08,0,0,0-.08.05s0,0,0,0l0,.22a8,8,0,0,1-.13.82,1.81,1.81,0,0,1-.13.47c-.06.13-.12.2-.17.2a.26.26,0,0,1-.15-.07.17.17,0,0,1-.08-.13v0l0,0c.13-.54.24-1.07.33-1.6l.14-.7.14-.86.12-.74c0-.21.11-.54.2-1s.17-.86.2-1.05c0,0,0-.16,0-.42s.06-.5.08-.63a1,1,0,0,1,.07-.34h.16a.26.26,0,0,0,.2-.07.24.24,0,0,1,.14.05.17.17,0,0,1,.06.12,12.15,12.15,0,0,0,.08,1.25c0,.24,0,.44.07.6q.12,1.46.63,5.47v0a.19.19,0,0,1-.09.17C37.78,137.25,37.71,137.24,37.68,137.21Zm-.31-2c-.07-1.09-.22-2.69-.43-4.81l-.61,3a12.39,12.39,0,0,0-.26,1.64s.15.07.43.1a7.6,7.6,0,0,0,.76.05Z"/><path class="cls-12" d="M40,137.23a1.29,1.29,0,0,1-.37-.19,1.35,1.35,0,0,1-.29-.38,3.36,3.36,0,0,1-.28-1.3c0-.25,0-.48,0-.68V133.4c0-.49,0-1,0-1.43a7.66,7.66,0,0,1,.11-.86,3.27,3.27,0,0,1,.21-.7,1.23,1.23,0,0,1,.35-.51,1,1,0,0,1,.31-.15l.28-.13H41l0,0,0,0a.15.15,0,0,1,0,.07l-.14.17h-.48a.51.51,0,0,0-.39.21,1.49,1.49,0,0,0-.26.52,4.5,4.5,0,0,0-.15.67,6.66,6.66,0,0,0-.07.67c0,.24,0,.4,0,.5l0,.05c0,.42,0,.8,0,1.14l0,1.15a6.35,6.35,0,0,0,.07.91,1.7,1.7,0,0,0,.33.81.9.9,0,0,0,.8.37.39.39,0,0,0,.28-.11c.12,0,.17.05.17.13s0,.11-.14.19a1.18,1.18,0,0,1-.29.16h-.37Z"/><path class="cls-12" d="M43.26,137.23a1.29,1.29,0,0,1-.37-.19,1.34,1.34,0,0,1-.28-.38,3.17,3.17,0,0,1-.29-1.3c0-.25,0-.48,0-.68V133.4c0-.49,0-1,0-1.43a7.66,7.66,0,0,1,.11-.86,3.27,3.27,0,0,1,.21-.7,1.33,1.33,0,0,1,.35-.51,1.1,1.1,0,0,1,.31-.15l.28-.13h.58l0,0,0,0s0,0,0,.07l-.15.17h-.48a.51.51,0,0,0-.39.21,1.49,1.49,0,0,0-.26.52,4.5,4.5,0,0,0-.15.67,6.66,6.66,0,0,0-.07.67c0,.24,0,.4,0,.5l0,.05c0,.42,0,.8,0,1.14l0,1.15a6.35,6.35,0,0,0,.07.91,1.7,1.7,0,0,0,.33.81.9.9,0,0,0,.8.37.39.39,0,0,0,.28-.11c.12,0,.17.05.17.13s0,.11-.14.19a1.33,1.33,0,0,1-.28.16h-.38Z"/><path class="cls-12" d="M47.34,137.16q-.06-2.08-.06-3l0,0,0-.11a2,2,0,0,0,0-.41l-.17,0a.78.78,0,0,1-.22,0,1.92,1.92,0,0,1-.38-.05,1.17,1.17,0,0,0-.35-.06l-.12.05c0,.26,0,.5,0,.71s0,.45,0,.71l0,.05c0,.21,0,.52,0,.95s0,.72,0,.93a.41.41,0,0,1,0,.21.15.15,0,0,1-.14.09c-.16,0-.24-.23-.24-.68s0-.73,0-1v-1a6.5,6.5,0,0,0,0-1.11,2.38,2.38,0,0,0,.06-.74c0-.37,0-.81,0-1.33l0-.44,0-.88a.2.2,0,0,1,.06-.14.15.15,0,0,1,.13-.07c.15,0,.23.22.23.65s0,1,0,1.39,0,.87,0,1.37c0,.09.28.14.85.14h0a.44.44,0,0,0,.31-.09.37.37,0,0,0,.1-.29c0-.4,0-.92-.08-1.56s-.07-1.21-.07-1.56a.17.17,0,0,1,.06-.12.19.19,0,0,1,.13-.05l.1,0,.1,0c0,.59,0,1.47.07,2.64s.07,2,.07,2.64c0,.89,0,1.64.08,2.24l-.08.12C47.68,137.2,47.57,137.16,47.34,137.16ZM47,133.07l0,0h0Z"/><path class="cls-12" d="M49.65,137h-.18c-.17,0-.27,0-.32-.12s0-.09.09-.13l.06-.06h.32l.05,0,0-.11v-.13q0-.69,0-1.23l0-.42,0-.83c0-.29,0-.73,0-1.32l0-1.31a10.71,10.71,0,0,0-.06-1.31,1.26,1.26,0,0,0-.33,0H49c-.14,0-.21-.07-.21-.19s0-.07.1-.09a.35.35,0,0,1,.17-.05,6.2,6.2,0,0,1,.86.05,1.6,1.6,0,0,1,.52.1c.14,0,.2.11.2.19a.42.42,0,0,1,0,.09l-.26,0a.57.57,0,0,0-.33-.07l-.05,0a3.2,3.2,0,0,1,0,.6c0,.49,0,.94,0,1.34l0,1.35c0,.34,0,.75,0,1.23s0,1,0,1.24V136c0,.05,0,.12,0,.2a.67.67,0,0,0,0,.32v0c0,.08.08.11.24.11h.34c.22,0,.33.06.33.16a.22.22,0,0,1-.07.17.24.24,0,0,1-.18.06l-.18,0-.19,0a.53.53,0,0,0-.2.06.46.46,0,0,1-.21.07C49.78,137.15,49.68,137.11,49.65,137Z"/><path class="cls-12" d="M54,137.21A.45.45,0,0,1,54,137c-.06-.55-.1-.89-.12-1l-.06-.45a2.34,2.34,0,0,0-.56-.06l-.41,0-.39,0c-.05,0-.08,0-.08.05a.06.06,0,0,1,0,0l0,.22a7.12,7.12,0,0,1-.12.82A1.77,1.77,0,0,1,52,137c-.06.13-.11.2-.17.2a.26.26,0,0,1-.14-.07.15.15,0,0,1-.08-.13V137c.14-.54.25-1.07.34-1.6l.14-.7.13-.86.13-.74c0-.21.1-.54.2-1s.17-.86.19-1.05c0,0,0-.16.05-.42s0-.5.07-.63a1.43,1.43,0,0,1,.07-.34h.16a.24.24,0,0,0,.2-.07.27.27,0,0,1,.15.05.17.17,0,0,1,.06.12,9.86,9.86,0,0,0,.08,1.25q0,.36.06.6.13,1.46.64,5.47v0a.19.19,0,0,1-.09.17C54.13,137.25,54.06,137.24,54,137.21Zm-.3-2c-.08-1.09-.22-2.69-.43-4.81l-.61,3a10.81,10.81,0,0,0-.26,1.64s.14.07.43.1a7.42,7.42,0,0,0,.75.05Z"/><path class="cls-12" d="M56.3,137v-.42c0-.12,0-.25,0-.4s0-.14,0-.2v-.2a.93.93,0,0,0,0-.27c0-.51,0-1.45-.11-2.82S56,130.46,56,130a9.27,9.27,0,0,1-.94,0c-.15,0-.22-.1-.22-.18a.21.21,0,0,1,.21-.13c.23,0,.56,0,1,.05s.72.06,1,.06h.24l.23,0q.21,0,.21.15c0,.05,0,.08-.08.11a.39.39,0,0,1-.17,0L57,130l-.48,0s0,0,0,0,0,.09,0,.21c0,.73,0,1.84.14,3.32s.12,2.65.12,3.32a.17.17,0,0,1-.09.14.32.32,0,0,1-.19.07Z"/><path class="cls-12" d="M58.77,133.2v-.39c0-2.1.27-3.16.81-3.16l.16,0a3.8,3.8,0,0,0,.71.16c.15,0,.29.17.43.44a3.27,3.27,0,0,1,.36,1.07,7.76,7.76,0,0,1,.12,1.37l0,.06c0,.24,0,.47,0,.66v.68c0,.38,0,.73,0,1a6.11,6.11,0,0,1-.22,1.21,2.43,2.43,0,0,1-.24.51,1.15,1.15,0,0,1-.32.34.72.72,0,0,1-.44.13C59.21,137.36,58.77,136,58.77,133.2Zm1.93,3.21a5.2,5.2,0,0,0,.26-1.28c0-.46,0-.82,0-1.09s0-.75-.07-1.33-.06-1.1-.06-1.34l0-.09,0-.05a1.33,1.33,0,0,0-.28-.86.82.82,0,0,0-.67-.36.56.56,0,0,0-.62.49c0,.12,0,.28,0,.49a7,7,0,0,1-.06,1.14c0,.11,0,.29,0,.53l0,.53c0,.17,0,.32,0,.44v.46a9.6,9.6,0,0,0,.09,1.22c.05.34.1.62.16.86a1.88,1.88,0,0,0,.26.59.46.46,0,0,0,.4.28C60.34,137,60.56,136.83,60.7,136.41Z"/></g></svg>