<svg xmlns="http://www.w3.org/2000/svg" viewBox="0 0 18.4 29.98"><defs><style>.cls-1{fill:none;}.cls-2{fill:#4d495b;}.cls-3{fill:#eef8f9;}.cls-4{fill:#dae4e5;}.cls-5{fill:#964236;}.cls-6{fill:#7f372f;}.cls-7{fill:#ea8b5c;}.cls-8{fill:#e57b4c;}.cls-9{fill:#f9dccf;}.cls-10{fill:#e0d9f9;}.cls-11{fill:#451711;}.cls-12{fill:#f9d9d7;}</style></defs><g id="coffee_types_illustration_pack" data-name="coffee types illustration pack"><rect class="cls-1" width="18.4" height="29.98" rx="8"/><path class="cls-2" d="M4.5,20.37s-.11-1.94,4.13-1.94,4.23,1.94,4.23,1.94.14,1.31-4.23,1.31S4.5,20.37,4.5,20.37Z"/><path class="cls-3" d="M8.8,17c-4.91,0-4.6,1.83-4.6,1.83s.2.67,2,1h0s-.22.76,2.56.76c2.59,0,2.55-.76,2.55-.76h0c1.79-.34,2-1,2-1S13.72,17,8.8,17Z"/><path class="cls-4" d="M8.78,17.5c-3.41,0-3.53.93-3.53.93s.15.64,3.5.64c3.08,0,3.36-.64,3.36-.64S12,17.5,8.78,17.5Z"/><path class="cls-4" d="M8.86,20a12.86,12.86,0,0,0-1.29,0,10,10,0,0,1-1.7-.21c-.06.14,1,.23,1.69.29A2.89,2.89,0,0,0,8.86,20Z"/><path class="cls-3" d="M13.89,12.89l-.1.5s1.56-.21,1.56.86-1.94.72-1.94.72l-.12.55s2.59.73,2.59-1.18S13.89,12.89,13.89,12.89Z"/><path class="cls-3" d="M14.07,11.3H3.46s-.85,7.34,5.3,7.34S14.07,11.3,14.07,11.3Z"/><path class="cls-5" d="M3.82,14.35c.43,2,1.65,4.19,4.95,4.19s4.52-2.21,5-4.19Z"/><path class="cls-6" d="M12.11,14.35c-.4,1.81-1.45,3.81-4.15,4.14a5.26,5.26,0,0,0,.81.05c3.29,0,4.52-2.21,5-4.19Z"/><path class="cls-7" d="M13.71,14.37a10.5,10.5,0,0,0,.2-3.07H3.63a10.29,10.29,0,0,0,.19,3.07Z"/><path class="cls-8" d="M13.91,11.3H12.27a10.29,10.29,0,0,1-.19,3.07h1.63A10.5,10.5,0,0,0,13.91,11.3Z"/><path class="cls-3" d="M8.76,9.54c-5.06,0-5.3,1.76-5.3,1.76s.42,1.59,5.3,1.59,5.31-1.59,5.31-1.59S13.83,9.54,8.76,9.54Z"/><path class="cls-7" d="M8.87,9.79c-4.4,0-5.06,1.56-5.06,1.56s.72,1.23,5.13,1.23,4.85-1.28,4.85-1.28S13.28,9.79,8.87,9.79Z"/><path class="cls-8" d="M11.63,10.06a1.71,1.71,0,0,1,.64,1.36c-.08,1.09-5.16,1.16-6.4.89h0a14.57,14.57,0,0,0,3,.27c4.41,0,4.86-1.28,4.86-1.28S13.49,10.49,11.63,10.06Z"/><path class="cls-9" d="M4.63,11c0-.14.25-.26.14-.29s-.5.13-.56.51.49.67.66.49S4.56,11.22,4.63,11Z"/><path class="cls-9" d="M4.91,10.56s0,0,0,.09,0,.07,0,.07,0,0,0-.08S4.91,10.56,4.91,10.56Z"/><path class="cls-9" d="M5,10.66a0,0,0,0,0,0-.05s0-.06,0-.06,0,0,0,.06S5,10.66,5,10.66Z"/><path class="cls-9" d="M5.07,11.55s-.1,0-.1.17.1.15.1.15a.16.16,0,0,0,.11-.16A.15.15,0,0,0,5.07,11.55Z"/><path class="cls-10" d="M8.46,7.56c0-.61-.75-.72-.74-.38a.38.38,0,0,1,.35.43c0,.41-.54.29-.56.76s.66.77.81.49S8,8.49,8,8.29,8.49,8.16,8.46,7.56Z"/><path class="cls-10" d="M9.63,7.12c0-.61-.75-.72-.74-.38a.38.38,0,0,1,.35.43c0,.41-.54.29-.56.76s.66.77.81.49-.35-.37-.29-.57S9.66,7.72,9.63,7.12Z"/><path class="cls-10" d="M10.25,8.49c.06-.2.45-.13.42-.73S9.92,7,9.93,7.38a.38.38,0,0,1,.35.43c0,.41-.54.29-.56.76s.66.77.82.49S10.18,8.69,10.25,8.49Z"/><path class="cls-11" d="M13.37,25.73a2.08,2.08,0,0,1-2.08,2.08H6.62a2.08,2.08,0,0,1-2.08-2.08h0a2.08,2.08,0,0,1,2.08-2.08h4.67a2.08,2.08,0,0,1,2.08,2.08Z"/><path class="cls-11" d="M2.53,24.42c.11-.77,1.78-.07,1.59.44C4.12,24.86,2.42,25.18,2.53,24.42Z"/><path class="cls-11" d="M3.26,22.52c.56-.63,1.65,1,1.17,1.36C4.43,23.88,2.69,23.15,3.26,22.52Z"/><path class="cls-11" d="M14.13,28.91c.64-.45-.74-1.62-1.11-1.22C13,27.69,13.5,29.35,14.13,28.91Z"/><path class="cls-11" d="M15.49,27.4c.31-.78-1.64-1-1.74-.43C13.75,27,15.19,28.19,15.49,27.4Z"/><path class="cls-12" d="M6.66,24.06a.2.2,0,0,0,.11,0H6.9v0H6.7a1.47,1.47,0,0,1,0,.25c0,.26,0,.42,0,.47s.06,0,.19,0v0h0l0,0H6.68c0,.29,0,.49,0,.6v.08s0,0,0,0h.22l0,0h0l-.14,0h0s0,0,0-.06v-.07q0-.2.06-1.14v0a.75.75,0,0,0,0-.27Z"/><path class="cls-12" d="M7.48,24.11l0,0h0s0,0,0,0h0a.15.15,0,0,0-.16.09.48.48,0,0,0,0,.22.81.81,0,0,0,.06.24,2,2,0,0,0,.25.24.62.62,0,0,1,.11.32.7.7,0,0,1-.05.25.27.27,0,0,1-.14.1l-.06,0s0,0,0,0h0l0,0c.09,0,.14-.07.14-.12a.41.41,0,0,0,.05-.21.51.51,0,0,0-.16-.33.76.76,0,0,1-.18-.18.63.63,0,0,1-.08-.23.13.13,0,0,0,0-.06.53.53,0,0,1,.06-.26A.27.27,0,0,1,7.48,24.11Z"/><path class="cls-12" d="M8,24.05a.28.28,0,0,1,.29.19.36.36,0,0,1,0,.11,2.1,2.1,0,0,1-.1.62.3.3,0,0,1-.13.12H8v.14c0,.17,0,.27,0,.3s0,0,0,0v0s0,0,0,0H8l0,0v0H8s0-.06,0-.11h0v-.19s0-.05,0-.07a.51.51,0,0,1,0-.1s0,0,0,0,0,0,0,0,0-.13,0-.15l0-.82h0S7.94,24.06,8,24.05Zm0,.05,0,.81v.14H8A.18.18,0,0,0,8.09,25c.05,0,.09-.22.12-.56a1,1,0,0,1,0-.11.26.26,0,0,0-.14-.21Z"/><path class="cls-12" d="M8.53,24h0l.08,0a.27.27,0,0,1,.14.12.94.94,0,0,1,.08.28v0a.5.5,0,0,1-.18.43c.14,0,.21.19.23.47v.18s0,.06,0,.11H8.85v-.3a.78.78,0,0,0-.1-.35.21.21,0,0,0-.13-.07h0a.92.92,0,0,1,0,.15v.17c0,.15,0,.23,0,.25h0l0,0,0,0v0c0-.13,0-.21,0-.26v-.27s0,0,0,0h0a0,0,0,0,1,0,0q0-.61-.06-.9Zm0,.06c0,.22,0,.5,0,.82a.43.43,0,0,0,.18-.38V24.4a.62.62,0,0,0-.1-.3A.2.2,0,0,0,8.58,24Z"/><path class="cls-12" d="M9.26,24.06a.22.22,0,0,0,.11,0H9.5v0a0,0,0,0,1,0,0H9.31c0,.06,0,.14,0,.25s0,.42,0,.47a.76.76,0,0,0,.19,0l0,0h0l0,0H9.29q0,.44,0,.6v.08s0,0,0,0h.22l0,0h0l-.14,0h0s0,0,0-.06v-.07q0-.2.06-1.14v0a1.31,1.31,0,0,0,0-.27Z"/><path class="cls-12" d="M10.09,24.11v0h0s0,0,0,0H10a.16.16,0,0,0-.16.09.48.48,0,0,0,0,.22.64.64,0,0,0,.07.24,1.17,1.17,0,0,0,.24.24.57.57,0,0,1,.06.57.23.23,0,0,1-.14.1l-.06,0s0,0,0,0h0l0,0q.15,0,.15-.12a.41.41,0,0,0,0-.21.47.47,0,0,0-.16-.33.76.76,0,0,1-.18-.18.91.91,0,0,1-.08-.23v-.06a.67.67,0,0,1,.05-.26C9.88,24.14,10,24.11,10.09,24.11Z"/><path class="cls-12" d="M10.74,24.11v0h0s0,0,0,0h-.05a.16.16,0,0,0-.16.09.67.67,0,0,0,0,.22.64.64,0,0,0,.07.24,1.17,1.17,0,0,0,.24.24.57.57,0,0,1,.06.57.23.23,0,0,1-.14.1l-.06,0,0,0h0l.05,0q.15,0,.15-.12a.41.41,0,0,0,0-.21.49.49,0,0,0-.15-.33.66.66,0,0,1-.19-.18.91.91,0,0,1-.08-.23v-.06a.67.67,0,0,1,.05-.26A.29.29,0,0,1,10.74,24.11Z"/><path class="cls-12" d="M11.34,24.16h0s0,.05.08.15a4.92,4.92,0,0,1,0,.67,1.74,1.74,0,0,1-.06.62.07.07,0,0,1-.06,0h0c-.08,0-.14-.13-.16-.39,0-.11,0-.25,0-.43v-.09a1.22,1.22,0,0,1,.09-.49s0,0,0,0Zm-.12.58a5.73,5.73,0,0,0,0,.63c0,.15.06.22.11.22s.09-.2.09-.6h0a4.65,4.65,0,0,0-.05-.69c0-.06,0-.09-.05-.09h0s-.09.17-.12.41Z"/><path class="cls-12" d="M6,25.92H6l.17.32.09.29h0s0-.18.07-.49c0-.06,0-.09,0-.1h0s0,.15,0,.44v.77h0v.34a0,0,0,0,1,0,0s0,0,0,0v-.32h0v-1h0s0,.12,0,.31l0,.23h0a.53.53,0,0,1,0-.21A2.34,2.34,0,0,0,6,26.07H6c0,.19,0,.46,0,.81v.62h0s0,0,0,0v-.37C6,27,6,27,6,26.88c0-.37,0-.68-.07-.95Z"/><path class="cls-12" d="M6.91,26h0s.08.08.11.16a4.45,4.45,0,0,1,.19,1,2.38,2.38,0,0,1,0,.34l0,0a2,2,0,0,1-.06-.36s0-.13,0-.3h0a.68.68,0,0,0-.24.05v.18l0,.42s0,0,0,0l0,0s0,0,0-.05c0-.32,0-.51,0-.58v-.12a5.6,5.6,0,0,1,0-.69C6.86,26,6.88,26,6.91,26Zm0,.06a2.42,2.42,0,0,0-.07.66v.11h0a1.26,1.26,0,0,1,.27,0h0A3.48,3.48,0,0,0,7,26.11Z"/><path class="cls-12" d="M7.83,26h0c.06,0,.08,0,.08.06s0,0,0,0h0a.1.1,0,0,0-.07,0c-.07,0-.11.06-.11.08a1,1,0,0,0-.09.47v.07a3.25,3.25,0,0,0,.05.49,1,1,0,0,0,.09.28.22.22,0,0,0,.13.06s.09,0,.14-.1h0s0,0,0,0h0s0,.06-.1.1l-.08,0h0a.31.31,0,0,1-.14-.07c-.06-.05-.1-.22-.14-.52a1.17,1.17,0,0,1,0-.32v0c0-.3.06-.49.15-.56Z"/><path class="cls-12" d="M8.55,26h0c.06,0,.08,0,.08.06s0,0,0,0h0a.1.1,0,0,0-.07,0c-.07,0-.11.06-.11.08a1,1,0,0,0-.09.47v.07a3.25,3.25,0,0,0,.05.49,1,1,0,0,0,.09.28.22.22,0,0,0,.13.06s.09,0,.14-.1h0l0,0h0s0,.06-.1.1l-.08,0h0a.31.31,0,0,1-.14-.07c-.06-.05-.1-.22-.14-.52a1.17,1.17,0,0,1,0-.32v0c0-.3.06-.49.15-.56Z"/><path class="cls-12" d="M9.27,26h0s0,0,0,.05a1.23,1.23,0,0,0,0,.17,7.58,7.58,0,0,0,0,.84c0,.19,0,.32,0,.39h0a0,0,0,0,1,0,0h0s0-.13-.06-.38a2.49,2.49,0,0,1,0-.26H9.11c0,.18,0,.31,0,.37s0,.16,0,.27h0s0,0,0,0v-.26q0-.48,0-.87h0v-.28h0s0,0,0,.05,0,.08,0,.1,0,.1,0,.2,0,.36,0,.43h.15v0c0-.15,0-.33,0-.54v-.17s0,0,0,0Z"/><path class="cls-12" d="M9.81,26h0s0,.08,0,.24v.06c0,.06,0,.21,0,.46v.7a.13.13,0,0,0,0,0s0,0,0,0h0s0,0,0-.12c0-.53,0-.89,0-1.09v-.12a1.09,1.09,0,0,0,0-.19S9.79,26,9.81,26Z"/><path class="cls-12" d="M10.34,26h0a.3.3,0,0,1,.11.16,5.18,5.18,0,0,1,.18,1,1.48,1.48,0,0,1,0,.34s0,0,0,0a2.56,2.56,0,0,1-.05-.36,2.07,2.07,0,0,1,0-.3h0a.7.7,0,0,0-.25.05v.18l0,.42a0,0,0,0,1,0,0l0,0s0,0,0-.05c0-.32,0-.51,0-.58a.49.49,0,0,1,0-.12,4.2,4.2,0,0,1,.06-.69C10.29,26,10.31,26,10.34,26Zm0,.06a3,3,0,0,0-.06.66s0,0,0,.11h0a1.45,1.45,0,0,1,.28,0h0a3.48,3.48,0,0,0-.15-.66S10.36,26,10.34,26Z"/><path class="cls-12" d="M11.45,26l0,0h0s0,0-.13,0h-.13v.26c0,.45.05.78.05,1h0v0a0,0,0,0,1,0,0h0v0c0-.07,0-.4,0-1a2,2,0,0,0,0-.26H11l0,0s0,0,0,0h.46Z"/><path class="cls-12" d="M11.92,26h0s0,.05.08.15a4.91,4.91,0,0,1,.05.67,1.64,1.64,0,0,1-.07.62.07.07,0,0,1-.06,0h0c-.08,0-.13-.13-.16-.4,0-.1,0-.24,0-.43v-.08a1.22,1.22,0,0,1,.09-.49v0Zm-.12.58c0,.3,0,.51,0,.63s.06.22.11.22.09-.2.09-.6h0a4.65,4.65,0,0,0,0-.69c0-.06,0-.09-.05-.09h0c-.06,0-.1.17-.13.41Z"/></g></svg>