<svg xmlns="http://www.w3.org/2000/svg" viewBox="0 0 18.4 29.98"><defs><style>.cls-1{fill:none;}.cls-2{fill:#4d495b;}.cls-3{fill:#eef8f9;}.cls-4{fill:#dae4e5;}.cls-5{fill:#964236;}.cls-6{fill:#7f372f;}.cls-7{fill:#fcdad6;}.cls-8{fill:#e0d9f9;}.cls-9{fill:#451711;}.cls-10{font-size:3.06px;fill:#f5f4ff;font-family:AmaticSC-Regular, Amatic SC;}</style></defs><g id="coffee_types_illustration_pack" data-name="coffee types illustration pack"><rect class="cls-1" width="18.4" height="29.98" rx="8"/><path class="cls-2" d="M5.1,20.73S5,18.9,9,18.9s4,1.83,4,1.83S13.09,22,9,22,5.1,20.73,5.1,20.73Z"/><path class="cls-3" d="M9.08,17.67c-4.62,0-4.33,1.72-4.33,1.72s.19.62,1.87.95h0s-.2.71,2.4.71c2.44,0,2.4-.71,2.4-.71h0c1.69-.33,1.87-.95,1.87-.95S13.69,17.67,9.08,17.67Z"/><path class="cls-4" d="M9.05,18.18c-3.2,0-3.31.87-3.31.87s.14.6,3.28.6c2.9,0,3.16-.6,3.16-.6S12.11,18.18,9.05,18.18Z"/><path class="cls-4" d="M9.13,20.48a11.22,11.22,0,0,0-1.21,0,8.24,8.24,0,0,1-1.59-.2c-.06.14.92.22,1.58.28A2.87,2.87,0,0,0,9.13,20.48Z"/><path class="cls-3" d="M12.48,10.5V11s1.87-.46,1.9,1.32-1.9,1.32-1.9,1.32v.59s2.56.31,2.56-2S12.48,10.5,12.48,10.5Z"/><path class="cls-3" d="M12.36,18.1,13,6.8H5.44L6,18.32a1.11,1.11,0,0,0,1.23,1h3.69A1.32,1.32,0,0,0,12.36,18.1Z"/><path class="cls-3" d="M9.22,5.29C5.58,5.29,5.44,6.8,5.44,6.8s.64,1.44,3.9,1.44S13,6.8,13,6.8,12.85,5.29,9.22,5.29Z"/><path class="cls-5" d="M6,13.5l.22,4.62a1,1,0,0,0,1.15,1h3.45a1.27,1.27,0,0,0,1.35-1.24l.23-4.4Z"/><path class="cls-6" d="M11.15,13.5l-.23,4.4a1.27,1.27,0,0,1-1.35,1.24h1.27a1.27,1.27,0,0,0,1.35-1.24l.23-4.4Z"/><path class="cls-5" d="M9.22,12.23C6.13,12.23,6,13.5,6,13.5s.8.95,3.11.95a4.85,4.85,0,0,0,3.29-.95S12.31,12.23,9.22,12.23Z"/><path class="cls-6" d="M9.22,12.23H8.77c2,.27,2,1.2,2,1.2A4.6,4.6,0,0,1,8,14.37a7.18,7.18,0,0,0,1.1.08,4.85,4.85,0,0,0,3.29-.95S12.31,12.23,9.22,12.23Z"/><path class="cls-7" d="M6.71,13.11c0-.13.24-.25.14-.28s-.48.13-.53.49.46.62.62.46S6.65,13.35,6.71,13.11Z"/><path class="cls-7" d="M7,12.73s0,0,0,.08,0,.07,0,.07a.07.07,0,0,0,0-.07C7,12.74,7,12.73,7,12.73Z"/><path class="cls-7" d="M7.08,12.82s0,0,0-.05a0,0,0,0,0,0,0s0,0,0,0S7.08,12.82,7.08,12.82Z"/><path class="cls-7" d="M7.12,13.66s-.09,0-.09.16.09.14.09.14a.16.16,0,0,0,0-.3Z"/><path class="cls-8" d="M8.88,3.48c0-.57-.71-.67-.69-.35a.36.36,0,0,1,.33.4c0,.39-.51.27-.53.72s.62.72.76.46-.33-.36-.27-.54S8.91,4.05,8.88,3.48Z"/><path class="cls-8" d="M10,3.07c0-.57-.71-.67-.7-.36a.37.37,0,0,1,.33.41c0,.38-.5.27-.53.72s.63.72.77.46-.33-.36-.27-.55S10,3.63,10,3.07Z"/><path class="cls-8" d="M10.56,4.35c.06-.18.42-.11.4-.68s-.71-.67-.7-.35a.36.36,0,0,1,.33.4c0,.39-.5.27-.53.72s.63.72.77.46S10.5,4.54,10.56,4.35Z"/><path class="cls-9" d="M13.58,25.78a2.08,2.08,0,0,1-2.08,2.08H6.82a2.08,2.08,0,0,1-2.08-2.08h0A2.09,2.09,0,0,1,6.82,23.7H11.5a2.08,2.08,0,0,1,2.08,2.08Z"/><path class="cls-9" d="M2.77,24.43c-.36.69,1.4,1.1,1.55.58C4.32,25,3.13,23.75,2.77,24.43Z"/><path class="cls-9" d="M2.25,26.39c.08.84,1.92.16,1.74-.41C4,26,2.16,25.55,2.25,26.39Z"/><path class="cls-9" d="M15.63,24.43c.36.69-1.4,1.1-1.54.58C14.09,25,15.27,23.75,15.63,24.43Z"/><path class="cls-9" d="M16.16,26.39c-.09.84-1.93.16-1.75-.41C14.41,26,16.24,25.55,16.16,26.39Z"/><text class="cls-10" transform="translate(5.2 26.89)">ristretto</text></g></svg>