<svg xmlns="http://www.w3.org/2000/svg" viewBox="0 0 92.06 150"><defs><style>.cls-1{fill:none;}.cls-2{fill:#4d495b;}.cls-3{fill:#eef8f9;}.cls-4{fill:#dae4e5;}.cls-5{fill:#964236;}.cls-6{fill:#7f372f;}.cls-7{fill:#fcdad6;}.cls-8{fill:#e0d9f9;}.cls-9{fill:#451711;}.cls-10{fill:#f5f4ff;}</style></defs><g id="coffee_types_illustration_pack" data-name="coffee types illustration pack"><rect class="cls-1" x="-0.05" y="-0.09" width="92.17" height="150.17" rx="8"/><path class="cls-2" d="M25.48,103.71S25,94.57,44.94,94.57s19.89,9.14,19.89,9.14.66,6.15-19.89,6.15S25.48,103.71,25.48,103.71Z"/><path class="cls-3" d="M45.41,88.43C22.29,88.43,23.75,97,23.75,97s.95,3.14,9.37,4.79h0s-1,3.53,12,3.53c12.21,0,12-3.53,12-3.53h0c8.41-1.65,9.35-4.79,9.35-4.79S68.53,88.43,45.41,88.43Z"/><path class="cls-4" d="M45.29,91c-16,0-16.6,4.38-16.6,4.38s.7,3,16.46,3c14.52,0,15.81-3,15.81-3S60.61,91,45.29,91Z"/><path class="cls-4" d="M45.67,102.47c-.16-.28-1.38.16-6,0a42.32,42.32,0,0,1-8-1c-.31.7,4.61,1.12,7.92,1.39S45.83,102.75,45.67,102.47Z"/><path class="cls-3" d="M62.46,52.51l-.07,2.7s9.36-2.3,9.55,6.58c.18,8.56-9.55,6.63-9.55,6.63v2.94S75.24,73,75.24,61.2,62.46,52.51,62.46,52.51Z"/><path class="cls-3" d="M61.84,90.56,65,34H27.2L30,91.69c.11,1.29.89,5.19,6.16,5.19H54.63C60.72,96.88,61.69,92.15,61.84,90.56Z"/><path class="cls-3" d="M46.12,26.41C27.91,26.41,27.2,34,27.2,34s3.19,7.22,19.51,7.22S65,34,65,34,64.33,26.41,46.12,26.41Z"/><path class="cls-5" d="M30.1,67.55l1.08,23.14c.11,1.26.84,5.1,5.78,5.1H54.23c5.7,0,6.61-4.65,6.75-6.21l1.19-22Z"/><path class="cls-6" d="M55.8,67.55l-1.19,22c-.14,1.56-1,6.21-6.75,6.21h6.37c5.7,0,6.61-4.65,6.75-6.21l1.19-22Z"/><path class="cls-5" d="M46.14,61.18c-15.48,0-16,6.37-16,6.37s4,4.75,15.57,4.75,16.5-4.75,16.5-4.75S61.61,61.18,46.14,61.18Z"/><path class="cls-6" d="M46.14,61.18c-.8,0-1.56,0-2.28,0,9.78,1.35,10.19,6,10.19,6s-4.2,4-13.87,4.65a35.55,35.55,0,0,0,5.49.41c11.55,0,16.5-4.75,16.5-4.75S61.61,61.18,46.14,61.18Z"/><path class="cls-7" d="M33.56,65.57c.17-.66,1.18-1.24.68-1.39,0,0-2.4.64-2.63,2.44s2.27,3.12,3.1,2.29S33.24,66.77,33.56,65.57Z"/><path class="cls-7" d="M34.87,63.69s-.21.05-.21.39.21.34.21.34a.35.35,0,0,0,.26-.37A.34.34,0,0,0,34.87,63.69Z"/><path class="cls-7" d="M35.43,64.13a.25.25,0,0,0,0-.48s-.14,0-.14.26S35.43,64.13,35.43,64.13Z"/><path class="cls-7" d="M35.62,68.34s-.44.11-.44.81.44.68.44.68a.79.79,0,0,0,0-1.49Z"/><path class="cls-8" d="M44.44,17.35C44.32,14.51,40.89,14,41,15.58a1.8,1.8,0,0,1,1.65,2c0,1.95-2.54,1.36-2.66,3.6s3.14,3.61,3.84,2.31-1.65-1.77-1.36-2.72S44.55,20.19,44.44,17.35Z"/><path class="cls-8" d="M49.94,15.28c-.12-2.84-3.55-3.37-3.49-1.77a1.8,1.8,0,0,1,1.65,2c0,1.95-2.54,1.36-2.66,3.6s3.14,3.61,3.85,2.31-1.66-1.77-1.36-2.72S50.05,18.12,49.94,15.28Z"/><path class="cls-8" d="M52.83,21.73c.29-.95,2.13-.6,2-3.43s-3.55-3.37-3.49-1.78a1.81,1.81,0,0,1,1.66,2c0,1.95-2.55,1.36-2.66,3.61s3.13,3.61,3.84,2.31S52.53,22.67,52.83,21.73Z"/><path class="cls-9" d="M68,129.05a10.42,10.42,0,0,1-10.42,10.42H34.13a10.42,10.42,0,0,1-10.42-10.42h0a10.42,10.42,0,0,1,10.42-10.42H57.55A10.42,10.42,0,0,1,68,129.05Z"/><path class="cls-9" d="M13.83,122.29c-1.81,3.44,7,5.5,7.73,2.87C21.56,125.16,15.64,118.86,13.83,122.29Z"/><path class="cls-9" d="M11.2,132.11c.43,4.2,9.65.77,8.74-2.06C19.94,130.05,10.77,127.9,11.2,132.11Z"/><path class="cls-9" d="M78.23,122.29c1.81,3.44-7,5.5-7.73,2.87C70.5,125.16,76.42,118.86,78.23,122.29Z"/><path class="cls-9" d="M80.86,132.11c-.43,4.2-9.65.77-8.73-2.06C72.13,130.05,81.29,127.9,80.86,132.11Z"/><path class="cls-10" d="M29.44,134.79a2.74,2.74,0,0,1-.4-1.06c-.15-.57-.28-1.21-.4-1.93a14.72,14.72,0,0,0-.35-1.73c-.13-.51-.24-.77-.36-.77h0c-.23,0-.34.07-.34.22,0,.73,0,1.85.12,3.35a9.94,9.94,0,0,0,.14,1.61l-.12.26h-.22l-.12-.12q-.24-7.08-.24-9.66a1.06,1.06,0,0,1,0-.27.42.42,0,0,1,.1-.2.22.22,0,0,1,.21-.11,2,2,0,0,1,1.26.38,1.35,1.35,0,0,1,.48,1.11V127a2.33,2.33,0,0,1-.2.78,5.34,5.34,0,0,1-.42.9l-.2.39c.11.52.34,1.46.67,2.81s.51,2.07.54,2.15a.19.19,0,0,1,0,.08l.1.18a.93.93,0,0,1,.11.37c0,.15-.06.22-.17.22Zm-1.29-6.16a2.62,2.62,0,0,0,.37-.75,6.41,6.41,0,0,0,.24-1.49,3.09,3.09,0,0,0,0-.58,2.38,2.38,0,0,0-.13-.49.81.81,0,0,0-.87-.54s-.09,0-.12.13a.86.86,0,0,0-.05.27c0,.68,0,1.3,0,1.85s0,1.17,0,1.86l0,0A.67.67,0,0,0,28.15,128.63Z"/><path class="cls-10" d="M32,134.45l-.12,0h-.12c-.23,0-.37-.05-.43-.15a.22.22,0,0,1,.12-.19l.08-.08h.44L32,134l0-.13,0-.19c0-.62,0-1.18-.05-1.67l0-.57,0-1.12c0-.39,0-1,0-1.79l0-1.78a15.53,15.53,0,0,0-.08-1.78,1.66,1.66,0,0,0-.46,0h-.17l-.2,0c-.19,0-.29-.09-.29-.26s.05-.08.14-.13a.6.6,0,0,1,.23-.06,11.12,11.12,0,0,1,1.16.06,3,3,0,0,1,.71.14c.18.06.27.15.27.26a.4.4,0,0,1,0,.13l-.35,0a.69.69,0,0,0-.45-.1l-.08,0a3.16,3.16,0,0,1,0,.81c0,.68,0,1.29,0,1.83l0,1.82c0,.46,0,1,.07,1.67s0,1.31,0,1.69v.2a2.1,2.1,0,0,0,0,.27,1.18,1.18,0,0,0,0,.43v0c0,.11.11.16.33.16l.24,0h.22c.3,0,.45.07.45.22a.29.29,0,0,1-.09.22.34.34,0,0,1-.25.08.88.88,0,0,1-.24,0h-.26a.75.75,0,0,0-.28.07.59.59,0,0,1-.28.1C32.13,134.61,32,134.56,32,134.45Z"/><path class="cls-10" d="M35,134.66a.32.32,0,0,1-.17-.24l.07-.12.28,0a.83.83,0,0,0,.28.06.79.79,0,0,0,.59-.27,1.65,1.65,0,0,0,.4-.7,5.5,5.5,0,0,0,.22-1.5,4.87,4.87,0,0,0-.65-2.27c-.26-.47-.47-.84-.61-1.12a6.06,6.06,0,0,1-.38-1,3.78,3.78,0,0,1-.2-1.21,3.92,3.92,0,0,1,.27-1.3,1.64,1.64,0,0,1,.39-.58.8.8,0,0,1,.55-.22.69.69,0,0,1,.39.14.37.37,0,0,1,.19.29c0,.08-.07.12-.2.12a.34.34,0,0,1-.15,0,.3.3,0,0,0-.17,0,.57.57,0,0,0-.41.18,1,1,0,0,0-.28.48,3.45,3.45,0,0,0-.18,1,2.58,2.58,0,0,0,.07.6q0,.09,0,.15a.51.51,0,0,1,0,.09l.09.31.08.28.12.27a.85.85,0,0,0,.1.19l.1.17.18.32c0,.06.13.2.26.43a6.24,6.24,0,0,1,.37.73,3.91,3.91,0,0,1,.23.61,6.16,6.16,0,0,1,.14.68,7.3,7.3,0,0,1,.05.84,4.75,4.75,0,0,1-.2,1.38,2,2,0,0,1-.8,1.08,1.27,1.27,0,0,1-.67.18l-.08,0A.8.8,0,0,1,35,134.66Zm1.54-9.86s0,0,0,0v0Z"/><path class="cls-10" d="M40,134.39v-.57c0-.16,0-.34,0-.55a1.84,1.84,0,0,1,0-.26v-.27a1.35,1.35,0,0,0-.06-.37c0-.69,0-2-.15-3.82s-.16-3-.17-3.66a10.88,10.88,0,0,1-1.27,0c-.21,0-.31-.13-.31-.25a.29.29,0,0,1,.29-.16c.31,0,.75,0,1.34.06s1,.07,1.33.07h.64c.19,0,.28.07.28.2a.15.15,0,0,1-.1.14.48.48,0,0,1-.24.06l-.64,0-.66,0s-.06,0-.06,0a1.33,1.33,0,0,0,0,.29c0,1,.06,2.5.19,4.51s.17,3.58.17,4.49c0,.08,0,.14-.14.2a.43.43,0,0,1-.25.09Z"/><path class="cls-10" d="M45.84,134.79a3.13,3.13,0,0,1-.4-1.06c-.14-.57-.27-1.21-.4-1.93a14.72,14.72,0,0,0-.35-1.73c-.12-.51-.24-.77-.35-.77h-.05c-.22,0-.34.07-.34.22,0,.73,0,1.85.13,3.35a8.8,8.8,0,0,0,.14,1.61l-.13.26h-.21l-.12-.12q-.25-7.08-.25-9.66a1.87,1.87,0,0,1,0-.27.54.54,0,0,1,.1-.2.24.24,0,0,1,.22-.11,1.94,1.94,0,0,1,1.25.38,1.35,1.35,0,0,1,.48,1.11V127a2.27,2.27,0,0,1-.19.78,7.56,7.56,0,0,1-.42.9l-.2.39c.11.52.33,1.46.66,2.81S46,133.94,46,134a.56.56,0,0,1,0,.08.56.56,0,0,0,.1.18.89.89,0,0,1,.1.37c0,.15,0,.22-.17.22Zm-1.29-6.16a2.19,2.19,0,0,0,.37-.75,6.52,6.52,0,0,0,.25-1.49,4.26,4.26,0,0,0,0-.58,3.24,3.24,0,0,0-.13-.49.83.83,0,0,0-.88-.54s-.09,0-.12.13a.86.86,0,0,0,0,.27c0,.68,0,1.3,0,1.85s0,1.17,0,1.86l0,0A.65.65,0,0,0,44.55,128.63Z"/><path class="cls-10" d="M47.93,134.48v-.2c0-.05,0-.11,0-.18l-.06-.06a1.8,1.8,0,0,0,.12-.63c0-.23,0-.57,0-1l0-1c0-.51,0-1.28,0-2.3s.06-1.68.06-2.32l0-.92c0-.27,0-.58,0-.92a.45.45,0,0,1,.11-.33.51.51,0,0,1,.34-.1.32.32,0,0,1,.24.09,1.86,1.86,0,0,0,.44.07,2.72,2.72,0,0,1,.66.14c.2.06.3.13.3.22s-.1.21-.3.31a4.72,4.72,0,0,0-1.24-.29l-.07.09c0,.09,0,.31,0,.66s0,.83,0,1.18,0,.76,0,1.2c0,.28.07.43.21.43l.25,0h.26c.39,0,.59.09.59.27a.54.54,0,0,1-.07.29.27.27,0,0,1-.23.11.51.51,0,0,1-.36-.12l-.49-.08h-.07l-.08.08v0c0,.18,0,.58,0,1.22,0,.39,0,.76,0,1.08l0,1.09c0,.4,0,.81,0,1.23a.67.67,0,0,0,.15.47.87.87,0,0,0,.51.11h.27l.31,0c.29,0,.44.07.44.2s-.22.28-.67.28H48.23C48.05,134.81,47.94,134.7,47.93,134.48Z"/><path class="cls-10" d="M52.88,134.39l0-.57c0-.16,0-.34,0-.55a2,2,0,0,1,0-.26l0-.27a1.35,1.35,0,0,0-.06-.37c0-.69-.06-2-.16-3.82s-.16-3-.17-3.66a11,11,0,0,1-1.27,0c-.2,0-.31-.13-.31-.25a.3.3,0,0,1,.3-.16c.3,0,.75,0,1.33.06s1,.07,1.33.07h.65c.18,0,.27.07.27.2a.15.15,0,0,1-.1.14.41.41,0,0,1-.23.06l-.65,0-.66,0s-.06,0-.06,0a1.72,1.72,0,0,0,0,.29c0,1,.06,2.5.18,4.51s.17,3.58.17,4.49a.23.23,0,0,1-.13.2.45.45,0,0,1-.25.09Z"/><path class="cls-10" d="M57.43,134.39v-.57a4.61,4.61,0,0,1,0-.55,1,1,0,0,1,0-.26v-.27a1.35,1.35,0,0,0-.06-.37c0-.69,0-2-.15-3.82s-.16-3-.17-3.66a11.1,11.1,0,0,1-1.28,0c-.2,0-.3-.13-.3-.25a.29.29,0,0,1,.29-.16c.31,0,.75,0,1.33.06s1,.07,1.34.07h.64c.19,0,.28.07.28.2a.16.16,0,0,1-.1.14A.48.48,0,0,1,59,125l-.64,0-.66,0s-.07,0-.07,0,0,.13,0,.29c0,1,.06,2.5.18,4.51s.17,3.58.17,4.49a.23.23,0,0,1-.13.2.45.45,0,0,1-.25.09Z"/><path class="cls-10" d="M60.77,129.26v-.54c0-2.85.37-4.28,1.11-4.28a.76.76,0,0,1,.21,0,4.33,4.33,0,0,0,1,.21c.19,0,.38.24.58.6a4.62,4.62,0,0,1,.48,1.46,10.27,10.27,0,0,1,.16,1.85l0,.08c0,.34,0,.64,0,.9v.92c0,.52,0,1-.06,1.41a8.32,8.32,0,0,1-.3,1.64,3.19,3.19,0,0,1-.32.69,1.49,1.49,0,0,1-.44.46.91.91,0,0,1-.59.19Q60.77,134.9,60.77,129.26Zm2.62,4.35a6.57,6.57,0,0,0,.36-1.75q.06-.92.06-1.47c0-.41,0-1-.09-1.81s-.08-1.49-.08-1.81l-.06-.12,0-.08a1.86,1.86,0,0,0-.38-1.16,1.1,1.1,0,0,0-.91-.49.76.76,0,0,0-.84.67c0,.16,0,.37-.06.66a7.58,7.58,0,0,1-.1,1.55c0,.15,0,.39,0,.72l0,.72c0,.23,0,.43,0,.6l0,.61a13.33,13.33,0,0,0,.12,1.66,8,8,0,0,0,.22,1.16,2.45,2.45,0,0,0,.35.82.64.64,0,0,0,.53.36C62.9,134.45,63.2,134.17,63.39,133.61Z"/></g></svg>