<svg xmlns="http://www.w3.org/2000/svg" viewBox="0 0 18.4 29.98"><defs><style>.cls-1{fill:none;}.cls-2{fill:#4d495b;}.cls-3{fill:#eef8f9;}.cls-4{fill:#dae4e5;}.cls-5{fill:#964236;}.cls-6{fill:#7f372f;}.cls-7{fill:#fcdad6;}.cls-8{fill:#e0d9f9;}.cls-9{fill:#451711;}.cls-10{fill:#f9d9d7;}</style></defs><g id="coffee_types_illustration_pack" data-name="coffee types illustration pack"><rect class="cls-1" width="18.4" height="29.98" rx="8"/><path class="cls-2" d="M5.1,20.73S5,18.9,9,18.9s4,1.83,4,1.83S13.09,22,9,22,5.1,20.73,5.1,20.73Z"/><path class="cls-3" d="M9.08,17.67c-4.62,0-4.33,1.72-4.33,1.72s.19.62,1.87.95h0s-.2.71,2.4.71c2.44,0,2.4-.71,2.4-.71h0c1.69-.33,1.87-.95,1.87-.95S13.69,17.67,9.08,17.67Z"/><path class="cls-4" d="M9.05,18.18c-3.2,0-3.31.87-3.31.87s.14.6,3.28.6c2.9,0,3.16-.6,3.16-.6S12.11,18.18,9.05,18.18Z"/><path class="cls-4" d="M9.13,20.48a11.22,11.22,0,0,0-1.21,0,8.24,8.24,0,0,1-1.59-.2c-.06.14.92.22,1.58.28A2.87,2.87,0,0,0,9.13,20.48Z"/><path class="cls-3" d="M12.48,10.5V11s1.87-.46,1.9,1.32-1.9,1.32-1.9,1.32v.59s2.56.31,2.56-2S12.48,10.5,12.48,10.5Z"/><path class="cls-3" d="M12.36,18.1,13,6.8H5.44L6,18.32a1.11,1.11,0,0,0,1.23,1h3.69A1.32,1.32,0,0,0,12.36,18.1Z"/><path class="cls-3" d="M9.22,5.29C5.58,5.29,5.44,6.8,5.44,6.8s.64,1.44,3.9,1.44S13,6.8,13,6.8,12.85,5.29,9.22,5.29Z"/><path class="cls-5" d="M6,13.5l.22,4.62a1,1,0,0,0,1.15,1h3.45a1.27,1.27,0,0,0,1.35-1.24l.23-4.4Z"/><path class="cls-6" d="M11.15,13.5l-.23,4.4a1.27,1.27,0,0,1-1.35,1.24h1.27a1.27,1.27,0,0,0,1.35-1.24l.23-4.4Z"/><path class="cls-5" d="M9.22,12.23C6.13,12.23,6,13.5,6,13.5s.8.95,3.11.95a4.85,4.85,0,0,0,3.29-.95S12.31,12.23,9.22,12.23Z"/><path class="cls-6" d="M9.22,12.23H8.77c2,.27,2,1.2,2,1.2A4.6,4.6,0,0,1,8,14.37a7.18,7.18,0,0,0,1.1.08,4.85,4.85,0,0,0,3.29-.95S12.31,12.23,9.22,12.23Z"/><path class="cls-7" d="M6.71,13.11c0-.13.24-.25.14-.28s-.48.13-.53.49.46.62.62.46S6.65,13.35,6.71,13.11Z"/><path class="cls-7" d="M7,12.73s0,0,0,.08,0,.07,0,.07a.07.07,0,0,0,0-.07C7,12.74,7,12.73,7,12.73Z"/><path class="cls-7" d="M7.08,12.82s0,0,0-.05a0,0,0,0,0,0,0s0,0,0,0S7.08,12.82,7.08,12.82Z"/><path class="cls-7" d="M7.12,13.66s-.09,0-.09.16.09.14.09.14a.16.16,0,0,0,0-.3Z"/><path class="cls-8" d="M8.88,3.48c0-.57-.71-.67-.69-.35a.36.36,0,0,1,.33.4c0,.39-.51.27-.53.72s.62.72.76.46-.33-.36-.27-.54S8.91,4.05,8.88,3.48Z"/><path class="cls-8" d="M10,3.07c0-.57-.71-.67-.7-.36a.37.37,0,0,1,.33.41c0,.38-.5.27-.53.72s.63.72.77.46-.33-.36-.27-.55S10,3.63,10,3.07Z"/><path class="cls-8" d="M10.56,4.35c.06-.18.42-.11.4-.68s-.71-.67-.7-.35a.36.36,0,0,1,.33.4c0,.39-.5.27-.53.72s.63.72.77.46S10.5,4.54,10.56,4.35Z"/><path class="cls-9" d="M13.58,25.78a2.08,2.08,0,0,1-2.08,2.08H6.82a2.08,2.08,0,0,1-2.08-2.08h0A2.09,2.09,0,0,1,6.82,23.7H11.5a2.08,2.08,0,0,1,2.08,2.08Z"/><path class="cls-9" d="M2.77,24.43c-.36.69,1.4,1.1,1.55.58C4.32,25,3.13,23.75,2.77,24.43Z"/><path class="cls-9" d="M2.25,26.39c.08.84,1.92.16,1.74-.41C4,26,2.16,25.55,2.25,26.39Z"/><path class="cls-9" d="M15.63,24.43c.36.69-1.4,1.1-1.54.58C14.09,25,15.27,23.75,15.63,24.43Z"/><path class="cls-9" d="M16.16,26.39c-.09.84-1.93.16-1.75-.41C14.41,26,16.24,25.55,16.16,26.39Z"/><path class="cls-10" d="M5.61,24.64h0s0,0,.1,0a.31.31,0,0,1,.18.16,1,1,0,0,1,.1.36v.06a.64.64,0,0,1-.22.55c.17.05.27.25.3.61v.23a.82.82,0,0,0,0,.14l0,0h0l0,0a1.36,1.36,0,0,1,0-.18V26.4A.86.86,0,0,0,5.89,26a.28.28,0,0,0-.17-.09h0v.41c0,.2,0,.3,0,.33h0a0,0,0,0,1,0,0s0,0,0,0v0c0-.16,0-.27,0-.33v-.35l0,0v0s0,0,0,0c0-.54,0-.93-.08-1.17Zm0,.08c0,.29,0,.64.07,1.07a.57.57,0,0,0,.23-.5V25.2a1,1,0,0,0-.13-.39.31.31,0,0,0-.15-.09Z"/><path class="cls-10" d="M6.59,24.81h0s0,.11,0,.31v.08c0,.08,0,.27,0,.59,0,0,0,0,0,.05,0,.2,0,.36,0,.48v.39l0,.05s0,0,0,0h0s0-.06,0-.16c0-.68,0-1.15,0-1.4v-.17a1.66,1.66,0,0,0,0-.24S6.57,24.82,6.59,24.81Z"/><path class="cls-10" d="M7.4,24.83l0,0h0l0,0H7.33a.21.21,0,0,0-.21.11.88.88,0,0,0,0,.29,1,1,0,0,0,.09.31,2.32,2.32,0,0,0,.31.32.68.68,0,0,1,.08.73c0,.05-.08.09-.18.13l-.08,0s0,0,0,0h0s0,0,.06,0,.2-.1.2-.16a.68.68,0,0,0,0-.27.68.68,0,0,0-.2-.44,1,1,0,0,1-.23-.23.71.71,0,0,1-.11-.3v-.07a.74.74,0,0,1,.07-.34C7.14,24.86,7.24,24.83,7.4,24.83Z"/><path class="cls-10" d="M8.48,24.9l0,0h0s-.06,0-.17,0H8.17l0,0v.31c0,.59.05,1,.05,1.27h0s0,0,0,0v0s0,0,0,0h0l0,0a.18.18,0,0,1,0-.05c0-.09,0-.51-.06-1.27,0-.12,0-.24,0-.34H7.88s0,0,0,0l0,0h.6Z"/><path class="cls-10" d="M8.84,24.64h0s0,0,.1,0a.31.31,0,0,1,.18.16,1,1,0,0,1,.1.36v.06a.64.64,0,0,1-.22.55c.17.05.27.25.3.61v.23a.82.82,0,0,0,0,.14l0,0h0l0,0a1.36,1.36,0,0,1,0-.18V26.4A.86.86,0,0,0,9.13,26,.28.28,0,0,0,9,25.86H9v.41c0,.2,0,.3,0,.33H9a0,0,0,0,1,0,0s0,0,0,0v0c0-.16,0-.27,0-.33v-.35l0,0v0s0,0,0,0c0-.54-.05-.93-.08-1.17Zm.05.08c0,.29,0,.64.07,1.07a.57.57,0,0,0,.22-.5V25.2a.93.93,0,0,0-.12-.39.31.31,0,0,0-.15-.09Z"/><path class="cls-10" d="M9.8,24.77l.13,0h.16v0s0,0,0,0H9.85a2.45,2.45,0,0,1,0,.32c0,.34,0,.55,0,.61a.87.87,0,0,0,.25,0l0,0h0s0,0,0,0l-.24,0c0,.39,0,.65,0,.79v.11h0l.22,0h0l0,0h0l0,0H10l-.18,0h0s-.06,0-.07-.07v-.1c0-.17,0-.66.08-1.48v0a1.23,1.23,0,0,0,0-.35Z"/><path class="cls-10" d="M11.1,24.9v0h0s0,0-.16,0h-.16s0,0,0,0v.31c0,.59.06,1,.06,1.27h0v.05s0,0,0,0h0l0,0v-.05c0-.09,0-.51,0-1.27,0-.12,0-.24,0-.34h-.22s0,0,0,0l0,0h.6Z"/><path class="cls-10" d="M12,24.9l0,0h0s-.06,0-.17,0h-.16l0,0v.31c0,.59.05,1,.05,1.27h0s0,0,0,0v0l0,0h0s0,0,0,0a.18.18,0,0,1,0-.05c0-.09,0-.51-.06-1.27,0-.12,0-.24,0-.34H11.4s0,0,0,0l0,0H12Z"/><path class="cls-10" d="M12.61,24.89h0s.07.06.11.19a6.36,6.36,0,0,1,.06.87,2.22,2.22,0,0,1-.08.8.12.12,0,0,1-.09.06h0c-.11,0-.17-.17-.2-.51,0-.13,0-.32,0-.56v-.11a1.83,1.83,0,0,1,.11-.64v0Zm-.16.75c0,.4,0,.67.05.81s.08.3.14.3.12-.26.12-.79h0a4.73,4.73,0,0,0-.07-.89c0-.07,0-.11-.06-.11h0c-.07,0-.12.22-.15.52Z"/></g></svg>