<svg xmlns="http://www.w3.org/2000/svg" viewBox="0 0 92.06 150"><defs><style>.cls-1{fill:none;}.cls-2{fill:#4d495b;}.cls-3{fill:#eef8f9;}.cls-4{fill:#ea8b5c;}.cls-5{fill:#e57c4e;}.cls-6{fill:#edb379;}.cls-7{fill:#e8a76d;}.cls-8{fill:#ffd8a6;}.cls-9{fill:#fccb95;}.cls-10{fill:#f7be86;}.cls-11{fill:#fcf1e6;}.cls-12{fill:#451711;}.cls-13{fill:#f5f4ff;}</style></defs><g id="coffee_types_illustration_pack" data-name="coffee types illustration pack"><rect class="cls-1" x="-0.05" y="-0.09" width="92.17" height="150.17" rx="8"/><path class="cls-2" d="M25.32,100.9S24.78,91.16,46,91.16,67.2,100.9,67.2,100.9s.71,6.54-21.17,6.54S25.32,100.9,25.32,100.9Z"/><path class="cls-3" d="M64.46,53.67l-.07,2.86s10-2.44,10.16,7c.2,9.11-10.16,7.06-10.16,7.06v3.13s13.68,1.69,13.68-10.82S64.46,53.67,64.46,53.67Z"/><path class="cls-3" d="M63.81,94.16,67.2,33.93H26.92l3,61.44c.13,1.37,1,5.53,6.57,5.53H56.13C62.61,100.9,63.64,95.86,63.81,94.16Z"/><path class="cls-4" d="M29.45,68.17l1.26,26.45c.11,1.35.91,5.46,6.29,5.46H55.84c6.23,0,7.22-5,7.37-6.65L64.6,68.17Z"/><path class="cls-5" d="M57.17,68.17,55.79,93.43c-.16,1.67-1.15,6.65-7.37,6.65h7.42c6.23,0,7.22-5,7.37-6.65L64.6,68.17Z"/><polygon class="cls-6" points="28.48 47.74 29.5 69.21 64.54 69.21 65.71 47.74 28.48 47.74"/><polygon class="cls-7" points="58.51 47.74 57.33 69.21 64.46 69.21 65.64 47.74 58.51 47.74"/><polygon class="cls-8" points="65.7 48.06 66.47 33.93 27.83 33.93 28.5 48.06 65.7 48.06"/><polygon class="cls-9" points="59.32 33.93 58.54 48.06 65.7 48.06 66.47 33.93 59.32 33.93"/><path class="cls-3" d="M47.06,25.87c-19.38,0-20.14,8.06-20.14,8.06s3.4,7.68,20.77,7.68S67.2,33.93,67.2,33.93,66.45,25.87,47.06,25.87Z"/><path class="cls-8" d="M59.52,23.48S57.64,11.27,46.06,10.26c0,0,1.38,4.54-.38,7S32.84,19.58,32.21,27c0,0-5.79,3.14-2.9,8.18,0,0,4.05,5.41,17.64,5.41s18.62-5.41,18.62-5.41S67,25.37,59.52,23.48Z"/><path class="cls-9" d="M59.5,23.48S57.61,11.27,46,10.26a14.4,14.4,0,0,1,.46,2.44c2.77.55,6.71,2,7.79,5.79C56,24.53,51.85,26,52.52,29s8.81-3.27,8.8,2.43-2.55,7.48-2.56,7.49c4.81-1.59,6.78-3.71,6.78-3.71S66.93,25.37,59.5,23.48Z"/><path class="cls-10" d="M34.17,28.05a3.73,3.73,0,0,1-2.42-2.18c-.69.15-.09,1.93,2.42,2.73s4,.21,3.91-.34S36.2,28.81,34.17,28.05Z"/><path class="cls-11" d="M43.13,19.7c-.69-.91-2,.89-3.31,1.42a10.32,10.32,0,0,1-3,.6c-.53.38.26,1.54,3.17,1S43.82,20.62,43.13,19.7Z"/><path class="cls-11" d="M31.08,30.34c.41-1.23.56-1.48.12-1.51a4.36,4.36,0,0,0-1.92,2.9c-.22,1.85,1.16,3.77,2.2,3.11S30.67,31.57,31.08,30.34Z"/><path class="cls-10" d="M60.11,21.76s-.75,2.6-2.22,3.53-3.19,1-3.15,1.51,1.89,0,4-1.7S60.49,21.68,60.11,21.76Z"/><path class="cls-12" d="M68.81,129.15a10.41,10.41,0,0,1-10.42,10.41H35a10.41,10.41,0,0,1-10.42-10.41h0A10.41,10.41,0,0,1,35,118.73H58.39a10.41,10.41,0,0,1,10.42,10.42Z"/><path class="cls-12" d="M71.43,113.05c3.11,2.33-4,8-5.76,5.89C65.67,118.94,68.32,110.71,71.43,113.05Z"/><path class="cls-12" d="M78,120.79c1.41,4-8.39,4.83-8.78,1.88C69.23,122.67,76.6,116.8,78,120.79Z"/><path class="cls-12" d="M20.87,145C17.7,142.8,24.61,137,26.46,139,26.46,139,24,147.29,20.87,145Z"/><path class="cls-12" d="M14.08,137.49c-1.53-4,8.24-5.07,8.71-2.13C22.79,135.36,15.6,141.43,14.08,137.49Z"/><path class="cls-13" d="M37.15,134a1,1,0,0,1-.49-.65,8,8,0,0,1-.29-1.54,22.33,22.33,0,0,1-.18-2.41c0-.35,0-.74.06-1.2l.09-1a16.85,16.85,0,0,1,.18-1.74,2.36,2.36,0,0,1,.44-1,1.48,1.48,0,0,1,1.07-.53l.24,0c.32,0,.48.07.48.22a.19.19,0,0,1-.1.16.44.44,0,0,1-.21.07l-.15,0h-.14a.7.7,0,0,0-.47.17,1.25,1.25,0,0,0-.34.49,5.43,5.43,0,0,0-.41,1.5c-.09.64-.14,1.2-.16,1.68v1.18a10.23,10.23,0,0,0,0,1.12A1.41,1.41,0,0,1,37,131c0,.23,0,.54.07.94a4.31,4.31,0,0,0,.13.91,1.29,1.29,0,0,0,.39.62,1.21,1.21,0,0,0,.84.26.64.64,0,0,0,.63-.49,3.55,3.55,0,0,0,.25-1.07c0-.46,0-.85,0-1.16v-.85a.75.75,0,0,0-.53-.15h-.3q-.36,0-.36-.18c0-.17.12-.26.36-.26h.43l.34,0a2.6,2.6,0,0,1,.46.11c.12,0,.18.09.18.17a2.51,2.51,0,0,1-.09.56,3.92,3.92,0,0,0-.07.59c0,.42,0,.81,0,1.16s0,.75,0,1.18a2.24,2.24,0,0,1-1.56.8A2.53,2.53,0,0,1,37.15,134Z"/><path class="cls-13" d="M41.6,133.92a2.38,2.38,0,0,0,0-.51c0-.94,0-2.33,0-4.18s0-3.17,0-4l0-.55,0-.46a.1.1,0,0,1,.11-.11.76.76,0,0,1,.21,0h.05c0,.23,0,.43,0,.62v2.26c0,.5,0,1.05,0,1.68a2,2,0,0,0,0,.33v.33c0,.2,0,.41,0,.62s0,.45,0,.65v.66l0,.12v0s0,.06,0,.07v.06a.46.46,0,0,0,0,.21l0,1.47v.1a1.8,1.8,0,0,0,0,.3.07.07,0,0,0,.08.08l.8,0h.69a.2.2,0,0,1,.15.09.27.27,0,0,1,.08.18c0,.12-.09.18-.25.19H42.43l-.29,0a1.2,1.2,0,0,1-.28,0C41.72,134.27,41.63,134.15,41.6,133.92Z"/><path class="cls-13" d="M48.13,134.16a.53.53,0,0,1-.09-.29c-.09-.74-.15-1.21-.17-1.39l-.08-.62a3.51,3.51,0,0,0-.76-.07l-.55,0c-.25,0-.43,0-.54,0a.1.1,0,0,0-.11.08s0,0,0,0l0,.31c0,.18-.07.55-.17,1.1a2.43,2.43,0,0,1-.19.65c-.08.17-.16.26-.23.26a.35.35,0,0,1-.2-.09.21.21,0,0,1-.1-.17v0l0,0c.18-.73.34-1.45.46-2.17l.18-.95.19-1.16.16-1,.28-1.34c.14-.69.23-1.17.26-1.42t.06-.57c0-.39.08-.67.11-.86a1.45,1.45,0,0,1,.09-.46h.11l.11,0a.33.33,0,0,0,.27-.1.32.32,0,0,1,.19.07.21.21,0,0,1,.09.16,13.36,13.36,0,0,0,.11,1.69q.06.49.09.81.16,2,.86,7.42v0a.25.25,0,0,1-.13.23A.57.57,0,0,1,48.13,134.16Zm-.41-2.71c-.1-1.47-.3-3.64-.58-6.52l-.83,4.1a14.92,14.92,0,0,0-.35,2.22c0,.05.19.1.58.14a10.17,10.17,0,0,0,1,.06Z"/><path class="cls-13" d="M51.34,134.18a1.48,1.48,0,0,1-.5-.26,1.55,1.55,0,0,1-.39-.51,4.25,4.25,0,0,1-.39-1.76c0-.35,0-.65,0-.92V129c0-.66,0-1.31.06-1.93a9.91,9.91,0,0,1,.14-1.17,5.15,5.15,0,0,1,.29-.95,1.85,1.85,0,0,1,.48-.69,1.64,1.64,0,0,1,.41-.21l.39-.17h.65l0,0h.08l.06,0s0,0,0,.06,0,0,0,.09l-.2.23h-.64a.7.7,0,0,0-.53.28,1.87,1.87,0,0,0-.36.72,5.54,5.54,0,0,0-.2.9,9,9,0,0,0-.09.91c0,.32,0,.55,0,.67l0,.08c0,.57,0,1.09,0,1.55l0,1.54a7,7,0,0,0,.1,1.25,2.31,2.31,0,0,0,.44,1.1,1.25,1.25,0,0,0,1.09.49.56.56,0,0,0,.38-.14c.16,0,.23.06.23.17s-.06.16-.19.25a1.59,1.59,0,0,1-.39.23H51.7Z"/><path class="cls-13" d="M54.56,134v-.2a1,1,0,0,0,0-.18l-.06-.07a1.75,1.75,0,0,0,.12-.62c0-.24,0-.58,0-1l0-1c0-.51,0-1.28,0-2.3s.06-1.68.06-2.31l0-.92c0-.28,0-.59,0-.92a.42.42,0,0,1,.11-.33.46.46,0,0,1,.34-.1.32.32,0,0,1,.24.09l.45.06a3.63,3.63,0,0,1,.66.14c.19.06.29.14.29.23s-.1.2-.29.31a4.45,4.45,0,0,0-1.25-.29l-.07.09c0,.09,0,.31,0,.66s0,.83,0,1.18,0,.75,0,1.19.07.43.21.43h.25l.26,0c.4,0,.59.09.59.28a.51.51,0,0,1-.07.28.26.26,0,0,1-.23.12.43.43,0,0,1-.35-.13l-.49-.07h-.08l-.08.07v0c0,.17,0,.58,0,1.21,0,.4,0,.76,0,1.09l0,1.09c0,.4,0,.8,0,1.22a.65.65,0,0,0,.15.47.79.79,0,0,0,.51.12l.27,0h.31c.3,0,.44.06.44.2s-.22.27-.67.27H54.86C54.68,134.27,54.58,134.16,54.56,134Z"/></g></svg>