<svg xmlns="http://www.w3.org/2000/svg" viewBox="0 0 18.4 29.98"><defs><style>.cls-1{fill:none;}.cls-2{fill:#4d495b;}.cls-3{fill:#eef8f9;}.cls-4{fill:#ea8b5c;}.cls-5{fill:#e57c4e;}.cls-6{fill:#edb379;}.cls-7{fill:#e8a76d;}.cls-8{fill:#ffd8a6;}.cls-9{fill:#fccb95;}.cls-10{fill:#f7be86;}.cls-11{fill:#fcf1e6;}.cls-12{fill:#451711;}.cls-13{fill:#f9d9d7;}</style></defs><g id="coffee_types_illustration_pack" data-name="coffee types illustration pack"><rect class="cls-1" width="18.4" height="29.98" rx="8"/><path class="cls-2" d="M5.07,20.16S5,18.22,9.2,18.22s4.23,1.94,4.23,1.94.14,1.31-4.23,1.31S5.07,20.16,5.07,20.16Z"/><path class="cls-3" d="M12.88,10.73v.57s2-.48,2,1.4-2,1.41-2,1.41v.63s2.73.34,2.73-2.16S12.88,10.73,12.88,10.73Z"/><path class="cls-3" d="M12.75,18.82l.68-12h-8L6,19.06a1.17,1.17,0,0,0,1.31,1.1h3.92A1.41,1.41,0,0,0,12.75,18.82Z"/><path class="cls-4" d="M5.89,13.63l.25,5.28A1.15,1.15,0,0,0,7.4,20h3.76a1.37,1.37,0,0,0,1.47-1.33l.28-5Z"/><path class="cls-5" d="M11.43,13.63l-.28,5A1.37,1.37,0,0,1,9.68,20h1.48a1.37,1.37,0,0,0,1.47-1.33l.28-5Z"/><polygon class="cls-6" points="5.7 9.55 5.9 13.84 12.9 13.84 13.13 9.55 5.7 9.55"/><polygon class="cls-7" points="11.69 9.55 11.46 13.84 12.88 13.84 13.12 9.55 11.69 9.55"/><polygon class="cls-8" points="13.13 9.61 13.28 6.79 5.57 6.79 5.7 9.61 13.13 9.61"/><polygon class="cls-9" points="11.85 6.79 11.7 9.61 13.13 9.61 13.28 6.79 11.85 6.79"/><path class="cls-3" d="M9.41,5.18c-3.87,0-4,1.61-4,1.61s.67,1.53,4.14,1.53,3.9-1.53,3.9-1.53S13.28,5.18,9.41,5.18Z"/><path class="cls-8" d="M11.9,4.71A3.15,3.15,0,0,0,9.21,2.07a2,2,0,0,1-.08,1.4c-.35.51-2.56.46-2.69,1.94,0,0-1.15.63-.58,1.63,0,0,.81,1.08,3.52,1.08S13.1,7,13.1,7,13.38,5.08,11.9,4.71Z"/><path class="cls-9" d="M11.89,4.71A3.15,3.15,0,0,0,9.2,2.07a2.2,2.2,0,0,1,.09.48,1.87,1.87,0,0,1,1.56,1.16c.34,1.2-.49,1.51-.35,2.09s1.76-.65,1.75.49-.51,1.49-.51,1.49A3.35,3.35,0,0,0,13.1,7S13.37,5.08,11.89,4.71Z"/><path class="cls-10" d="M6.83,5.62a.75.75,0,0,1-.48-.44c-.14,0,0,.39.48.55s.8,0,.78-.07S7.24,5.77,6.83,5.62Z"/><path class="cls-11" d="M8.62,4c-.14-.18-.39.18-.66.28a2,2,0,0,1-.6.12c-.11.08,0,.31.63.2S8.76,4.13,8.62,4Z"/><path class="cls-11" d="M6.22,6.08c.08-.25.11-.3,0-.31a.87.87,0,0,0-.38.58c-.05.37.23.76.44.62S6.13,6.32,6.22,6.08Z"/><path class="cls-10" d="M12,4.36a1.49,1.49,0,0,1-.44.71c-.29.18-.64.2-.63.3s.38,0,.8-.34S12.09,4.35,12,4.36Z"/><path class="cls-12" d="M13.75,25.8a2.08,2.08,0,0,1-2.08,2.08H7A2.08,2.08,0,0,1,4.91,25.8h0A2.08,2.08,0,0,1,7,23.72h4.68a2.08,2.08,0,0,1,2.08,2.08Z"/><path class="cls-12" d="M14.27,22.59c.62.46-.79,1.59-1.15,1.18C13.12,23.77,13.65,22.12,14.27,22.59Z"/><path class="cls-12" d="M15.59,24.13c.28.8-1.68,1-1.76.38C13.83,24.51,15.3,23.34,15.59,24.13Z"/><path class="cls-12" d="M4.18,29c-.64-.45.74-1.61,1.11-1.21C5.29,27.77,4.81,29.42,4.18,29Z"/><path class="cls-12" d="M2.82,27.47c-.3-.79,1.65-1,1.74-.43C4.56,27,3.13,28.26,2.82,27.47Z"/><path class="cls-13" d="M7.56,25h0a.19.19,0,0,1,.16.08h0l0,0-.07,0H7.55c-.11,0-.16.31-.16.87a1.4,1.4,0,0,0,.1.61.22.22,0,0,0,.11.1h0c.07,0,.1,0,.1-.08a1.05,1.05,0,0,0,0-.31v-.28h0a.58.58,0,0,1-.21,0v0h0v0h0l.22,0a.22.22,0,0,1,0,.1v.13a.25.25,0,0,1,0,.08v0c0,.27-.06.4-.12.4s0,0-.08,0h0a.44.44,0,0,1-.15-.1,1.54,1.54,0,0,1-.11-.66c0-.57.06-.87.17-.92Z"/><path class="cls-13" d="M8.28,24.8h0l0,0a0,0,0,0,1,0,0h0c0,.37,0,.69,0,.95a3.13,3.13,0,0,1,0,.34v.45h.3v0s0,0-.09,0H8.32l0,0v0s0,0,0,0v-.44c0-.45,0-.82,0-1.12v-.17A0,0,0,0,1,8.28,24.8Z"/><path class="cls-13" d="M9.15,24.9h0s.09.08.13.18a6.24,6.24,0,0,1,.21,1.12,2,2,0,0,1,0,.4h0a1.67,1.67,0,0,1-.07-.41s0-.14,0-.34h0q-.27,0-.27.06v.19l0,.48a0,0,0,0,1,0,0s0,0,0,0,0,0,0-.06c0-.36,0-.58,0-.65V25.8A5.32,5.32,0,0,1,9.07,25C9.09,24.94,9.11,24.9,9.15,24.9Zm0,.06a3.07,3.07,0,0,0-.08.75v.14a1.12,1.12,0,0,1,.31-.05h0a4,4,0,0,0-.17-.75Z"/><path class="cls-13" d="M10.19,24.91h0q.09,0,.09.06a0,0,0,0,1,0,0h0s0,0-.07,0-.13.06-.13.09a1.1,1.1,0,0,0-.11.53v.09a2.5,2.5,0,0,0,.07.55.59.59,0,0,0,.1.31.29.29,0,0,0,.14.08c.05,0,.1,0,.16-.12h0a0,0,0,0,1,0,0h0s0,.07-.11.12l-.09,0h0a.4.4,0,0,1-.16-.08A1.18,1.18,0,0,1,10,26a1.54,1.54,0,0,1,0-.36v0c0-.34.07-.56.17-.64Z"/><path class="cls-13" d="M10.82,24.86l.12,0h.15v0s0,0,0,0h-.2a2.1,2.1,0,0,1,0,.28c0,.3,0,.47,0,.53a.68.68,0,0,0,.22,0v0h0l0,0h-.21c0,.33,0,.56,0,.68v.1a0,0,0,0,0,0,0h0l.2,0h0s0,0,0,0h0l0,0H11l-.16,0h0s-.05,0-.05-.06V26.5c0-.15,0-.57.06-1.29v0a1,1,0,0,0,0-.31Z"/></g></svg>