<svg xmlns="http://www.w3.org/2000/svg" viewBox="0 0 92.06 150"><defs><style>.cls-1{fill:none;}.cls-2{fill:#4d495b;}.cls-3{fill:#eef8f9;}.cls-4{fill:#dae4e5;}.cls-5{fill:#ffd8a6;}.cls-6{fill:#f9c995;}.cls-7{fill:#964236;}.cls-8{fill:#843a32;}.cls-9{fill:#fcf1e6;}.cls-10{fill:#e0d9f9;}.cls-11{fill:#451711;}.cls-12{fill:#f5f4ff;}</style></defs><g id="coffee_types_illustration_pack" data-name="coffee types illustration pack"><rect class="cls-1" x="-0.05" y="-0.09" width="92.17" height="150.17" rx="8"/><path class="cls-2" d="M23.32,101.69S22.78,92,44,92s21.17,9.74,21.17,9.74.7,6.54-21.17,6.54S23.32,101.69,23.32,101.69Z"/><path class="cls-3" d="M44.88,84.63c-24.61,0-23.05,9.14-23.05,9.14s1,3.34,10,5.09h0s-1.08,3.76,12.8,3.76c13,0,12.8-3.76,12.8-3.76h0c9-1.75,9.95-5.09,9.95-5.09S69.49,84.63,44.88,84.63Z"/><path class="cls-4" d="M44.76,87.33C27.7,87.33,27.08,92,27.08,92s.75,3.21,17.52,3.21C60.06,95.19,61.44,92,61.44,92S61.06,87.33,44.76,87.33Z"/><path class="cls-4" d="M45.16,99.57c-.17-.29-1.47.17-6.42,0a44.2,44.2,0,0,1-8.52-1.06c-.33.75,4.91,1.19,8.43,1.48S45.32,99.87,45.16,99.57Z"/><path class="cls-3" d="M70.37,64.24l-.5,2.48s7.8-1.06,7.8,4.33S68,74.64,68,74.64l-.63,2.78s13,3.65,13-5.92S70.37,64.24,70.37,64.24Z"/><path class="cls-3" d="M71.25,56.24H18.13S13.85,93,44.69,93,71.25,56.24,71.25,56.24Z"/><path class="cls-5" d="M60.86,84.57c9.6-10.11,9-28.33,9-28.33H19.64S19,74.46,28.55,84.57Z"/><path class="cls-6" d="M70,56.24H63s.59,18.22-9,28.33h7C70.56,74.46,70,56.24,70,56.24Z"/><path class="cls-3" d="M44.69,47.46c-25.38,0-26.56,8.78-26.56,8.78s2.1,8,26.56,8,26.56-8,26.56-8S70.08,47.46,44.69,47.46Z"/><path class="cls-7" d="M27.08,82.86c3.72,4.78,9.28,8.28,17.61,8.28s13.91-3.5,17.64-8.28Z"/><path class="cls-8" d="M55.31,82.86a20.73,20.73,0,0,1-14.18,8.06,27.33,27.33,0,0,0,3.46.22c8.33,0,13.9-3.5,17.64-8.28Z"/><path class="cls-5" d="M45.24,48.72c-22.07,0-25.34,7.8-25.34,7.8s3.6,6.13,25.68,6.13,24.29-6.41,24.29-6.41S67.31,48.72,45.24,48.72Z"/><path class="cls-6" d="M59,50.06a8.48,8.48,0,0,1,3.2,6.8c-.38,5.48-25.82,5.79-32,4.45v0a76.19,76.19,0,0,0,15.24,1.31c22.07,0,24.29-6.41,24.29-6.41S68.37,52.23,59,50.06Z"/><path class="cls-9" d="M24,54.57c.18-.71,1.26-1.32.72-1.48,0,0-2.55.69-2.8,2.6s2.42,3.32,3.3,2.44S23.65,55.85,24,54.57Z"/><path class="cls-9" d="M25.38,52.57s-.22,0-.22.42.22.36.22.36a.38.38,0,0,0,.28-.39A.37.37,0,0,0,25.38,52.57Z"/><path class="cls-9" d="M26,53a.24.24,0,0,0,.18-.26.23.23,0,0,0-.18-.25s-.15,0-.15.28S26,53,26,53Z"/><path class="cls-9" d="M26.18,57.52s-.47.11-.47.86.47.72.47.72a.84.84,0,0,0,0-1.58Z"/><path class="cls-10" d="M43.18,37.52c-.12-3-3.77-3.59-3.71-1.89a1.92,1.92,0,0,1,1.76,2.14c0,2.08-2.7,1.45-2.83,3.84s3.34,3.84,4.09,2.45S40.73,42.17,41,41.17,43.31,40.54,43.18,37.52Z"/><path class="cls-10" d="M49,35.31c-.13-3-3.78-3.58-3.71-1.88a1.92,1.92,0,0,1,1.76,2.14c0,2.07-2.71,1.44-2.83,3.84s3.33,3.83,4.09,2.45S46.58,40,46.9,39,49.16,38.34,49,35.31Z"/><path class="cls-10" d="M52.12,42.17c.31-1,2.26-.62,2.14-3.65s-3.78-3.58-3.72-1.88a1.92,1.92,0,0,1,1.77,2.14c0,2.07-2.71,1.44-2.84,3.84s3.34,3.83,4.1,2.45S51.8,43.18,52.12,42.17Z"/><path class="cls-11" d="M65.49,128.84A10.2,10.2,0,0,1,55.29,139H32.36a10.2,10.2,0,0,1-10.2-10.2h0a10.2,10.2,0,0,1,10.2-10.2H55.29a10.2,10.2,0,0,1,10.2,10.2Z"/><path class="cls-11" d="M68.06,113.08c3,2.28-3.89,7.79-5.64,5.77C62.42,118.85,65,110.79,68.06,113.08Z"/><path class="cls-11" d="M74.5,120.66c1.38,3.9-8.22,4.72-8.59,1.83C65.91,122.49,73.11,116.75,74.5,120.66Z"/><path class="cls-11" d="M18.56,144.4c-3.11-2.2,3.66-7.9,5.47-5.93C24,138.47,21.66,146.6,18.56,144.4Z"/><path class="cls-11" d="M11.91,137c-1.5-3.86,8.07-4.95,8.53-2.08C20.44,134.92,13.4,140.87,11.91,137Z"/><path class="cls-12" d="M27.1,133.15s-.06-.1-.08-.23c-.08-.63-.12-1-.14-1.17l-.06-.51a2.56,2.56,0,0,0-.64-.07l-.47,0a3.15,3.15,0,0,0-.45,0,.08.08,0,0,0-.09.06s0,0,0,0l0,.26c0,.15-.06.46-.14.92a2.75,2.75,0,0,1-.16.54c-.07.14-.13.22-.19.22a.34.34,0,0,1-.17-.07.2.2,0,0,1-.09-.15v0l0,0c.15-.6.28-1.21.38-1.81l.16-.79.15-1,.14-.84c0-.23.12-.61.23-1.12s.2-1,.22-1.19a3.56,3.56,0,0,0,.05-.48l.09-.71a1.22,1.22,0,0,1,.08-.39h.18a.32.32,0,0,0,.23-.07.3.3,0,0,1,.16,0,.17.17,0,0,1,.07.14,12.69,12.69,0,0,0,.09,1.41c0,.27.06.5.08.68q.14,1.65.71,6.21v0a.21.21,0,0,1-.1.19A.38.38,0,0,1,27.1,133.15Zm-.35-2.26c-.08-1.23-.25-3-.48-5.45l-.7,3.42a14.57,14.57,0,0,0-.29,1.86c0,.05.16.09.49.12s.61,0,.85,0Z"/><path class="cls-12" d="M33.64,132.93v-.85c0-1.23,0-2.19-.08-2.88l0-.48a3.06,3.06,0,0,1-.06-.56c0-.29,0-.56,0-.8l0-.79a2.2,2.2,0,0,0-.06-.6c-.17.11-.69,1.92-1.55,5.39v.2a3.53,3.53,0,0,1-.1.51.75.75,0,0,1-.11.22.23.23,0,0,1-.16.08.38.38,0,0,1-.3-.11.47.47,0,0,1-.09-.32,11.88,11.88,0,0,0-.33-1.79c-.21-1-.45-1.9-.7-2.79a6,6,0,0,0-.52-1.47c0,.3,0,1-.1,2.11q-.18,3-.18,4.65v.51c0,.11-.12.17-.27.17a.42.42,0,0,1-.13-.07c-.06,0-.09-.09-.09-.11,0-.77.07-2.12.21-4.06s.19-3.14.19-4a.5.5,0,0,0,0-.12.27.27,0,0,1,0-.12c0-.13.11-.19.33-.19a.23.23,0,0,1,.26.19,2.57,2.57,0,0,1,.05.39v.15a5.82,5.82,0,0,0,.37,1,7.66,7.66,0,0,1,.37,1c.06.2.1.37.15.5.13.49.22.86.26,1.1l.17.33c0,.13.08.34.16.63s.13.59.16.8a3,3,0,0,1,.05.59,20.11,20.11,0,0,0,.81-2.63c.44-1.6.69-2.62.77-3.07a.12.12,0,0,0,0-.07.74.74,0,0,1,0-.12,3.73,3.73,0,0,1,.12-.5.33.33,0,0,1,.3-.26.43.43,0,0,1,.21.08c.08,0,.11.1.11.15a40.63,40.63,0,0,0,.17,5.66v.67c0,.2,0,.42,0,.68a6.16,6.16,0,0,0,.09,1.23l0,0,0,.06s0,.07,0,.12a.6.6,0,0,1-.08.28.26.26,0,0,1-.2.14C33.73,133.75,33.64,133.48,33.64,132.93Zm-.17-7h0Z"/><path class="cls-12" d="M36.09,133v-.17a.66.66,0,0,0,0-.15l-.05,0a1.46,1.46,0,0,0,.1-.53c0-.19,0-.48,0-.84l0-.85c0-.43,0-1.07,0-1.92s0-1.41,0-1.94l0-.77c0-.23,0-.49,0-.77a.38.38,0,0,1,.09-.28.43.43,0,0,1,.28-.08.28.28,0,0,1,.2.08l.38.05a2.67,2.67,0,0,1,.55.11c.16.06.24.12.24.2s-.08.17-.24.25a4,4,0,0,0-1-.24l-.06.08c0,.07,0,.26,0,.55s0,.7,0,1,0,.63,0,1,.06.36.18.36l.2,0h.22c.34,0,.5.08.5.23a.45.45,0,0,1-.06.24.22.22,0,0,1-.19.09.4.4,0,0,1-.3-.1l-.41-.06h-.06l-.07.06v0a10,10,0,0,1,0,1c0,.34,0,.64,0,.91l0,.91c0,.34,0,.68,0,1a.51.51,0,0,0,.13.39.65.65,0,0,0,.42.1h.23l.26,0c.25,0,.37.06.37.17s-.19.23-.56.23h-1C36.19,133.25,36.11,133.16,36.09,133Z"/><path class="cls-12" d="M41.35,133.24a2.35,2.35,0,0,1-.33-.89c-.12-.48-.24-1-.34-1.61a14.3,14.3,0,0,0-.29-1.45c-.11-.43-.2-.64-.3-.64h0c-.19,0-.28.06-.28.18,0,.61,0,1.55.1,2.8A9.47,9.47,0,0,0,40,133l-.1.22h-.18l-.11-.1c-.13-3.95-.2-6.65-.2-8.08a.86.86,0,0,1,0-.24.4.4,0,0,1,.08-.16.2.2,0,0,1,.18-.09,1.62,1.62,0,0,1,1,.32,1.1,1.1,0,0,1,.4.92v.94a1.83,1.83,0,0,1-.16.65,6,6,0,0,1-.35.76l-.17.32c.09.44.28,1.22.56,2.35s.43,1.74.45,1.81l0,.06a.76.76,0,0,0,.08.15.74.74,0,0,1,.09.31c0,.12-.05.18-.14.18Zm-1.08-5.16a1.85,1.85,0,0,0,.31-.63,5,5,0,0,0,.2-1.24,3.28,3.28,0,0,0,0-.49,2.52,2.52,0,0,0-.11-.41.68.68,0,0,0-.73-.45s-.08,0-.1.11a.59.59,0,0,0,0,.23c0,.57,0,1.09,0,1.55s0,1,0,1.55l0,0A.55.55,0,0,0,40.27,128.08Z"/><path class="cls-12" d="M43.45,133h-.2c-.19,0-.31,0-.36-.13a.17.17,0,0,1,.1-.15l.06-.07h.38l0-.05,0-.12,0-.15c0-.52,0-1,0-1.4l0-.47,0-.94q0-.5,0-1.5l0-1.49a13.6,13.6,0,0,0-.06-1.48,1.24,1.24,0,0,0-.39,0h-.31c-.16,0-.24-.07-.24-.22s0-.06.11-.1a.64.64,0,0,1,.2-.05c.32,0,.65,0,1,.05a2.07,2.07,0,0,1,.59.12c.16,0,.23.12.23.22a.27.27,0,0,1,0,.1l-.29,0a.65.65,0,0,0-.37-.07l-.07,0a2.85,2.85,0,0,1,0,.68c0,.56,0,1.07,0,1.52l0,1.53c0,.38,0,.85,0,1.4s0,1.09,0,1.41v.16a1.55,1.55,0,0,0,0,.23.84.84,0,0,0,0,.36v0c0,.09.09.13.28.13l.19,0h.19c.25,0,.37.07.37.18a.25.25,0,0,1-.07.19.28.28,0,0,1-.21.07l-.2,0-.22,0A.56.56,0,0,0,44,133a.56.56,0,0,1-.23.07C43.6,133.08,43.48,133,43.45,133Z"/><path class="cls-12" d="M47.09,133.17a1.22,1.22,0,0,1-.41-.21,1.39,1.39,0,0,1-.33-.43,3.57,3.57,0,0,1-.32-1.47c0-.29,0-.55,0-.77v-1.46q0-.84.06-1.62a7.45,7.45,0,0,1,.11-1,4,4,0,0,1,.24-.79,1.13,1.13,0,0,1,.75-.76l.32-.14h.59l.06,0,0,0s0,0,0,0,0,0,0,.07l-.16.2h-.54a.59.59,0,0,0-.44.23,1.42,1.42,0,0,0-.3.6,4.31,4.31,0,0,0-.17.76c0,.29-.07.54-.08.75s0,.46,0,.57l0,.06c0,.48,0,.91,0,1.3l0,1.29a6.56,6.56,0,0,0,.08,1,1.82,1.82,0,0,0,.37.92,1,1,0,0,0,.91.42.45.45,0,0,0,.32-.12c.13,0,.19.05.19.14s-.05.13-.16.21a1.23,1.23,0,0,1-.33.19H47.4Z"/><path class="cls-12" d="M52.08,133.15a.38.38,0,0,1-.07-.23l-.15-1.17-.06-.51a2.51,2.51,0,0,0-.64-.07l-.46,0a3.39,3.39,0,0,0-.45,0,.08.08,0,0,0-.09.06.06.06,0,0,1,0,0l0,.26a8.32,8.32,0,0,1-.14.92,2.25,2.25,0,0,1-.15.54c-.07.14-.14.22-.2.22a.31.31,0,0,1-.16-.07.2.2,0,0,1-.09-.15v-.08c.16-.6.28-1.21.39-1.81l.15-.79.16-1,.14-.84c0-.23.12-.61.23-1.12s.19-1,.22-1.19c0,0,0-.18.05-.48s.06-.56.09-.71a1.37,1.37,0,0,1,.07-.39h.18a.3.3,0,0,0,.23-.07.28.28,0,0,1,.16,0,.17.17,0,0,1,.07.14,12.69,12.69,0,0,0,.09,1.41c0,.27.06.5.08.68.1,1.1.33,3.17.72,6.21v0a.21.21,0,0,1-.1.19A.44.44,0,0,1,52.08,133.15Zm-.34-2.26c-.09-1.23-.25-3-.49-5.45l-.69,3.42a13.51,13.51,0,0,0-.3,1.86c0,.05.16.09.49.12s.61,0,.86,0Z"/><path class="cls-12" d="M56.94,133.06a1.1,1.1,0,0,1-.09-.23.35.35,0,0,0-.05-.18l0,0a8.78,8.78,0,0,0-.44-1.48l-.23-.66a6.61,6.61,0,0,1-.25-.66l-.1-.3a20.62,20.62,0,0,0-1.45-3.87,3.24,3.24,0,0,0-.1.9c0,.2,0,.37,0,.52l0,.5,0,.3c0,.1,0,.2,0,.31a3.48,3.48,0,0,0,0,.49l0,.41h0a14.32,14.32,0,0,0,.09,2.36v1.15a.54.54,0,0,1,0,.27.24.24,0,0,1-.07.18.21.21,0,0,1-.17.08q-.27,0-.27-.69l0-.41c0-.13,0-.27,0-.43,0-.41,0-1,0-1.84s0-1.44,0-1.85q0-.37,0-1.14c0-.51,0-.88,0-1.13v-.17a1.08,1.08,0,0,1,.23-.82l0,0,.13,0,.12.08a.18.18,0,0,1,0,.12l0,.07a.25.25,0,0,0,0,.07,14.68,14.68,0,0,0,.92,2.55c.49,1.15.79,1.92.91,2.3s.15.56.21.79a6.25,6.25,0,0,0,.57,1.68l0,0q.29-2.85.29-7v-.15a.81.81,0,0,1,0-.17q0-.27.18-.27a.26.26,0,0,1,.2.12.44.44,0,0,1,.08.25v.86l-.06.11c0,.81,0,2.14-.15,4a17.2,17.2,0,0,1-.27,3l-.21,0h0l-.12,0A.16.16,0,0,1,56.94,133.06Z"/><path class="cls-12" d="M59.55,128.61v-.45c0-2.39.31-3.58.92-3.58a.54.54,0,0,1,.18,0,3.93,3.93,0,0,0,.81.18c.16,0,.32.2.49.5a3.71,3.71,0,0,1,.4,1.22,8.76,8.76,0,0,1,.13,1.55l0,.06c0,.28,0,.54,0,.76v.77a10.6,10.6,0,0,1,0,1.18,6.73,6.73,0,0,1-.25,1.37,2.86,2.86,0,0,1-.27.58,1.31,1.31,0,0,1-.36.38.79.79,0,0,1-.5.16C60.05,133.33,59.55,131.75,59.55,128.61Zm2.19,3.64a6.22,6.22,0,0,0,.3-1.46c0-.51.05-.93.05-1.23s0-.85-.08-1.52-.06-1.25-.06-1.51l-.06-.1,0-.07a1.54,1.54,0,0,0-.31-1,.93.93,0,0,0-.77-.41.64.64,0,0,0-.7.56,5,5,0,0,0,0,.55,7.13,7.13,0,0,1-.08,1.3,5.67,5.67,0,0,1,0,.6l0,.6c0,.19,0,.36,0,.5v.52a10.4,10.4,0,0,0,.1,1.38,8,8,0,0,0,.18,1,2.23,2.23,0,0,0,.3.68A.56.56,0,0,0,61,133C61.33,133,61.58,132.72,61.74,132.25Z"/></g></svg>