<svg xmlns="http://www.w3.org/2000/svg" viewBox="0 0 18.4 29.98"><defs><style>.cls-1{fill:none;}.cls-2{fill:#4d495b;}.cls-3{fill:#eef8f9;}.cls-4{fill:#dae4e5;}.cls-5{fill:#ffd8a6;}.cls-6{fill:#f9c995;}.cls-7{fill:#964236;}.cls-8{fill:#843a32;}.cls-9{fill:#fcf1e6;}.cls-10{fill:#e0d9f9;}.cls-11{fill:#451711;}.cls-12{fill:#f9d9d7;}</style></defs><g id="coffee_types_illustration_pack" data-name="coffee types illustration pack"><rect class="cls-1" width="18.4" height="29.98" rx="8"/><path class="cls-2" d="M4.67,20.32s-.11-1.94,4.13-1.94S13,20.32,13,20.32s.14,1.31-4.23,1.31S4.67,20.32,4.67,20.32Z"/><path class="cls-3" d="M9,16.92c-4.91,0-4.6,1.82-4.6,1.82s.2.67,2,1h0s-.22.75,2.56.75c2.59,0,2.55-.75,2.55-.75h0c1.79-.35,2-1,2-1S13.89,16.92,9,16.92Z"/><path class="cls-4" d="M9,17.45c-3.41,0-3.53.93-3.53.93s.15.64,3.5.64c3.08,0,3.36-.64,3.36-.64S12.2,17.45,9,17.45Z"/><path class="cls-4" d="M9,19.9a12.86,12.86,0,0,0-1.29,0A8.87,8.87,0,0,1,6,19.69c-.06.15,1,.23,1.69.29A2.89,2.89,0,0,0,9,19.9Z"/><path class="cls-3" d="M14.06,12.84l-.1.5s1.56-.21,1.56.86-1.94.72-1.94.72l-.12.56s2.59.72,2.59-1.19S14.06,12.84,14.06,12.84Z"/><path class="cls-3" d="M14.24,11.25H3.63s-.85,7.34,5.3,7.34S14.24,11.25,14.24,11.25Z"/><path class="cls-5" d="M12.16,16.9c1.92-2,1.8-5.65,1.8-5.65h-10S3.8,14.88,5.71,16.9Z"/><path class="cls-6" d="M14,11.25h-1.4s.12,3.63-1.79,5.65h1.39C14.1,14.88,14,11.25,14,11.25Z"/><path class="cls-3" d="M8.93,9.49c-5.06,0-5.3,1.76-5.3,1.76s.42,1.59,5.3,1.59,5.31-1.59,5.31-1.59S14,9.49,8.93,9.49Z"/><path class="cls-7" d="M5.42,16.56a4.19,4.19,0,0,0,3.51,1.65,4.23,4.23,0,0,0,3.53-1.65Z"/><path class="cls-8" d="M11.05,16.56a4.08,4.08,0,0,1-2.83,1.61,5.12,5.12,0,0,0,.69,0,4.23,4.23,0,0,0,3.53-1.65Z"/><path class="cls-5" d="M9,9.74C4.64,9.74,4,11.3,4,11.3s.72,1.23,5.13,1.23S14,11.25,14,11.25,13.45,9.74,9,9.74Z"/><path class="cls-6" d="M11.8,10a1.71,1.71,0,0,1,.64,1.36c-.08,1.1-5.16,1.16-6.4.89H6a14.57,14.57,0,0,0,3,.27c4.41,0,4.86-1.28,4.86-1.28S13.66,10.44,11.8,10Z"/><path class="cls-9" d="M4.8,10.91c0-.14.25-.26.14-.29s-.5.13-.55.52.48.66.65.48S4.73,11.17,4.8,10.91Z"/><path class="cls-9" d="M5.08,10.51s0,0,0,.09,0,.07,0,.07,0,0,0-.08S5.08,10.51,5.08,10.51Z"/><path class="cls-9" d="M5.2,10.61a0,0,0,0,0,0,0c0-.05,0-.05,0-.05s0,0,0,.05S5.2,10.61,5.2,10.61Z"/><path class="cls-9" d="M5.24,11.5s-.1,0-.1.17.1.15.1.15a.17.17,0,0,0,0-.32Z"/><path class="cls-10" d="M8.63,7.51c0-.61-.75-.72-.74-.38a.38.38,0,0,1,.35.43c0,.41-.54.29-.56.76s.66.77.81.49-.35-.37-.28-.57S8.66,8.11,8.63,7.51Z"/><path class="cls-10" d="M9.8,7.07c0-.61-.75-.72-.74-.38a.38.38,0,0,1,.35.43c0,.41-.54.29-.56.76s.66.77.81.49S9.31,8,9.37,7.8,9.83,7.67,9.8,7.07Z"/><path class="cls-10" d="M10.42,8.44c.06-.2.45-.13.42-.73s-.75-.72-.74-.38a.38.38,0,0,1,.35.43c0,.41-.54.29-.56.77s.66.76.82.49S10.35,8.64,10.42,8.44Z"/><path class="cls-11" d="M13.09,25.74a2,2,0,0,1-2,2H6.47a2,2,0,0,1-2-2h0a2,2,0,0,1,2-2h4.58a2,2,0,0,1,2,2Z"/><path class="cls-12" d="M5.33,24.85h0s.09.08.12.18a5.74,5.74,0,0,1,.22,1.15,2.07,2.07,0,0,1,0,.4s0,0,0,0a1.65,1.65,0,0,1-.06-.42,2.9,2.9,0,0,1-.06-.34h0c-.19,0-.28,0-.28.06v.2l0,.49,0,0s0,0,0,0,0,0,0-.05c0-.37,0-.59,0-.67a.66.66,0,0,1,0-.14,5.77,5.77,0,0,1,.07-.8C5.27,24.89,5.3,24.85,5.33,24.85Zm0,.07a3.16,3.16,0,0,0-.07.76s0,0,0,.12v0a1.25,1.25,0,0,1,.32-.05h0A3.72,3.72,0,0,0,5.39,25,.17.17,0,0,0,5.33,24.92Z"/><path class="cls-12" d="M6.17,24.79h0a3.72,3.72,0,0,1,.2.37c0,.11.07.22.1.33h0s0-.21.09-.56q0-.11,0-.12h0s0,.17,0,.51v1.23a.18.18,0,0,0,0,.06l0,0a.05.05,0,0,1,0,0,.25.25,0,0,0,0-.08v-.28h0a.41.41,0,0,0,0-.1c0-.1,0-.19,0-.27s0-.4,0-.61v-.16h0a2.72,2.72,0,0,1-.05.35l0,.27h0a.81.81,0,0,1-.06-.24A3.13,3.13,0,0,0,6.23,25h0c0,.22,0,.53.06.94v.42c0,.07,0,.17,0,.29h0s0,0,0,0,0-.16,0-.2v-.5c0-.42,0-.78-.08-1.09Z"/><path class="cls-12" d="M7.16,24.81a.21.21,0,0,0,.12,0h.14v0H7.2a2.07,2.07,0,0,1,0,.29q0,.45,0,.54s.07,0,.22,0v0h0s0,0,0,0H7.18c0,.34,0,.57,0,.7v.09h0l.19,0h0l0,0h0s0,0,0,0H7.34l-.16,0h0a.05.05,0,0,1-.06-.06v-.09c0-.14,0-.58.07-1.31v0a.68.68,0,0,0,0-.31S7.14,24.82,7.16,24.81Z"/><path class="cls-12" d="M7.83,24.7h0s0,0,.1,0a.31.31,0,0,1,.16.14,1,1,0,0,1,.09.32v.05a.6.6,0,0,1-.2.5q.22.06.27.54v.33h0c0-.07,0-.12,0-.16v-.19a.8.8,0,0,0-.12-.4.23.23,0,0,0-.14-.08h0a1.23,1.23,0,0,1,0,.17v.2c0,.17,0,.27,0,.29H8l0,0,0,0v0c0-.14,0-.24,0-.29v-.31l0,0v0l0,0c0-.48,0-.82-.07-1Zm0,.08c0,.25,0,.57,0,.94a.49.49,0,0,0,.21-.44v-.07A.73.73,0,0,0,8,24.86c-.06-.06-.1-.08-.13-.08Z"/><path class="cls-12" d="M8.71,24.86h0s0,.09,0,.27v.07c0,.07,0,.24,0,.53a.06.06,0,0,0,0,0c0,.18,0,.33,0,.43v.34a.35.35,0,0,1,0,.06s0,0,0,0h0s0,0,0-.14c0-.6,0-1,0-1.25V25.1a1.48,1.48,0,0,0,0-.22S8.69,24.86,8.71,24.86Z"/><path class="cls-12" d="M9.42,24.86h0c.06,0,.1,0,.1.07l0,0h0a.08.08,0,0,0-.07,0c-.09,0-.13.06-.13.08a1.2,1.2,0,0,0-.1.55v.08a3.06,3.06,0,0,0,.06.56.8.8,0,0,0,.1.33.3.3,0,0,0,.14.07.26.26,0,0,0,.17-.11h0a0,0,0,0,1,0,0h0s0,.07-.11.12a.16.16,0,0,1-.09,0h0a.27.27,0,0,1-.16-.08,1.32,1.32,0,0,1-.16-.6,1.52,1.52,0,0,1,0-.37v0c0-.35.07-.57.18-.65Z"/><path class="cls-12" d="M10.16,24.85h0c.05,0,.09.08.13.18a5.16,5.16,0,0,1,.21,1.15,2.17,2.17,0,0,1,.05.4s0,0,0,0,0-.17-.06-.42c0,0,0-.14,0-.34h0c-.19,0-.28,0-.28.06v.2l0,.49a0,0,0,0,1,0,0s0,0,0,0a0,0,0,0,1,0-.05c0-.37,0-.59,0-.67v-.14a5.7,5.7,0,0,1,.06-.8C10.1,24.89,10.12,24.85,10.16,24.85Zm0,.07a3.1,3.1,0,0,0-.08.76v.14a1.18,1.18,0,0,1,.31-.05h0a3.44,3.44,0,0,0-.17-.76A.26.26,0,0,0,10.16,24.92Z"/><path class="cls-12" d="M11.31,24.85h0l0,0a.53.53,0,0,0,0,.13c0,.09,0,.42.11,1l.05.53s0,0,0,0a1.23,1.23,0,0,1-.09-.37c0-.11-.1-.36-.19-.73a3.11,3.11,0,0,1-.11-.4h0v.06c0,.07,0,.28,0,.64s0,.61,0,.86h0s0,0,0,0h0v-.05c0-.23,0-.5,0-.83s0-.55,0-.62v-.18c0-.06,0-.08,0-.08s.05.05.07.17c.12.39.21.73.28,1,0,.07,0,.12,0,.12h0c0-.16-.05-.49-.12-1,0-.05,0-.12,0-.2v-.13Z"/><path class="cls-12" d="M12.09,24.92h0s.06.06.09.18a4.9,4.9,0,0,1,.06.77,1.86,1.86,0,0,1-.08.72.09.09,0,0,1-.07,0h0q-.15,0-.18-.45c0-.12,0-.28,0-.5v-.1A1.4,1.4,0,0,1,12,25s0,0,0,0Zm-.14.67c0,.36,0,.6,0,.73s.08.26.13.26.1-.23.1-.7h0a4.7,4.7,0,0,0-.05-.79c0-.07-.05-.1-.06-.1h0c-.06,0-.11.19-.14.46Z"/><path class="cls-11" d="M13.6,22.59c.61.46-.78,1.56-1.13,1.16C12.47,23.75,13,22.14,13.6,22.59Z"/><path class="cls-11" d="M14.88,24.11c.28.78-1.63.94-1.71.37C13.17,24.48,14.61,23.33,14.88,24.11Z"/><path class="cls-11" d="M3.72,28.85c-.62-.44.73-1.58,1.09-1.19C4.81,27.66,4.34,29.29,3.72,28.85Z"/><path class="cls-11" d="M2.39,27.37c-.3-.77,1.61-1,1.7-.41C4.09,27,2.69,28.14,2.39,27.37Z"/></g></svg>