<svg xmlns="http://www.w3.org/2000/svg" viewBox="0 0 18.4 29.98"><defs><style>.cls-1{fill:none;}.cls-2{fill:#4d495b;}.cls-3{fill:#eef8f9;}.cls-4{fill:#dae4e5;}.cls-5{fill:#ffd8a6;}.cls-6{fill:#f9c995;}.cls-7{fill:#964236;}.cls-8{fill:#843a32;}.cls-9{fill:#fcf1e6;}.cls-10{fill:#e0d9f9;}.cls-11{fill:#451711;}.cls-12{font-size:2.56px;fill:#f5f4ff;font-family:AmaticSC-Regular, Amatic SC;}</style></defs><g id="coffee_types_illustration_pack" data-name="coffee types illustration pack"><rect class="cls-1" width="18.4" height="29.98" rx="8"/><path class="cls-2" d="M4.67,20.32s-.11-1.94,4.13-1.94S13,20.32,13,20.32s.14,1.31-4.23,1.31S4.67,20.32,4.67,20.32Z"/><path class="cls-3" d="M9,16.92c-4.91,0-4.6,1.82-4.6,1.82s.2.67,2,1h0s-.22.75,2.56.75c2.59,0,2.55-.75,2.55-.75h0c1.79-.35,2-1,2-1S13.89,16.92,9,16.92Z"/><path class="cls-4" d="M9,17.45c-3.41,0-3.53.93-3.53.93s.15.64,3.5.64c3.08,0,3.36-.64,3.36-.64S12.2,17.45,9,17.45Z"/><path class="cls-4" d="M9,19.9a12.86,12.86,0,0,0-1.29,0A8.87,8.87,0,0,1,6,19.69c-.06.15,1,.23,1.69.29A2.89,2.89,0,0,0,9,19.9Z"/><path class="cls-3" d="M14.06,12.84l-.1.5s1.56-.21,1.56.86-1.94.72-1.94.72l-.12.56s2.59.72,2.59-1.19S14.06,12.84,14.06,12.84Z"/><path class="cls-3" d="M14.24,11.25H3.63s-.85,7.34,5.3,7.34S14.24,11.25,14.24,11.25Z"/><path class="cls-5" d="M12.16,16.9c1.92-2,1.8-5.65,1.8-5.65h-10S3.8,14.88,5.71,16.9Z"/><path class="cls-6" d="M14,11.25h-1.4s.12,3.63-1.79,5.65h1.39C14.1,14.88,14,11.25,14,11.25Z"/><path class="cls-3" d="M8.93,9.49c-5.06,0-5.3,1.76-5.3,1.76s.42,1.59,5.3,1.59,5.31-1.59,5.31-1.59S14,9.49,8.93,9.49Z"/><path class="cls-7" d="M5.42,16.56a4.19,4.19,0,0,0,3.51,1.65,4.23,4.23,0,0,0,3.53-1.65Z"/><path class="cls-8" d="M11.05,16.56a4.08,4.08,0,0,1-2.83,1.61,5.12,5.12,0,0,0,.69,0,4.23,4.23,0,0,0,3.53-1.65Z"/><path class="cls-5" d="M9,9.74C4.64,9.74,4,11.3,4,11.3s.72,1.23,5.13,1.23S14,11.25,14,11.25,13.45,9.74,9,9.74Z"/><path class="cls-6" d="M11.8,10a1.71,1.71,0,0,1,.64,1.36c-.08,1.1-5.16,1.16-6.4.89H6a14.57,14.57,0,0,0,3,.27c4.41,0,4.86-1.28,4.86-1.28S13.66,10.44,11.8,10Z"/><path class="cls-9" d="M4.8,10.91c0-.14.25-.26.14-.29s-.5.13-.55.52.48.66.65.48S4.73,11.17,4.8,10.91Z"/><path class="cls-9" d="M5.08,10.51s0,0,0,.09,0,.07,0,.07,0,0,0-.08S5.08,10.51,5.08,10.51Z"/><path class="cls-9" d="M5.2,10.61a0,0,0,0,0,0,0c0-.05,0-.05,0-.05s0,0,0,.05S5.2,10.61,5.2,10.61Z"/><path class="cls-9" d="M5.24,11.5s-.1,0-.1.17.1.15.1.15a.17.17,0,0,0,0-.32Z"/><path class="cls-10" d="M8.63,7.51c0-.61-.75-.72-.74-.38a.38.38,0,0,1,.35.43c0,.41-.54.29-.56.76s.66.77.81.49-.35-.37-.28-.57S8.66,8.11,8.63,7.51Z"/><path class="cls-10" d="M9.8,7.07c0-.61-.75-.72-.74-.38a.38.38,0,0,1,.35.43c0,.41-.54.29-.56.76s.66.77.81.49S9.31,8,9.37,7.8,9.83,7.67,9.8,7.07Z"/><path class="cls-10" d="M10.42,8.44c.06-.2.45-.13.42-.73s-.75-.72-.74-.38a.38.38,0,0,1,.35.43c0,.41-.54.29-.56.77s.66.76.82.49S10.35,8.64,10.42,8.44Z"/><path class="cls-11" d="M13.09,25.74a2,2,0,0,1-2,2H6.47a2,2,0,0,1-2-2h0a2,2,0,0,1,2-2h4.58a2,2,0,0,1,2,2Z"/><path class="cls-11" d="M13.6,22.59c.61.46-.78,1.56-1.13,1.16C12.47,23.75,13,22.14,13.6,22.59Z"/><path class="cls-11" d="M14.88,24.11c.28.78-1.63.94-1.71.37C13.17,24.48,14.61,23.33,14.88,24.11Z"/><path class="cls-11" d="M3.72,28.85c-.62-.44.73-1.58,1.09-1.19C4.81,27.66,4.34,29.29,3.72,28.85Z"/><path class="cls-11" d="M2.39,27.37c-.3-.77,1.61-1,1.7-.41C4.09,27,2.69,28.14,2.39,27.37Z"/><text class="cls-12" transform="translate(4.78 26.59)">americano</text></g></svg>