<svg xmlns="http://www.w3.org/2000/svg" viewBox="0 0 18.4 29.98"><defs><style>.cls-1{fill:none;}.cls-2{fill:#4d495b;}.cls-3{fill:#ea8b5c;}.cls-4{fill:#e57e51;}.cls-5{fill:#964236;}.cls-6{fill:#6d312b;}.cls-7{fill:#5b2825;}.cls-8{fill:#5b2724;}.cls-9{fill:#843a32;}.cls-10{fill:#451711;}.cls-11{fill:#f9d9d7;}</style></defs><g id="coffee_types_illustration_pack" data-name="coffee types illustration pack"><rect class="cls-1" width="18.4" height="29.98" rx="8"/><path class="cls-2" d="M4.81,20.25S4.7,18.31,9,18.31s4.22,1.94,4.22,1.94.15,1.31-4.22,1.31S4.81,20.25,4.81,20.25Z"/><path class="cls-3" d="M12.59,18.59l.67-12h-8l.6,12.27a1.17,1.17,0,0,0,1.31,1.1h3.92A1.42,1.42,0,0,0,12.59,18.59Z"/><path class="cls-4" d="M11.86,6.56l-.68,12a1.41,1.41,0,0,1-1.54,1.34h1.41a1.42,1.42,0,0,0,1.54-1.34l.67-12Z"/><path class="cls-5" d="M9.24,4.88c-3.95,0-4,1.68-4,1.68s.46,1.27,4,1.27,4-1.27,4-1.27S13.19,4.88,9.24,4.88Z"/><path class="cls-6" d="M9.24,5.12c-3.43,0-3.46,1.23-3.46,1.23S6.41,7.4,9.23,7.4s3.45-1.05,3.45-1.05S12.67,5.12,9.24,5.12Z"/><path class="cls-7" d="M9.25,5.12c-.31,0-.6,0-.86,0C11,5.34,11,6.35,11,6.35s-.51.83-2.6,1c.27,0,.55,0,.87,0,2.81,0,3.45-1.05,3.45-1.05S12.68,5.12,9.25,5.12Z"/><path class="cls-8" d="M7.29,6.26a.22.22,0,0,1-.22.22H6.63a.22.22,0,0,1-.22-.22h0A.22.22,0,0,1,6.63,6h.44a.22.22,0,0,1,.22.22Z"/><polygon class="cls-5" points="12.8 14.74 13.02 10.81 5.43 10.81 5.62 14.74 12.8 14.74"/><polygon class="cls-9" points="11.62 10.81 11.39 14.74 12.8 14.74 13.02 10.81 11.62 10.81"/><path class="cls-5" d="M7,6.45V5.59a.15.15,0,0,0-.15-.14.14.14,0,0,0-.14.14v.86Z"/><path class="cls-10" d="M13.6,25.67a2,2,0,0,1-2,2H7a2,2,0,0,1-2-2H5a2,2,0,0,1,2-2h4.58a2,2,0,0,1,2,2Z"/><path class="cls-11" d="M6,24.84l0,0H6s0,0-.15,0H5.7v.28c0,.52,0,.9,0,1.13h0v0l0,0h0l0,0a.1.1,0,0,1,0,0c0-.08,0-.45,0-1.13a2.81,2.81,0,0,0,0-.3H5.46a.05.05,0,0,1,0,0s0,0,0,0H6Z"/><path class="cls-11" d="M6.48,24.76h0a.26.26,0,0,1,.13.18,5.05,5.05,0,0,1,.21,1.15,2.08,2.08,0,0,1,0,.39s0,0,0,0a4,4,0,0,1-.06-.41s0-.14,0-.35h0c-.19,0-.28,0-.28.05V26l0,.48s0,0,0,0,0,0,0,0,0,0,0-.06c0-.37,0-.59,0-.66a.76.76,0,0,1,0-.15,5.56,5.56,0,0,1,.06-.79C6.42,24.8,6.45,24.76,6.48,24.76Zm0,.07a3,3,0,0,0-.08.75v.15a1.19,1.19,0,0,1,.32-.05h0a3.85,3.85,0,0,0-.18-.75A.17.17,0,0,0,6.48,24.83Z"/><path class="cls-11" d="M7.61,24.68l0,0v0a2.38,2.38,0,0,1-.1.61c0,.07,0,.18-.09.35,0,0,.14.17.26.5a1.8,1.8,0,0,1,.07.31v0s0,0,0,0h0a.05.05,0,0,1,0-.05h0A2,2,0,0,0,7.59,26c-.07-.19-.13-.28-.17-.28l0,.8h0s0,0,0,0h0a0,0,0,0,1,0,0c0-.56-.06-1-.09-1.21a3.93,3.93,0,0,1-.07-.53v0l0,0h0s0,0,0,0v0c0,.1,0,.33.1.7,0,.12,0,.19,0,.21h0a5.29,5.29,0,0,0,.18-.86V24.7Z"/><path class="cls-11" d="M8.17,24.72a.27.27,0,0,0,.12,0h.14v0H8.22a2.27,2.27,0,0,1,0,.29c0,.3,0,.48,0,.53a.74.74,0,0,0,.22,0l0,0h0l0,0-.21,0c0,.34,0,.57,0,.7v.09s0,0,0,0h0l.2,0h0l0,0h0s0,0,0,0H8.36l-.16,0h0s-.05,0-.06-.07v-.09c0-.14,0-.58.07-1.3v0a1,1,0,0,0,0-.31S8.16,24.73,8.17,24.72Z"/><path class="cls-11" d="M9.67,24.76h0c.05,0,.09.08.13.18A5.05,5.05,0,0,1,10,26.09a2.08,2.08,0,0,1,.05.39s0,0,0,0a4,4,0,0,1-.06-.41s0-.14-.05-.35h0c-.19,0-.28,0-.28.05V26l0,.48a0,0,0,0,1,0,0s0,0,0,0,0,0,0-.06c0-.37,0-.59,0-.66a.76.76,0,0,1,0-.15,5.56,5.56,0,0,1,.06-.79C9.61,24.8,9.63,24.76,9.67,24.76Zm0,.07a3,3,0,0,0-.08.75v.15a1.18,1.18,0,0,1,.31-.05h0a3.52,3.52,0,0,0-.17-.75A.26.26,0,0,0,9.67,24.83Z"/><path class="cls-11" d="M11.18,24.82h0l0,0c0,.75-.07,1.27-.08,1.56q0,.09,0,.09h0s-.05-.08-.1-.26-.14-.45-.14-.48h0c0,.4,0,.66,0,.78h0s0-.06,0-.18c-.07-.36-.15-.82-.23-1.4a.23.23,0,0,0,0-.07l0,0h0a1,1,0,0,1,.05.3c.07.41.11.67.13.78l0,.28h0q0-.68.06-.72h0s0,.06,0,.2.07.24.14.48l.05.17h0c0-.62,0-1.12.07-1.52Z"/><path class="cls-11" d="M11.73,24.76h0a.29.29,0,0,1,.12.18,5.05,5.05,0,0,1,.21,1.15,1.49,1.49,0,0,1,0,.39s0,0,0,0a1.8,1.8,0,0,1-.07-.41s0-.14,0-.35h0c-.19,0-.28,0-.28.05V26l0,.48s0,0,0,0l0,0s0,0,0-.06c0-.37,0-.59,0-.66a.76.76,0,0,1,0-.15,5.56,5.56,0,0,1,.06-.79C11.67,24.8,11.7,24.76,11.73,24.76Zm0,.07a3,3,0,0,0-.08.75v.15a1.19,1.19,0,0,1,.32-.05h0a3.85,3.85,0,0,0-.18-.75A.17.17,0,0,0,11.73,24.83Z"/><path class="cls-11" d="M13,24.83h0s0,0,0,0h0c0,.24,0,.49-.09.72v.05a3.38,3.38,0,0,0-.06.52c0,.17,0,.3,0,.38h0l0,0c0-.46.06-.76.08-.9a3.11,3.11,0,0,0-.37-.61s0,0,0-.06h0l0,0h0a.11.11,0,0,1,0,.05,3,3,0,0,1,.35.55h0c0-.33.07-.55.09-.67Z"/><path class="cls-10" d="M15.46,24.56c.35.67-1.37,1.07-1.51.56C14,25.12,15.11,23.89,15.46,24.56Z"/><path class="cls-10" d="M16,26.48c-.08.82-1.88.15-1.7-.41C14.27,26.07,16.06,25.65,16,26.48Z"/><path class="cls-10" d="M2.94,27c-.35-.67,1.37-1.08,1.51-.56C4.45,26.46,3.3,27.69,2.94,27Z"/><path class="cls-10" d="M2.43,25.1c.08-.82,1.88-.15,1.71.4C4.14,25.5,2.34,25.92,2.43,25.1Z"/></g></svg>