<svg xmlns="http://www.w3.org/2000/svg" viewBox="0 0 92.06 150"><defs><style>.cls-1{fill:none;}.cls-2{fill:#4d495b;}.cls-3{fill:#ea8b5c;}.cls-4{fill:#e57e51;}.cls-5{fill:#964236;}.cls-6{fill:#6d312b;}.cls-7{fill:#5b2825;}.cls-8{fill:#5b2724;}.cls-9{fill:#843a32;}.cls-10{fill:#451711;}.cls-11{fill:#f5f4ff;}</style></defs><g id="coffee_types_illustration_pack" data-name="coffee types illustration pack"><rect class="cls-1" x="-0.05" y="-0.09" width="92.17" height="150.17" rx="8"/><path class="cls-2" d="M24,101.35s-.54-9.74,20.72-9.74,21.17,9.74,21.17,9.74.71,6.54-21.17,6.54S24,101.35,24,101.35Z"/><path class="cls-3" d="M63,93l3.4-60.23H26.1l3,61.43c.12,1.37.95,5.53,6.56,5.53H55.3C61.79,99.75,62.82,94.72,63,93Z"/><path class="cls-4" d="M59.33,32.79,55.93,93c-.16,1.7-1.19,6.73-7.68,6.73h7c6.49,0,7.52-5,7.68-6.73l3.4-60.23Z"/><path class="cls-5" d="M46.24,24.38c-19.77,0-20.14,8.41-20.14,8.41s2.27,6.32,20.14,6.32,20.14-6.32,20.14-6.32S66,24.38,46.24,24.38Z"/><path class="cls-6" d="M46.24,25.55c-17.17,0-17.34,6.19-17.34,6.19S32,37,46.16,37s17.31-5.23,17.31-5.23S63.41,25.55,46.24,25.55Z"/><path class="cls-7" d="M46.29,25.55c-1.58,0-3,.06-4.33.15,12.86.94,12.92,6,12.92,6s-2.53,4.13-13,5.05c1.31.11,2.74.18,4.32.18,14.11,0,17.31-5.23,17.31-5.23S63.46,25.55,46.29,25.55Z"/><path class="cls-8" d="M36.47,31.26a1.1,1.1,0,0,1-1.1,1.1h-2.2a1.1,1.1,0,0,1-1.1-1.1h0a1.1,1.1,0,0,1,1.1-1.1h2.2a1.1,1.1,0,0,1,1.1,1.1Z"/><polygon class="cls-5" points="64.07 73.74 65.18 54.07 27.14 54.07 28.1 73.74 64.07 73.74"/><polygon class="cls-9" points="58.13 54.07 57.02 73.74 64.07 73.74 65.18 54.07 58.13 54.07"/><path class="cls-5" d="M35,32.21V27.93a.73.73,0,1,0-1.45,0v4.28Z"/><path class="cls-10" d="M68.08,128.49a10.2,10.2,0,0,1-10.2,10.2H35a10.2,10.2,0,0,1-10.2-10.2h0A10.2,10.2,0,0,1,35,118.29H57.88a10.2,10.2,0,0,1,10.2,10.2Z"/><path class="cls-10" d="M77.38,122.91c1.77,3.37-6.85,5.38-7.57,2.81C69.81,125.72,75.61,119.55,77.38,122.91Z"/><path class="cls-10" d="M80,132.52c-.42,4.12-9.44.76-8.55-2C71.4,130.51,80.37,128.4,80,132.52Z"/><path class="cls-10" d="M14.69,135.23c-1.78-3.36,6.84-5.38,7.56-2.8C22.25,132.43,16.46,138.6,14.69,135.23Z"/><path class="cls-10" d="M12.11,125.62c.42-4.11,9.45-.75,8.55,2C20.66,127.64,11.69,129.74,12.11,125.62Z"/><path class="cls-11" d="M29.14,133.54l0-.53c0-.16,0-.33,0-.53a1.77,1.77,0,0,1,0-.24l0-.26a1.22,1.22,0,0,0-.06-.35c0-.65,0-1.85-.15-3.61s-.15-2.86-.16-3.47a9.68,9.68,0,0,1-1.2,0c-.19,0-.29-.12-.29-.23a.29.29,0,0,1,.28-.16q.44,0,1.26.06c.5,0,.92.07,1.26.07h.61c.17,0,.26.06.26.19a.16.16,0,0,1-.09.14.56.56,0,0,1-.23,0l-.61,0-.62,0s-.06,0-.06,0a1.21,1.21,0,0,0,0,.28q0,1.41.18,4.26c.11,2,.16,3.39.16,4.25a.24.24,0,0,1-.12.19.45.45,0,0,1-.24.09Z"/><path class="cls-11" d="M35.07,133.83a.52.52,0,0,1-.09-.27c-.08-.71-.14-1.15-.16-1.32l-.07-.58a3.11,3.11,0,0,0-.72-.08l-.53,0-.5-.05a.1.1,0,0,0-.11.07s0,0,0,0l0,.29a9.66,9.66,0,0,1-.16,1,2.56,2.56,0,0,1-.17.61c-.08.17-.15.25-.22.25a.34.34,0,0,1-.19-.08.21.21,0,0,1-.1-.17v0l0,0c.17-.69.32-1.37.43-2.05l.18-.9.17-1.1.16-1c.05-.26.14-.68.26-1.26s.22-1.11.25-1.35t.06-.54c0-.37.07-.64.1-.81a1.42,1.42,0,0,1,.09-.44h.1l.1,0a.34.34,0,0,0,.26-.09.24.24,0,0,1,.18.07.17.17,0,0,1,.08.15c0,.46,0,1,.1,1.59,0,.31.07.57.09.77q.16,1.88.81,7v0a.25.25,0,0,1-.11.22A.52.52,0,0,1,35.07,133.83Zm-.39-2.56c-.1-1.4-.28-3.45-.55-6.17L33.34,129a15.55,15.55,0,0,0-.33,2.11s.18.09.55.13a9.12,9.12,0,0,0,1,.06Z"/><path class="cls-11" d="M39.38,132.7a21.19,21.19,0,0,1-.78-2.61,12.59,12.59,0,0,1-.37-2l0-.06-.22.46-.24.5a5,5,0,0,0-.15.49,1.79,1.79,0,0,0-.09.57,4.17,4.17,0,0,1,0,.52l0,.52V133a2.93,2.93,0,0,0,0,.42,2.41,2.41,0,0,1,0,.4.16.16,0,0,1-.07.13.3.3,0,0,1-.16,0,.36.36,0,0,1-.25-.06s-.07-.12-.07-.25V131c0-.16,0-.46.07-.92s.08-.76.08-.91c0-.41,0-.88.07-1.41s.06-1,.06-1.39v-2a.29.29,0,0,1,.27-.16.28.28,0,0,1,.2.08.3.3,0,0,1,.08.2,1.64,1.64,0,0,0-.12.69l0,1.53c0,.46,0,1,0,1.54a9.86,9.86,0,0,0,1.14-2,11.36,11.36,0,0,1,1.08-1.94c.26,0,.38.08.38.25a19.65,19.65,0,0,0-1.54,2.68v.46c0,.14,0,.29,0,.47a11.05,11.05,0,0,0,.5,2.39,15.22,15.22,0,0,0,.84,2.44l.19.25a2.45,2.45,0,0,1,.21.34.67.67,0,0,1,.06.28.19.19,0,0,1-.07.16.27.27,0,0,1-.17.06C40,134,39.7,133.57,39.38,132.7Z"/><path class="cls-11" d="M41.8,133.63v-.19a.79.79,0,0,0,0-.17l-.06-.06a1.59,1.59,0,0,0,.11-.6c0-.22,0-.54,0-1l0-1c0-.48,0-1.21.05-2.18s0-1.59,0-2.19l0-.87c0-.26,0-.55,0-.87a.4.4,0,0,1,.1-.31.47.47,0,0,1,.32-.09.31.31,0,0,1,.23.08l.42.06a3.05,3.05,0,0,1,.62.13c.19.06.28.13.28.22s-.09.19-.28.29a4.18,4.18,0,0,0-1.17-.28l-.07.09c0,.09,0,.3,0,.62s0,.79,0,1.12,0,.72,0,1.13.06.41.2.41l.23,0H43c.38,0,.56.09.56.26a.45.45,0,0,1-.07.27.25.25,0,0,1-.22.11.45.45,0,0,1-.33-.12l-.46-.07h-.08l-.07.07v0q0,.24,0,1.14c0,.38,0,.72,0,1l0,1c0,.38,0,.77,0,1.16a.61.61,0,0,0,.15.45.82.82,0,0,0,.48.1h.55q.42,0,.42.18c0,.18-.21.27-.64.27H42.09C41.92,133.94,41.82,133.83,41.8,133.63Z"/><path class="cls-11" d="M50.59,133.83a.66.66,0,0,1-.08-.27c-.09-.71-.14-1.15-.16-1.32l-.08-.58a3.11,3.11,0,0,0-.72-.08l-.52,0a4.67,4.67,0,0,0-.51-.05.09.09,0,0,0-.1.07s0,0,0,0l0,.29c0,.17-.06.52-.15,1a2.51,2.51,0,0,1-.18.61c-.08.17-.15.25-.22.25a.37.37,0,0,1-.19-.08.24.24,0,0,1-.1-.17l0,0v0c.18-.69.32-1.37.44-2.05l.17-.9.18-1.1.16-1c0-.26.13-.68.26-1.26s.21-1.11.24-1.35t.06-.54c0-.37.07-.64.1-.81a1.42,1.42,0,0,1,.09-.44h.1l.1,0a.33.33,0,0,0,.26-.09.28.28,0,0,1,.19.07.18.18,0,0,1,.07.15,13.87,13.87,0,0,0,.11,1.59c0,.31.06.57.08.77q.16,1.88.82,7v0a.24.24,0,0,1-.12.22A.55.55,0,0,1,50.59,133.83Zm-.39-2.56c-.09-1.4-.28-3.45-.55-6.17L48.87,129a14.6,14.6,0,0,0-.34,2.11s.19.09.56.13a9,9,0,0,0,1,.06Z"/><path class="cls-11" d="M55.48,134.05a1.29,1.29,0,0,1,0-.33v-.13a11,11,0,0,0-.16-1.09c-.09-.47-.14-.84-.17-1.1S55,130.66,55,130c-.09-1.08-.17-1.9-.25-2.46a3.1,3.1,0,0,0-.28-1.22l-.08.78c0,.47-.08.8-.08,1,0,.41,0,.81,0,1.22s-.11.92-.21,1.55l-.17,1.2a.27.27,0,0,0,0,.11c0,.06,0,.12,0,.2a8.39,8.39,0,0,1-.15,1.07,1.55,1.55,0,0,1-.14.47c0,.11-.09.17-.17.17s-.25-.22-.33-.65-.13-1-.19-1.84c0-.54-.06-.93-.07-1.19s-.06-.57-.12-.93l-.06-.45c-.08-.52-.12-.9-.14-1.12s0-.55-.06-1,0-.61,0-.87-.06-.52-.11-.8a6.49,6.49,0,0,0-.18-.77c0-.08.11-.11.23-.11s.2.11.24.33a5.7,5.7,0,0,1,0,.58v.19c0,.2.12,1.16.33,2.87.19,1.55.31,2.81.33,3.79a1,1,0,0,1,.08.39,1.61,1.61,0,0,0,.07.39h0l.24-1.52a5.64,5.64,0,0,1,.08-.7c.07-.51.13-1,.18-1.51s.08-1.1.09-1.54a11.49,11.49,0,0,1,.1-1.39l0-.36q.06-.56.06-.54l.26-.11a.25.25,0,0,1,.17,0,.19.19,0,0,1,.08.15.21.21,0,0,1,0,.11,22.71,22.71,0,0,1,.79,4.69l0,.54a6.59,6.59,0,0,0,.11,1.11,2.86,2.86,0,0,0,.16.56A12.71,12.71,0,0,0,56,130c.07-1.28.11-2.39.11-3.33,0-.17,0-.54.1-1.11a8.4,8.4,0,0,0,.11-1.13.54.54,0,0,0-.06-.25c0-.15.09-.23.29-.23a.26.26,0,0,1,.15,0,.19.19,0,0,1,0,.14,2.05,2.05,0,0,1-.08.63l0,.08a7.31,7.31,0,0,0-.11,1.37.28.28,0,0,0,0,.16l-.09.29,0,.1a.35.35,0,0,0,0,.17l0,.28,0,.06c0,.33,0,1.09-.12,2.26s-.13,1.91-.17,2.23l-.09.4a1.78,1.78,0,0,0-.09.47,8.45,8.45,0,0,1,0,.89,1.37,1.37,0,0,1-.12.51c-.06.12-.14.19-.21.19A.2.2,0,0,1,55.48,134.05Zm.25-1.55v0Z"/><path class="cls-11" d="M61.08,133.83a.66.66,0,0,1-.08-.27c-.09-.71-.14-1.15-.16-1.32l-.08-.58a3.11,3.11,0,0,0-.72-.08l-.52,0a4.91,4.91,0,0,0-.51-.05.09.09,0,0,0-.1.07s0,0,0,0l0,.29a9.66,9.66,0,0,1-.16,1,2.16,2.16,0,0,1-.17.61c-.08.17-.15.25-.22.25a.34.34,0,0,1-.19-.08.24.24,0,0,1-.1-.17l0,0v0c.18-.69.32-1.37.44-2.05l.17-.9.17-1.1.16-1q.07-.39.27-1.26t.24-1.35s0-.21.06-.54.07-.64.1-.81a1.42,1.42,0,0,1,.09-.44h.1l.1,0a.34.34,0,0,0,.26-.09.24.24,0,0,1,.18.07.17.17,0,0,1,.08.15,13.87,13.87,0,0,0,.11,1.59c0,.31.06.57.08.77q.17,1.88.82,7v0a.24.24,0,0,1-.12.22A.52.52,0,0,1,61.08,133.83Zm-.39-2.56c-.09-1.4-.28-3.45-.55-6.17L59.36,129a14.6,14.6,0,0,0-.34,2.11s.19.09.55.13a9.29,9.29,0,0,0,1,.06Z"/><path class="cls-11" d="M63.88,133.91a.33.33,0,0,1-.08-.11,13,13,0,0,0,.13-2.53c0-.29,0-.69,0-1.21l-.07-1-.09-.19.05-.17c-.06-.14-.15-.36-.26-.68s-.24-.65-.35-1a19.81,19.81,0,0,1-.68-2,3.47,3.47,0,0,1-.13-.54l.2-.16c.09,0,.24.33.42.93.14.43.28.85.39,1.26l.18.55c.17.6.3.91.37.93l.06-.26,0-.07a3.28,3.28,0,0,0,.29-1q.19-1,.36-1.71c.13-.55.26-.82.38-.82a.21.21,0,0,1,.13,0,.12.12,0,0,1,.06.1,12.36,12.36,0,0,1-.43,1.71c-.15.47-.27.92-.37,1.33a6.28,6.28,0,0,0-.17,1.32.56.56,0,0,1,.07.25.58.58,0,0,1,0,.2.74.74,0,0,0,0,.22c0,.05,0,.27.06.65a4.7,4.7,0,0,1,.06.67c0,.43,0,.81,0,1.15V133c0,.66-.1,1-.3,1A.28.28,0,0,1,63.88,133.91Z"/></g></svg>