<svg xmlns="http://www.w3.org/2000/svg" viewBox="0 0 18.4 29.98"><defs><style>.cls-1{fill:none;}.cls-2{fill:#4d495b;}.cls-3{fill:#ea8b5c;}.cls-4{fill:#e57e51;}.cls-5{fill:#964236;}.cls-6{fill:#6d312b;}.cls-7{fill:#5b2825;}.cls-8{fill:#5b2724;}.cls-9{fill:#843a32;}.cls-10{fill:#451711;}.cls-11{font-size:2.9px;fill:#f5f4ff;font-family:AmaticSC-Regular, Amatic SC;}</style></defs><g id="coffee_types_illustration_pack" data-name="coffee types illustration pack"><rect class="cls-1" width="18.4" height="29.98" rx="8"/><path class="cls-2" d="M4.81,20.25S4.7,18.31,9,18.31s4.22,1.94,4.22,1.94.15,1.31-4.22,1.31S4.81,20.25,4.81,20.25Z"/><path class="cls-3" d="M12.59,18.59l.67-12h-8l.6,12.27a1.17,1.17,0,0,0,1.31,1.1h3.92A1.42,1.42,0,0,0,12.59,18.59Z"/><path class="cls-4" d="M11.86,6.56l-.68,12a1.41,1.41,0,0,1-1.54,1.34h1.41a1.42,1.42,0,0,0,1.54-1.34l.67-12Z"/><path class="cls-5" d="M9.24,4.88c-3.95,0-4,1.68-4,1.68s.46,1.27,4,1.27,4-1.27,4-1.27S13.19,4.88,9.24,4.88Z"/><path class="cls-6" d="M9.24,5.12c-3.43,0-3.46,1.23-3.46,1.23S6.41,7.4,9.23,7.4s3.45-1.05,3.45-1.05S12.67,5.12,9.24,5.12Z"/><path class="cls-7" d="M9.25,5.12c-.31,0-.6,0-.86,0C11,5.34,11,6.35,11,6.35s-.51.83-2.6,1c.27,0,.55,0,.87,0,2.81,0,3.45-1.05,3.45-1.05S12.68,5.12,9.25,5.12Z"/><path class="cls-8" d="M7.29,6.26a.22.22,0,0,1-.22.22H6.63a.22.22,0,0,1-.22-.22h0A.22.22,0,0,1,6.63,6h.44a.22.22,0,0,1,.22.22Z"/><polygon class="cls-5" points="12.8 14.74 13.02 10.81 5.43 10.81 5.62 14.74 12.8 14.74"/><polygon class="cls-9" points="11.62 10.81 11.39 14.74 12.8 14.74 13.02 10.81 11.62 10.81"/><path class="cls-5" d="M7,6.45V5.59a.15.15,0,0,0-.15-.14.14.14,0,0,0-.14.14v.86Z"/><path class="cls-10" d="M13.6,25.67a2,2,0,0,1-2,2H7a2,2,0,0,1-2-2H5a2,2,0,0,1,2-2h4.58a2,2,0,0,1,2,2Z"/><path class="cls-10" d="M15.46,24.56c.35.67-1.37,1.07-1.51.56C14,25.12,15.11,23.89,15.46,24.56Z"/><path class="cls-10" d="M16,26.48c-.08.82-1.88.15-1.7-.41C14.27,26.07,16.06,25.65,16,26.48Z"/><path class="cls-10" d="M2.94,27c-.35-.67,1.37-1.08,1.51-.56C4.45,26.46,3.3,27.69,2.94,27Z"/><path class="cls-10" d="M2.43,25.1c.08-.82,1.88-.15,1.71.4C4.14,25.5,2.34,25.92,2.43,25.1Z"/><text class="cls-11" transform="translate(5.43 26.72)">take away</text></g></svg>