<svg xmlns="http://www.w3.org/2000/svg" viewBox="0 0 18.4 29.98"><defs><style>.cls-1{fill:none;}.cls-2{fill:#4d495b;}.cls-3{fill:#eef8f9;}.cls-4{fill:#dae4e5;}.cls-5{fill:#964236;}.cls-6{fill:#843a32;}.cls-7{fill:#ea8b5c;}.cls-8{fill:#e57e51;}.cls-9{fill:#ffd8a6;}.cls-10{fill:#f9c995;}.cls-11{fill:#f7be86;}.cls-12{fill:#fcf1e6;}.cls-13{fill:#451711;}.cls-14{fill:#f9d9d7;}</style></defs><g id="coffee_types_illustration_pack" data-name="coffee types illustration pack"><rect class="cls-1" width="18.4" height="29.98" rx="8"/><path class="cls-2" d="M4.61,20.39s-.11-1.95,4.13-1.95S13,20.39,13,20.39s.14,1.3-4.23,1.3S4.61,20.39,4.61,20.39Z"/><path class="cls-3" d="M8.91,17C4,17,4.31,18.8,4.31,18.8s.2.67,2,1h0s-.22.75,2.55.75c2.6,0,2.56-.75,2.56-.75h0c1.79-.35,2-1,2-1S13.82,17,8.91,17Z"/><path class="cls-4" d="M8.89,17.52c-3.41,0-3.53.93-3.53.93s.15.64,3.49.64c3.09,0,3.37-.64,3.37-.64S12.14,17.52,8.89,17.52Z"/><path class="cls-4" d="M9,20c0-.05-.3,0-1.29,0A8.71,8.71,0,0,1,6,19.75c-.06.15,1,.24,1.69.3A2.8,2.8,0,0,0,9,20Z"/><path class="cls-3" d="M14,12.91l-.1.49s1.56-.21,1.56.87-1.94.71-1.94.71l-.12.56S16,16.27,16,14.36,14,12.91,14,12.91Z"/><path class="cls-3" d="M14.18,11.31H3.57s-.85,7.35,5.3,7.35S14.18,11.31,14.18,11.31Z"/><path class="cls-5" d="M3.79,13.06c.17,2.11,1.08,5.38,5.07,5.38s4.9-3.27,5.07-5.38Z"/><path class="cls-6" d="M12.22,13.06C12.06,15,11.27,18,8,18.39a7.62,7.62,0,0,0,.85.05c4,0,4.9-3.27,5.07-5.38Z"/><path class="cls-7" d="M13.89,13.52a10.2,10.2,0,0,0,0-2.21H3.81a10.56,10.56,0,0,0,0,2.21Z"/><path class="cls-8" d="M13.92,11.31H12.19a9.79,9.79,0,0,1,0,2.21h1.72A10.2,10.2,0,0,0,13.92,11.31Z"/><path class="cls-3" d="M8.87,9.56c-5.07,0-5.3,1.75-5.3,1.75s.42,1.6,5.3,1.6,5.31-1.6,5.31-1.6S13.94,9.56,8.87,9.56Z"/><path class="cls-9" d="M12.69,9.26s-.4-4.07-3.82-4.07A1.86,1.86,0,0,1,9.2,6.77c-.23.93-3,.23-3.07,2,0,0-2.74.48-2.23,2.64,0,0,.9,1.18,5,1.18s5.07-1.24,5.07-1.24S14.3,9.26,12.69,9.26Z"/><path class="cls-10" d="M12.15,12.19a3.55,3.55,0,0,0,1.79-.88s.36-2.05-1.25-2.05c0,0-.4-4.07-3.82-4.07A1.9,1.9,0,0,1,9.23,6a3.58,3.58,0,0,1,2.11,1.11c.88,1.17.16,2.33.37,3s1.23,0,1.26.72A2.08,2.08,0,0,1,12.15,12.19Z"/><path class="cls-11" d="M12.82,8.83a1.67,1.67,0,0,1-.41.74c-.34.37-1,.11-1,.29s.75.2,1.12-.16S13,8.83,12.82,8.83Z"/><path class="cls-11" d="M6.59,9.1a1.57,1.57,0,0,1-.66-1c-.25,0-.11.81.59,1.17s1.28.09,1.24-.1S7.15,9.47,6.59,9.1Z"/><path class="cls-12" d="M5.55,9.16a1.56,1.56,0,0,0-1.08.66c-.27.55-.13,1.48.3,1.35s.12-1.1.45-1.47S5.7,9.24,5.55,9.16Z"/><path class="cls-12" d="M9.07,7.19c-.26-.14-.37.52-.82.65a2.14,2.14,0,0,1-1,0c-.22.11.46.7,1.17.48S9.33,7.32,9.07,7.19Z"/><path class="cls-5" d="M8.68,7.06c-.14-.08-.39.22-.39.22,0,.21.24.28.39.2A.27.27,0,0,0,8.68,7.06Z"/><path class="cls-5" d="M11.2,6.37c-.13-.08-.38.22-.38.22-.05.21.24.27.38.2A.26.26,0,0,0,11.2,6.37Z"/><path class="cls-5" d="M10.29,8.11c-.14-.08-.39.21-.39.21,0,.22.24.28.39.21A.27.27,0,0,0,10.29,8.11Z"/><path class="cls-5" d="M8.14,9.93c-.13-.08-.38.21-.38.21,0,.22.24.28.38.21A.26.26,0,0,0,8.14,9.93Z"/><path class="cls-5" d="M4.5,9.49c-.13-.08-.38.21-.38.21,0,.21.24.28.38.21A.26.26,0,0,0,4.5,9.49Z"/><path class="cls-5" d="M6,11.19c-.14-.08-.39.21-.39.21,0,.21.24.28.39.21A.27.27,0,0,0,6,11.19Z"/><path class="cls-5" d="M9.67,11.1c-.13-.09-.38.21-.38.21,0,.21.24.28.38.2A.26.26,0,0,0,9.67,11.1Z"/><path class="cls-5" d="M11.81,9c-.13-.08-.38.22-.38.22,0,.21.24.28.38.2A.26.26,0,0,0,11.81,9Z"/><path class="cls-5" d="M13,10.33c-.13-.08-.38.21-.38.21-.05.21.24.28.38.2A.26.26,0,0,0,13,10.33Z"/><path class="cls-13" d="M13,25.79a2,2,0,0,1-2,2H6.42a2,2,0,0,1-2-2h0a2,2,0,0,1,2-2H11a2,2,0,0,1,2,2Z"/><path class="cls-14" d="M5.18,24.91h0q.09,0,.09.06s0,0,0,0h0a.1.1,0,0,0-.07,0c-.08,0-.12.06-.12.08a1.14,1.14,0,0,0-.1.53v.08a3,3,0,0,0,.06.54.59.59,0,0,0,.1.31.19.19,0,0,0,.13.07.22.22,0,0,0,.16-.11h0v0h0s0,.06-.11.11l-.08,0h0a.22.22,0,0,1-.15-.08A1.23,1.23,0,0,1,4.94,26a1.63,1.63,0,0,1,0-.36v0c0-.34.06-.55.16-.63Z"/><path class="cls-14" d="M5.88,24.9h0a.3.3,0,0,1,.12.17,5.43,5.43,0,0,1,.2,1.11,1.89,1.89,0,0,1,0,.38.05.05,0,0,1,0,0s0-.16-.06-.4c0,0,0-.14,0-.33h0c-.19,0-.28,0-.28.06v.19l0,.47a0,0,0,0,1,0,0l0,0a0,0,0,0,1,0-.05c0-.36,0-.57,0-.64v-.14A5.3,5.3,0,0,1,5.81,25C5.82,24.94,5.85,24.9,5.88,24.9Zm0,.06a3,3,0,0,0-.07.73.55.55,0,0,0,0,.12v0a1.18,1.18,0,0,1,.31,0h0a3.92,3.92,0,0,0-.17-.73A.17.17,0,0,0,5.88,25Z"/><path class="cls-14" d="M6.71,24.85a.33.33,0,0,1,.33.21s0,.07,0,.12a2.59,2.59,0,0,1-.11.69A.37.37,0,0,1,6.8,26l-.06,0h0v.16c0,.19,0,.3,0,.33s0,0,0,0v0s0,0,0,0h0s0,0,0,0v0h0s0-.08,0-.13h0V26a0,0,0,0,1,0,0s0,0,0,0a1.36,1.36,0,0,1,0-.16l0-.92a0,0,0,0,1,0,0h0S6.7,24.86,6.71,24.85Zm0,0,0,.91V26h0a.17.17,0,0,0,.12-.06c.06,0,.1-.25.14-.62,0-.06,0-.1,0-.12a.3.3,0,0,0-.15-.24Z"/><path class="cls-14" d="M7.41,24.85a.31.31,0,0,1,.32.21.43.43,0,0,1,0,.12,2.24,2.24,0,0,1-.11.69A.29.29,0,0,1,7.5,26l-.06,0h0v.16c0,.19,0,.3,0,.33s0,0,0,0v0s0,0,0,0h0l0,0v0h0s0-.08,0-.13h0V26s0,0,0,0,0,0,0,0a1.36,1.36,0,0,1,0-.16l0-.92s0,0,0,0h0S7.4,24.86,7.41,24.85Zm0,0,0,.91V26h0a.17.17,0,0,0,.12-.06c.06,0,.1-.25.14-.62v-.12a.3.3,0,0,0-.15-.24Z"/><path class="cls-14" d="M8.13,24.84h0a.05.05,0,0,1,0,0v0c0,.54.07,1,.11,1.31s.08.34.14.34a.1.1,0,0,0,.06-.09c0-.14,0-.47,0-1a2.72,2.72,0,0,0,0-.28V25h0c0-.05,0-.09,0-.14l0,0h0s0,.05,0,.14h0a.54.54,0,0,1,0,.11v.2h0a.34.34,0,0,0,0,.09v0c0,.58,0,.92,0,1s0,.14-.13.14-.15-.16-.18-.48-.07-.71-.1-1.27Z"/><path class="cls-14" d="M9.18,24.91h0q.09,0,.09.06a0,0,0,0,1,0,0h0a.1.1,0,0,0-.07,0c-.08,0-.13.06-.13.08a1.28,1.28,0,0,0-.1.53v.08a3,3,0,0,0,.06.54.85.85,0,0,0,.1.31.23.23,0,0,0,.14.07c.05,0,.1,0,.16-.11h0v0h0s0,.06-.11.11l-.08,0h0a.27.27,0,0,1-.16-.08A1.28,1.28,0,0,1,8.94,26a1.48,1.48,0,0,1,0-.36v0c0-.34.07-.55.17-.63Z"/><path class="cls-14" d="M10,24.91h0q.09,0,.09.06a0,0,0,0,1,0,0h0A.13.13,0,0,0,10,25c-.08,0-.13.06-.13.08a1.28,1.28,0,0,0-.1.53v.08a3,3,0,0,0,.06.54.85.85,0,0,0,.1.31.23.23,0,0,0,.14.07s.1,0,.16-.11h0v0h0s0,.06-.11.11l-.09,0h0a.27.27,0,0,1-.16-.08A1.15,1.15,0,0,1,9.74,26a1.48,1.48,0,0,1,0-.36v0c0-.34.06-.55.17-.63Z"/><path class="cls-14" d="M10.62,24.9h0s0,.09,0,.27v.06q0,.11,0,.51s0,0,0,0c0,.18,0,.32,0,.42v.33a.18.18,0,0,0,0,0s0,0,0,0h0s0,0,0-.13c0-.59,0-1,0-1.21v-.14a1.48,1.48,0,0,0,0-.21S10.6,24.91,10.62,24.9Z"/><path class="cls-14" d="M11.39,24.9h0l0,0a.45.45,0,0,0,0,.12c0,.09,0,.4.11.95l0,.51a0,0,0,0,1,0,0s0-.12-.1-.36-.09-.35-.17-.71a2.54,2.54,0,0,1-.11-.38h0v.06c0,.07,0,.27,0,.61s0,.59,0,.83h0l0,0h0v-.05c0-.22,0-.48,0-.79s0-.54,0-.61a.66.66,0,0,0,0-.11v0s0,0,0,0,0-.08,0-.08,0,.06.07.17c.12.38.2.71.26,1a.9.9,0,0,1,0,.12h0l-.12-.95s0-.11,0-.19v-.13Z"/><path class="cls-14" d="M12.14,25h0s.06.05.09.16a6.3,6.3,0,0,1,.05.75,1.82,1.82,0,0,1-.07.69s-.05,0-.07,0h0c-.09,0-.15-.14-.18-.44,0-.11,0-.27,0-.47v-.1a1.53,1.53,0,0,1,.1-.54s0,0,0,0Zm-.13.64a6.88,6.88,0,0,0,0,.7c0,.17.07.25.12.25s.1-.22.1-.67h0a4.26,4.26,0,0,0-.06-.76c0-.07,0-.1-.05-.1h0c-.06,0-.1.19-.13.45Z"/><path class="cls-13" d="M2.42,24.5c.11-.75,1.74-.06,1.55.44C4,24.94,2.31,25.25,2.42,24.5Z"/><path class="cls-13" d="M3.13,22.65c.55-.62,1.62,1,1.15,1.33C4.28,24,2.58,23.26,3.13,22.65Z"/><path class="cls-13" d="M13.78,28.9c.62-.44-.73-1.58-1.09-1.19C12.69,27.71,13.16,29.34,13.78,28.9Z"/><path class="cls-13" d="M15.11,27.43c.3-.77-1.61-1-1.7-.42C13.41,27,14.81,28.2,15.11,27.43Z"/></g></svg>