<svg xmlns="http://www.w3.org/2000/svg" viewBox="0 0 92.06 150"><defs><style>.cls-1{fill:none;}.cls-2{fill:#4d495b;}.cls-3{fill:#eef8f9;}.cls-4{fill:#dae4e5;}.cls-5{fill:#964236;}.cls-6{fill:#843a32;}.cls-7{fill:#ea8b5c;}.cls-8{fill:#e57e51;}.cls-9{fill:#ffd8a6;}.cls-10{fill:#f9c995;}.cls-11{fill:#f7be86;}.cls-12{fill:#fcf1e6;}.cls-13{fill:#451711;}.cls-14{fill:#f5f4ff;}</style></defs><g id="coffee_types_illustration_pack" data-name="coffee types illustration pack"><rect class="cls-1" x="-0.05" y="-0.09" width="92.17" height="150.17" rx="8"/><path class="cls-2" d="M23,102s-.54-9.74,20.72-9.74S64.9,102,64.9,102s.71,6.54-21.17,6.54S23,102,23,102Z"/><path class="cls-3" d="M44.58,85C20,85,21.52,94.09,21.52,94.09s1,3.35,10,5.1h0S30.41,103,44.29,103c13,0,12.8-3.76,12.8-3.76h0c9-1.75,10-5.1,10-5.1S69.18,85,44.58,85Z"/><path class="cls-4" d="M44.45,87.65c-17.06,0-17.67,4.66-17.67,4.66s.74,3.21,17.52,3.21c15.45,0,16.83-3.21,16.83-3.21S60.75,87.65,44.45,87.65Z"/><path class="cls-4" d="M44.85,99.9c-.17-.29-1.47.17-6.42,0a45.14,45.14,0,0,1-8.51-1.06c-.34.75,4.9,1.19,8.43,1.48S45,100.2,44.85,99.9Z"/><path class="cls-3" d="M70.07,64.57l-.51,2.48s7.81-1.06,7.81,4.33S67.67,75,67.67,75L67,77.75s13,3.65,13-5.92S70.07,64.57,70.07,64.57Z"/><path class="cls-3" d="M71,56.57H17.83S13.55,93.36,44.39,93.36,71,56.57,71,56.57Z"/><path class="cls-5" d="M18.94,65.31c.86,10.57,5.42,27,25.38,27s24.53-16.4,25.39-27Z"/><path class="cls-6" d="M61.13,65.31C60.33,75.08,56.38,89.83,40,92a32.11,32.11,0,0,0,4.28.27c20,0,24.52-16.4,25.38-27Z"/><path class="cls-7" d="M69.53,67.65a51.2,51.2,0,0,0,.23-11.08H19a50.86,50.86,0,0,0,.24,11.08Z"/><path class="cls-8" d="M69.67,56.57H61a51.2,51.2,0,0,1-.23,11.08h8.64A50.86,50.86,0,0,0,69.67,56.57Z"/><path class="cls-3" d="M44.39,47.79c-25.39,0-26.56,8.78-26.56,8.78s2.1,8,26.56,8,26.56-8,26.56-8S69.77,47.79,44.39,47.79Z"/><path class="cls-9" d="M63.52,46.28s-2-20.39-19.13-20.39A9.47,9.47,0,0,1,46,33.82C44.89,38.47,31.17,35,30.67,43.64c0,0-13.72,2.41-11.2,13.21,0,0,4.52,5.91,24.92,5.91s25.37-6.19,25.37-6.19S71.58,46.28,63.52,46.28Z"/><path class="cls-10" d="M60.79,61c6.91-1.82,9-4.39,9-4.39s1.82-10.29-6.24-10.29c0,0-2-20.39-19.13-20.39A9.36,9.36,0,0,1,46.17,30c3.58.77,8.11,2.35,10.55,5.58,4.45,5.88.84,11.67,1.85,14.77s6.21-.17,6.33,3.61S60.8,61,60.79,61Z"/><path class="cls-11" d="M64.18,44.15a8.65,8.65,0,0,1-2.08,3.71c-1.71,1.85-4.93.52-5.08,1.45s3.75,1,5.58-.83S65,44.16,64.18,44.15Z"/><path class="cls-11" d="M32.93,45.5a7.78,7.78,0,0,1-3.27-5c-1.27-.21-.54,4,2.93,5.84s6.44.42,6.21-.51S35.77,47.35,32.93,45.5Z"/><path class="cls-12" d="M27.76,45.78s-4,.54-5.42,3.31-.67,7.43,1.51,6.78.59-5.55,2.23-7.36S28.51,46.19,27.76,45.78Z"/><path class="cls-12" d="M45.38,35.91c-1.3-.67-1.85,2.61-4.13,3.28A11,11,0,0,1,36.06,39c-1.09.55,2.31,3.52,5.84,2.39S46.68,36.59,45.38,35.91Z"/><path class="cls-5" d="M43.41,35.3c-.67-.41-1.93,1.07-1.93,1.07-.22,1.07,1.21,1.38,1.93,1A1.32,1.32,0,0,0,43.41,35.3Z"/><path class="cls-5" d="M56.06,31.83c-.67-.4-1.93,1.08-1.93,1.08-.22,1.07,1.21,1.38,1.93,1A1.32,1.32,0,0,0,56.06,31.83Z"/><path class="cls-5" d="M51.46,40.52c-.67-.4-1.92,1.07-1.92,1.07-.22,1.07,1.21,1.39,1.92,1A1.32,1.32,0,0,0,51.46,40.52Z"/><path class="cls-5" d="M40.73,49.65c-.67-.41-1.92,1.07-1.92,1.07-.22,1.07,1.21,1.38,1.92,1A1.32,1.32,0,0,0,40.73,49.65Z"/><path class="cls-5" d="M22.51,47.43c-.67-.41-1.92,1.07-1.92,1.07-.22,1.07,1.2,1.38,1.92,1A1.32,1.32,0,0,0,22.51,47.43Z"/><path class="cls-5" d="M30.13,55.94C29.46,55.54,28.2,57,28.2,57c-.22,1.07,1.21,1.39,1.93,1A1.32,1.32,0,0,0,30.13,55.94Z"/><path class="cls-5" d="M48.38,55.48c-.67-.4-1.92,1.08-1.92,1.08-.23,1.07,1.2,1.38,1.92,1A1.32,1.32,0,0,0,48.38,55.48Z"/><path class="cls-5" d="M59.11,45.11c-.67-.4-1.93,1.08-1.93,1.08-.22,1.07,1.21,1.38,1.93,1A1.32,1.32,0,0,0,59.11,45.11Z"/><path class="cls-5" d="M65.26,51.63c-.67-.4-1.92,1.07-1.92,1.07-.23,1.07,1.2,1.39,1.92,1A1.32,1.32,0,0,0,65.26,51.63Z"/><path class="cls-13" d="M65.24,129.09A10.2,10.2,0,0,1,55,139.29H32.11a10.19,10.19,0,0,1-10.2-10.2h0a10.2,10.2,0,0,1,10.2-10.2H55a10.2,10.2,0,0,1,10.2,10.2Z"/><path class="cls-13" d="M12.08,122.63c.54-3.76,8.7-.34,7.77,2.18C19.85,124.81,11.54,126.4,12.08,122.63Z"/><path class="cls-13" d="M15.63,113.34c2.76-3.08,8.09,4.93,5.74,6.65C21.37,120,12.88,116.43,15.63,113.34Z"/><path class="cls-13" d="M69,144.65c3.11-2.18-3.63-7.91-5.46-6C63.5,138.7,65.84,146.84,69,144.65Z"/><path class="cls-13" d="M75.64,137.28c1.5-3.85-8.06-5-8.53-2.11C67.11,135.17,74.13,141.14,75.64,137.28Z"/><path class="cls-14" d="M26,133.65a1.32,1.32,0,0,1-.41-.21,1.35,1.35,0,0,1-.32-.42,3.48,3.48,0,0,1-.31-1.45q0-.42,0-.75v-1.44c0-.54,0-1.07,0-1.58a9.21,9.21,0,0,1,.11-1,5.81,5.81,0,0,1,.24-.78,1.48,1.48,0,0,1,.39-.57,1.53,1.53,0,0,1,.35-.18l.31-.13H27l0,0s0,0,0,.05a.15.15,0,0,1,0,.07l-.16.19h-.53a.55.55,0,0,0-.43.24,1.45,1.45,0,0,0-.3.58,4.32,4.32,0,0,0-.16.74,6,6,0,0,0-.08.75c0,.27,0,.45,0,.55l0,.07c0,.47,0,.89,0,1.27l0,1.27a5.41,5.41,0,0,0,.08,1,1.86,1.86,0,0,0,.36.91,1,1,0,0,0,.89.4.48.48,0,0,0,.32-.11c.13,0,.19,0,.19.14s-.05.12-.16.2a1.5,1.5,0,0,1-.32.19h-.42Z"/><path class="cls-14" d="M30.91,133.63a.38.38,0,0,1-.07-.23c-.08-.61-.13-1-.14-1.15l-.07-.5a2.93,2.93,0,0,0-.63-.06l-.45,0-.44,0a.09.09,0,0,0-.09.07s0,0,0,0l0,.25a7.11,7.11,0,0,1-.13.9,2.43,2.43,0,0,1-.16.53c-.06.15-.13.22-.18.22a.31.31,0,0,1-.17-.07.2.2,0,0,1-.09-.15l0,0v0c.15-.6.28-1.19.38-1.78l.15-.78.15-1,.14-.83c0-.22.11-.59.22-1.09s.19-1,.22-1.18c0,0,0-.18.05-.46s.06-.56.09-.71a1.16,1.16,0,0,1,.07-.37h.18a.32.32,0,0,0,.23-.08.22.22,0,0,1,.15.06.16.16,0,0,1,.07.13,12.36,12.36,0,0,0,.09,1.39c0,.27.06.49.08.66q.14,1.64.7,6.1v0a.21.21,0,0,1-.1.19A.43.43,0,0,1,30.91,133.63Zm-.34-2.22c-.08-1.21-.24-3-.48-5.35l-.68,3.36a13.66,13.66,0,0,0-.29,1.83s.16.08.48.11.6,0,.85,0Z"/><path class="cls-14" d="M32.79,133.72a11,11,0,0,1-.14-1.82c0-.27,0-.66,0-1.17l0-1.17a.71.71,0,0,1-.09-.29,2.86,2.86,0,0,0,.13-1.16,21.35,21.35,0,0,0-.06-2.44c.07-.21.13-.32.17-.32h.56a1.09,1.09,0,0,1,.39.13,2.24,2.24,0,0,1,.44.29c.21.19.31.69.31,1.48q0,.65,0,1a1.33,1.33,0,0,1-.09.37,1.26,1.26,0,0,1-.17.32,1.48,1.48,0,0,1-.64.5,2.19,2.19,0,0,1-.53.2v1.5c0,.21,0,.62.07,1.24l0,.4,0,.82a.21.21,0,0,1-.24.23Zm1-4.85a1.55,1.55,0,0,0,.16-.34,1.81,1.81,0,0,0,.1-.42,4.13,4.13,0,0,0,.08-.84v-.34c0-.12,0-.24,0-.34a3.06,3.06,0,0,0,0-.32A.86.86,0,0,0,34,126a.58.58,0,0,0-.22-.18.8.8,0,0,0-.36-.08.29.29,0,0,0-.22.08.43.43,0,0,0-.06.26c0,.2,0,.51,0,.91l0,.91a5.53,5.53,0,0,1,0,.59l0,.59.09.13A.78.78,0,0,0,33.81,128.87Z"/><path class="cls-14" d="M36.1,133.72A11,11,0,0,1,36,131.9c0-.27,0-.66,0-1.17l0-1.17a.71.71,0,0,1-.09-.29,3.15,3.15,0,0,0,.12-1.16,21.35,21.35,0,0,0-.06-2.44c.08-.21.13-.32.18-.32h.55a1.18,1.18,0,0,1,.4.13,2.47,2.47,0,0,1,.43.29,2.21,2.21,0,0,1,.32,1.48c0,.43,0,.76,0,1a1.92,1.92,0,0,1-.08.37,2.55,2.55,0,0,1-.17.32,1.51,1.51,0,0,1-.65.5,2.26,2.26,0,0,1-.52.2v1.5c0,.21,0,.62.06,1.24l0,.4,0,.82a.21.21,0,0,1-.24.23Zm1-4.85a1.55,1.55,0,0,0,.16-.34,2.62,2.62,0,0,0,.11-.42,4.19,4.19,0,0,0,.07-.84v-.34c0-.12,0-.24,0-.34a3.06,3.06,0,0,0-.05-.32,1.13,1.13,0,0,0-.13-.27.79.79,0,0,0-.22-.18.87.87,0,0,0-.37-.08.26.26,0,0,0-.21.08.37.37,0,0,0-.07.26c0,.2,0,.51,0,.91l0,.91a5.41,5.41,0,0,1,0,.59l0,.59.08.13A.76.76,0,0,0,37.12,128.87Z"/><path class="cls-14" d="M40.12,133.62a1.47,1.47,0,0,1-.38-.31,3.1,3.1,0,0,1-.28-1.27c-.06-.7-.11-1.49-.12-2.39,0-.21,0-.36,0-.46,0-2.1-.06-3.35-.11-3.74l.08-.17c.19,0,.29.25.29.69l0,3.34c0,.23,0,.68.06,1.33s.08,1,.08,1.34c0,1,.31,1.43.94,1.43.39,0,.63-.88.74-2.64l0-.25c.06-2.31.08-4,.08-5.13v-.11a.49.49,0,0,1,0-.12c0-.09.07-.14.21-.14s.17,0,.19.08a2.15,2.15,0,0,1,0,.44,6.92,6.92,0,0,1-.08,1.29v.07c0,.11,0,.28,0,.5l0,.51V128a.53.53,0,0,1,0,.13c0,.2,0,.4,0,.58a2,2,0,0,0,0,.28c0,.8,0,1.49-.05,2.08a6.36,6.36,0,0,1-.31,1.85c-.18.53-.48.8-.89.8A.88.88,0,0,1,40.12,133.62Z"/><path class="cls-14" d="M44.78,133.65a1.22,1.22,0,0,1-.41-.21,1.35,1.35,0,0,1-.32-.42,3.62,3.62,0,0,1-.32-1.45c0-.28,0-.53,0-.75v-1.44c0-.54,0-1.07,0-1.58a7.11,7.11,0,0,1,.11-1,3.88,3.88,0,0,1,.24-.78,1.48,1.48,0,0,1,.39-.57,1.4,1.4,0,0,1,.34-.18l.32-.13h.64l.05,0s0,0,0,.05a.15.15,0,0,1,0,.07l-.16.19h-.53a.57.57,0,0,0-.44.24,1.44,1.44,0,0,0-.29.58,4.27,4.27,0,0,0-.17.74,5.8,5.8,0,0,0-.07.75c0,.27,0,.45,0,.55l0,.07c0,.47,0,.89,0,1.27l0,1.27a6.45,6.45,0,0,0,.07,1,1.78,1.78,0,0,0,.37.91,1,1,0,0,0,.89.4.5.5,0,0,0,.32-.11c.12,0,.18,0,.18.14s0,.12-.15.2a1.79,1.79,0,0,1-.32.19h-.42Z"/><path class="cls-14" d="M48.37,133.65a1.22,1.22,0,0,1-.41-.21,1.35,1.35,0,0,1-.32-.42,3.62,3.62,0,0,1-.32-1.45c0-.28,0-.53,0-.75v-1.44c0-.54,0-1.07.05-1.58a7.11,7.11,0,0,1,.11-1,3.88,3.88,0,0,1,.24-.78,1.48,1.48,0,0,1,.39-.57,1.4,1.4,0,0,1,.34-.18l.32-.13h.64l0,0s0,0,0,.05a.15.15,0,0,1,0,.07l-.16.19H48.8a.57.57,0,0,0-.44.24,1.44,1.44,0,0,0-.29.58,4.27,4.27,0,0,0-.17.74,5.8,5.8,0,0,0-.07.75c0,.27,0,.45,0,.55l0,.07c0,.47,0,.89,0,1.27l0,1.27a6.45,6.45,0,0,0,.07,1,1.78,1.78,0,0,0,.37.91,1,1,0,0,0,.89.4.5.5,0,0,0,.32-.11c.12,0,.18,0,.18.14s-.05.12-.15.2a1.79,1.79,0,0,1-.32.19h-.42Z"/><path class="cls-14" d="M51.37,133.44h-.21c-.18,0-.3,0-.35-.13a.22.22,0,0,1,.1-.15l.07-.06h.36l0-.05,0-.11v-.15c0-.52,0-1,0-1.38l0-.46,0-.92c0-.33,0-.82,0-1.48l0-1.46a13.3,13.3,0,0,0-.06-1.46,1.49,1.49,0,0,0-.38,0l-.14,0h-.16c-.16,0-.24-.07-.24-.22s0-.06.11-.1a.59.59,0,0,1,.19,0c.32,0,.64,0,1,0a2,2,0,0,1,.58.12c.15,0,.23.12.23.21a.49.49,0,0,1,0,.1l-.29,0a.61.61,0,0,0-.37-.08l-.06,0a2.86,2.86,0,0,1,0,.67c0,.55,0,1,0,1.5l0,1.5c0,.37,0,.83.05,1.37s0,1.07,0,1.38v.17a1.41,1.41,0,0,0,0,.22,1.22,1.22,0,0,0,0,.36v0c0,.09.09.13.28.13l.19,0h.19q.36,0,.36.18a.21.21,0,0,1-.07.18.27.27,0,0,1-.2.07l-.21,0h-.21a.7.7,0,0,0-.23.06.53.53,0,0,1-.22.07C51.51,133.56,51.4,133.52,51.37,133.44Z"/><path class="cls-14" d="M57.08,133.54a.76.76,0,0,1-.08-.23.69.69,0,0,0,0-.17v0a7.92,7.92,0,0,0-.43-1.45L56.3,131s-.09-.23-.24-.64l-.1-.3a20.16,20.16,0,0,0-1.42-3.79,3,3,0,0,0-.1.88c0,.19,0,.36,0,.5v.8a2.81,2.81,0,0,0,0,.3c0,.18,0,.34,0,.48l0,.4h0a13.82,13.82,0,0,0,.09,2.32v1.13a.68.68,0,0,1,.05.27.23.23,0,0,1-.07.17.21.21,0,0,1-.17.08c-.18,0-.26-.23-.26-.68l0-.4a2.77,2.77,0,0,0,0-.42c0-.4,0-1,0-1.81s0-1.41,0-1.82c0-.24,0-.61,0-1.12s0-.86,0-1.11v-.16a1.08,1.08,0,0,1,.22-.81l0,0,.13,0a.2.2,0,0,1,.11.07.18.18,0,0,1,0,.12l0,.07a.13.13,0,0,0,0,.06,14.57,14.57,0,0,0,.91,2.51c.48,1.13.77,1.89.89,2.25s.15.56.2.79a6.24,6.24,0,0,0,.57,1.65l0,0a66.36,66.36,0,0,0,.29-6.87v-.15a.71.71,0,0,1,0-.16c0-.18.06-.27.17-.27a.23.23,0,0,1,.2.12.44.44,0,0,1,.08.25v.84l-.06.1c0,.8,0,2.11-.14,3.93a18.26,18.26,0,0,1-.26,3l-.22.05h0l-.13,0A.15.15,0,0,1,57.08,133.54Z"/><path class="cls-14" d="M59.64,129.17v-.44c0-2.35.3-3.52.91-3.52l.17,0a4,4,0,0,0,.8.18c.16,0,.32.19.48.49a3.86,3.86,0,0,1,.39,1.19,8.62,8.62,0,0,1,.14,1.53l0,.06c0,.28,0,.53,0,.74l0,.76a10.06,10.06,0,0,1-.06,1.16,6.65,6.65,0,0,1-.25,1.35,2.24,2.24,0,0,1-.26.56,1.16,1.16,0,0,1-.35.38.82.82,0,0,1-.5.15Q59.64,133.8,59.64,129.17Zm2.15,3.58a5.5,5.5,0,0,0,.29-1.44c0-.5.05-.91.05-1.21s0-.83-.07-1.49-.06-1.22-.06-1.48l0-.1,0-.07a1.49,1.49,0,0,0-.31-.95.91.91,0,0,0-.75-.41.64.64,0,0,0-.69.56c0,.12,0,.3,0,.54a6.89,6.89,0,0,1-.08,1.27c0,.13,0,.32,0,.59l0,.6c0,.18,0,.34,0,.49l0,.5a10,10,0,0,0,.1,1.36c.05.38.11.7.17,1a2.42,2.42,0,0,0,.29.67.55.55,0,0,0,.44.3C61.39,133.44,61.63,133.21,61.79,132.75Z"/></g></svg>