<svg xmlns="http://www.w3.org/2000/svg" viewBox="0 0 18.4 29.98"><defs><style>.cls-1{fill:none;}.cls-2{fill:#4d495b;}.cls-3{fill:#eef8f9;}.cls-4{fill:#dae4e5;}.cls-5{fill:#964236;}.cls-6{fill:#843a32;}.cls-7{fill:#ea8b5c;}.cls-8{fill:#e57e51;}.cls-9{fill:#ffd8a6;}.cls-10{fill:#f9c995;}.cls-11{fill:#f7be86;}.cls-12{fill:#fcf1e6;}.cls-13{fill:#451711;}.cls-14{font-size:2.51px;fill:#f5f4ff;font-family:AmaticSC-Regular, Amatic SC;}</style></defs><g id="coffee_types_illustration_pack" data-name="coffee types illustration pack"><rect class="cls-1" width="18.4" height="29.98" rx="8"/><path class="cls-2" d="M4.61,20.39s-.11-1.95,4.13-1.95S13,20.39,13,20.39s.14,1.3-4.23,1.3S4.61,20.39,4.61,20.39Z"/><path class="cls-3" d="M8.91,17C4,17,4.31,18.8,4.31,18.8s.2.67,2,1h0s-.22.75,2.55.75c2.6,0,2.56-.75,2.56-.75h0c1.79-.35,2-1,2-1S13.82,17,8.91,17Z"/><path class="cls-4" d="M8.89,17.52c-3.41,0-3.53.93-3.53.93s.15.64,3.49.64c3.09,0,3.37-.64,3.37-.64S12.14,17.52,8.89,17.52Z"/><path class="cls-4" d="M9,20c0-.05-.3,0-1.29,0A8.71,8.71,0,0,1,6,19.75c-.06.15,1,.24,1.69.3A2.8,2.8,0,0,0,9,20Z"/><path class="cls-3" d="M14,12.91l-.1.49s1.56-.21,1.56.87-1.94.71-1.94.71l-.12.56S16,16.27,16,14.36,14,12.91,14,12.91Z"/><path class="cls-3" d="M14.18,11.31H3.57s-.85,7.35,5.3,7.35S14.18,11.31,14.18,11.31Z"/><path class="cls-5" d="M3.79,13.06c.17,2.11,1.08,5.38,5.07,5.38s4.9-3.27,5.07-5.38Z"/><path class="cls-6" d="M12.22,13.06C12.06,15,11.27,18,8,18.39a7.62,7.62,0,0,0,.85.05c4,0,4.9-3.27,5.07-5.38Z"/><path class="cls-7" d="M13.89,13.52a10.2,10.2,0,0,0,0-2.21H3.81a10.56,10.56,0,0,0,0,2.21Z"/><path class="cls-8" d="M13.92,11.31H12.19a9.79,9.79,0,0,1,0,2.21h1.72A10.2,10.2,0,0,0,13.92,11.31Z"/><path class="cls-3" d="M8.87,9.56c-5.07,0-5.3,1.75-5.3,1.75s.42,1.6,5.3,1.6,5.31-1.6,5.31-1.6S13.94,9.56,8.87,9.56Z"/><path class="cls-9" d="M12.69,9.26s-.4-4.07-3.82-4.07A1.86,1.86,0,0,1,9.2,6.77c-.23.93-3,.23-3.07,2,0,0-2.74.48-2.23,2.64,0,0,.9,1.18,5,1.18s5.07-1.24,5.07-1.24S14.3,9.26,12.69,9.26Z"/><path class="cls-10" d="M12.15,12.19a3.55,3.55,0,0,0,1.79-.88s.36-2.05-1.25-2.05c0,0-.4-4.07-3.82-4.07A1.9,1.9,0,0,1,9.23,6a3.58,3.58,0,0,1,2.11,1.11c.88,1.17.16,2.33.37,3s1.23,0,1.26.72A2.08,2.08,0,0,1,12.15,12.19Z"/><path class="cls-11" d="M12.82,8.83a1.67,1.67,0,0,1-.41.74c-.34.37-1,.11-1,.29s.75.2,1.12-.16S13,8.83,12.82,8.83Z"/><path class="cls-11" d="M6.59,9.1a1.57,1.57,0,0,1-.66-1c-.25,0-.11.81.59,1.17s1.28.09,1.24-.1S7.15,9.47,6.59,9.1Z"/><path class="cls-12" d="M5.55,9.16a1.56,1.56,0,0,0-1.08.66c-.27.55-.13,1.48.3,1.35s.12-1.1.45-1.47S5.7,9.24,5.55,9.16Z"/><path class="cls-12" d="M9.07,7.19c-.26-.14-.37.52-.82.65a2.14,2.14,0,0,1-1,0c-.22.11.46.7,1.17.48S9.33,7.32,9.07,7.19Z"/><path class="cls-5" d="M8.68,7.06c-.14-.08-.39.22-.39.22,0,.21.24.28.39.2A.27.27,0,0,0,8.68,7.06Z"/><path class="cls-5" d="M11.2,6.37c-.13-.08-.38.22-.38.22-.05.21.24.27.38.2A.26.26,0,0,0,11.2,6.37Z"/><path class="cls-5" d="M10.29,8.11c-.14-.08-.39.21-.39.21,0,.22.24.28.39.21A.27.27,0,0,0,10.29,8.11Z"/><path class="cls-5" d="M8.14,9.93c-.13-.08-.38.21-.38.21,0,.22.24.28.38.21A.26.26,0,0,0,8.14,9.93Z"/><path class="cls-5" d="M4.5,9.49c-.13-.08-.38.21-.38.21,0,.21.24.28.38.21A.26.26,0,0,0,4.5,9.49Z"/><path class="cls-5" d="M6,11.19c-.14-.08-.39.21-.39.21,0,.21.24.28.39.21A.27.27,0,0,0,6,11.19Z"/><path class="cls-5" d="M9.67,11.1c-.13-.09-.38.21-.38.21,0,.21.24.28.38.2A.26.26,0,0,0,9.67,11.1Z"/><path class="cls-5" d="M11.81,9c-.13-.08-.38.22-.38.22,0,.21.24.28.38.2A.26.26,0,0,0,11.81,9Z"/><path class="cls-5" d="M13,10.33c-.13-.08-.38.21-.38.21-.05.21.24.28.38.2A.26.26,0,0,0,13,10.33Z"/><path class="cls-13" d="M13,25.79a2,2,0,0,1-2,2H6.42a2,2,0,0,1-2-2h0a2,2,0,0,1,2-2H11a2,2,0,0,1,2,2Z"/><path class="cls-13" d="M2.42,24.5c.11-.75,1.74-.06,1.55.44C4,24.94,2.31,25.25,2.42,24.5Z"/><path class="cls-13" d="M3.13,22.65c.55-.62,1.62,1,1.15,1.33C4.28,24,2.58,23.26,3.13,22.65Z"/><path class="cls-13" d="M13.78,28.9c.62-.44-.73-1.58-1.09-1.19C12.69,27.71,13.16,29.34,13.78,28.9Z"/><path class="cls-13" d="M15.11,27.43c.3-.77-1.61-1-1.7-.42C13.41,27,14.81,28.2,15.11,27.43Z"/><text class="cls-14" transform="translate(4.84 26.69)">cappuccino</text></g></svg>