<svg xmlns="http://www.w3.org/2000/svg" viewBox="0 0 18.4 29.98"><defs><style>.cls-1{fill:none;}.cls-2{fill:#eef8f9;}.cls-3{fill:#4d495b;}.cls-4{fill:#ea8b5c;}.cls-5{fill:#e57b4c;}.cls-6{fill:#edb379;}.cls-7{fill:#e8a76d;}.cls-8{fill:#ffd8a6;}.cls-9{fill:#fccb95;}.cls-10{fill:#f7be86;}.cls-11{fill:#fcf1e6;}.cls-12{fill:#5d2219;}.cls-13{fill:#451711;}.cls-14{font-size:2.43px;fill:#f5f4ff;font-family:AmaticSC-Regular, Amatic SC;}</style></defs><g id="coffee_types_illustration_pack" data-name="coffee types illustration pack"><rect class="cls-1" width="18.4" height="29.98" rx="8"/><path class="cls-2" d="M13.09,8.11l-.1.5s1.56-.22,1.56.86-1.94.72-1.94.72l-.12.55s2.58.73,2.58-1.18S13.09,8.11,13.09,8.11Z"/><path class="cls-3" d="M5.05,20.51s-.11-1.94,4.13-1.94,4.23,1.94,4.23,1.94.14,1.31-4.23,1.31S5.05,20.51,5.05,20.51Z"/><path class="cls-2" d="M9.54,19.1V14.93c4.7-.44,3.71-8.15,3.71-8.15h-8S4,14.68,8.86,15V19.1c-2.62.09-2.59,1.09-2.59,1.09s.1.82,2.83.82,2.83-.82,2.83-.82S12.15,19.19,9.54,19.1Z"/><path class="cls-4" d="M5.54,10.84c.33,1.95,1.28,3.87,3.72,3.87,2.26,0,3.21-1.92,3.58-3.87Z"/><path class="cls-5" d="M11.54,10.84c-.34,1.76-1.15,3.49-3,3.82a4.94,4.94,0,0,0,.68.05c2.26,0,3.21-1.92,3.58-3.87Z"/><path class="cls-6" d="M5.38,9.06a10.94,10.94,0,0,0,.26,2.29h7.09a11.89,11.89,0,0,0,.32-2.29Z"/><path class="cls-7" d="M11.74,9.06a12.72,12.72,0,0,1-.32,2.29h1.31a11.89,11.89,0,0,0,.32-2.29Z"/><path class="cls-8" d="M13.05,9.19a16.51,16.51,0,0,0,0-2.41H5.5a15,15,0,0,0-.12,2.41Z"/><path class="cls-9" d="M13,6.78h-1.3a16.51,16.51,0,0,1,0,2.41h1.3A16.51,16.51,0,0,0,13,6.78Z"/><path class="cls-2" d="M9.23,5.23c-3.9,0-4,1.55-4,1.55s.19,1.49,4,1.49,4.05-1.49,4.05-1.49S13.13,5.23,9.23,5.23Z"/><path class="cls-8" d="M11.71,4.64A3.14,3.14,0,0,0,9,2,1.93,1.93,0,0,1,9,3.41c-.36.51-2.57.46-2.69,1.94,0,0-1.16.63-.58,1.63,0,0,.81,1.08,3.52,1.08S12.92,7,12.92,7,13.19,5,11.71,4.64Z"/><path class="cls-9" d="M11.71,4.64A3.14,3.14,0,0,0,9,2a3.25,3.25,0,0,1,.09.48,1.86,1.86,0,0,1,1.55,1.16c.34,1.2-.48,1.51-.35,2.09s1.76-.65,1.76.49-.51,1.49-.51,1.49A3.25,3.25,0,0,0,12.91,7S13.19,5,11.71,4.64Z"/><path class="cls-10" d="M6.65,5.56a.75.75,0,0,1-.49-.44c-.13,0,0,.39.49.55s.8,0,.78-.07S7.05,5.71,6.65,5.56Z"/><path class="cls-11" d="M8.44,3.89c-.14-.18-.4.18-.66.28a2,2,0,0,1-.61.12c-.1.08,0,.31.64.2S8.57,4.07,8.44,3.89Z"/><path class="cls-11" d="M6,6c.08-.24.11-.29,0-.3a.9.9,0,0,0-.39.58c0,.37.23.75.44.62S6,6.26,6,6Z"/><path class="cls-12" d="M7.28,4.59c-.13-.08-.38.21-.38.21,0,.21.24.28.38.21A.26.26,0,0,0,7.28,4.59Z"/><path class="cls-12" d="M8.38,6a.27.27,0,0,0,0-.42c-.14-.08-.39.21-.39.21C8,6,8.23,6,8.38,6Z"/><path class="cls-12" d="M9.27,4.36c-.13-.08-.38.21-.38.21-.05.21.24.28.38.21A.27.27,0,0,0,9.27,4.36Z"/><path class="cls-12" d="M10.73,3.13c-.14-.08-.39.21-.39.21,0,.22.25.28.39.21A.27.27,0,0,0,10.73,3.13Z"/><path class="cls-12" d="M10.67,4.82c-.14-.08-.39.21-.39.21,0,.22.24.28.39.21A.27.27,0,0,0,10.67,4.82Z"/><path class="cls-12" d="M7,6.34c-.13-.08-.38.21-.38.21,0,.22.24.28.38.21A.27.27,0,0,0,7,6.34Z"/><path class="cls-12" d="M9.89,6.53c-.14-.08-.39.22-.39.22,0,.21.24.27.39.2A.27.27,0,0,0,9.89,6.53Z"/><path class="cls-12" d="M8.53,7.27c-.13-.08-.38.22-.38.22-.05.21.24.28.38.2A.27.27,0,0,0,8.53,7.27Z"/><path class="cls-12" d="M11.51,5.69c-.14-.08-.39.22-.39.22,0,.21.24.27.39.2A.27.27,0,0,0,11.51,5.69Z"/><path class="cls-12" d="M11.22,7.19c-.13-.08-.38.21-.38.21-.05.21.24.28.38.21A.27.27,0,0,0,11.22,7.19Z"/><path class="cls-12" d="M13,5.88c-.13-.08-.38.21-.38.21-.05.22.24.28.38.21A.27.27,0,0,0,13,5.88Z"/><path class="cls-12" d="M9,3.55a.26.26,0,0,0,0-.42c-.13-.08-.38.21-.38.21C8.6,3.56,8.88,3.62,9,3.55Z"/><path class="cls-13" d="M13.6,25.8a2,2,0,0,1-2,2H7a2,2,0,0,1-2-2H5a2,2,0,0,1,2-2h4.58a2,2,0,0,1,2,2Z"/><path class="cls-13" d="M15.46,24.69c.35.67-1.37,1.07-1.51.56C14,25.25,15.11,24,15.46,24.69Z"/><path class="cls-13" d="M16,26.6c-.08.83-1.88.16-1.7-.4C14.27,26.2,16.06,25.78,16,26.6Z"/><path class="cls-13" d="M2.94,27.15c-.35-.68,1.37-1.08,1.51-.56C4.45,26.59,3.3,27.82,2.94,27.15Z"/><path class="cls-13" d="M2.43,25.23c.08-.83,1.88-.15,1.71.4C4.14,25.63,2.34,26.05,2.43,25.23Z"/><text class="cls-14" transform="translate(5.38 26.65)">irish coffee</text></g></svg>