<svg xmlns="http://www.w3.org/2000/svg" viewBox="0 0 92.06 150"><defs><style>.cls-1{fill:none;}.cls-2{fill:#eef8f9;}.cls-3{fill:#4d495b;}.cls-4{fill:#ea8b5c;}.cls-5{fill:#e57b4c;}.cls-6{fill:#edb379;}.cls-7{fill:#e8a76d;}.cls-8{fill:#ffd8a6;}.cls-9{fill:#fccb95;}.cls-10{fill:#f7be86;}.cls-11{fill:#fcf1e6;}.cls-12{fill:#5d2219;}.cls-13{fill:#451711;}.cls-14{fill:#f5f4ff;}</style></defs><g id="coffee_types_illustration_pack" data-name="coffee types illustration pack"><rect class="cls-1" x="-0.05" y="-0.09" width="92.17" height="150.17" rx="8"/><path class="cls-2" d="M65.5,40.54,65,43s7.8-1.07,7.8,4.33-9.69,3.58-9.69,3.58l-.63,2.79s13,3.65,13-5.92S65.5,40.54,65.5,40.54Z"/><path class="cls-3" d="M25.22,102.65s-.54-9.74,20.71-9.74,21.18,9.74,21.18,9.74.7,6.54-21.18,6.54S25.22,102.65,25.22,102.65Z"/><path class="cls-2" d="M47.75,95.6V74.71C71.24,72.5,66.3,33.86,66.3,33.86H26s-6.15,39.58,18.3,40.91V95.6c-13.12.4-13,5.45-13,5.45s.51,4.11,14.2,4.11,14.17-4.11,14.17-4.11S60.78,96,47.75,95.6Z"/><path class="cls-4" d="M27.68,54.18C29.35,64,34.09,73.59,46.33,73.59c11.31,0,16.05-9.63,17.94-19.41Z"/><path class="cls-5" d="M57.73,54.18C56,63,52,71.69,42.94,73.32a20.25,20.25,0,0,0,3.39.27c11.31,0,16.05-9.63,17.94-19.41Z"/><path class="cls-6" d="M26.88,45.29A56.35,56.35,0,0,0,28.2,56.77H63.7a62.2,62.2,0,0,0,1.63-11.48Z"/><path class="cls-7" d="M58.76,45.29a60.55,60.55,0,0,1-1.63,11.48H63.7a62.2,62.2,0,0,0,1.63-11.48Z"/><path class="cls-8" d="M65.29,46a80.76,80.76,0,0,0-.14-12.09H27.52A75.39,75.39,0,0,0,26.9,46Z"/><path class="cls-9" d="M65.15,33.86H58.66A80.05,80.05,0,0,1,58.79,46h6.5A80.76,80.76,0,0,0,65.15,33.86Z"/><path class="cls-2" d="M46.16,26.09C26.63,26.09,26,33.86,26,33.86s1,7.5,20,7.5,20.27-7.5,20.27-7.5S65.68,26.09,46.16,26.09Z"/><path class="cls-8" d="M58.6,23.18S56.71,11,45.13,10c0,0,1.38,4.53-.38,7.05S31.91,19.27,31.28,26.7c0,0-5.79,3.15-2.89,8.18,0,0,4,5.42,17.63,5.42s18.62-5.42,18.62-5.42S66,25.06,58.6,23.18Z"/><path class="cls-9" d="M58.57,23.18S56.69,11,45.11,10a13.87,13.87,0,0,1,.45,2.43c2.78.55,6.72,2,7.79,5.79,1.71,6-2.43,7.56-1.76,10.49s8.81-3.27,8.8,2.44-2.55,7.48-2.56,7.48c4.81-1.59,6.79-3.71,6.79-3.71S66,25.06,58.57,23.18Z"/><path class="cls-10" d="M33.25,27.75a3.76,3.76,0,0,1-2.43-2.18c-.69.14-.08,1.93,2.43,2.73s4,.21,3.91-.34S35.27,28.51,33.25,27.75Z"/><path class="cls-11" d="M42.2,19.4c-.69-.91-2,.88-3.3,1.42a10.51,10.51,0,0,1-3,.59c-.54.38.25,1.55,3.16,1S42.89,20.31,42.2,19.4Z"/><path class="cls-11" d="M30.15,30c.41-1.23.57-1.48.13-1.51a4.36,4.36,0,0,0-1.92,2.89c-.22,1.86,1.16,3.78,2.2,3.12S29.74,31.26,30.15,30Z"/><path class="cls-12" d="M36.43,22.89c-.67-.41-1.92,1.07-1.92,1.07-.22,1.07,1.21,1.38,1.92,1A1.32,1.32,0,0,0,36.43,22.89Z"/><path class="cls-12" d="M41.9,29.7a1.32,1.32,0,0,0,0-2.1c-.67-.4-1.92,1.07-1.92,1.07C39.75,29.74,41.18,30.06,41.9,29.7Z"/><path class="cls-12" d="M46.38,21.73c-.67-.4-1.92,1.07-1.92,1.07-.23,1.08,1.2,1.39,1.92,1A1.32,1.32,0,0,0,46.38,21.73Z"/><path class="cls-12" d="M53.68,15.59c-.67-.41-1.92,1.07-1.92,1.07-.23,1.07,1.2,1.38,1.92,1A1.32,1.32,0,0,0,53.68,15.59Z"/><path class="cls-12" d="M53.36,24c-.67-.4-1.92,1.07-1.92,1.07-.22,1.08,1.21,1.39,1.92,1A1.32,1.32,0,0,0,53.36,24Z"/><path class="cls-12" d="M34.86,31.67c-.67-.4-1.92,1.07-1.92,1.07-.23,1.07,1.2,1.39,1.92,1A1.32,1.32,0,0,0,34.86,31.67Z"/><path class="cls-12" d="M49.46,32.64c-.67-.41-1.92,1.07-1.92,1.07-.22,1.07,1.21,1.38,1.92,1A1.32,1.32,0,0,0,49.46,32.64Z"/><path class="cls-12" d="M42.66,36.35c-.67-.4-1.92,1.07-1.92,1.07-.22,1.07,1.21,1.39,1.92,1A1.32,1.32,0,0,0,42.66,36.35Z"/><path class="cls-12" d="M57.58,28.42c-.67-.4-1.92,1.08-1.92,1.08-.22,1.07,1.21,1.38,1.92,1A1.33,1.33,0,0,0,57.58,28.42Z"/><path class="cls-12" d="M56.14,35.91c-.67-.4-1.92,1.07-1.92,1.07-.22,1.07,1.21,1.38,1.92,1A1.32,1.32,0,0,0,56.14,35.91Z"/><path class="cls-12" d="M64.81,29.36c-.67-.41-1.93,1.07-1.93,1.07-.22,1.07,1.21,1.38,1.93,1A1.32,1.32,0,0,0,64.81,29.36Z"/><path class="cls-12" d="M45.14,17.69a1.31,1.31,0,0,0,0-2.1c-.67-.41-1.92,1.07-1.92,1.07C43,17.73,44.43,18,45.14,17.69Z"/><path class="cls-13" d="M68.08,129.13a10.2,10.2,0,0,1-10.2,10.2H35a10.2,10.2,0,0,1-10.2-10.2h0A10.2,10.2,0,0,1,35,118.93H57.88a10.19,10.19,0,0,1,10.2,10.2Z"/><path class="cls-13" d="M77.38,123.55c1.77,3.37-6.85,5.38-7.57,2.8C69.81,126.35,75.61,120.19,77.38,123.55Z"/><path class="cls-13" d="M80,133.16c-.42,4.12-9.44.76-8.55-2C71.4,131.14,80.37,129,80,133.16Z"/><path class="cls-13" d="M14.69,135.87c-1.78-3.37,6.84-5.38,7.56-2.8C22.25,133.07,16.46,139.24,14.69,135.87Z"/><path class="cls-13" d="M12.11,126.26c.42-4.12,9.45-.75,8.55,2C20.66,128.28,11.69,130.38,12.11,126.26Z"/><path class="cls-14" d="M28.07,133.24h-.19c-.18,0-.29,0-.34-.12a.17.17,0,0,1,.1-.14l.06-.06h.35l.05-.05,0-.11v-.15q0-.74,0-1.32l0-.45,0-.89c0-.31,0-.79,0-1.42l0-1.41a12.53,12.53,0,0,0-.06-1.41,1.48,1.48,0,0,0-.36,0h-.3c-.15,0-.23-.07-.23-.21s0-.06.11-.09a.38.38,0,0,1,.18,0,7.25,7.25,0,0,1,.93,0,1.64,1.64,0,0,1,.56.11c.14,0,.22.11.22.2a.49.49,0,0,1,0,.1l-.28,0a.57.57,0,0,0-.35-.07l-.06,0a3.62,3.62,0,0,1,0,.64c0,.53,0,1,0,1.45l0,1.44c0,.37,0,.81,0,1.33s0,1,0,1.33v.16a1.41,1.41,0,0,0,0,.22.75.75,0,0,0,0,.34l0,0c0,.08.09.13.27.13l.18,0h.19c.23,0,.35.06.35.17a.22.22,0,0,1-.08.18.27.27,0,0,1-.19.07.54.54,0,0,1-.19,0h-.21a.66.66,0,0,0-.22.06.53.53,0,0,1-.22.07Q28.13,133.36,28.07,133.24Z"/><path class="cls-14" d="M32.48,133.51a2.52,2.52,0,0,1-.31-.84c-.11-.45-.22-1-.32-1.53a9.25,9.25,0,0,0-.28-1.37c-.09-.41-.19-.61-.28-.61h0c-.18,0-.27.06-.27.17,0,.58,0,1.47.1,2.66a7.75,7.75,0,0,0,.11,1.28l-.1.2h-.17l-.1-.09q-.2-5.62-.19-7.66a.72.72,0,0,1,0-.22.25.25,0,0,1,.08-.15.17.17,0,0,1,.17-.09,1.54,1.54,0,0,1,1,.3,1.09,1.09,0,0,1,.38.88v.89a1.77,1.77,0,0,1-.15.61,6,6,0,0,1-.34.72l-.16.31c.09.41.27,1.15.53,2.22s.41,1.65.43,1.71a.16.16,0,0,1,0,.06l.08.15a.64.64,0,0,1,.09.29c0,.11,0,.17-.13.17Zm-1-4.88a1.87,1.87,0,0,0,.3-.6,5.41,5.41,0,0,0,.19-1.18,3,3,0,0,0,0-.46,2.24,2.24,0,0,0-.1-.39.65.65,0,0,0-.7-.42s-.07,0-.09.1a.52.52,0,0,0,0,.21c0,.54,0,1,0,1.47s0,.93,0,1.47l0,0A.52.52,0,0,0,31.46,128.63Z"/><path class="cls-14" d="M34.48,133.24h-.2c-.18,0-.29,0-.34-.12A.17.17,0,0,1,34,133l.06-.06h.35l0-.05,0-.11v-.15c0-.49,0-.93,0-1.32l0-.45,0-.89c0-.31,0-.79,0-1.42l0-1.41a12.53,12.53,0,0,0-.06-1.41,1.48,1.48,0,0,0-.36,0H33.8c-.16,0-.23-.07-.23-.21s0-.06.11-.09a.35.35,0,0,1,.18,0,7.09,7.09,0,0,1,.92,0,1.59,1.59,0,0,1,.56.11c.15,0,.22.11.22.2a.22.22,0,0,1,0,.1l-.28,0a.55.55,0,0,0-.35-.07l-.06,0a3.2,3.2,0,0,1,0,.64c0,.53,0,1,0,1.45l0,1.44c0,.37,0,.81.05,1.33s0,1,0,1.33v.16a1.27,1.27,0,0,0,0,.22,1,1,0,0,0,0,.34v0c0,.08.09.13.26.13l.19,0h.18c.23,0,.35.06.35.17a.21.21,0,0,1-.07.18.32.32,0,0,1-.2.07.58.58,0,0,1-.19,0h-.21a.66.66,0,0,0-.22.06.5.5,0,0,1-.21.07Q34.52,133.36,34.48,133.24Z"/><path class="cls-14" d="M36.91,133.41a.31.31,0,0,1-.14-.19l.06-.1.22,0a.74.74,0,0,0,.22.05.64.64,0,0,0,.48-.22,1.39,1.39,0,0,0,.31-.55,4.74,4.74,0,0,0,.17-1.19,3.86,3.86,0,0,0-.51-1.8l-.49-.88a5,5,0,0,1-.3-.76,3.33,3.33,0,0,1-.16-1,3.24,3.24,0,0,1,.22-1,1.17,1.17,0,0,1,.31-.46.69.69,0,0,1,.43-.17.47.47,0,0,1,.31.11.29.29,0,0,1,.15.23q0,.09-.15.09a.27.27,0,0,1-.12,0,.27.27,0,0,0-.14,0,.46.46,0,0,0-.33.15,1,1,0,0,0-.22.37,2.94,2.94,0,0,0-.14.83,2,2,0,0,0,.06.47.69.69,0,0,1,0,.13.25.25,0,0,1,0,.07l.07.24.06.22.1.22a.53.53,0,0,0,.08.15l.08.13.14.25.21.35a6.27,6.27,0,0,1,.29.58,2.88,2.88,0,0,1,.18.48,4.63,4.63,0,0,1,.11.54,4.55,4.55,0,0,1,0,.67,3.88,3.88,0,0,1-.16,1.09,1.59,1.59,0,0,1-.63.85,1,1,0,0,1-.54.14l-.06,0A.77.77,0,0,1,36.91,133.41Zm1.22-7.82s0,0,0,0h0Z"/><path class="cls-14" d="M41.84,133.38c0-1.5-.06-2.59-.06-3.26l0-.05,0-.11a1.82,1.82,0,0,0,0-.45l-.18,0a.61.61,0,0,1-.24,0,2.53,2.53,0,0,1-.4-.06,1.42,1.42,0,0,0-.38-.06l-.13.05c0,.28,0,.54,0,.76s0,.48,0,.77l0,0q0,.33,0,1c0,.44,0,.78,0,1a.51.51,0,0,1,0,.22.15.15,0,0,1-.14.09c-.18,0-.27-.24-.27-.73s0-.78,0-1.12v-1.1a10.4,10.4,0,0,0,0-1.19,2.82,2.82,0,0,0,.06-.8c0-.39,0-.87,0-1.43l0-.47,0-1a.22.22,0,0,1,.06-.15.19.19,0,0,1,.15-.08c.16,0,.24.24.24.71s0,1,0,1.49,0,.94,0,1.47q0,.15.93.15h0a.51.51,0,0,0,.34-.09.4.4,0,0,0,.1-.31c0-.43,0-1-.08-1.68s-.08-1.3-.08-1.68a.16.16,0,0,1,.06-.12.2.2,0,0,1,.15-.06l.11,0,.11,0c0,.64,0,1.58.07,2.83s.07,2.22.07,2.85c0,.95,0,1.76.09,2.4l-.09.14Q42.2,133.38,41.84,133.38Zm-.4-4.4,0,0h0Z"/><path class="cls-14" d="M47,133.45a1.17,1.17,0,0,1-.4-.21,1.35,1.35,0,0,1-.31-.4,3.43,3.43,0,0,1-.3-1.4q0-.41,0-.72v-1.39c0-.53,0-1,0-1.53a8.63,8.63,0,0,1,.11-.92,4.15,4.15,0,0,1,.23-.76,1.34,1.34,0,0,1,.38-.54,1.21,1.21,0,0,1,.33-.17l.3-.14h.56l.06,0,0,0,0,0s0,0,0,.07l-.16.19h-.51a.55.55,0,0,0-.42.22,1.7,1.7,0,0,0-.29.57,5.14,5.14,0,0,0-.15.71c0,.28-.07.52-.08.72s0,.44,0,.53l0,.07c0,.45,0,.86,0,1.22l0,1.23a5.94,5.94,0,0,0,.07,1,1.84,1.84,0,0,0,.35.88,1,1,0,0,0,.86.39.45.45,0,0,0,.31-.11c.12,0,.18,0,.18.13s0,.13-.15.2a1.24,1.24,0,0,1-.31.18h-.4Z"/><path class="cls-14" d="M49.37,129.12v-.42c0-2.26.29-3.39.88-3.39a.49.49,0,0,1,.17,0,4.34,4.34,0,0,0,.76.17c.16,0,.31.19.46.47a3.68,3.68,0,0,1,.39,1.15,8.93,8.93,0,0,1,.12,1.47l0,.06c0,.27,0,.51,0,.72v.73c0,.41,0,.79,0,1.12a6.25,6.25,0,0,1-.25,1.3,1.94,1.94,0,0,1-.25.54,1.2,1.2,0,0,1-.34.37.76.76,0,0,1-.48.14C49.85,133.59,49.37,132.1,49.37,129.12Zm2.08,3.45a5.46,5.46,0,0,0,.28-1.38c0-.49.05-.88.05-1.17s0-.8-.07-1.43-.07-1.18-.07-1.44l0-.09,0-.06a1.48,1.48,0,0,0-.3-.93.9.9,0,0,0-.72-.38.61.61,0,0,0-.67.53c0,.12,0,.3,0,.52a6.72,6.72,0,0,1-.07,1.23,5.22,5.22,0,0,1,0,.57l0,.57c0,.18,0,.34,0,.48v.48a11.14,11.14,0,0,0,.1,1.31,9.41,9.41,0,0,0,.17.93,2.21,2.21,0,0,0,.28.64.49.49,0,0,0,.43.29C51.06,133.24,51.3,133,51.45,132.57Z"/><path class="cls-14" d="M53.75,133.35a28.68,28.68,0,0,0,.12-2.95c0-.54,0-1.36.07-2.46s.09-1.82.09-2.44a.19.19,0,0,1,.1-.17.48.48,0,0,1,.24-.06,4.61,4.61,0,0,1,.93.1c.34.06.51.15.51.25s-.14.21-.42.21a1.69,1.69,0,0,0-.68-.12h-.15a.1.1,0,0,0-.05,0,.08.08,0,0,0,0,.07.7.7,0,0,1,0,.13c0,.37,0,.8,0,1.29s-.06.91-.06,1.28V129s.06.05.19,0c.41,0,.62.07.62.19a.21.21,0,0,1-.09.17.37.37,0,0,1-.2.07l-.21,0a.58.58,0,0,0-.2,0c-.15,0-.22.2-.22.6v1.37c0,.19,0,.48,0,.86s0,.68,0,.88-.1.48-.29.48Zm2.83,0a28.68,28.68,0,0,0,.12-2.95c0-.54,0-1.36.07-2.46s.09-1.82.09-2.44a.19.19,0,0,1,.1-.17.48.48,0,0,1,.24-.06,4.61,4.61,0,0,1,.93.1c.34.06.51.15.51.25s-.14.21-.42.21a1.69,1.69,0,0,0-.68-.12h-.15a.1.1,0,0,0,0,0,.08.08,0,0,0,0,.07.7.7,0,0,1-.05.13c0,.37,0,.8,0,1.29s-.06.91-.06,1.28V129s.06.05.19,0c.42,0,.62.07.62.19a.21.21,0,0,1-.09.17.37.37,0,0,1-.2.07l-.21,0a.58.58,0,0,0-.2,0c-.15,0-.22.2-.22.6v1.37c0,.19,0,.48,0,.86s0,.68,0,.88-.1.48-.29.48Z"/><path class="cls-14" d="M59.87,133.27v-.16a.66.66,0,0,0,0-.15l-.05-.05a1.26,1.26,0,0,0,.1-.49c0-.19,0-.46,0-.81l0-.8c0-.4,0-1,0-1.82s0-1.33,0-1.84l0-.72c0-.22,0-.47,0-.73a.33.33,0,0,1,.08-.26.36.36,0,0,1,.27-.08.25.25,0,0,1,.19.07l.35,0a2.34,2.34,0,0,1,.53.11c.15,0,.23.11.23.18s-.08.16-.23.24a3.79,3.79,0,0,0-1-.23l-.06.08a4.55,4.55,0,0,1,0,.52q0,.53,0,.93c0,.29,0,.6,0,.95s.05.34.17.34h.4c.32,0,.47.07.47.22a.4.4,0,0,1-.06.22.2.2,0,0,1-.18.09.37.37,0,0,1-.28-.1l-.39-.06h-.06l-.06.06v0a9.08,9.08,0,0,1,0,1c0,.32,0,.6,0,.86v.87c0,.31,0,.64,0,1a.49.49,0,0,0,.12.37.63.63,0,0,0,.4.09h.46c.24,0,.35,0,.35.15s-.17.22-.53.22h-1C60,133.52,59.89,133.44,59.87,133.27Z"/><path class="cls-14" d="M63,133.27v-.16a.66.66,0,0,0,0-.15l-.05-.05a1.26,1.26,0,0,0,.1-.49c0-.19,0-.46,0-.81l0-.8c0-.4,0-1,0-1.82s0-1.33,0-1.84l0-.72c0-.22,0-.47,0-.73a.29.29,0,0,1,.35-.34.25.25,0,0,1,.19.07l.36,0a2.37,2.37,0,0,1,.52.11c.15,0,.23.11.23.18s-.08.16-.23.24a3.79,3.79,0,0,0-1-.23l-.06.08a4.55,4.55,0,0,1,0,.52q0,.53,0,.93c0,.29,0,.6,0,.95s.05.34.17.34h.4c.32,0,.47.07.47.22a.4.4,0,0,1-.06.22.2.2,0,0,1-.18.09.37.37,0,0,1-.28-.1L63.5,129h-.06l-.06.06v0a9.08,9.08,0,0,1,0,1c0,.32,0,.6,0,.86v.87c0,.31,0,.64,0,1a.49.49,0,0,0,.12.37.65.65,0,0,0,.4.09h.46c.24,0,.35,0,.35.15s-.17.22-.53.22h-1C63.08,133.52,63,133.44,63,133.27Z"/></g></svg>