<svg xmlns="http://www.w3.org/2000/svg" viewBox="0 0 18.4 29.98"><defs><style>.cls-1{fill:none;}.cls-2{fill:#eef8f9;}.cls-3{fill:#4d495b;}.cls-4{fill:#ea8b5c;}.cls-5{fill:#e57b4c;}.cls-6{fill:#edb379;}.cls-7{fill:#e8a76d;}.cls-8{fill:#ffd8a6;}.cls-9{fill:#fccb95;}.cls-10{fill:#f7be86;}.cls-11{fill:#fcf1e6;}.cls-12{fill:#5d2219;}.cls-13{fill:#451711;}.cls-14{fill:#f9d9d7;}</style></defs><g id="coffee_types_illustration_pack" data-name="coffee types illustration pack"><rect class="cls-1" width="18.4" height="29.98" rx="8"/><path class="cls-2" d="M13.09,8.11l-.1.5s1.56-.22,1.56.86-1.94.72-1.94.72l-.12.55s2.58.73,2.58-1.18S13.09,8.11,13.09,8.11Z"/><path class="cls-3" d="M5.05,20.51s-.11-1.94,4.13-1.94,4.23,1.94,4.23,1.94.14,1.31-4.23,1.31S5.05,20.51,5.05,20.51Z"/><path class="cls-2" d="M9.54,19.1V14.93c4.7-.44,3.71-8.15,3.71-8.15h-8S4,14.68,8.86,15V19.1c-2.62.09-2.59,1.09-2.59,1.09s.1.82,2.83.82,2.83-.82,2.83-.82S12.15,19.19,9.54,19.1Z"/><path class="cls-4" d="M5.54,10.84c.33,1.95,1.28,3.87,3.72,3.87,2.26,0,3.21-1.92,3.58-3.87Z"/><path class="cls-5" d="M11.54,10.84c-.34,1.76-1.15,3.49-3,3.82a4.94,4.94,0,0,0,.68.05c2.26,0,3.21-1.92,3.58-3.87Z"/><path class="cls-6" d="M5.38,9.06a10.94,10.94,0,0,0,.26,2.29h7.09a11.89,11.89,0,0,0,.32-2.29Z"/><path class="cls-7" d="M11.74,9.06a12.72,12.72,0,0,1-.32,2.29h1.31a11.89,11.89,0,0,0,.32-2.29Z"/><path class="cls-8" d="M13.05,9.19a16.51,16.51,0,0,0,0-2.41H5.5a15,15,0,0,0-.12,2.41Z"/><path class="cls-9" d="M13,6.78h-1.3a16.51,16.51,0,0,1,0,2.41h1.3A16.51,16.51,0,0,0,13,6.78Z"/><path class="cls-2" d="M9.23,5.23c-3.9,0-4,1.55-4,1.55s.19,1.49,4,1.49,4.05-1.49,4.05-1.49S13.13,5.23,9.23,5.23Z"/><path class="cls-8" d="M11.71,4.64A3.14,3.14,0,0,0,9,2,1.93,1.93,0,0,1,9,3.41c-.36.51-2.57.46-2.69,1.94,0,0-1.16.63-.58,1.63,0,0,.81,1.08,3.52,1.08S12.92,7,12.92,7,13.19,5,11.71,4.64Z"/><path class="cls-9" d="M11.71,4.64A3.14,3.14,0,0,0,9,2a3.25,3.25,0,0,1,.09.48,1.86,1.86,0,0,1,1.55,1.16c.34,1.2-.48,1.51-.35,2.09s1.76-.65,1.76.49-.51,1.49-.51,1.49A3.25,3.25,0,0,0,12.91,7S13.19,5,11.71,4.64Z"/><path class="cls-10" d="M6.65,5.56a.75.75,0,0,1-.49-.44c-.13,0,0,.39.49.55s.8,0,.78-.07S7.05,5.71,6.65,5.56Z"/><path class="cls-11" d="M8.44,3.89c-.14-.18-.4.18-.66.28a2,2,0,0,1-.61.12c-.1.08,0,.31.64.2S8.57,4.07,8.44,3.89Z"/><path class="cls-11" d="M6,6c.08-.24.11-.29,0-.3a.9.9,0,0,0-.39.58c0,.37.23.75.44.62S6,6.26,6,6Z"/><path class="cls-12" d="M7.28,4.59c-.13-.08-.38.21-.38.21,0,.21.24.28.38.21A.26.26,0,0,0,7.28,4.59Z"/><path class="cls-12" d="M8.38,6a.27.27,0,0,0,0-.42c-.14-.08-.39.21-.39.21C8,6,8.23,6,8.38,6Z"/><path class="cls-12" d="M9.27,4.36c-.13-.08-.38.21-.38.21-.05.21.24.28.38.21A.27.27,0,0,0,9.27,4.36Z"/><path class="cls-12" d="M10.73,3.13c-.14-.08-.39.21-.39.21,0,.22.25.28.39.21A.27.27,0,0,0,10.73,3.13Z"/><path class="cls-12" d="M10.67,4.82c-.14-.08-.39.21-.39.21,0,.22.24.28.39.21A.27.27,0,0,0,10.67,4.82Z"/><path class="cls-12" d="M7,6.34c-.13-.08-.38.21-.38.21,0,.22.24.28.38.21A.27.27,0,0,0,7,6.34Z"/><path class="cls-12" d="M9.89,6.53c-.14-.08-.39.22-.39.22,0,.21.24.27.39.2A.27.27,0,0,0,9.89,6.53Z"/><path class="cls-12" d="M8.53,7.27c-.13-.08-.38.22-.38.22-.05.21.24.28.38.2A.27.27,0,0,0,8.53,7.27Z"/><path class="cls-12" d="M11.51,5.69c-.14-.08-.39.22-.39.22,0,.21.24.27.39.2A.27.27,0,0,0,11.51,5.69Z"/><path class="cls-12" d="M11.22,7.19c-.13-.08-.38.21-.38.21-.05.21.24.28.38.21A.27.27,0,0,0,11.22,7.19Z"/><path class="cls-12" d="M13,5.88c-.13-.08-.38.21-.38.21-.05.22.24.28.38.21A.27.27,0,0,0,13,5.88Z"/><path class="cls-12" d="M9,3.55a.26.26,0,0,0,0-.42c-.13-.08-.38.21-.38.21C8.6,3.56,8.88,3.62,9,3.55Z"/><path class="cls-13" d="M13.6,25.8a2,2,0,0,1-2,2H7a2,2,0,0,1-2-2H5a2,2,0,0,1,2-2h4.58a2,2,0,0,1,2,2Z"/><path class="cls-13" d="M15.46,24.69c.35.67-1.37,1.07-1.51.56C14,25.25,15.11,24,15.46,24.69Z"/><path class="cls-13" d="M16,26.6c-.08.83-1.88.16-1.7-.4C14.27,26.2,16.06,25.78,16,26.6Z"/><path class="cls-13" d="M2.94,27.15c-.35-.68,1.37-1.08,1.51-.56C4.45,26.59,3.3,27.82,2.94,27.15Z"/><path class="cls-13" d="M2.43,25.23c.08-.83,1.88-.15,1.71.4C4.14,25.63,2.34,26.05,2.43,25.23Z"/><path class="cls-14" d="M5.57,25.05h0s0,.08,0,.25v.07q0,.09,0,.48v.75a.18.18,0,0,0,0,0s0,0,0,0h0s0,0,0-.13c0-.55,0-.94,0-1.15v-.13a1.27,1.27,0,0,0,0-.2S5.55,25.06,5.57,25.05Z"/><path class="cls-14" d="M6,24.91H6l.09,0a.31.31,0,0,1,.15.13,1,1,0,0,1,.08.3v0a.56.56,0,0,1-.18.46c.14,0,.22.2.24.5v.18a.57.57,0,0,0,0,.12h0l0,0v-.31A.7.7,0,0,0,6.21,26a.19.19,0,0,0-.13-.07h0v.33c0,.16,0,.25,0,.27h0l0,0,0,0v0c0-.14,0-.23,0-.27v-.29s0,0,0,0H6l0,0c0-.44,0-.76-.06-.95ZM6,25q0,.35.06.87a.48.48,0,0,0,.18-.41v-.07a.72.72,0,0,0-.1-.32A.26.26,0,0,0,6,25Z"/><path class="cls-14" d="M6.79,25.05h0s0,.08,0,.25v.07q0,.09,0,.48a.06.06,0,0,0,0,0c0,.17,0,.3,0,.4v.31a.18.18,0,0,0,0,0s0,0,0,0h0s0,0,0-.13c0-.55,0-.94,0-1.15v-.13a1.27,1.27,0,0,0,0-.2S6.77,25.06,6.79,25.05Z"/><path class="cls-14" d="M7.45,25.06l0,0h0l0,0h0a.18.18,0,0,0-.18.09.88.88,0,0,0,0,.24.93.93,0,0,0,.06.25,1.41,1.41,0,0,0,.26.26.61.61,0,0,1,.12.34.58.58,0,0,1-.06.26s-.06.08-.14.11l-.07,0s0,0,0,0h0s0,0,0,0,.16-.08.16-.13a.46.46,0,0,0,0-.22.49.49,0,0,0-.16-.35.84.84,0,0,1-.19-.19.65.65,0,0,1-.09-.25v-.06a.57.57,0,0,1,.06-.27A.27.27,0,0,1,7.45,25.06Z"/><path class="cls-14" d="M8.13,25.11h0s0,0,0,.06v.18a6.55,6.55,0,0,0,.05.89c0,.2,0,.34,0,.41h0s-.05-.13-.07-.4,0-.24,0-.28H8c0,.2,0,.33,0,.39s0,.18,0,.28l0,0a0,0,0,0,1,0,0v-.28c0-.34,0-.64,0-.92H8a.17.17,0,0,0,0-.07.08.08,0,0,0,0,0v-.05a.28.28,0,0,0,0-.09v0l0,0H8s0,0,0,.05a.66.66,0,0,0,0,.11s0,.11,0,.22,0,.37,0,.45h.17v0c0-.16,0-.35,0-.58v-.23Z"/><path class="cls-14" d="M9.46,25.05h0c.06,0,.09,0,.09.07l0,0h0a.08.08,0,0,0-.07,0c-.08,0-.12,0-.12.07a1.18,1.18,0,0,0-.09.5v.08a2.68,2.68,0,0,0,.06.52.65.65,0,0,0,.09.29.19.19,0,0,0,.13.07.19.19,0,0,0,.15-.1h0s0,.07-.1.11l-.08,0h0a.28.28,0,0,1-.15-.08,1.23,1.23,0,0,1-.15-.54,2.56,2.56,0,0,1,0-.34v0c0-.33.06-.53.16-.6Z"/><path class="cls-14" d="M10.18,25.11h0s0,.05.09.16a5.63,5.63,0,0,1,0,.71,2,2,0,0,1-.06.66s0,0-.07,0h0c-.09,0-.14-.14-.17-.42,0-.1,0-.26,0-.45v-.09a1.38,1.38,0,0,1,.09-.52v0Zm-.12.62q0,.48,0,.66t.12.24c.06,0,.1-.21.1-.64h0a3.8,3.8,0,0,0-.06-.72c0-.07,0-.1-.05-.1h0c-.06,0-.11.18-.13.43Z"/><path class="cls-14" d="M10.8,25l.06,0c.14,0,.2,0,.2,0v0a0,0,0,0,1,0,0l-.23,0a.37.37,0,0,1,0,.08v.1c0,.23,0,.43,0,.59v0H11v0s0,0,0,0h-.16c0,.29,0,.49,0,.6v.16l0,0,0,0V25.8c0-.33,0-.51,0-.56s0-.06,0-.09a.5.5,0,0,0,0-.12S10.79,25,10.8,25Z"/><path class="cls-14" d="M11.47,25l.06,0a.58.58,0,0,1,.21,0v0a0,0,0,0,1,0,0l-.22,0a.38.38,0,0,0,0,.08s0,.05,0,.1c0,.23,0,.43,0,.59v0s0,0,0,0h.18v0s0,0-.05,0h-.15v.6a1.18,1.18,0,0,0,0,.16l0,0,0,0V25.8c0-.33,0-.51,0-.56a.28.28,0,0,0,0-.09.5.5,0,0,0,0-.12S11.46,25,11.47,25Z"/><path class="cls-14" d="M12.14,25l.11,0h.14v0h-.21a1.76,1.76,0,0,1,0,.27c0,.28,0,.44,0,.49a.55.55,0,0,0,.2,0v0h0l0,0-.2,0c0,.31,0,.53,0,.65v.08h0l.18,0h0l0,0h0l0,0h0l-.15,0h0s-.05,0-.05-.06v-.08c0-.13,0-.54.06-1.2v0a.85.85,0,0,0,0-.29Z"/><path class="cls-14" d="M12.83,25l.11,0h.14v0h-.21a1.76,1.76,0,0,1,0,.27c0,.28,0,.44,0,.49s.06,0,.2,0v0h0l0,0-.2,0c0,.31,0,.53,0,.65v.08h0l.18,0h0l0,0h0l0,0H13l-.15,0h0s-.05,0-.05-.06v-.08c0-.13,0-.54.06-1.2v0a.85.85,0,0,0,0-.29Z"/></g></svg>