<svg xmlns="http://www.w3.org/2000/svg" viewBox="0 0 92.06 150"><defs><style>.cls-1{fill:none;}.cls-2{fill:#4d495b;}.cls-3{fill:#eef8f9;}.cls-4{fill:#dae4e5;}.cls-5{fill:#edb379;}.cls-6{fill:#e8a76d;}.cls-7{fill:#ffd8a6;}.cls-8{fill:#f9c995;}.cls-9{fill:#f7be86;}.cls-10{fill:#fcf1e6;}.cls-11{fill:#964236;}.cls-12{fill:#451711;}.cls-13{fill:#f5f4ff;}</style></defs><g id="coffee_types_illustration_pack" data-name="coffee types illustration pack"><rect class="cls-1" x="-0.05" y="-0.08" width="92.17" height="150.17" rx="8"/><path class="cls-2" d="M23.42,100.91s-.54-9.74,20.71-9.74,21.17,9.74,21.17,9.74.71,6.54-21.17,6.54S23.42,100.91,23.42,100.91Z"/><path class="cls-3" d="M45,83.85C20.37,83.85,21.92,93,21.92,93s1,3.34,10,5.09h0s-1.08,3.76,12.8,3.76c13,0,12.79-3.76,12.79-3.76h0c9-1.75,10-5.09,10-5.09S69.59,83.85,45,83.85Z"/><path class="cls-4" d="M44.85,86.55c-17,0-17.67,4.65-17.67,4.65s.74,3.21,17.52,3.21c15.45,0,16.83-3.21,16.83-3.21S61.15,86.55,44.85,86.55Z"/><path class="cls-4" d="M45.25,98.79c-.17-.29-1.47.17-6.42,0a44.17,44.17,0,0,1-8.51-1.06c-.33.75,4.9,1.19,8.43,1.48S45.42,99.09,45.25,98.79Z"/><path class="cls-3" d="M70.47,63.46,70,65.94s7.81-1.06,7.81,4.33-9.69,3.58-9.69,3.58l-.63,2.79s13,3.65,13-5.92S70.47,63.46,70.47,63.46Z"/><path class="cls-3" d="M71.35,55.46H18.23S14,92.25,44.79,92.25,71.35,55.46,71.35,55.46Z"/><path class="cls-5" d="M20.27,70.9c2.21,9.66,8.3,20.27,24.38,20.27S66.81,80.56,69,70.9Z"/><path class="cls-6" d="M61.18,70.9c-2,8.82-7.28,18.44-20.43,20a32.94,32.94,0,0,0,4,.23c16.07,0,22.16-10.61,24.38-20.27Z"/><path class="cls-7" d="M68.66,72.36A50.76,50.76,0,0,0,70,55.46H19.26a50.76,50.76,0,0,0,1.37,16.9Z"/><path class="cls-8" d="M70.17,55.46H62.28a50.76,50.76,0,0,1-1.37,16.9h7.9A50.91,50.91,0,0,0,70.17,55.46Z"/><path class="cls-3" d="M44.79,46.68c-25.39,0-26.56,8.78-26.56,8.78s2.1,8,26.56,8,26.56-8,26.56-8S70.17,46.68,44.79,46.68Z"/><path class="cls-7" d="M63.92,45.17s-2-20.39-19.13-20.39a9.47,9.47,0,0,1,1.64,7.93c-1.14,4.66-14.86,1.13-15.36,9.82,0,0-13.72,2.41-11.2,13.21,0,0,4.53,5.91,24.92,5.91s25.37-6.19,25.37-6.19S72,45.17,63.92,45.17Z"/><path class="cls-8" d="M61.19,59.86c6.91-1.83,9-4.4,9-4.4S72,45.17,63.92,45.17c0,0-2-20.39-19.13-20.39a9.36,9.36,0,0,1,1.78,4.15c3.58.77,8.11,2.35,10.56,5.58C61.57,40.39,58,46.18,59,49.28s6.21-.17,6.33,3.61S61.2,59.85,61.19,59.86Z"/><path class="cls-9" d="M64.58,43a8.65,8.65,0,0,1-2.08,3.71c-1.71,1.86-4.92.52-5.08,1.45s3.76,1,5.59-.83S65.4,43.05,64.58,43Z"/><path class="cls-9" d="M33.34,44.39a7.82,7.82,0,0,1-3.28-5c-1.26-.21-.54,4,2.93,5.85s6.44.41,6.21-.52S36.18,46.24,33.34,44.39Z"/><path class="cls-10" d="M28.16,44.67s-4,.54-5.42,3.31-.67,7.44,1.52,6.78.58-5.54,2.22-7.36S28.91,45.09,28.16,44.67Z"/><path class="cls-10" d="M45.78,34.81c-1.3-.68-1.85,2.6-4.13,3.27a10.92,10.92,0,0,1-5.18-.17c-1.1.55,2.3,3.53,5.83,2.39S47.08,35.48,45.78,34.81Z"/><path class="cls-11" d="M43.81,34.19c-.67-.4-1.92,1.07-1.92,1.07-.23,1.07,1.2,1.38,1.92,1A1.32,1.32,0,0,0,43.81,34.19Z"/><path class="cls-11" d="M56.46,30.73c-.67-.41-1.92,1.07-1.92,1.07-.23,1.07,1.2,1.38,1.92,1A1.32,1.32,0,0,0,56.46,30.73Z"/><path class="cls-11" d="M51.86,39.41c-.67-.4-1.92,1.07-1.92,1.07-.22,1.07,1.21,1.39,1.92,1A1.32,1.32,0,0,0,51.86,39.41Z"/><path class="cls-11" d="M41.13,48.54c-.67-.4-1.92,1.07-1.92,1.07-.22,1.07,1.21,1.38,1.92,1A1.32,1.32,0,0,0,41.13,48.54Z"/><path class="cls-11" d="M22.91,46.32c-.67-.41-1.92,1.07-1.92,1.07-.22,1.07,1.21,1.38,1.92,1A1.32,1.32,0,0,0,22.91,46.32Z"/><path class="cls-11" d="M30.53,54.83c-.67-.4-1.92,1.07-1.92,1.07-.23,1.08,1.2,1.39,1.92,1A1.32,1.32,0,0,0,30.53,54.83Z"/><path class="cls-11" d="M48.78,54.38c-.67-.41-1.92,1.07-1.92,1.07-.23,1.07,1.2,1.38,1.92,1A1.32,1.32,0,0,0,48.78,54.38Z"/><path class="cls-11" d="M59.51,44c-.67-.41-1.92,1.07-1.92,1.07-.23,1.07,1.2,1.38,1.92,1A1.32,1.32,0,0,0,59.51,44Z"/><path class="cls-11" d="M65.66,50.52c-.67-.4-1.92,1.07-1.92,1.07-.23,1.07,1.2,1.39,1.92,1A1.32,1.32,0,0,0,65.66,50.52Z"/><path class="cls-12" d="M65.4,129.21A10.2,10.2,0,0,1,55.2,139.4H32.26a10.2,10.2,0,0,1-10.2-10.19h0A10.2,10.2,0,0,1,32.26,119H55.2a10.2,10.2,0,0,1,10.2,10.2Z"/><path class="cls-12" d="M68,113.44c3,2.29-3.88,7.8-5.64,5.78C62.32,119.22,64.92,111.16,68,113.44Z"/><path class="cls-12" d="M74.4,121c1.38,3.91-8.21,4.73-8.59,1.84C65.81,122.86,73,117.12,74.4,121Z"/><path class="cls-12" d="M18.46,144.77c-3.1-2.2,3.66-7.9,5.48-5.93C23.94,138.84,21.57,147,18.46,144.77Z"/><path class="cls-12" d="M11.81,137.37c-1.49-3.86,8.07-5,8.54-2.08C20.35,135.29,13.3,141.23,11.81,137.37Z"/><path class="cls-13" d="M26.18,133.69a1.56,1.56,0,0,1-.53-.6,9,9,0,0,1-.3-2c-.1-1.12-.15-2-.15-2.51v-.64c0-.19,0-.39,0-.62a10.19,10.19,0,0,1,.07-1.24,2.28,2.28,0,0,1,.13-.53,1.7,1.7,0,0,1,.22-.42,1.29,1.29,0,0,1,.8-.54,2.33,2.33,0,0,1,.62-.08.94.94,0,0,1,.46.14c.16.09.24.19.24.31s-.07.13-.2.13a.77.77,0,0,1-.27-.08.72.72,0,0,0-.33-.08,1.33,1.33,0,0,0-.61.13,1.21,1.21,0,0,0-.43.37,1.71,1.71,0,0,0-.23.54,2.63,2.63,0,0,0-.12.67,5.25,5.25,0,0,0,0,.73v.68c0,.19,0,.4,0,.63,0,.55.06,1.37.17,2.46A7.62,7.62,0,0,0,26,133a.88.88,0,0,0,.43.35,1.38,1.38,0,0,0,.6.13,1,1,0,0,0,.85-.36.31.31,0,0,1,.23-.14c.07,0,.11,0,.11.17a.59.59,0,0,1-.14.38.86.86,0,0,1-.36.25,2.15,2.15,0,0,1-.85.17A1.24,1.24,0,0,1,26.18,133.69Z"/><path class="cls-13" d="M31.46,133.7a.2.2,0,0,1-.06-.14V132c0-.09-.21-.18-.62-.26a4.88,4.88,0,0,0-1-.13s0,.06-.08.19-.06.21-.07.26c-.11.42-.21.87-.32,1.35l-.06.26a.12.12,0,0,1-.12.1.3.3,0,0,1-.18-.06.19.19,0,0,1-.08-.15l0,0h0l.13-.61c.1-.38.18-.75.25-1.11s.15-.68.19-.8.19-.93.38-2l.08-.4c.21-1.24.35-2,.43-2.35s.11-.48.22-.86a3.06,3.06,0,0,1,.17-.48q.11-.21.18-.21a.32.32,0,0,1,.28.12,8.2,8.2,0,0,1,.19,1.2c.08.73.16,1.46.22,2.21l.16,2c0,.34,0,.87.07,1.57s.07,1.24.07,1.59v0a1,1,0,0,1,0,.25.25.25,0,0,1-.23.09A.25.25,0,0,1,31.46,133.7Zm-.07-2.39c0-.5,0-1.19-.09-2.06s-.12-1.63-.18-2.29c0-.28-.05-.59-.1-.93l-.05-.48a1.13,1.13,0,0,0,0-.13l0-.14a5.53,5.53,0,0,0-.18.73c-.06.32-.13.69-.19,1.12-.19,1.2-.36,2.1-.5,2.71l-.11.41a3.59,3.59,0,0,0-.18.92v.08a4.22,4.22,0,0,0,1.23.16h.07l.08,0C31.3,131.43,31.39,131.39,31.39,131.31Z"/><path class="cls-13" d="M33.87,133.47v-.89l0-.74c-.07-1.32-.11-2.3-.11-2.92,0-.34,0-1.4-.13-3.17,0-.39,0-.64,0-.75s0-.16,0-.17v-.09s0-.09.12-.11a2.86,2.86,0,0,1,.42,0h.61a.19.19,0,0,1,.15.08.4.4,0,0,1,0,.2q0,.12-.21.12h-.6a.17.17,0,0,0-.12,0,.45.45,0,0,0,0,.2c0,.16,0,.75.08,1.77s.09,1.61.09,1.78a1.78,1.78,0,0,0,.41-.08,1.64,1.64,0,0,1,.41-.07.17.17,0,0,1,.13.08.37.37,0,0,1,.05.16c0,.09-.06.15-.19.18a3.28,3.28,0,0,1-.56.06c-.17,0-.25.08-.25.15,0,.36,0,1,.12,2s.11,1.59.11,2.05l0,.06a.53.53,0,0,1,0,.16c0,.15-.09.23-.27.23S33.87,133.68,33.87,133.47Z"/><path class="cls-13" d="M37,133.47v-.89l0-.74c-.07-1.32-.11-2.3-.11-2.92,0-.34,0-1.4-.13-3.17,0-.39,0-.64,0-.75s0-.16,0-.17v-.09s0-.09.12-.11a2.86,2.86,0,0,1,.42,0h.61a.19.19,0,0,1,.15.08.4.4,0,0,1,0,.2q0,.12-.21.12h-.6a.17.17,0,0,0-.12,0,.69.69,0,0,0,0,.2c0,.16,0,.75.08,1.77s.09,1.61.09,1.78a1.78,1.78,0,0,0,.41-.08,1.64,1.64,0,0,1,.41-.07.17.17,0,0,1,.13.08.37.37,0,0,1,.05.16c0,.09-.06.15-.19.18a3.28,3.28,0,0,1-.56.06c-.17,0-.25.08-.25.15,0,.36,0,1,.12,2s.11,1.59.11,2.05l0,.06a.53.53,0,0,1,0,.16c0,.15-.09.23-.27.23S37,133.68,37,133.47Z"/><path class="cls-13" d="M39.89,133.78a.21.21,0,0,1-.12-.21v-.23c0-.06,0-.14,0-.22v-6.79c0-.52,0-1,0-1.34a.49.49,0,0,1,.06-.25.18.18,0,0,1,.16-.09h.75a.83.83,0,0,1,.25,0q.12,0,.12.21A.18.18,0,0,1,41,125a.35.35,0,0,1-.16.08h-.2l-.2,0h-.19a.12.12,0,0,0-.15.15c0,.38,0,.72,0,1v2.54s0,0,0,0h0l.65,0c.13,0,.19.06.19.17a.22.22,0,0,1,0,.16.18.18,0,0,1-.14,0h-.69s0,0,0,.06l0,1.8c0,.55,0,1.2,0,1.92v.45h1.14c.14,0,.22,0,.22.16s0,.2-.11.23a2.45,2.45,0,0,1-.6.05h-.5A1,1,0,0,1,39.89,133.78Z"/><path class="cls-13" d="M45.12,133.76a.26.26,0,0,1,0-.18v-.48c0-.51,0-1.08-.06-1.72s0-1.25,0-1.72,0-1.28-.06-2.53-.08-2-.08-2.53a.14.14,0,0,1,.06-.11.28.28,0,0,1,.13,0q.21,0,.21.18c0,1.5,0,2.62,0,3.36l.06,2.17c0,.33,0,.89.07,1.65l.08,1.51a0,0,0,0,0,0,0h.91c.11,0,.16.08.16.22a.31.31,0,0,1,0,.17.11.11,0,0,1-.11.06h-.18l-1,0A.17.17,0,0,1,45.12,133.76Z"/><path class="cls-13" d="M50,133.7a.2.2,0,0,1-.06-.14V132c0-.09-.21-.18-.62-.26a4.88,4.88,0,0,0-1-.13s0,.06-.08.19a2.16,2.16,0,0,1-.08.26c-.1.42-.21.87-.31,1.35l-.06.26a.12.12,0,0,1-.12.1.28.28,0,0,1-.18-.06.19.19,0,0,1-.08-.15l0,0h0l.13-.61c.1-.38.18-.75.25-1.11s.14-.68.18-.8.2-.93.39-2l.07-.4c.21-1.24.36-2,.44-2.35s.11-.48.22-.86a3.06,3.06,0,0,1,.17-.48q.1-.21.18-.21a.32.32,0,0,1,.28.12,8.2,8.2,0,0,1,.19,1.2c.08.73.16,1.46.22,2.21l.16,2c0,.34,0,.87.07,1.57s.07,1.24.07,1.59v0a1,1,0,0,1,0,.25.25.25,0,0,1-.23.09A.25.25,0,0,1,50,133.7Zm-.08-2.39c0-.5,0-1.19-.08-2.06s-.12-1.63-.18-2.29c0-.28-.05-.59-.1-.93l0-.48a.51.51,0,0,1,0-.13l0-.14a5.53,5.53,0,0,0-.18.73c-.06.32-.13.69-.19,1.12-.19,1.2-.36,2.1-.5,2.71l-.11.41a3.59,3.59,0,0,0-.18.92v.08a4.15,4.15,0,0,0,1.22.16h.08l.08,0Q49.93,131.43,49.93,131.31Z"/><path class="cls-13" d="M53.08,133.75a.41.41,0,0,1-.06-.23v-2.15l0-1.94c0-.86,0-1.51,0-1.94v-1.14a12.64,12.64,0,0,0,0-1.3H51.58a.34.34,0,0,1-.17,0,.14.14,0,0,1-.08-.14.23.23,0,0,1,0-.13.59.59,0,0,1,.2-.06,2.68,2.68,0,0,1,.48,0h2.54a.3.3,0,0,1,.2,0,.2.2,0,0,1,.06.16c0,.12-.08.18-.23.18H53.42v7.57l0,.9v0a.7.7,0,0,1,0,.16.18.18,0,0,1,0,.11.15.15,0,0,1-.13.06A.2.2,0,0,1,53.08,133.75Z"/><path class="cls-13" d="M56.94,133.75a.41.41,0,0,1-.06-.23v-2.15l0-1.94c0-.86,0-1.51,0-1.94v-1.14a12.64,12.64,0,0,0,0-1.3H55.44a.34.34,0,0,1-.17,0,.14.14,0,0,1-.08-.14.23.23,0,0,1,0-.13.59.59,0,0,1,.2-.06,2.68,2.68,0,0,1,.48,0h2.55a.29.29,0,0,1,.19,0,.2.2,0,0,1,.06.16c0,.12-.08.18-.23.18H57.28v7.57l0,.9v0a.7.7,0,0,1,0,.16.18.18,0,0,1,0,.11.14.14,0,0,1-.12.06A.21.21,0,0,1,56.94,133.75Z"/><path class="cls-13" d="M60,133.78a.21.21,0,0,1-.12-.21v-.23a1.48,1.48,0,0,1,0-.22v-6.79c0-.52,0-1,0-1.34a.49.49,0,0,1,.06-.25.19.19,0,0,1,.16-.09h.75a.94.94,0,0,1,.26,0q.12,0,.12.21a.21.21,0,0,1-.07.15.4.4,0,0,1-.16.08h-.21l-.19,0h-.2a.16.16,0,0,0-.11,0,.17.17,0,0,0,0,.12c0,.38,0,.72,0,1v2.54s0,0,0,0h0l.65,0c.13,0,.2.06.2.17a.22.22,0,0,1-.05.16s-.07,0-.13,0h-.7s0,0,0,.06l0,1.8c0,.55,0,1.2,0,1.92v.45h1.14c.15,0,.22,0,.22.16s0,.2-.11.23a2.3,2.3,0,0,1-.59.05h-.51A.92.92,0,0,1,60,133.78Z"/></g></svg>