<svg xmlns="http://www.w3.org/2000/svg" viewBox="0 0 18.4 29.98"><defs><style>.cls-1{fill:none;}.cls-2{fill:#4d495b;}.cls-3{fill:#eef8f9;}.cls-4{fill:#dae4e5;}.cls-5{fill:#edb379;}.cls-6{fill:#e8a76d;}.cls-7{fill:#ffd8a6;}.cls-8{fill:#f9c995;}.cls-9{fill:#f7be86;}.cls-10{fill:#fcf1e6;}.cls-11{fill:#964236;}.cls-12{fill:#451711;}.cls-13{font-size:2.65px;fill:#f5f4ff;font-family:AmaticSC-Regular, Amatic SC;}</style></defs><g id="coffee_types_illustration_pack" data-name="coffee types illustration pack"><rect class="cls-1" width="18.4" height="29.98" rx="8"/><path class="cls-2" d="M4.69,20.16s-.11-1.94,4.13-1.94,4.23,1.94,4.23,1.94.14,1.31-4.23,1.31S4.69,20.16,4.69,20.16Z"/><path class="cls-3" d="M9,16.76c-4.91,0-4.6,1.82-4.6,1.82s.2.67,2,1h0s-.22.75,2.55.75c2.6,0,2.56-.75,2.56-.75h0c1.79-.35,2-1,2-1S13.9,16.76,9,16.76Z"/><path class="cls-4" d="M9,17.3c-3.41,0-3.53.93-3.53.93s.15.64,3.5.64c3.08,0,3.36-.64,3.36-.64S12.22,17.3,9,17.3Z"/><path class="cls-4" d="M9.05,19.74c0-.06-.3,0-1.29,0a8.87,8.87,0,0,1-1.7-.21c-.06.15,1,.24,1.69.3A2.8,2.8,0,0,0,9.05,19.74Z"/><path class="cls-3" d="M14.08,12.69l-.1.49s1.56-.21,1.56.87-1.94.71-1.94.71l-.12.56s2.59.73,2.59-1.18S14.08,12.69,14.08,12.69Z"/><path class="cls-3" d="M14.26,11.09H3.65S2.8,18.44,9,18.44,14.26,11.09,14.26,11.09Z"/><path class="cls-5" d="M4.06,14.17c.44,1.93,1.66,4,4.86,4a4.68,4.68,0,0,0,4.87-4Z"/><path class="cls-6" d="M12.23,14.17a4.68,4.68,0,0,1-4.08,4,6.56,6.56,0,0,0,.79,0c3.2,0,4.42-2.12,4.86-4Z"/><path class="cls-7" d="M13.72,14.46A10.15,10.15,0,0,0,14,11.09H3.86a10.15,10.15,0,0,0,.27,3.37Z"/><path class="cls-8" d="M14,11.09H12.45a10,10,0,0,1-.28,3.37h1.58A10.15,10.15,0,0,0,14,11.09Z"/><path class="cls-3" d="M9,9.34c-5.07,0-5.3,1.75-5.3,1.75s.42,1.6,5.3,1.6,5.31-1.6,5.31-1.6S14,9.34,9,9.34Z"/><path class="cls-7" d="M12.77,9S12.37,5,9,5a1.89,1.89,0,0,1,.33,1.59c-.23.93-3,.22-3.07,2,0,0-2.74.48-2.23,2.64,0,0,.9,1.18,5,1.18S14,11.09,14,11.09,14.38,9,12.77,9Z"/><path class="cls-8" d="M12.23,12A3.55,3.55,0,0,0,14,11.09S14.38,9,12.77,9C12.77,9,12.37,5,9,5a1.9,1.9,0,0,1,.36.83,3.65,3.65,0,0,1,2.11,1.12c.88,1.17.16,2.33.37,2.95s1.24,0,1.26.72A2.08,2.08,0,0,1,12.23,12Z"/><path class="cls-9" d="M12.9,8.61a1.67,1.67,0,0,1-.41.74c-.34.37-1,.11-1,.29s.76.2,1.12-.16S13.07,8.61,12.9,8.61Z"/><path class="cls-9" d="M6.67,8.88a1.57,1.57,0,0,1-.66-1c-.25,0-.11.81.59,1.17s1.28.08,1.24-.1S7.23,9.25,6.67,8.88Z"/><path class="cls-10" d="M5.63,8.94a1.53,1.53,0,0,0-1.08.66c-.27.55-.13,1.48.3,1.35S5,9.84,5.3,9.48,5.78,9,5.63,8.94Z"/><path class="cls-10" d="M9.15,7c-.26-.14-.37.52-.82.65a2.28,2.28,0,0,1-1,0c-.22.11.46.7,1.17.47S9.41,7.1,9.15,7Z"/><path class="cls-11" d="M8.76,6.84c-.14-.08-.39.22-.39.22,0,.21.24.27.39.2A.27.27,0,0,0,8.76,6.84Z"/><path class="cls-11" d="M11.28,6.15c-.13-.08-.38.22-.38.22-.05.21.24.27.38.2A.26.26,0,0,0,11.28,6.15Z"/><path class="cls-11" d="M10.37,7.89c-.14-.08-.39.21-.39.21,0,.21.24.28.39.21A.27.27,0,0,0,10.37,7.89Z"/><path class="cls-11" d="M8.22,9.71c-.13-.08-.38.21-.38.21,0,.22.24.28.38.21A.26.26,0,0,0,8.22,9.71Z"/><path class="cls-11" d="M4.59,9.26c-.14-.08-.39.22-.39.22,0,.21.24.28.39.2A.27.27,0,0,0,4.59,9.26Z"/><path class="cls-11" d="M6.11,11c-.14-.08-.39.22-.39.22,0,.21.24.28.39.2A.27.27,0,0,0,6.11,11Z"/><path class="cls-11" d="M9.75,10.87c-.13-.08-.38.22-.38.22,0,.21.24.27.38.2A.27.27,0,0,0,9.75,10.87Z"/><path class="cls-11" d="M11.89,8.8c-.13-.08-.38.22-.38.22,0,.21.24.27.38.2A.26.26,0,0,0,11.89,8.8Z"/><path class="cls-11" d="M13.12,10.1c-.13-.08-.38.22-.38.22-.05.21.24.27.38.2A.27.27,0,0,0,13.12,10.1Z"/><path class="cls-12" d="M13.07,25.81a2,2,0,0,1-2,2H6.45a2,2,0,0,1-2-2h0a2,2,0,0,1,2-2H11a2,2,0,0,1,2,2Z"/><path class="cls-12" d="M13.58,22.67c.61.45-.78,1.55-1.13,1.15C12.45,23.82,13,22.21,13.58,22.67Z"/><path class="cls-12" d="M14.87,24.18c.27.78-1.64.95-1.72.37C13.15,24.55,14.59,23.4,14.87,24.18Z"/><path class="cls-12" d="M3.7,28.92c-.62-.44.73-1.58,1.09-1.18C4.79,27.74,4.32,29.36,3.7,28.92Z"/><path class="cls-12" d="M2.37,27.45c-.3-.78,1.61-1,1.7-.42C4.07,27,2.67,28.22,2.37,27.45Z"/><text class="cls-13" transform="translate(4.76 26.72)">caffe latte</text></g></svg>