<svg xmlns="http://www.w3.org/2000/svg" viewBox="0 0 92.06 150"><defs><style>.cls-1{fill:none;}.cls-2{fill:#4d495b;}.cls-3{fill:#eef8f9;}.cls-4{fill:#dae4e5;}.cls-5{fill:#964236;}.cls-6{fill:#7f372f;}.cls-7{fill:#682c28;}.cls-8{fill:#f7c9c6;}.cls-9{fill:#e0d9f9;}.cls-10{fill:#451711;}.cls-11{fill:#f5f4ff;}</style></defs><g id="coffee_types_illustration_pack" data-name="coffee types illustration pack"><rect class="cls-1" x="-0.05" y="-0.09" width="92.17" height="150.17" rx="8"/><path class="cls-2" d="M24.32,101.43S23.77,91.7,45,91.7s21.17,9.73,21.17,9.73S66.91,108,45,108,24.32,101.43,24.32,101.43Z"/><path class="cls-3" d="M45.88,84.37c-24.61,0-23.06,9.14-23.06,9.14s1,3.34,10,5.09h0s-1.08,3.76,12.79,3.76c13,0,12.8-3.76,12.8-3.76h0c9-1.75,10-5.09,10-5.09S70.49,84.37,45.88,84.37Z"/><path class="cls-4" d="M45.75,87.07c-17.06,0-17.67,4.65-17.67,4.65s.74,3.21,17.52,3.21c15.45,0,16.83-3.21,16.83-3.21S62.05,87.07,45.75,87.07Z"/><path class="cls-4" d="M46.15,99.32c-.17-.3-1.47.16-6.42,0a45.14,45.14,0,0,1-8.51-1.06c-.34.74,4.9,1.18,8.43,1.48S46.32,99.61,46.15,99.32Z"/><path class="cls-3" d="M71.37,64l-.51,2.47s7.81-1.06,7.81,4.33S69,74.38,69,74.38l-.63,2.78s13,3.65,13-5.91S71.37,64,71.37,64Z"/><path class="cls-3" d="M72.25,56H19.13S14.85,92.77,45.69,92.77,72.25,56,72.25,56Z"/><path class="cls-5" d="M71.37,56H20S15.84,91.7,45.68,91.7,71.37,56,71.37,56Z"/><path class="cls-6" d="M71.24,56H62.78S66.51,88.2,41.31,91.43a33.35,33.35,0,0,0,4.24.27C75.38,91.7,71.24,56,71.24,56Z"/><path class="cls-6" d="M69.82,73.46A49.8,49.8,0,0,0,71.37,56H20a50.08,50.08,0,0,0,1.55,17.48Z"/><path class="cls-7" d="M71.24,56H62.78a50.08,50.08,0,0,1-1.55,17.48h8.46A50.08,50.08,0,0,0,71.24,56Z"/><path class="cls-3" d="M45.69,47.2C20.3,47.2,19.13,56,19.13,56s2.1,8,26.56,8,26.56-8,26.56-8S71.07,47.2,45.69,47.2Z"/><path class="cls-6" d="M46.23,48.46c-22.07,0-25.34,7.81-25.34,7.81s3.61,6.12,25.68,6.12S70.86,56,70.86,56,68.3,48.46,46.23,48.46Z"/><path class="cls-7" d="M60,49.8a8.48,8.48,0,0,1,3.2,6.8c-.37,5.49-25.82,5.79-32,4.45v0a76.27,76.27,0,0,0,15.24,1.31c22.07,0,24.3-6.41,24.3-6.41S69.37,52,60,49.8Z"/><path class="cls-8" d="M25,54.31c.19-.7,1.26-1.32.73-1.47,0,0-2.55.68-2.81,2.59s2.43,3.32,3.31,2.44S24.64,55.59,25,54.31Z"/><path class="cls-8" d="M26.38,52.31s-.23.06-.23.42.23.36.23.36a.42.42,0,0,0,0-.78Z"/><path class="cls-8" d="M27,52.78a.23.23,0,0,0,.18-.25.25.25,0,0,0-.18-.26s-.16,0-.16.28S27,52.78,27,52.78Z"/><path class="cls-8" d="M27.17,57.26s-.46.11-.46.86.46.73.46.73a.77.77,0,0,0,.56-.8A.75.75,0,0,0,27.17,57.26Z"/><path class="cls-9" d="M44.18,37.26c-.13-3-3.78-3.59-3.72-1.89a1.92,1.92,0,0,1,1.77,2.14c0,2.08-2.71,1.45-2.84,3.84s3.34,3.84,4.1,2.45S41.72,41.92,42,40.91,44.3,40.28,44.18,37.26Z"/><path class="cls-9" d="M50,35.06c-.12-3-3.77-3.59-3.71-1.89a1.92,1.92,0,0,1,1.76,2.14c0,2.07-2.7,1.45-2.83,3.84S48.59,43,49.34,41.6s-1.76-1.89-1.45-2.89S50.16,38.08,50,35.06Z"/><path class="cls-9" d="M53.11,41.92c.32-1,2.27-.63,2.14-3.65s-3.77-3.59-3.71-1.89a1.92,1.92,0,0,1,1.76,2.14c0,2.07-2.71,1.44-2.83,3.84s3.33,3.84,4.09,2.45S52.8,42.92,53.11,41.92Z"/><path class="cls-10" d="M67.54,128.71a10.42,10.42,0,0,1-10.42,10.42H33.69a10.42,10.42,0,0,1-10.42-10.42h0a10.43,10.43,0,0,1,10.42-10.42H57.12a10.43,10.43,0,0,1,10.42,10.42Z"/><path class="cls-10" d="M13.4,122c-1.81,3.43,7,5.49,7.73,2.86C21.13,124.82,15.21,118.52,13.4,122Z"/><path class="cls-10" d="M10.77,131.77c.43,4.21,9.64.77,8.73-2.06C19.5,129.71,10.34,127.56,10.77,131.77Z"/><path class="cls-10" d="M77.8,122c1.81,3.43-7,5.49-7.73,2.86C70.07,124.82,76,118.52,77.8,122Z"/><path class="cls-10" d="M80.43,131.77c-.43,4.21-9.65.77-8.74-2.06C71.69,129.71,80.86,127.56,80.43,131.77Z"/><path class="cls-11" d="M35.29,127.25c0-.55,0-1.24,0-2.06,0-.53,0-1,0-1.4v-1.4c0-.6,0-1.34-.05-2.23a.29.29,0,0,1-.1-.23.21.21,0,0,1,.1-.17.23.23,0,0,1,.36,0l.13.11a1.24,1.24,0,0,0,.27.07,1.38,1.38,0,0,1,.28.07,2.58,2.58,0,0,1,.48.37,2.7,2.7,0,0,0,.39.35v0a.86.86,0,0,0,.17.3,2.77,2.77,0,0,1,.22.34,4.5,4.5,0,0,1,.19,1.4c0,.11,0,.2,0,.28v.38l0,.12a.87.87,0,0,0,.07.35c0,.25-.1.73-.17,1.43,0,.21-.07.43-.12.65a2.67,2.67,0,0,1-.2.57,2.53,2.53,0,0,1-1,1h-.83C35.32,127.57,35.29,127.46,35.29,127.25Zm.88,0a2.11,2.11,0,0,1,.15-.15l.09-.06.09-.08a3.8,3.8,0,0,0,.83-2.85v-.22a1.27,1.27,0,0,1,0-.2l0-1.2a3.46,3.46,0,0,0-.41-1.42,1.77,1.77,0,0,0-.48-.6,1.07,1.07,0,0,0-.64-.23,6.67,6.67,0,0,0-.14,2.19c0,1.69,0,3.16.14,4.42v.23l.05,0,0,.15Z"/><path class="cls-11" d="M39.13,123.37V123c0-2.2.28-3.3.85-3.3l.17,0a3.38,3.38,0,0,0,.75.17c.14,0,.29.18.44.46a3.49,3.49,0,0,1,.38,1.12,8.57,8.57,0,0,1,.12,1.44l0,.06c0,.26,0,.49,0,.69v.71a9,9,0,0,1-.05,1.09,5.9,5.9,0,0,1-.23,1.27,1.87,1.87,0,0,1-.25.53,1.15,1.15,0,0,1-.33.36.78.78,0,0,1-.46.14C39.59,127.73,39.13,126.28,39.13,123.37Zm2,3.37a4.92,4.92,0,0,0,.28-1.35c0-.48,0-.86,0-1.14s0-.78-.08-1.4-.06-1.15-.06-1.39l0-.1,0-.06a1.45,1.45,0,0,0-.29-.9.87.87,0,0,0-.7-.38.61.61,0,0,0-.66.52c0,.12,0,.29,0,.51a7.34,7.34,0,0,1-.07,1.2c0,.12,0,.3,0,.55l0,.56c0,.18,0,.33,0,.46v.48a9.05,9.05,0,0,0,.1,1.28,7.45,7.45,0,0,0,.16.9,2.07,2.07,0,0,0,.27.62.51.51,0,0,0,.42.29C40.78,127.39,41,127.17,41.15,126.74Z"/><path class="cls-11" d="M44.22,127.56a1.18,1.18,0,0,1-.36-.29,2.85,2.85,0,0,1-.27-1.2c-.06-.65-.1-1.4-.11-2.25a3.87,3.87,0,0,0,0-.42c0-2,0-3.16-.09-3.52l.07-.17q.27,0,.27.66l0,3.13q0,.33.06,1.26c0,.55.07,1,.07,1.25,0,.91.3,1.35.89,1.35.36,0,.59-.82.7-2.48v-.24c.05-2.17.08-3.78.08-4.82v-.11a.31.31,0,0,1,0-.1c0-.09.06-.13.2-.13s.15,0,.18.07a3.52,3.52,0,0,1,0,.41,6.32,6.32,0,0,1-.07,1.21v.07q0,.15,0,.48l0,.47v.12a.41.41,0,0,1,0,.12c0,.19,0,.37,0,.54a1.78,1.78,0,0,0,0,.26c0,.75,0,1.4,0,2a6.09,6.09,0,0,1-.28,1.74q-.27.75-.84.75A.83.83,0,0,1,44.22,127.56Z"/><path class="cls-11" d="M47.75,127.57a.24.24,0,0,1-.07-.18V127c0-.28,0-.7.07-1.25s.06-1,.06-1.25V124c0-.16,0-.33,0-.52s0-.79,0-1.41,0-1.11,0-1.42l0-.69,0-.06v-.07c0-.2.08-.31.25-.31a2.27,2.27,0,0,1,.62.15c.29.1.43.18.43.24v0a2.26,2.26,0,0,1,.29.69,4.16,4.16,0,0,1,.08.87,4.53,4.53,0,0,1-.19,1.41h0a2.35,2.35,0,0,1-.19.31l-.17.25a1.23,1.23,0,0,1,.37.48,2.26,2.26,0,0,1,.18.62c0,.07,0,.16,0,.26s0,.23,0,.37v.47a2,2,0,0,1-.71,1.68,1.46,1.46,0,0,1-.91.29A.22.22,0,0,1,47.75,127.57Zm.87-.58a1.41,1.41,0,0,0,.39-.5,1.45,1.45,0,0,0,.14-.59v-.28a5.67,5.67,0,0,0-.08-.94,1.51,1.51,0,0,0-.46-.88.72.72,0,0,0-.45-.15c0,.65-.06,1.19-.06,1.61v.27a3.75,3.75,0,0,0,0,.54,1.54,1.54,0,0,0-.06.57V127l0,.22A.86.86,0,0,0,48.62,127Zm-.35-3.76c.52,0,.79-.52.79-1.57q0-.14,0-.51v-.23l0,0a4.08,4.08,0,0,0-.13-.62.57.57,0,0,0-.19-.26.46.46,0,0,0-.29-.1c-.17,0-.26.51-.26,1.55,0,.19,0,.33,0,.4v.64c0,.13,0,.27,0,.43v.14l0,.07,0,.08Z"/><path class="cls-11" d="M51.08,127.39a1.64,1.64,0,0,0,0-.39c0-.73,0-1.81,0-3.24s0-2.44,0-3.07l0-.43,0-.36c0-.05,0-.08.09-.08a.41.41,0,0,1,.16,0h0c0,.17,0,.33,0,.47v1.75c0,.38,0,.81,0,1.3a1.43,1.43,0,0,0,0,.26l0,.24c0,.16,0,.32,0,.49s0,.35,0,.5l0,.51,0,.09h0a.07.07,0,0,1,0,0v0a.31.31,0,0,0,0,.17l0,1.14v.07a1,1,0,0,0,0,.23.05.05,0,0,0,.06.06l.62,0h.53a.15.15,0,0,1,.12.07.18.18,0,0,1,.06.13c0,.1-.06.15-.19.16s-.46,0-1,0l0,0h-.23l-.21,0C51.17,127.66,51.1,127.57,51.08,127.39Z"/><path class="cls-11" d="M54,127.41v-.15a.59.59,0,0,0,0-.14l-.05-.05a1.46,1.46,0,0,0,.09-.49q0-.27,0-.78l0-.78c0-.39,0-1,0-1.78s.05-1.3.05-1.78l0-.72c0-.21,0-.45,0-.71a.36.36,0,0,1,.08-.25.4.4,0,0,1,.26-.08.27.27,0,0,1,.19.07,1.87,1.87,0,0,0,.35,0,2.4,2.4,0,0,1,.51.11c.15,0,.22.1.22.17s-.07.16-.22.24a3.51,3.51,0,0,0-1-.22l-.06.07c0,.07,0,.24,0,.51s0,.64,0,.91,0,.58,0,.92.06.33.17.33h.39c.31,0,.46.07.46.21a.38.38,0,0,1-.06.22.2.2,0,0,1-.17.09.41.41,0,0,1-.28-.09l-.38-.06h-.06l-.05.06v0c0,.14,0,.45,0,.94,0,.31,0,.59,0,.84v.84c0,.31,0,.62,0,1a.51.51,0,0,0,.12.36.62.62,0,0,0,.39.09h.21l.24,0c.23,0,.34,0,.34.16s-.17.21-.52.21h-1C54.1,127.66,54,127.58,54,127.41Z"/><path class="cls-11" d="M33.49,137.08v-.15a.61.61,0,0,0,0-.14l0,0a1.22,1.22,0,0,0,.1-.48c0-.19,0-.45,0-.79l0-.78q0-.58,0-1.77c0-.71,0-1.3,0-1.79l0-.71c0-.22,0-.45,0-.71a.33.33,0,0,1,.09-.26.37.37,0,0,1,.26-.08.26.26,0,0,1,.19.08l.34,0a2.81,2.81,0,0,1,.51.11c.15.05.22.11.22.18s-.07.15-.22.23a3.51,3.51,0,0,0-1-.22l-.06.07c0,.07,0,.24,0,.51s0,.64,0,.91,0,.59,0,.92.05.34.16.34l.19,0h.2c.31,0,.47.07.47.22a.35.35,0,0,1-.06.21.2.2,0,0,1-.18.09.37.37,0,0,1-.27-.09l-.38-.06h-.06l-.06.06v0c0,.14,0,.45,0,.94,0,.31,0,.59,0,.84v.84c0,.31,0,.63,0,.95a.51.51,0,0,0,.12.36.62.62,0,0,0,.39.09h.45c.23,0,.35.05.35.15s-.18.21-.52.21h-1C33.58,137.33,33.5,137.25,33.49,137.08Z"/><path class="cls-11" d="M36.41,137.22a.25.25,0,0,1-.13-.18l.06-.1.22,0a.59.59,0,0,0,.21,0,.61.61,0,0,0,.46-.2,1.42,1.42,0,0,0,.31-.54,4.49,4.49,0,0,0,.16-1.16,3.72,3.72,0,0,0-.49-1.75q-.32-.56-.48-.87a4.11,4.11,0,0,1-.29-.73,3,3,0,0,1-.16-.94,2.89,2.89,0,0,1,.22-1,1.08,1.08,0,0,1,.3-.44.64.64,0,0,1,.42-.17.51.51,0,0,1,.3.1c.1.08.15.15.15.23s-.05.09-.15.09a.27.27,0,0,1-.12,0,.38.38,0,0,0-.13,0,.42.42,0,0,0-.32.15.81.81,0,0,0-.22.36,2.81,2.81,0,0,0-.14.81,1.88,1.88,0,0,0,.06.46.74.74,0,0,1,0,.12.25.25,0,0,1,0,.07l.07.24.06.21.09.21a1,1,0,0,0,.08.15s0,.09.07.12l.15.25s.1.16.2.34a5.85,5.85,0,0,1,.28.56,3.16,3.16,0,0,1,.18.47c0,.15.07.32.11.53a6.46,6.46,0,0,1,0,.65,3.74,3.74,0,0,1-.15,1.07,1.52,1.52,0,0,1-.62.83,1,1,0,0,1-.52.14l-.06,0A.87.87,0,0,1,36.41,137.22Zm1.2-7.62h0Z"/><path class="cls-11" d="M39.61,137.32a9.64,9.64,0,0,1-.13-1.7c0-.26,0-.62,0-1.11l0-1.1a.57.57,0,0,1-.08-.27,2.79,2.79,0,0,0,.12-1.09,19.09,19.09,0,0,0-.06-2.3c.07-.19.12-.29.16-.29h.52a1,1,0,0,1,.38.12,1.75,1.75,0,0,1,.4.27c.2.18.3.65.3,1.4,0,.4,0,.71,0,.92a1.67,1.67,0,0,1-.08.35,2.25,2.25,0,0,1-.16.3,1.39,1.39,0,0,1-.61.47,2,2,0,0,1-.49.19v1.41c0,.2,0,.59.06,1.16l0,.38,0,.77a.2.2,0,0,1-.22.22Zm1-4.56a1,1,0,0,0,.15-.32,1.86,1.86,0,0,0,.1-.39,3.74,3.74,0,0,0,.07-.79v-.32c0-.11,0-.22,0-.32a2.68,2.68,0,0,0-.05-.3.73.73,0,0,0-.12-.25.58.58,0,0,0-.21-.17.74.74,0,0,0-.34-.08.26.26,0,0,0-.21.08.37.37,0,0,0-.05.24c0,.19,0,.48,0,.86l0,.85a5,5,0,0,1,0,.56l0,.55.08.12A.71.71,0,0,0,40.57,132.76Z"/><path class="cls-11" d="M44.37,137.32a2.26,2.26,0,0,1-.31-.82c-.11-.44-.21-.94-.3-1.49a12.77,12.77,0,0,0-.28-1.34c-.09-.39-.18-.59-.27-.59h0c-.18,0-.27.06-.27.17,0,.57,0,1.43.1,2.59a7.16,7.16,0,0,0,.11,1.24l-.1.21h-.16l-.1-.1c-.13-3.65-.19-6.13-.19-7.46a1.06,1.06,0,0,1,0-.21.35.35,0,0,1,.08-.16.17.17,0,0,1,.16-.08,1.48,1.48,0,0,1,1,.3,1,1,0,0,1,.37.85v.86a1.83,1.83,0,0,1-.15.61c-.1.25-.21.48-.32.7l-.16.29c.09.4.26,1.13.52,2.17s.39,1.61.42,1.67l0,.06a.59.59,0,0,0,.07.14.64.64,0,0,1,.09.28c0,.12-.05.17-.13.17Zm-1-4.76a1.84,1.84,0,0,0,.28-.58,4.59,4.59,0,0,0,.19-1.15,2.81,2.81,0,0,0,0-.45,2.15,2.15,0,0,0-.1-.38.63.63,0,0,0-.68-.41s-.07,0-.09.1a.71.71,0,0,0,0,.21c0,.52,0,1,0,1.43s0,.9,0,1.43l0,0A.53.53,0,0,0,43.38,132.56Z"/><path class="cls-11" d="M46,137.08v-.15a.61.61,0,0,0,0-.14l0,0a1.4,1.4,0,0,0,.09-.48c0-.19,0-.45,0-.79l0-.78c0-.39,0-1,0-1.77s0-1.3,0-1.79l0-.71c0-.22,0-.45,0-.71a.37.37,0,0,1,.08-.26.38.38,0,0,1,.26-.08.26.26,0,0,1,.19.08l.34,0a2.81,2.81,0,0,1,.51.11c.15.05.23.11.23.18s-.08.15-.23.23a3.51,3.51,0,0,0-1-.22l-.06.07a4.46,4.46,0,0,1,0,.51c0,.34,0,.64,0,.91s0,.59,0,.92.06.34.17.34l.19,0h.2c.31,0,.46.07.46.22a.35.35,0,0,1-.06.21.2.2,0,0,1-.18.09.37.37,0,0,1-.27-.09l-.38-.06h-.06l-.06.06v0a8.74,8.74,0,0,1,0,.94c0,.31,0,.59,0,.84v.84c0,.31,0,.63,0,.95a.51.51,0,0,0,.12.36.62.62,0,0,0,.39.09h.45c.23,0,.34.05.34.15s-.17.21-.52.21h-1C46.08,137.33,46,137.25,46,137.08Z"/><path class="cls-11" d="M48.91,137.22a.23.23,0,0,1-.13-.18l.06-.1.21,0a.68.68,0,0,0,.21,0,.63.63,0,0,0,.47-.2,1.41,1.41,0,0,0,.3-.54,4.52,4.52,0,0,0,.17-1.16,3.75,3.75,0,0,0-.5-1.75l-.47-.87a5,5,0,0,1-.3-.73,3.23,3.23,0,0,1-.15-.94,3.08,3.08,0,0,1,.21-1,1.08,1.08,0,0,1,.3-.44.64.64,0,0,1,.42-.17.52.52,0,0,1,.31.1.32.32,0,0,1,.14.23q0,.09-.15.09l-.12,0a.38.38,0,0,0-.13,0,.44.44,0,0,0-.32.15.8.8,0,0,0-.21.36,2.31,2.31,0,0,0-.09,1.27,1,1,0,0,0,0,.12.2.2,0,0,1,0,.07l.07.24.06.21.09.21a1,1,0,0,0,.08.15l.08.12.14.25.2.34a5.93,5.93,0,0,1,.29.56,3,3,0,0,1,.17.47,4.42,4.42,0,0,1,.11.53,6.3,6.3,0,0,1,0,.65,3.74,3.74,0,0,1-.16,1.07,1.5,1.5,0,0,1-.61.83,1,1,0,0,1-.52.14l-.06,0A.77.77,0,0,1,48.91,137.22Zm1.19-7.62h0Z"/><path class="cls-11" d="M51.58,137.22a.25.25,0,0,1-.13-.18l.06-.1.22,0a.59.59,0,0,0,.21,0,.61.61,0,0,0,.46-.2,1.42,1.42,0,0,0,.31-.54,4.49,4.49,0,0,0,.16-1.16,3.72,3.72,0,0,0-.49-1.75q-.32-.56-.48-.87a4.11,4.11,0,0,1-.29-.73,3,3,0,0,1-.16-.94,2.89,2.89,0,0,1,.22-1,1.08,1.08,0,0,1,.3-.44.64.64,0,0,1,.42-.17.51.51,0,0,1,.3.1c.1.08.15.15.15.23s-.05.09-.15.09a.27.27,0,0,1-.12,0,.38.38,0,0,0-.13,0,.42.42,0,0,0-.32.15.81.81,0,0,0-.22.36,2.81,2.81,0,0,0-.14.81,1.88,1.88,0,0,0,.06.46.74.74,0,0,1,0,.12.25.25,0,0,1,0,.07l.07.24L52,132l.09.21a1,1,0,0,0,.08.15s.05.09.07.12l.15.25.2.34a5.85,5.85,0,0,1,.28.56,3.16,3.16,0,0,1,.18.47c0,.15.07.32.11.53a6.46,6.46,0,0,1,0,.65,3.74,3.74,0,0,1-.15,1.07,1.52,1.52,0,0,1-.62.83,1,1,0,0,1-.52.14l-.06,0A.87.87,0,0,1,51.58,137.22Zm1.2-7.62h0Z"/><path class="cls-11" d="M54.46,133.05v-.42c0-2.2.29-3.3.85-3.3l.17,0a3.38,3.38,0,0,0,.75.17c.15,0,.3.18.45.46a3.48,3.48,0,0,1,.37,1.13,8.36,8.36,0,0,1,.12,1.43l0,.06c0,.26,0,.49,0,.7V134c0,.4,0,.76,0,1.09a6.42,6.42,0,0,1-.24,1.26,2.49,2.49,0,0,1-.24.54,1.26,1.26,0,0,1-.34.35.72.72,0,0,1-.46.14C54.92,137.4,54.46,136,54.46,133.05Zm2,3.36a5.22,5.22,0,0,0,.27-1.35c0-.47.05-.85.05-1.14s0-.78-.07-1.4-.06-1.15-.06-1.39l0-.1,0-.06a1.43,1.43,0,0,0-.29-.9.87.87,0,0,0-.7-.38.59.59,0,0,0-.65.52c0,.12,0,.29,0,.51a6.33,6.33,0,0,1-.07,1.2,5.08,5.08,0,0,1,0,.56l0,.55c0,.18,0,.33,0,.47V134a9,9,0,0,0,.1,1.28,7.45,7.45,0,0,0,.16.9,2.27,2.27,0,0,0,.28.63.47.47,0,0,0,.41.28C56.11,137.06,56.34,136.84,56.49,136.41Z"/></g></svg>