<svg xmlns="http://www.w3.org/2000/svg" viewBox="0 0 18.4 29.98"><defs><style>.cls-1{fill:none;}.cls-2{fill:#4d495b;}.cls-3{fill:#eef8f9;}.cls-4{fill:#dae4e5;}.cls-5{fill:#964236;}.cls-6{fill:#7f372f;}.cls-7{fill:#682c28;}.cls-8{fill:#f7c9c6;}.cls-9{fill:#e0d9f9;}.cls-10{fill:#451711;}.cls-11{font-size:2.36px;fill:#f5f4ff;font-family:AmaticSC-Regular, Amatic SC;}.cls-12{letter-spacing:-0.02em;}.cls-13{letter-spacing:0em;}</style></defs><g id="coffee_types_illustration_pack" data-name="coffee types illustration pack"><rect class="cls-1" width="18.4" height="29.98" rx="8"/><path class="cls-2" d="M4.87,20.27S4.76,18.33,9,18.33s4.23,1.94,4.23,1.94.14,1.31-4.23,1.31S4.87,20.27,4.87,20.27Z"/><path class="cls-3" d="M9.17,16.86c-4.91,0-4.6,1.83-4.6,1.83s.2.67,2,1h0s-.22.76,2.55.76c2.6,0,2.56-.76,2.56-.76h0c1.79-.34,2-1,2-1S14.08,16.86,9.17,16.86Z"/><path class="cls-4" d="M9.15,17.4c-3.41,0-3.53.93-3.53.93s.14.64,3.49.64c3.09,0,3.37-.64,3.37-.64S12.4,17.4,9.15,17.4Z"/><path class="cls-4" d="M9.22,19.85a12.46,12.46,0,0,0-1.28,0,9.76,9.76,0,0,1-1.7-.21c-.06.14,1,.23,1.69.29A2.8,2.8,0,0,0,9.22,19.85Z"/><path class="cls-3" d="M14.26,12.79l-.1.5s1.56-.21,1.56.86-1.94.72-1.94.72l-.12.55s2.59.73,2.59-1.18S14.26,12.79,14.26,12.79Z"/><path class="cls-3" d="M14.44,11.19H3.83S3,18.54,9.13,18.54,14.44,11.19,14.44,11.19Z"/><path class="cls-5" d="M14.26,11.19H4s-.83,7.14,5.13,7.14S14.26,11.19,14.26,11.19Z"/><path class="cls-6" d="M14.23,11.19H12.54s.75,6.44-4.28,7.08a5.63,5.63,0,0,0,.84.06C15.06,18.33,14.23,11.19,14.23,11.19Z"/><path class="cls-6" d="M14,14.68a10,10,0,0,0,.31-3.49H4a10,10,0,0,0,.31,3.49Z"/><path class="cls-7" d="M14.23,11.19H12.54a10.11,10.11,0,0,1-.3,3.49h1.69A9.83,9.83,0,0,0,14.23,11.19Z"/><path class="cls-3" d="M9.13,9.44c-5.07,0-5.3,1.75-5.3,1.75s.42,1.6,5.3,1.6,5.31-1.6,5.31-1.6S14.2,9.44,9.13,9.44Z"/><path class="cls-6" d="M9.24,9.69c-4.4,0-5.06,1.56-5.06,1.56s.72,1.22,5.13,1.22,4.85-1.28,4.85-1.28S13.65,9.69,9.24,9.69Z"/><path class="cls-7" d="M12,10a1.65,1.65,0,0,1,.64,1.36c-.07,1.09-5.15,1.15-6.39.89h0a14.68,14.68,0,0,0,3,.26c4.41,0,4.85-1.28,4.85-1.28S13.86,10.39,12,10Z"/><path class="cls-8" d="M5,10.86c0-.14.25-.26.14-.29s-.51.13-.56.51.49.67.66.49S4.93,11.12,5,10.86Z"/><path class="cls-8" d="M5.28,10.46s0,0,0,.09,0,.07,0,.07,0,0,0-.08S5.28,10.46,5.28,10.46Z"/><path class="cls-8" d="M5.4,10.56s0,0,0-.06a0,0,0,0,0,0-.05s0,0,0,.06S5.4,10.56,5.4,10.56Z"/><path class="cls-8" d="M5.44,11.45s-.1,0-.1.17.1.15.1.15a.16.16,0,0,0,.11-.16A.15.15,0,0,0,5.44,11.45Z"/><path class="cls-9" d="M8.83,7.46c0-.61-.75-.72-.74-.38a.38.38,0,0,1,.35.43c0,.41-.54.29-.56.76s.66.77.81.49-.35-.37-.29-.57S8.86,8.06,8.83,7.46Z"/><path class="cls-9" d="M10,7c0-.61-.75-.72-.74-.38a.38.38,0,0,1,.35.43c0,.41-.54.29-.56.76s.66.77.81.49S9.51,8,9.57,7.75,10,7.62,10,7Z"/><path class="cls-9" d="M10.62,8.39c.06-.2.45-.13.42-.73s-.75-.72-.74-.38a.38.38,0,0,1,.35.43c0,.41-.54.29-.56.76s.66.77.81.49S10.55,8.59,10.62,8.39Z"/><path class="cls-10" d="M13.49,25.72a2.08,2.08,0,0,1-2.08,2.08H6.74a2.08,2.08,0,0,1-2.08-2.08h0a2.08,2.08,0,0,1,2.08-2.08h4.67a2.08,2.08,0,0,1,2.08,2.08Z"/><path class="cls-10" d="M2.69,24.37c-.37.68,1.39,1.09,1.54.57C4.23,24.94,3.05,23.68,2.69,24.37Z"/><path class="cls-10" d="M2.16,26.33c.09.84,1.93.15,1.74-.41C3.9,25.92,2.07,25.49,2.16,26.33Z"/><path class="cls-10" d="M15.54,24.37c.37.68-1.39,1.09-1.54.57C14,24.94,15.18,23.68,15.54,24.37Z"/><path class="cls-10" d="M16.07,26.33c-.09.84-1.93.15-1.74-.41C14.33,25.92,16.15,25.49,16.07,26.33Z"/><text class="cls-11" transform="translate(6.86 25.48)">double<tspan x="-0.33" y="1.93">espre</tspan><tspan class="cls-12" x="2.77" y="1.93">s</tspan><tspan class="cls-13" x="3.3" y="1.93">so</tspan></text></g></svg>