<svg xmlns="http://www.w3.org/2000/svg" viewBox="0 0 18.4 29.98"><defs><style>.cls-1{fill:none;}.cls-2{fill:#4d495b;}.cls-3{fill:#eef8f9;}.cls-4{fill:#dae4e5;}.cls-5{fill:#964236;}.cls-6{fill:#7f372f;}.cls-7{fill:#682c28;}.cls-8{fill:#f7c9c6;}.cls-9{fill:#e0d9f9;}.cls-10{fill:#451711;}.cls-11{fill:#f9d9d7;}</style></defs><g id="coffee_types_illustration_pack" data-name="coffee types illustration pack"><rect class="cls-1" width="18.4" height="29.98" rx="8"/><path class="cls-2" d="M4.87,20.27S4.76,18.33,9,18.33s4.23,1.94,4.23,1.94.14,1.31-4.23,1.31S4.87,20.27,4.87,20.27Z"/><path class="cls-3" d="M9.17,16.86c-4.91,0-4.6,1.83-4.6,1.83s.2.67,2,1h0s-.22.76,2.55.76c2.6,0,2.56-.76,2.56-.76h0c1.79-.34,2-1,2-1S14.08,16.86,9.17,16.86Z"/><path class="cls-4" d="M9.15,17.4c-3.41,0-3.53.93-3.53.93s.14.64,3.49.64c3.09,0,3.37-.64,3.37-.64S12.4,17.4,9.15,17.4Z"/><path class="cls-4" d="M9.22,19.85a12.46,12.46,0,0,0-1.28,0,9.76,9.76,0,0,1-1.7-.21c-.06.14,1,.23,1.69.29A2.8,2.8,0,0,0,9.22,19.85Z"/><path class="cls-3" d="M14.26,12.79l-.1.5s1.56-.21,1.56.86-1.94.72-1.94.72l-.12.55s2.59.73,2.59-1.18S14.26,12.79,14.26,12.79Z"/><path class="cls-3" d="M14.44,11.19H3.83S3,18.54,9.13,18.54,14.44,11.19,14.44,11.19Z"/><path class="cls-5" d="M14.26,11.19H4s-.83,7.14,5.13,7.14S14.26,11.19,14.26,11.19Z"/><path class="cls-6" d="M14.23,11.19H12.54s.75,6.44-4.28,7.08a5.63,5.63,0,0,0,.84.06C15.06,18.33,14.23,11.19,14.23,11.19Z"/><path class="cls-6" d="M14,14.68a10,10,0,0,0,.31-3.49H4a10,10,0,0,0,.31,3.49Z"/><path class="cls-7" d="M14.23,11.19H12.54a10.11,10.11,0,0,1-.3,3.49h1.69A9.83,9.83,0,0,0,14.23,11.19Z"/><path class="cls-3" d="M9.13,9.44c-5.07,0-5.3,1.75-5.3,1.75s.42,1.6,5.3,1.6,5.31-1.6,5.31-1.6S14.2,9.44,9.13,9.44Z"/><path class="cls-6" d="M9.24,9.69c-4.4,0-5.06,1.56-5.06,1.56s.72,1.22,5.13,1.22,4.85-1.28,4.85-1.28S13.65,9.69,9.24,9.69Z"/><path class="cls-7" d="M12,10a1.65,1.65,0,0,1,.64,1.36c-.07,1.09-5.15,1.15-6.39.89h0a14.68,14.68,0,0,0,3,.26c4.41,0,4.85-1.28,4.85-1.28S13.86,10.39,12,10Z"/><path class="cls-8" d="M5,10.86c0-.14.25-.26.14-.29s-.51.13-.56.51.49.67.66.49S4.93,11.12,5,10.86Z"/><path class="cls-8" d="M5.28,10.46s0,0,0,.09,0,.07,0,.07,0,0,0-.08S5.28,10.46,5.28,10.46Z"/><path class="cls-8" d="M5.4,10.56s0,0,0-.06a0,0,0,0,0,0-.05s0,0,0,.06S5.4,10.56,5.4,10.56Z"/><path class="cls-8" d="M5.44,11.45s-.1,0-.1.17.1.15.1.15a.16.16,0,0,0,.11-.16A.15.15,0,0,0,5.44,11.45Z"/><path class="cls-9" d="M8.83,7.46c0-.61-.75-.72-.74-.38a.38.38,0,0,1,.35.43c0,.41-.54.29-.56.76s.66.77.81.49-.35-.37-.29-.57S8.86,8.06,8.83,7.46Z"/><path class="cls-9" d="M10,7c0-.61-.75-.72-.74-.38a.38.38,0,0,1,.35.43c0,.41-.54.29-.56.76s.66.77.81.49S9.51,8,9.57,7.75,10,7.62,10,7Z"/><path class="cls-9" d="M10.62,8.39c.06-.2.45-.13.42-.73s-.75-.72-.74-.38a.38.38,0,0,1,.35.43c0,.41-.54.29-.56.76s.66.77.81.49S10.55,8.59,10.62,8.39Z"/><path class="cls-10" d="M13.49,25.72a2.08,2.08,0,0,1-2.08,2.08H6.74a2.08,2.08,0,0,1-2.08-2.08h0a2.08,2.08,0,0,1,2.08-2.08h4.67a2.08,2.08,0,0,1,2.08,2.08Z"/><path class="cls-10" d="M2.69,24.37c-.37.68,1.39,1.09,1.54.57C4.23,24.94,3.05,23.68,2.69,24.37Z"/><path class="cls-10" d="M2.16,26.33c.09.84,1.93.15,1.74-.41C3.9,25.92,2.07,25.49,2.16,26.33Z"/><path class="cls-10" d="M15.54,24.37c.37.68-1.39,1.09-1.54.57C14,24.94,15.18,23.68,15.54,24.37Z"/><path class="cls-10" d="M16.07,26.33c-.09.84-1.93.15-1.74-.41C14.33,25.92,16.15,25.49,16.07,26.33Z"/><path class="cls-11" d="M7.47,24.35h0s0,0,.09,0a.33.33,0,0,1,.16.19,1.23,1.23,0,0,1,0,.21V25a2,2,0,0,1-.07.48,1,1,0,0,1-.08.2l-.06.08,0,0v0s0,0,0-.05v0a0,0,0,0,1,0,0s0-.06,0-.08a3.16,3.16,0,0,0-.1-1.12h0A0,0,0,0,1,7.47,24.35Zm0,.06h0A4.07,4.07,0,0,1,7.6,25.5h0a.62.62,0,0,1,0,.09,1.14,1.14,0,0,0,.11-.33c0-.09,0-.2,0-.32a.79.79,0,0,0-.07-.41A.27.27,0,0,0,7.52,24.41Z"/><path class="cls-11" d="M8.23,24.43h0s.05,0,.07.13a3.69,3.69,0,0,1,0,.58,1.62,1.62,0,0,1,0,.53s0,0-.06,0h0c-.07,0-.12-.12-.14-.34s0-.21,0-.37v-.08a1.08,1.08,0,0,1,.08-.42h0Zm-.1.5c0,.26,0,.45,0,.54s.05.2.09.2.08-.18.08-.53h0a3.42,3.42,0,0,0,0-.59l0-.08h0a.61.61,0,0,0-.1.35Z"/><path class="cls-11" d="M8.74,24.33h0s0,0,0,0h0c0,.43.06.77.09,1s.06.26.11.26a.09.09,0,0,0,0-.08c0-.1,0-.36,0-.77a1.62,1.62,0,0,0,0-.22v-.11H9s0-.07,0-.11H9s0,0,0,.11H9a.34.34,0,0,1,0,.09v.15H9a.2.2,0,0,0,0,.07H9c0,.46,0,.72,0,.8s0,.12-.1.12-.11-.13-.14-.38-.05-.55-.08-1Z"/><path class="cls-11" d="M9.46,24.29c.08,0,.13.08.15.25v.07a.68.68,0,0,1-.12.3l0,0h0a.24.24,0,0,1,.13.11.46.46,0,0,1,.07.24.71.71,0,0,1-.08.34.33.33,0,0,1-.11.08h0s-.06-.05-.06-.14c0-.44,0-.79,0-1l0-.2A.27.27,0,0,1,9.46,24.29Zm-.08.07a6,6,0,0,1,0,.7c0,.12,0,.32,0,.59v0a.23.23,0,0,0,.12-.12.78.78,0,0,0,0-.26c0-.13,0-.19,0-.19A.25.25,0,0,0,9.45,25s0,0,0,0h0a.69.69,0,0,0,.16-.32v-.06c0-.16-.05-.23-.11-.23A.11.11,0,0,0,9.38,24.36Z"/><path class="cls-11" d="M10,24.31h0a0,0,0,0,1,0,0v0h0q0,.42,0,.72a1.86,1.86,0,0,1,0,.26v.34h.22s0,0-.06,0H10l0,0v-.38c0-.34,0-.63,0-.85v-.13S10,24.31,10,24.31Z"/><path class="cls-11" d="M10.55,24.35l.09,0h.12v0h-.17a1.22,1.22,0,0,1,0,.21c0,.23,0,.37,0,.41l.16,0v0h0s0,0,0,0h-.16c0,.25,0,.42,0,.52v.07a0,0,0,0,0,0,0h0l.15,0h0s0,0,0,0h0l0,0h0l-.12,0h0a0,0,0,0,1,0-.05v-.07c0-.11,0-.43.05-1h0a.92.92,0,0,0,0-.23S10.54,24.36,10.55,24.35Z"/><path class="cls-11" d="M7,26l.09,0H7a1.35,1.35,0,0,1,0,.22c0,.23,0,.36,0,.4s0,0,.16,0v0H7c0,.25,0,.43,0,.52v.07h.14l-.12,0H7a0,0,0,0,1,0-.05v-.06c0-.11,0-.44,0-1v0A.92.92,0,0,0,7,26,0,0,0,0,1,7,26Z"/><path class="cls-11" d="M7.69,26v0H7.64a.15.15,0,0,0-.14.08.58.58,0,0,0,0,.19.69.69,0,0,0,.06.21l.21.21a.51.51,0,0,1,.09.28.52.52,0,0,1,0,.21.23.23,0,0,1-.12.08l0,0h0v0h0c.09,0,.13-.07.13-.1a.48.48,0,0,0,0-.18.41.41,0,0,0-.13-.29.71.71,0,0,1-.15-.16s0-.09-.07-.2a.11.11,0,0,0,0-.05.54.54,0,0,1,.05-.22A.26.26,0,0,1,7.69,26Z"/><path class="cls-11" d="M8.09,26a.24.24,0,0,1,.25.17.24.24,0,0,1,0,.09,1.78,1.78,0,0,1-.09.53.23.23,0,0,1-.11.11s-.05,0-.05,0h0s0,.07,0,.09v0c0,.15,0,.23,0,.25a0,0,0,0,1,0,0h0s0,0,0,0h0s0,0,0,0v0h0a.41.41,0,0,0,0-.1h0v-.31l0,0a0,0,0,0,1,0,0,.83.83,0,0,1,0-.12l0-.71h0S8.08,26,8.09,26Zm0,0,0,.71v.11h0a.12.12,0,0,0,.09,0,1,1,0,0,0,.11-.48v-.1A.24.24,0,0,0,8.2,26Z"/><path class="cls-11" d="M8.59,25.91h0s0,0,.07,0a.23.23,0,0,1,.12.1.81.81,0,0,1,.06.24v0a.47.47,0,0,1-.14.37c.11,0,.18.16.19.41v.14s0,.06,0,.1h0v-.26a.58.58,0,0,0-.09-.3s-.08-.06-.11-.06h0a.72.72,0,0,1,0,.13v.36h0a0,0,0,0,1,0,0l0,0v0c0-.11,0-.18,0-.21v-.24h0v0h0c0-.36,0-.62,0-.78Zm0,.06c0,.19,0,.42,0,.7a.37.37,0,0,0,.15-.33v-.05A.51.51,0,0,0,8.73,26a.18.18,0,0,0-.1-.06Z"/><path class="cls-11" d="M9.22,26l.09,0H9.26a1.35,1.35,0,0,1,0,.22c0,.23,0,.36,0,.4s.05,0,.16,0v0H9.24c0,.25,0,.43,0,.52v.07h.14l-.12,0h0a0,0,0,0,1,0-.05v-.06c0-.11,0-.44.05-1v0a.92.92,0,0,0,0-.23A0,0,0,0,1,9.22,26Z"/><path class="cls-11" d="M9.93,26v0H9.88a.15.15,0,0,0-.14.08.58.58,0,0,0,0,.19.69.69,0,0,0,.06.21l.21.21a.51.51,0,0,1,.09.28.52.52,0,0,1,0,.21.23.23,0,0,1-.12.08l-.05,0h0v0h0c.09,0,.13-.07.13-.1A.48.48,0,0,0,10,27a.42.42,0,0,0-.14-.29.71.71,0,0,1-.15-.16s-.05-.09-.07-.2a.11.11,0,0,0,0-.05.54.54,0,0,1,.05-.22A.26.26,0,0,1,9.93,26Z"/><path class="cls-11" d="M10.49,26v0h-.06a.15.15,0,0,0-.14.08.58.58,0,0,0,0,.19.69.69,0,0,0,.06.21l.21.21a.51.51,0,0,1,.09.28.52.52,0,0,1,0,.21.23.23,0,0,1-.12.08l-.05,0h0v0h0c.09,0,.13-.07.13-.1a.48.48,0,0,0,0-.18.42.42,0,0,0-.14-.29.71.71,0,0,1-.15-.16s-.05-.09-.07-.2a.11.11,0,0,0,0-.05.54.54,0,0,1,0-.22A.26.26,0,0,1,10.49,26Z"/><path class="cls-11" d="M11,26.08h0s0,0,.07.12a3.86,3.86,0,0,1,0,.58,1.25,1.25,0,0,1-.06.53s0,0-.05,0h0c-.07,0-.11-.11-.13-.34s0-.21,0-.37v-.07a1.08,1.08,0,0,1,.08-.42s0,0,0,0Zm-.1.49c0,.27,0,.45,0,.55s.05.19.09.19.08-.17.08-.52h0a3.49,3.49,0,0,0,0-.59c0-.05,0-.08-.05-.08h0s-.08.15-.1.35Z"/></g></svg>