<svg xmlns="http://www.w3.org/2000/svg" viewBox="0 0 92.06 150"><defs><style>.cls-1{fill:none;}.cls-2{fill:#4d495b;}.cls-3{fill:#eef8f9;}.cls-4{fill:#dae4e5;}.cls-5{fill:#964236;}.cls-6{fill:#7f372f;}.cls-7{fill:#fccfca;}.cls-8{fill:#e0d9f9;}.cls-9{fill:#451711;}.cls-10{fill:#f5f4ff;}</style></defs><g id="coffee_types_illustration_pack" data-name="coffee types illustration pack"><rect class="cls-1" x="-0.05" y="-0.09" width="92.17" height="150.17" rx="8"/><path class="cls-2" d="M22.81,102.26s-.54-9.74,20.72-9.74,21.17,9.74,21.17,9.74.7,6.54-21.17,6.54S22.81,102.26,22.81,102.26Z"/><path class="cls-3" d="M44.37,85.2c-24.61,0-23,9.13-23,9.13s1,3.35,10,5.09h0s-1.08,3.77,12.8,3.77c13,0,12.8-3.77,12.8-3.77h0c9-1.74,10-5.09,10-5.09S69,85.2,44.37,85.2Z"/><path class="cls-4" d="M44.25,87.89c-17.06,0-17.68,4.66-17.68,4.66s.75,3.21,17.52,3.21c15.46,0,16.84-3.21,16.84-3.21S60.55,87.89,44.25,87.89Z"/><path class="cls-4" d="M44.65,100.14c-.17-.29-1.47.17-6.42,0a45.34,45.34,0,0,1-8.52-1.06c-.33.75,4.91,1.19,8.43,1.48S44.81,100.44,44.65,100.14Z"/><path class="cls-3" d="M69.86,64.81l-.5,2.48s7.8-1.06,7.8,4.33-9.69,3.58-9.69,3.58L66.84,78s13,3.65,13-5.92S69.86,64.81,69.86,64.81Z"/><path class="cls-3" d="M70.74,56.81H17.62S13.34,93.6,44.18,93.6,70.74,56.81,70.74,56.81Z"/><path class="cls-5" d="M69.87,56.81H18.48S14.34,92.52,44.17,92.52,69.87,56.81,69.87,56.81Z"/><path class="cls-6" d="M69.79,56.81H61.66c.36,4.41,1.82,33.76-23.9,35.1a31,31,0,0,0,6.33.61C73.93,92.52,69.79,56.81,69.79,56.81Z"/><path class="cls-3" d="M44.18,48c-25.38,0-26.56,8.78-26.56,8.78s2.1,8,26.56,8,26.56-8,26.56-8S69.57,48,44.18,48Z"/><path class="cls-5" d="M44.73,49.29c-22.07,0-25.34,7.8-25.34,7.8S23,63.22,45.07,63.22s24.29-6.41,24.29-6.41S66.8,49.29,44.73,49.29Z"/><path class="cls-6" d="M58.52,50.63a8.48,8.48,0,0,1,3.2,6.8c-.38,5.48-25.82,5.79-32,4.45v0a75.32,75.32,0,0,0,15.24,1.32c22.07,0,24.29-6.41,24.29-6.41S67.86,52.79,58.52,50.63Z"/><path class="cls-7" d="M23.48,55.14c.19-.71,1.26-1.32.72-1.48,0,0-2.55.68-2.8,2.59s2.42,3.33,3.3,2.45S23.14,56.42,23.48,55.14Z"/><path class="cls-7" d="M24.87,53.14s-.22,0-.22.42.22.35.22.35a.36.36,0,0,0,.28-.38A.37.37,0,0,0,24.87,53.14Z"/><path class="cls-7" d="M25.47,53.61a.25.25,0,0,0,.18-.26.23.23,0,0,0-.18-.25s-.15,0-.15.27S25.47,53.61,25.47,53.61Z"/><path class="cls-7" d="M25.67,58.09s-.47.11-.47.86.47.72.47.72a.84.84,0,0,0,0-1.58Z"/><path class="cls-8" d="M42.67,38.08c-.12-3-3.77-3.58-3.71-1.88a1.92,1.92,0,0,1,1.76,2.14c0,2.07-2.7,1.44-2.83,3.84S41.23,46,42,44.63s-1.76-1.89-1.45-2.89S42.8,41.11,42.67,38.08Z"/><path class="cls-8" d="M48.53,35.88c-.13-3-3.78-3.59-3.71-1.89a1.92,1.92,0,0,1,1.76,2.14c0,2.08-2.71,1.45-2.83,3.84s3.33,3.84,4.09,2.46-1.77-1.89-1.45-2.9S48.66,38.9,48.53,35.88Z"/><path class="cls-8" d="M51.61,42.74c.31-1,2.26-.63,2.14-3.65S50,35.5,50,37.2a1.93,1.93,0,0,1,1.77,2.14c0,2.08-2.71,1.45-2.84,3.84s3.34,3.84,4.1,2.46S51.29,43.75,51.61,42.74Z"/><path class="cls-9" d="M67.15,129a10.41,10.41,0,0,1-10.42,10.42H33.31A10.42,10.42,0,0,1,22.89,129h0a10.43,10.43,0,0,1,10.42-10.42H56.73A10.42,10.42,0,0,1,67.15,129Z"/><path class="cls-9" d="M69.77,112.86c3.11,2.33-4,8-5.76,5.9C64,118.76,66.67,110.53,69.77,112.86Z"/><path class="cls-9" d="M76.35,120.6c1.41,4-8.39,4.83-8.77,1.88C67.58,122.48,74.94,116.62,76.35,120.6Z"/><path class="cls-9" d="M19.21,144.86C16,142.61,23,136.79,24.8,138.8,24.8,138.8,22.38,147.1,19.21,144.86Z"/><path class="cls-9" d="M12.42,137.3c-1.53-3.94,8.25-5.06,8.72-2.12C21.14,135.18,13.94,141.25,12.42,137.3Z"/><path class="cls-10" d="M28.88,134.48v-.22a1,1,0,0,0,0-.19l-.07-.07a1.81,1.81,0,0,0,.13-.67c0-.25,0-.6-.05-1.07l0-1.08c0-.54,0-1.36.05-2.44S29,127,29,126.27l0-1c0-.29,0-.62,0-1A.52.52,0,0,1,29,124a.53.53,0,0,1,.36-.1.33.33,0,0,1,.26.1l.48.06a3.17,3.17,0,0,1,.7.15c.2.06.31.15.31.24s-.11.22-.31.33a4.8,4.8,0,0,0-1.32-.31l-.08.1c0,.1,0,.33,0,.7s0,.89,0,1.25,0,.81,0,1.28c0,.3.08.45.23.45h.26l.28,0c.42,0,.63.1.63.29a.53.53,0,0,1-.08.31.26.26,0,0,1-.24.12.52.52,0,0,1-.38-.13l-.52-.08H29.5l-.08.08v0q0,.27,0,1.29c0,.42,0,.81,0,1.15l0,1.16c0,.42,0,.86,0,1.31a.64.64,0,0,0,.16.49.89.89,0,0,0,.54.13l.29,0,.33,0c.31,0,.47.07.47.21s-.24.3-.72.3H29.21C29,134.82,28.9,134.7,28.88,134.48Z"/><path class="cls-10" d="M32.91,134.66a.34.34,0,0,1-.18-.25l.08-.13.29.05a1,1,0,0,0,.3.06.84.84,0,0,0,.63-.28,1.86,1.86,0,0,0,.43-.74,6.3,6.3,0,0,0,.23-1.6,5.11,5.11,0,0,0-.69-2.41c-.28-.5-.5-.9-.65-1.2a6.42,6.42,0,0,1-.41-1,3.71,3.71,0,0,1,.08-2.67,1.58,1.58,0,0,1,.42-.61.85.85,0,0,1,.58-.24.67.67,0,0,1,.41.15.4.4,0,0,1,.21.31c0,.08-.07.13-.21.13a.45.45,0,0,1-.17,0,.41.41,0,0,0-.18,0,.62.62,0,0,0-.44.2,1.18,1.18,0,0,0-.29.5,3.63,3.63,0,0,0-.2,1.11,2.87,2.87,0,0,0,.08.64c0,.06,0,.12,0,.16a.41.41,0,0,1,0,.1l.1.32.08.3.13.29a1.8,1.8,0,0,0,.11.2l.11.18.19.34.28.46q.21.38.39.78a3.41,3.41,0,0,1,.24.64,5.16,5.16,0,0,1,.15.73,8.08,8.08,0,0,1,0,.89,4.93,4.93,0,0,1-.21,1.47,2,2,0,0,1-.85,1.14,1.34,1.34,0,0,1-.72.2l-.08,0A.91.91,0,0,1,32.91,134.66Zm1.65-10.49a0,0,0,0,0,0,0v0Z"/><path class="cls-10" d="M37.31,134.8a13.7,13.7,0,0,1-.18-2.35c0-.34,0-.85,0-1.51l0-1.52a1,1,0,0,1-.11-.37,3.91,3.91,0,0,0,.16-1.5,25.45,25.45,0,0,0-.08-3.17c.1-.27.18-.41.23-.41h.72a1.3,1.3,0,0,1,.51.17,3.2,3.2,0,0,1,.56.37c.28.25.41.89.41,1.93,0,.55,0,1,0,1.27a2.32,2.32,0,0,1-.1.49,3.36,3.36,0,0,1-.22.4,2,2,0,0,1-.84.66,4.69,4.69,0,0,1-.68.26v1.94c0,.27,0,.8.08,1.6l0,.52,0,1.06c0,.2-.11.29-.31.29Zm1.32-6.28a1.39,1.39,0,0,0,.21-.44,2.78,2.78,0,0,0,.14-.53,6,6,0,0,0,.09-1.1V126c0-.15,0-.3,0-.44a2.7,2.7,0,0,0-.07-.41,1.14,1.14,0,0,0-.17-.35.91.91,0,0,0-.28-.23,1,1,0,0,0-.48-.1.31.31,0,0,0-.27.1.5.5,0,0,0-.09.34c0,.26,0,.65,0,1.17l0,1.18c0,.28,0,.54,0,.76l0,.77.11.16A1,1,0,0,0,38.63,128.52Z"/><path class="cls-10" d="M43.87,134.8a3.18,3.18,0,0,1-.43-1.12c-.15-.61-.29-1.3-.42-2.06a14.66,14.66,0,0,0-.38-1.84c-.13-.54-.25-.82-.37-.82h-.05c-.24,0-.36.08-.36.23,0,.78,0,2,.13,3.57a10.87,10.87,0,0,0,.15,1.72l-.13.27h-.23l-.13-.13c-.17-5-.26-8.45-.26-10.27a2.36,2.36,0,0,1,0-.3.53.53,0,0,1,.11-.21.25.25,0,0,1,.23-.11,2,2,0,0,1,1.33.41,1.41,1.41,0,0,1,.51,1.17v1.19a2.5,2.5,0,0,1-.2.83,9.73,9.73,0,0,1-.45,1l-.21.4c.12.56.35,1.56.71,3S44,133.9,44,134s0,0,.05.08a.89.89,0,0,0,.1.19.93.93,0,0,1,.12.4c0,.15-.06.22-.18.22Zm-1.37-6.55a2.59,2.59,0,0,0,.39-.8,6.87,6.87,0,0,0,.26-1.58,3.57,3.57,0,0,0,0-.62,3,3,0,0,0-.14-.53.87.87,0,0,0-.93-.57s-.1,0-.13.14a.93.93,0,0,0,0,.29c0,.72,0,1.38,0,2s0,1.25,0,2l0,0A.74.74,0,0,0,42.5,128.25Z"/><path class="cls-10" d="M46.09,134.48v-.22a1.09,1.09,0,0,0,0-.19L46,134a2,2,0,0,0,.13-.67c0-.25,0-.6-.05-1.07l0-1.08c0-.54,0-1.36,0-2.44s.07-1.79.07-2.47l0-1c0-.29,0-.62,0-1a.47.47,0,0,1,.12-.36.5.5,0,0,1,.36-.1.34.34,0,0,1,.26.1l.47.06a3.05,3.05,0,0,1,.7.15c.21.06.31.15.31.24s-.1.22-.31.33a4.8,4.8,0,0,0-1.32-.31l-.08.1c0,.1,0,.33,0,.7s0,.89,0,1.25,0,.81,0,1.28c0,.3.07.45.23.45h.26l.27,0c.43,0,.64.1.64.29a.62.62,0,0,1-.08.31.29.29,0,0,1-.25.12.49.49,0,0,1-.37-.13l-.52-.08h-.08l-.09.08v0a11.19,11.19,0,0,1,0,1.29c0,.42,0,.81,0,1.15l0,1.16c0,.42,0,.86.05,1.31a.64.64,0,0,0,.17.49.83.83,0,0,0,.53.13l.3,0,.32,0q.48,0,.48.21t-.72.3H46.41C46.22,134.82,46.11,134.7,46.09,134.48Z"/><path class="cls-10" d="M50.11,134.66a.36.36,0,0,1-.18-.25l.09-.13.29.05a1,1,0,0,0,.29.06.87.87,0,0,0,.64-.28,1.84,1.84,0,0,0,.42-.74,5.89,5.89,0,0,0,.23-1.6,5.2,5.2,0,0,0-.68-2.41c-.29-.5-.5-.9-.66-1.2a6.44,6.44,0,0,1-.4-1,4,4,0,0,1-.22-1.28,4,4,0,0,1,.3-1.39,1.56,1.56,0,0,1,.41-.61.87.87,0,0,1,.58-.24.72.72,0,0,1,.42.15.41.41,0,0,1,.2.31c0,.08-.07.13-.21.13a.41.41,0,0,1-.16,0,.49.49,0,0,0-.18,0,.6.6,0,0,0-.44.2,1.31,1.31,0,0,0-.3.5,3.59,3.59,0,0,0-.19,1.11,2.87,2.87,0,0,0,.08.64c0,.06,0,.12,0,.16a.58.58,0,0,1,0,.1l.1.32.08.3.13.29a1.86,1.86,0,0,0,.1.2,1.74,1.74,0,0,1,.11.18l.2.34.27.46q.21.38.39.78a3.5,3.5,0,0,1,.25.64c.05.2.1.45.15.73a8.08,8.08,0,0,1,0,.89,4.92,4.92,0,0,1-.22,1.47,2,2,0,0,1-.85,1.14,1.28,1.28,0,0,1-.71.2l-.08,0A1,1,0,0,1,50.11,134.66Zm1.65-10.49a0,0,0,0,0,0,0v0Z"/><path class="cls-10" d="M53.8,134.66a.34.34,0,0,1-.18-.25l.08-.13.3.05a.88.88,0,0,0,.29.06.84.84,0,0,0,.63-.28,1.86,1.86,0,0,0,.43-.74,6.3,6.3,0,0,0,.23-1.6,5.11,5.11,0,0,0-.69-2.41c-.28-.5-.5-.9-.65-1.2a6.42,6.42,0,0,1-.41-1,3.71,3.71,0,0,1,.08-2.67,1.58,1.58,0,0,1,.42-.61.85.85,0,0,1,.58-.24.67.67,0,0,1,.41.15.4.4,0,0,1,.21.31c0,.08-.07.13-.21.13a.45.45,0,0,1-.17,0,.41.41,0,0,0-.18,0,.62.62,0,0,0-.44.2,1.18,1.18,0,0,0-.29.5,3.63,3.63,0,0,0-.2,1.11,2.87,2.87,0,0,0,.08.64c0,.06,0,.12,0,.16a.41.41,0,0,1,0,.1l.1.32.08.3.13.29a1.8,1.8,0,0,0,.11.2l.11.18.19.34a5.34,5.34,0,0,1,.28.46q.21.38.39.78a4.41,4.41,0,0,1,.25.64,7.36,7.36,0,0,1,.14.73,8.08,8.08,0,0,1,0,.89,4.93,4.93,0,0,1-.21,1.47,2,2,0,0,1-.85,1.14,1.32,1.32,0,0,1-.72.2l-.08,0A.91.91,0,0,1,53.8,134.66Zm1.65-10.49a0,0,0,0,0,0,0v0Z"/><path class="cls-10" d="M57.76,128.92v-.58c0-3,.39-4.55,1.18-4.55a.82.82,0,0,1,.22,0,4.35,4.35,0,0,0,1,.23c.21,0,.42.26.62.64a4.84,4.84,0,0,1,.52,1.55,11.64,11.64,0,0,1,.17,2l0,.08c0,.36,0,.68,0,1l0,1c0,.56,0,1.06-.07,1.5a8.58,8.58,0,0,1-.32,1.75,3.11,3.11,0,0,1-.34.73,1.66,1.66,0,0,1-.46.49,1.06,1.06,0,0,1-.64.2Q57.77,134.92,57.76,128.92Zm2.79,4.63a7.5,7.5,0,0,0,.38-1.86c0-.65.06-1.18.06-1.57s0-1.07-.1-1.92-.08-1.59-.08-1.93l-.06-.13,0-.08a2,2,0,0,0-.4-1.24,1.19,1.19,0,0,0-1-.52.83.83,0,0,0-.9.72c0,.16,0,.39-.06.7a9.61,9.61,0,0,1-.1,1.65c0,.16,0,.41-.05.76l0,.77c0,.24,0,.45,0,.63l0,.66a13.15,13.15,0,0,0,.13,1.76,11.2,11.2,0,0,0,.23,1.24,2.94,2.94,0,0,0,.37.86.71.71,0,0,0,.57.39C60,134.44,60.34,134.14,60.55,133.55Z"/></g></svg>