<svg xmlns="http://www.w3.org/2000/svg" viewBox="0 0 18.4 29.98"><defs><style>.cls-1{fill:none;}.cls-2{fill:#4d495b;}.cls-3{fill:#eef8f9;}.cls-4{fill:#dae4e5;}.cls-5{fill:#964236;}.cls-6{fill:#7f372f;}.cls-7{fill:#fccfca;}.cls-8{fill:#e0d9f9;}.cls-9{fill:#451711;}.cls-10{fill:#f9d9d7;}</style></defs><g id="coffee_types_illustration_pack" data-name="coffee types illustration pack"><rect class="cls-1" width="18.4" height="29.98" rx="8"/><path class="cls-2" d="M4.57,20.43s-.11-1.94,4.13-1.94,4.23,1.94,4.23,1.94.14,1.31-4.23,1.31S4.57,20.43,4.57,20.43Z"/><path class="cls-3" d="M8.87,17c-4.91,0-4.6,1.82-4.6,1.82s.2.67,2,1h0s-.22.75,2.55.75c2.6,0,2.56-.75,2.56-.75h0c1.79-.35,2-1,2-1S13.78,17,8.87,17Z"/><path class="cls-4" d="M8.84,17.57c-3.4,0-3.52.93-3.52.93s.14.64,3.49.64c3.09,0,3.37-.64,3.37-.64S12.1,17.57,8.84,17.57Z"/><path class="cls-4" d="M8.92,20c0-.06-.29,0-1.28,0a8.71,8.71,0,0,1-1.7-.21c-.06.15,1,.24,1.69.3A2.88,2.88,0,0,0,8.92,20Z"/><path class="cls-3" d="M14,13l-.1.49s1.56-.21,1.56.87-1.94.71-1.94.71l-.12.56S16,16.32,16,14.41,14,13,14,13Z"/><path class="cls-3" d="M14.14,11.36H3.53s-.86,7.35,5.3,7.35S14.14,11.36,14.14,11.36Z"/><path class="cls-5" d="M14,11.36H3.7s-.83,7.13,5.13,7.13S14,11.36,14,11.36Z"/><path class="cls-6" d="M13.94,11.36H12.32c.07.88.36,6.74-4.77,7a6.13,6.13,0,0,0,1.26.12C14.77,18.49,13.94,11.36,13.94,11.36Z"/><path class="cls-3" d="M8.83,9.61c-5.07,0-5.3,1.75-5.3,1.75S4,13,8.83,13s5.31-1.6,5.31-1.6S13.9,9.61,8.83,9.61Z"/><path class="cls-5" d="M8.94,9.86c-4.41,0-5.06,1.56-5.06,1.56S4.6,12.64,9,12.64s4.85-1.28,4.85-1.28S13.35,9.86,8.94,9.86Z"/><path class="cls-6" d="M11.69,10.13a1.65,1.65,0,0,1,.64,1.35c-.07,1.1-5.15,1.16-6.39.89h0a15.42,15.42,0,0,0,3,.26c4.41,0,4.85-1.28,4.85-1.28S13.56,10.56,11.69,10.13Z"/><path class="cls-7" d="M4.7,11c0-.14.25-.27.14-.3s-.51.14-.56.52.49.66.66.49S4.63,11.28,4.7,11Z"/><path class="cls-7" d="M5,10.63s-.05,0-.05.08.05.07.05.07,0,0,0-.08A.07.07,0,0,0,5,10.63Z"/><path class="cls-7" d="M5.1,10.72a.06.06,0,1,0,0-.05C5.07,10.72,5.1,10.72,5.1,10.72Z"/><path class="cls-7" d="M5.14,11.62s-.1,0-.1.17.1.14.1.14a.15.15,0,0,0,.11-.16A.14.14,0,0,0,5.14,11.62Z"/><path class="cls-8" d="M8.53,7.62c0-.6-.75-.72-.74-.38a.39.39,0,0,1,.35.43c0,.42-.54.29-.56.77s.66.76.81.49S8,8.55,8.1,8.35,8.56,8.22,8.53,7.62Z"/><path class="cls-8" d="M9.7,7.18c0-.6-.75-.71-.74-.38a.39.39,0,0,1,.35.43c0,.42-.54.29-.57.77s.67.76.82.49-.35-.38-.29-.58S9.73,7.78,9.7,7.18Z"/><path class="cls-8" d="M10.31,8.55c.07-.2.46-.12.43-.73S10,7.11,10,7.45a.38.38,0,0,1,.35.42c0,.42-.54.29-.56.77s.66.77.81.49S10.25,8.75,10.31,8.55Z"/><path class="cls-9" d="M13.42,25.77a2.08,2.08,0,0,1-2.08,2.08H6.66a2.08,2.08,0,0,1-2.08-2.08h0a2.08,2.08,0,0,1,2.08-2.08h4.68a2.08,2.08,0,0,1,2.08,2.08Z"/><path class="cls-9" d="M13.94,22.55c.62.47-.79,1.59-1.15,1.18C12.79,23.73,13.32,22.09,13.94,22.55Z"/><path class="cls-9" d="M15.26,24.1c.28.79-1.68,1-1.76.37C13.5,24.47,15,23.3,15.26,24.1Z"/><path class="cls-9" d="M3.85,28.94c-.64-.45.74-1.61,1.11-1.21C5,27.73,4.48,29.39,3.85,28.94Z"/><path class="cls-9" d="M2.49,27.43c-.3-.79,1.65-1,1.74-.42C4.23,27,2.79,28.22,2.49,27.43Z"/><path class="cls-10" d="M5.72,24.64a.4.4,0,0,0,.15,0H6l0,0v0l0,0H5.78a2.87,2.87,0,0,1,0,.35c0,.37,0,.59,0,.66a.72.72,0,0,0,.27,0l0,0h0s0,0,0,0l-.26,0c0,.42,0,.71,0,.86v.12h0l.24,0H6l0,0v0s0,0,0,0H6l-.19,0h0s-.06,0-.07-.08v-.11c0-.18,0-.72.09-1.61v0a1.4,1.4,0,0,0,0-.39S5.71,24.66,5.72,24.64Z"/><path class="cls-10" d="M6.89,24.71l0,0v0l0,0H6.81a.24.24,0,0,0-.23.12,1.06,1.06,0,0,0,0,.31,1.17,1.17,0,0,0,.09.35,2.17,2.17,0,0,0,.34.35.75.75,0,0,1,.16.45.84.84,0,0,1-.07.35.37.37,0,0,1-.19.14l-.09,0a0,0,0,0,1,0,0h0s0,0,.07,0S7,26.7,7,26.64a.61.61,0,0,0,.06-.3.66.66,0,0,0-.22-.47,1.17,1.17,0,0,1-.25-.25,1,1,0,0,1-.12-.33.31.31,0,0,0,0-.09.83.83,0,0,1,.08-.36A.39.39,0,0,1,6.89,24.71Z"/><path class="cls-10" d="M7.55,24.63A.42.42,0,0,1,8,24.9a.61.61,0,0,1,0,.15,3.27,3.27,0,0,1-.14.88.45.45,0,0,1-.19.17s-.07,0-.07,0h0v.2c0,.24,0,.38,0,.42s0,0,0,.05v0l0,.06h0l0,0v0h0s0-.1,0-.17h0l0-.27a.46.46,0,0,0,0-.1,1.14,1.14,0,0,1,0-.15s0,0,0,0,0,0,0,0,0-.19,0-.21l0-1.17h0v0Zm.06.06,0,1.16a1.58,1.58,0,0,1,0,.19h0A.21.21,0,0,0,7.74,26c.07,0,.13-.31.18-.79,0-.08,0-.13,0-.16a.38.38,0,0,0-.2-.3Z"/><path class="cls-10" d="M8.37,24.51h0a.25.25,0,0,0,.12,0,.37.37,0,0,1,.19.18,1,1,0,0,1,.11.39v.06a.72.72,0,0,1-.24.61c.19.05.3.27.33.67v.4l0,0h0l0,0c0-.09,0-.15,0-.19v-.24a1,1,0,0,0-.14-.49.33.33,0,0,0-.18-.1h0c0,.1,0,.16,0,.21v.24c0,.21,0,.33,0,.36v0a.05.05,0,0,1,0,0l0,0v-.05c0-.18,0-.3,0-.36v-.38s0,0,0,0v0s0,0,0,0c0-.59,0-1-.09-1.28Zm.05.09c0,.31.05.7.07,1.16a.59.59,0,0,0,.25-.54v-.09a1,1,0,0,0-.14-.43.29.29,0,0,0-.16-.1Z"/><path class="cls-10" d="M9.41,24.64a.37.37,0,0,0,.15,0h.17l0,0v0l0,0H9.47a2.87,2.87,0,0,1,0,.35c0,.37,0,.59,0,.66a.72.72,0,0,0,.27,0l0,0h0s0,0,0,0l-.27,0c0,.42,0,.71,0,.86v.12h0l.25,0h0l0,0v0l0,0H9.64l-.2,0h0a.07.07,0,0,1-.07-.08v-.11c0-.18,0-.72.08-1.61v0a1.55,1.55,0,0,0,0-.39S9.39,24.66,9.41,24.64Z"/><path class="cls-10" d="M10.58,24.71l0,0v0l0,0H10.5a.24.24,0,0,0-.23.12.81.81,0,0,0,0,.31,1.17,1.17,0,0,0,.09.35,2.17,2.17,0,0,0,.34.35.75.75,0,0,1,.16.45.84.84,0,0,1-.07.35.37.37,0,0,1-.2.14.16.16,0,0,1-.09,0s0,0,0,0h0s0,0,.07,0,.21-.11.21-.17a.61.61,0,0,0,.06-.3.66.66,0,0,0-.22-.47,1.57,1.57,0,0,1-.26-.25,1.33,1.33,0,0,1-.11-.33.31.31,0,0,0,0-.09.83.83,0,0,1,.08-.36C10.29,24.75,10.4,24.71,10.58,24.71Z"/><path class="cls-10" d="M11.5,24.71l0,0v0l0,0h-.07a.24.24,0,0,0-.23.12,1.06,1.06,0,0,0,0,.31,1.17,1.17,0,0,0,.09.35,2.51,2.51,0,0,0,.35.35.82.82,0,0,1,.16.45.85.85,0,0,1-.08.35.33.33,0,0,1-.19.14l-.09,0a0,0,0,0,1-.05,0h0s0,0,.07,0,.21-.11.21-.17a.61.61,0,0,0,.06-.3.66.66,0,0,0-.22-.47,1.17,1.17,0,0,1-.25-.25,1,1,0,0,1-.12-.33.31.31,0,0,0,0-.09.83.83,0,0,1,.08-.36A.39.39,0,0,1,11.5,24.71Z"/><path class="cls-10" d="M12.35,24.78h.05s.07.07.12.21a7.57,7.57,0,0,1,.06,1,2.34,2.34,0,0,1-.09.88.12.12,0,0,1-.09.06h0c-.12,0-.19-.19-.23-.56,0-.14,0-.35,0-.61v-.12a1.94,1.94,0,0,1,.12-.7v0Zm-.16.82c0,.44,0,.73.05.89s.08.32.15.32.13-.28.13-.86h0a5.58,5.58,0,0,0-.07-1c0-.08-.06-.13-.07-.13h0c-.07.05-.13.24-.17.57Z"/></g></svg>