<svg xmlns="http://www.w3.org/2000/svg" viewBox="0 0 18.4 29.98"><defs><style>.cls-1{fill:none;}.cls-2{fill:#4d495b;}.cls-3{fill:#eef8f9;}.cls-4{fill:#dae4e5;}.cls-5{fill:#964236;}.cls-6{fill:#7f372f;}.cls-7{fill:#fccfca;}.cls-8{fill:#e0d9f9;}.cls-9{fill:#451711;}.cls-10{font-size:3.26px;fill:#f5f4ff;font-family:AmaticSC-Regular, Amatic SC;}.cls-11{letter-spacing:-0.02em;}</style></defs><g id="coffee_types_illustration_pack" data-name="coffee types illustration pack"><rect class="cls-1" width="18.4" height="29.98" rx="8"/><path class="cls-2" d="M4.57,20.43s-.11-1.94,4.13-1.94,4.23,1.94,4.23,1.94.14,1.31-4.23,1.31S4.57,20.43,4.57,20.43Z"/><path class="cls-3" d="M8.87,17c-4.91,0-4.6,1.82-4.6,1.82s.2.67,2,1h0s-.22.75,2.55.75c2.6,0,2.56-.75,2.56-.75h0c1.79-.35,2-1,2-1S13.78,17,8.87,17Z"/><path class="cls-4" d="M8.84,17.57c-3.4,0-3.52.93-3.52.93s.14.64,3.49.64c3.09,0,3.37-.64,3.37-.64S12.1,17.57,8.84,17.57Z"/><path class="cls-4" d="M8.92,20c0-.06-.29,0-1.28,0a8.71,8.71,0,0,1-1.7-.21c-.06.15,1,.24,1.69.3A2.88,2.88,0,0,0,8.92,20Z"/><path class="cls-3" d="M14,13l-.1.49s1.56-.21,1.56.87-1.94.71-1.94.71l-.12.56S16,16.32,16,14.41,14,13,14,13Z"/><path class="cls-3" d="M14.14,11.36H3.53s-.86,7.35,5.3,7.35S14.14,11.36,14.14,11.36Z"/><path class="cls-5" d="M14,11.36H3.7s-.83,7.13,5.13,7.13S14,11.36,14,11.36Z"/><path class="cls-6" d="M13.94,11.36H12.32c.07.88.36,6.74-4.77,7a6.13,6.13,0,0,0,1.26.12C14.77,18.49,13.94,11.36,13.94,11.36Z"/><path class="cls-3" d="M8.83,9.61c-5.07,0-5.3,1.75-5.3,1.75S4,13,8.83,13s5.31-1.6,5.31-1.6S13.9,9.61,8.83,9.61Z"/><path class="cls-5" d="M8.94,9.86c-4.41,0-5.06,1.56-5.06,1.56S4.6,12.64,9,12.64s4.85-1.28,4.85-1.28S13.35,9.86,8.94,9.86Z"/><path class="cls-6" d="M11.69,10.13a1.65,1.65,0,0,1,.64,1.35c-.07,1.1-5.15,1.16-6.39.89h0a15.42,15.42,0,0,0,3,.26c4.41,0,4.85-1.28,4.85-1.28S13.56,10.56,11.69,10.13Z"/><path class="cls-7" d="M4.7,11c0-.14.25-.27.14-.3s-.51.14-.56.52.49.66.66.49S4.63,11.28,4.7,11Z"/><path class="cls-7" d="M5,10.63s-.05,0-.05.08.05.07.05.07,0,0,0-.08A.07.07,0,0,0,5,10.63Z"/><path class="cls-7" d="M5.1,10.72a.06.06,0,1,0,0-.05C5.07,10.72,5.1,10.72,5.1,10.72Z"/><path class="cls-7" d="M5.14,11.62s-.1,0-.1.17.1.14.1.14a.15.15,0,0,0,.11-.16A.14.14,0,0,0,5.14,11.62Z"/><path class="cls-8" d="M8.53,7.62c0-.6-.75-.72-.74-.38a.39.39,0,0,1,.35.43c0,.42-.54.29-.56.77s.66.76.81.49S8,8.55,8.1,8.35,8.56,8.22,8.53,7.62Z"/><path class="cls-8" d="M9.7,7.18c0-.6-.75-.71-.74-.38a.39.39,0,0,1,.35.43c0,.42-.54.29-.57.77s.67.76.82.49-.35-.38-.29-.58S9.73,7.78,9.7,7.18Z"/><path class="cls-8" d="M10.31,8.55c.07-.2.46-.12.43-.73S10,7.11,10,7.45a.38.38,0,0,1,.35.42c0,.42-.54.29-.56.77s.66.77.81.49S10.25,8.75,10.31,8.55Z"/><path class="cls-9" d="M13.42,25.77a2.08,2.08,0,0,1-2.08,2.08H6.66a2.08,2.08,0,0,1-2.08-2.08h0a2.08,2.08,0,0,1,2.08-2.08h4.68a2.08,2.08,0,0,1,2.08,2.08Z"/><path class="cls-9" d="M13.94,22.55c.62.47-.79,1.59-1.15,1.18C12.79,23.73,13.32,22.09,13.94,22.55Z"/><path class="cls-9" d="M15.26,24.1c.28.79-1.68,1-1.76.37C13.5,24.47,15,23.3,15.26,24.1Z"/><path class="cls-9" d="M3.85,28.94c-.64-.45.74-1.61,1.11-1.21C5,27.73,4.48,29.39,3.85,28.94Z"/><path class="cls-9" d="M2.49,27.43c-.3-.79,1.65-1,1.74-.42C4.23,27,2.79,28.22,2.49,27.43Z"/><text class="cls-10" transform="translate(5.55 26.89)">espre<tspan class="cls-11" x="4.27" y="0">s</tspan><tspan x="5" y="0">so</tspan></text></g></svg>