<svg xmlns="http://www.w3.org/2000/svg" viewBox="0 0 18.4 29.98"><defs><style>.cls-1{fill:none;}.cls-2{fill:#4d495b;}.cls-3{fill:#eef8f9;}.cls-4{fill:#dae4e5;}.cls-5{fill:#964236;}.cls-6{fill:#7f372f;}.cls-7{fill:#ea8b5c;}.cls-8{fill:#e57b4c;}.cls-9{fill:#ffd8a6;}.cls-10{fill:#fccb95;}.cls-11{fill:#f7be86;}.cls-12{fill:#fcf1e6;}.cls-13{fill:#451711;}.cls-14{fill:#f9d9d7;}</style></defs><g id="coffee_types_illustration_pack" data-name="coffee types illustration pack"><rect class="cls-1" width="18.4" height="29.98" rx="8"/><path class="cls-2" d="M5.32,20.33s-.1-1.77,3.76-1.77,3.83,1.77,3.83,1.77.13,1.18-3.83,1.18S5.32,20.33,5.32,20.33Z"/><path class="cls-3" d="M9.17,17.38C4.71,17.38,5,19,5,19s.18.61,1.81.93h0s-.2.68,2.32.68c2.35,0,2.31-.68,2.31-.68h0c1.63-.32,1.81-.93,1.81-.93S13.62,17.38,9.17,17.38Z"/><path class="cls-4" d="M9.14,17.87c-3.09,0-3.2.84-3.2.84s.14.58,3.18.58c2.8,0,3.05-.58,3.05-.58S12.1,17.87,9.14,17.87Z"/><path class="cls-4" d="M9.22,20.09a10.49,10.49,0,0,0-1.17,0,7.76,7.76,0,0,1-1.54-.2c-.06.14.89.22,1.53.27A2.61,2.61,0,0,0,9.22,20.09Z"/><path class="cls-3" d="M12.45,10.45V11s1.81-.44,1.84,1.27-1.84,1.28-1.84,1.28v.57s2.48.3,2.48-2S12.45,10.45,12.45,10.45Z"/><path class="cls-3" d="M12.34,17.79,13,6.88H5.65L6.2,18a1.06,1.06,0,0,0,1.19,1h3.55A1.29,1.29,0,0,0,12.34,17.79Z"/><path class="cls-5" d="M6.18,13.64l.2,4.13a1,1,0,0,0,1.13,1h3.38a1.23,1.23,0,0,0,1.32-1.2l.22-3.91Z"/><path class="cls-6" d="M11.08,13.64l-.22,3.91a1.23,1.23,0,0,1-1.32,1.2h1.35a1.24,1.24,0,0,0,1.32-1.2l.21-3.91Z"/><polygon class="cls-7" points="6.01 9.96 6.2 13.98 12.41 13.98 12.63 9.96 6.01 9.96"/><polygon class="cls-8" points="11.33 9.96 11.11 13.98 12.41 13.98 12.63 9.96 11.33 9.96"/><polygon class="cls-9" points="12.62 10.09 12.8 6.88 5.86 6.88 6.02 10.09 12.62 10.09"/><polygon class="cls-10" points="11.49 6.88 11.31 10.09 12.59 10.09 12.77 6.88 11.49 6.88"/><path class="cls-3" d="M9.3,5.42c-3.51,0-3.65,1.46-3.65,1.46s.62,1.39,3.77,1.39S13,6.88,13,6.88,12.81,5.42,9.3,5.42Z"/><path class="cls-9" d="M11.56,5A2.85,2.85,0,0,0,9.12,2.59a1.78,1.78,0,0,1-.07,1.28c-.32.45-2.32.41-2.44,1.75,0,0-1.05.57-.52,1.49,0,0,.73,1,3.19,1s3.37-1,3.37-1S12.91,5.33,11.56,5Z"/><path class="cls-10" d="M11.56,5A2.86,2.86,0,0,0,9.12,2.59,3.61,3.61,0,0,1,9.2,3a1.69,1.69,0,0,1,1.41,1.05c.31,1.09-.44,1.37-.32,1.9s1.6-.59,1.59.44a1.64,1.64,0,0,1-.46,1.36,3.15,3.15,0,0,0,1.23-.67S12.9,5.33,11.56,5Z"/><path class="cls-11" d="M7,5.81a.65.65,0,0,1-.44-.39c-.13,0,0,.35.44.49s.72,0,.71-.06S7.33,6,7,5.81Z"/><path class="cls-12" d="M8.59,4.3c-.13-.17-.36.16-.6.26a2.26,2.26,0,0,1-.55.11c-.09.06,0,.27.58.18S8.72,4.47,8.59,4.3Z"/><path class="cls-12" d="M6.41,6.23c.07-.23.1-.27,0-.28a.8.8,0,0,0-.35.53c0,.33.21.68.4.56S6.33,6.45,6.41,6.23Z"/><path class="cls-11" d="M11.67,4.67a1.33,1.33,0,0,1-.41.64c-.26.17-.57.18-.57.27s.35,0,.73-.3S11.73,4.66,11.67,4.67Z"/><path class="cls-5" d="M10.81,3.85c-.12-.07-.35.19-.35.19,0,.2.22.25.35.19A.24.24,0,0,0,10.81,3.85Z"/><path class="cls-5" d="M9.12,4.48c-.12-.08-.35.19-.35.19,0,.19.22.25.35.19A.24.24,0,0,0,9.12,4.48Z"/><path class="cls-5" d="M10.39,5.14c-.12-.07-.35.2-.35.2,0,.19.22.25.35.18A.24.24,0,0,0,10.39,5.14Z"/><path class="cls-5" d="M11.56,5.22c-.12-.07-.35.2-.35.2,0,.19.22.25.35.18A.24.24,0,0,0,11.56,5.22Z"/><path class="cls-5" d="M12.39,5.79C12.27,5.71,12,6,12,6c0,.19.22.25.35.19A.24.24,0,0,0,12.39,5.79Z"/><path class="cls-5" d="M11.85,7c-.12-.07-.35.19-.35.19,0,.2.22.25.35.19A.24.24,0,0,0,11.85,7Z"/><path class="cls-5" d="M10.8,6.44c-.12-.08-.35.19-.35.19,0,.2.22.25.35.19A.24.24,0,0,0,10.8,6.44Z"/><path class="cls-5" d="M8.9,7.2c-.12-.08-.35.19-.35.19,0,.2.22.25.35.19A.24.24,0,0,0,8.9,7.2Z"/><path class="cls-5" d="M7.59,6.51c-.12-.07-.34.19-.34.19,0,.2.21.25.34.19A.23.23,0,0,0,7.59,6.51Z"/><path class="cls-5" d="M9,5.79C8.9,5.71,8.67,6,8.67,6c0,.19.22.25.35.19A.24.24,0,0,0,9,5.79Z"/><path class="cls-13" d="M13.58,25.77a2.08,2.08,0,0,1-2.08,2.08H6.82a2.08,2.08,0,0,1-2.08-2.08h0a2.08,2.08,0,0,1,2.08-2.08H11.5a2.08,2.08,0,0,1,2.08,2.08Z"/><path class="cls-13" d="M2.77,24.42c-.36.69,1.4,1.1,1.55.57C4.32,25,3.13,23.73,2.77,24.42Z"/><path class="cls-13" d="M2.25,26.38c.08.84,1.92.15,1.74-.41C4,26,2.16,25.54,2.25,26.38Z"/><path class="cls-13" d="M15.63,24.42c.36.69-1.39,1.1-1.54.57C14.09,25,15.27,23.73,15.63,24.42Z"/><path class="cls-13" d="M16.16,26.38c-.09.84-1.93.15-1.75-.41C14.41,26,16.24,25.54,16.16,26.38Z"/><path class="cls-14" d="M7.47,24h0v0s0,0,0,0h0c0,.34,0,.63,0,.86a2.41,2.41,0,0,1,0,.31v.41H7.8v0s0,0-.08,0H7.51l0,0V25.2c0-.41,0-.75,0-1V24S7.45,24,7.47,24Z"/><path class="cls-14" d="M8.26,24.08h0c.05,0,.08.08.11.17a5.41,5.41,0,0,1,.2,1,2.81,2.81,0,0,1,0,.36l0,0a1.35,1.35,0,0,1-.06-.38s0-.12,0-.31h0c-.17,0-.26,0-.26.05v.18l0,.44a0,0,0,0,1,0,0s0,0,0,0a0,0,0,0,1,0-.05c0-.33,0-.53,0-.6a.53.53,0,0,1,0-.13,4.53,4.53,0,0,1,.06-.71C8.2,24.12,8.23,24.08,8.26,24.08Zm0,.06a2.58,2.58,0,0,0-.07.68.5.5,0,0,0,0,.11v0a1,1,0,0,1,.29,0h0a3.09,3.09,0,0,0-.16-.67A.31.31,0,0,0,8.26,24.14Z"/><path class="cls-14" d="M9.4,24.16h0s-.05,0-.13,0H9.16s0,0,0,0v.25c0,.47,0,.81,0,1h0v.05h0l0,0a.1.1,0,0,1,0,0c0-.07,0-.41-.05-1v-.27h0l-.15,0s0,0,0,0l0,0H9.4Z"/><path class="cls-14" d="M10.12,24.16h0s-.05,0-.13,0H9.88s0,0,0,0v.25c0,.47,0,.81,0,1h0v.05h0l0,0a.1.1,0,0,1,0,0c0-.07,0-.41,0-1a2.26,2.26,0,0,0,0-.27h0l-.15,0s0,0,0,0l0,0h.47Z"/><path class="cls-14" d="M10.48,24.05l.11,0h.13v0h-.2a1.61,1.61,0,0,1,0,.26q0,.4,0,.48s.06,0,.19,0l0,0H10.5q0,.45,0,.63v.08h0l.18,0h0l0,0h0l0,0h0l-.15,0h0s-.05,0-.05-.06v-.08q0-.2.06-1.17v0a.81.81,0,0,0,0-.28Z"/><path class="cls-14" d="M6,25.83H6a2.24,2.24,0,0,1,.17.33c0,.1.07.2.1.3h0s0-.18.07-.5c0-.06,0-.09,0-.1h0s0,.15,0,.45v1.1s0,0,0,.05,0,0,0,0,0,0,0,0a.23.23,0,0,0,0-.07v-.26h0a.44.44,0,0,0,0-.09,1.69,1.69,0,0,1,0-.23c0-.18,0-.36,0-.55V26.1h0s0,.12,0,.31l0,.25h0a.53.53,0,0,1,0-.21A2,2,0,0,0,6.07,26h0q0,.3.06.84c0,.07,0,.12,0,.17v.47h0s0,0,0,0a1.36,1.36,0,0,0,0-.18v-.45c0-.37,0-.7-.07-1Z"/><path class="cls-14" d="M7,25.88H7s.08.08.12.17a5.49,5.49,0,0,1,.19,1,2.81,2.81,0,0,1,0,.36l0,0a1.35,1.35,0,0,1-.06-.38s0-.12,0-.31h0c-.17,0-.26,0-.26,0V27l0,.44a0,0,0,0,1,0,0l0,0a0,0,0,0,1,0-.05c0-.33,0-.53,0-.6s0-.08,0-.13A6.18,6.18,0,0,1,6.91,26C6.92,25.92,7,25.88,7,25.88Zm0,.06a2.58,2.58,0,0,0-.07.68.5.5,0,0,0,0,.11v0a1,1,0,0,1,.29,0h0A3.09,3.09,0,0,0,7,26,.31.31,0,0,0,7,25.94Z"/><path class="cls-14" d="M7.93,25.89H8c.06,0,.08,0,.08.06s0,0,0,0H8a.09.09,0,0,0-.07,0c-.08,0-.11,0-.11.07a1,1,0,0,0-.1.49v.08a2.67,2.67,0,0,0,.06.5.7.7,0,0,0,.09.29.22.22,0,0,0,.13.06s.09,0,.15-.1h0s0,0,0,0h0s0,.06-.1.11l-.08,0H8a.28.28,0,0,1-.15-.08,1.13,1.13,0,0,1-.14-.53,1.43,1.43,0,0,1,0-.33v0c0-.32,0-.51.15-.58Z"/><path class="cls-14" d="M8.67,25.89h0q.09,0,.09.06a0,0,0,0,1,0,0h0a.09.09,0,0,0-.07,0c-.07,0-.11,0-.11.07a1.09,1.09,0,0,0-.1.49v.08a2.67,2.67,0,0,0,.06.5.7.7,0,0,0,.09.29.22.22,0,0,0,.13.06.19.19,0,0,0,.15-.1h0s0,.06-.11.11l-.07,0h0a.25.25,0,0,1-.14-.08c-.06,0-.11-.22-.15-.53a2.38,2.38,0,0,1,0-.33v0c0-.32.05-.51.15-.58Z"/><path class="cls-14" d="M9.41,26h0s0,0,0,.06v.17a8.44,8.44,0,0,0,0,.87c0,.19,0,.33,0,.4h0s0,0,0,0h0s0-.13-.06-.39,0-.23,0-.27H9.25c0,.19,0,.31,0,.38a2.62,2.62,0,0,0,0,.27l0,0s0,0,0,0v-.28c0-.32,0-.62,0-.89h0V26h0s0,0,0,.05a.77.77,0,0,1,0,.1s0,.11,0,.22,0,.36,0,.43h.16v0c0-.16,0-.34,0-.57a1.26,1.26,0,0,1,0-.16.09.09,0,0,1,0-.05Z"/><path class="cls-14" d="M10,25.89h0s0,.08,0,.25v.06c0,.06,0,.22,0,.47a.08.08,0,0,0,0,0c0,.16,0,.29,0,.38v.31a.1.1,0,0,0,0,0s0,0,0,0h0s0,0,0-.13c0-.54,0-.91,0-1.12V26.1a1.15,1.15,0,0,0,0-.19S10,25.9,10,25.89Z"/><path class="cls-14" d="M10.52,25.88h0a.29.29,0,0,1,.11.17,4.77,4.77,0,0,1,.19,1,1.71,1.71,0,0,1,0,.36s0,0,0,0a3.66,3.66,0,0,1-.06-.38s0-.12,0-.31h0c-.17,0-.25,0-.25,0V27l0,.44s0,0,0,0l0,0s0,0,0-.05q0-.49,0-.6V26.7a6.07,6.07,0,0,1,0-.71C10.47,25.92,10.49,25.88,10.52,25.88Zm0,.06a3.09,3.09,0,0,0-.07.68v.13a1,1,0,0,1,.28,0h0a3.51,3.51,0,0,0-.15-.67C10.55,26,10.54,26,10.52,25.94Z"/><path class="cls-14" d="M11.67,26h0s0,0-.13,0h-.13v.27c0,.47,0,.81,0,1h0v0s0,0,0,0h0a0,0,0,0,0,0,0v0c0-.07,0-.41,0-1a2.26,2.26,0,0,0,0-.27h0l-.15,0a.05.05,0,0,1,0,0l0,0h.48Z"/><path class="cls-14" d="M12.15,26h0s.05.05.08.15a5.36,5.36,0,0,1,.05.7,1.57,1.57,0,0,1-.07.64s0,0-.06,0h0c-.09,0-.14-.14-.16-.41,0-.1,0-.25,0-.44v-.09a1.36,1.36,0,0,1,.09-.51,0,0,0,0,1,0,0Zm-.12.6a6.22,6.22,0,0,0,0,.65c0,.15.06.23.11.23s.09-.21.09-.63h0a3.76,3.76,0,0,0,0-.71c0-.06,0-.09-.05-.09h0c-.06,0-.1.17-.13.41Z"/></g></svg>