<svg xmlns="http://www.w3.org/2000/svg" viewBox="0 0 92.06 150"><defs><style>.cls-1{fill:none;}.cls-2{fill:#4d495b;}.cls-3{fill:#eef8f9;}.cls-4{fill:#dae4e5;}.cls-5{fill:#964236;}.cls-6{fill:#7f372f;}.cls-7{fill:#ea8b5c;}.cls-8{fill:#e57b4c;}.cls-9{fill:#ffd8a6;}.cls-10{fill:#fccb95;}.cls-11{fill:#f7be86;}.cls-12{fill:#fcf1e6;}.cls-13{fill:#451711;}.cls-14{fill:#f5f4ff;}</style></defs><g id="coffee_types_illustration_pack" data-name="coffee types illustration pack"><rect class="cls-1" x="-0.05" y="-0.09" width="92.17" height="150.17" rx="8"/><path class="cls-2" d="M26.61,101.72s-.5-8.84,18.79-8.84,19.21,8.84,19.21,8.84.64,5.93-19.21,5.93S26.61,101.72,26.61,101.72Z"/><path class="cls-3" d="M45.86,87c-22.33,0-20.92,8.28-20.92,8.28s.91,3,9.05,4.62h0s-1,3.42,11.61,3.42c11.79,0,11.61-3.42,11.61-3.42h0c8.13-1.58,9-4.62,9-4.62S68.18,87,45.86,87Z"/><path class="cls-4" d="M45.74,89.4c-15.47,0-16,4.23-16,4.23s.67,2.91,15.89,2.91c14,0,15.28-2.91,15.28-2.91S60.53,89.4,45.74,89.4Z"/><path class="cls-4" d="M46.1,100.51c-.15-.26-1.33.16-5.82,0a40.63,40.63,0,0,1-7.72-1c-.31.68,4.45,1.08,7.64,1.34S46.26,100.78,46.1,100.51Z"/><path class="cls-3" d="M62.32,52.26l-.06,2.61s9-2.22,9.22,6.36c.18,8.26-9.22,6.4-9.22,6.4v2.84S74.67,72,74.67,60.66,62.32,52.26,62.32,52.26Z"/><path class="cls-3" d="M61.73,89l3.08-54.65H28.26L31,90.1c.11,1.24.86,5,5.95,5H54.76C60.65,95.12,61.58,90.55,61.73,89Z"/><path class="cls-5" d="M30.92,68.23l1,20.67c.11,1.22.82,4.91,5.66,4.91H54.48a6.21,6.21,0,0,0,6.63-6l1.07-19.6Z"/><path class="cls-6" d="M55.43,68.23l-1.07,19.6a6.21,6.21,0,0,1-6.63,6h6.74a6.19,6.19,0,0,0,6.62-6l1.08-19.6Z"/><polygon class="cls-7" points="30.05 49.8 31 69.93 62.09 69.93 63.19 49.8 30.05 49.8"/><polygon class="cls-8" points="56.7 49.8 55.59 69.93 62.09 69.93 63.19 49.8 56.7 49.8"/><polygon class="cls-9" points="63.15 50.44 64.03 34.36 29.31 34.36 30.08 50.44 63.15 50.44"/><polygon class="cls-10" points="57.49 34.36 56.61 50.44 63.02 50.44 63.9 34.36 57.49 34.36"/><path class="cls-3" d="M46.54,27.05c-17.59,0-18.28,7.31-18.28,7.31s3.09,7,18.85,7,17.7-7,17.7-7S64.13,27.05,46.54,27.05Z"/><path class="cls-9" d="M57.84,24.88s-1.71-11.08-12.22-12c0,0,1.26,4.11-.34,6.39s-11.65,2.06-12.22,8.8c0,0-5.25,2.85-2.63,7.42,0,0,3.68,4.91,16,4.91s16.9-4.91,16.9-4.91S64.58,26.59,57.84,24.88Z"/><path class="cls-10" d="M57.82,24.88s-1.71-11.08-12.22-12a12.1,12.1,0,0,1,.42,2.2c2.52.5,6.09,1.81,7.07,5.26,1.55,5.48-2.21,6.85-1.6,9.52s8-3,8,2.2-2.31,6.79-2.32,6.79c4.36-1.44,6.16-3.36,6.16-3.36S64.56,26.59,57.82,24.88Z"/><path class="cls-11" d="M34.84,29a3.43,3.43,0,0,1-2.2-2c-.62.13-.07,1.75,2.2,2.47s3.63.19,3.55-.3S36.68,29.71,34.84,29Z"/><path class="cls-12" d="M43,21.45c-.63-.83-1.8.8-3,1.29a9.67,9.67,0,0,1-2.74.54c-.49.34.23,1.4,2.87.91S43.6,22.28,43,21.45Z"/><path class="cls-12" d="M32,31.1c.37-1.11.52-1.34.12-1.37a4,4,0,0,0-1.74,2.63c-.2,1.68,1.05,3.43,2,2.83S31.66,32.22,32,31.1Z"/><path class="cls-11" d="M58.38,23.32s-.69,2.36-2,3.2-2.89.91-2.86,1.37,1.72,0,3.62-1.55S58.72,23.24,58.38,23.32Z"/><path class="cls-5" d="M54.09,19.19c-.61-.37-1.74,1-1.74,1-.2,1,1.09,1.26,1.74.93A1.19,1.19,0,0,0,54.09,19.19Z"/><path class="cls-5" d="M45.64,22.33c-.61-.37-1.75,1-1.75,1-.2,1,1.1,1.26,1.75.93A1.2,1.2,0,0,0,45.64,22.33Z"/><path class="cls-5" d="M52,25.66c-.6-.36-1.74,1-1.74,1-.2,1,1.09,1.25,1.74.93A1.2,1.2,0,0,0,52,25.66Z"/><path class="cls-5" d="M57.83,26.06c-.61-.36-1.74,1-1.74,1-.2,1,1.09,1.25,1.74.93A1.2,1.2,0,0,0,57.83,26.06Z"/><path class="cls-5" d="M62,28.89c-.61-.36-1.75,1-1.75,1-.2,1,1.1,1.26,1.75.94A1.21,1.21,0,0,0,62,28.89Z"/><path class="cls-5" d="M59.28,34.91c-.61-.36-1.74,1-1.74,1-.21,1,1.09,1.25,1.74.93A1.2,1.2,0,0,0,59.28,34.91Z"/><path class="cls-5" d="M54,32.15c-.61-.36-1.74,1-1.74,1-.21,1,1.09,1.25,1.74.93A1.2,1.2,0,0,0,54,32.15Z"/><path class="cls-5" d="M44.52,36c-.61-.36-1.75,1-1.75,1-.2,1,1.1,1.25,1.75.93A1.2,1.2,0,0,0,44.52,36Z"/><path class="cls-5" d="M38,32.51c-.6-.36-1.74,1-1.74,1-.2,1,1.09,1.25,1.74.93A1.2,1.2,0,0,0,38,32.51Z"/><path class="cls-5" d="M45.13,28.89c-.61-.36-1.74,1-1.74,1-.2,1,1.09,1.26,1.74.94A1.2,1.2,0,0,0,45.13,28.89Z"/><path class="cls-13" d="M68,129a10.42,10.42,0,0,1-10.42,10.42H34.13A10.42,10.42,0,0,1,23.71,129h0a10.42,10.42,0,0,1,10.42-10.42H57.55A10.42,10.42,0,0,1,68,129Z"/><path class="cls-13" d="M13.83,122.21c-1.81,3.44,7,5.5,7.73,2.87C21.56,125.08,15.64,118.78,13.83,122.21Z"/><path class="cls-13" d="M11.2,132c.43,4.2,9.65.77,8.74-2.06C19.94,130,10.77,127.82,11.2,132Z"/><path class="cls-13" d="M78.23,122.21c1.81,3.44-7,5.5-7.73,2.87C70.5,125.08,76.42,118.78,78.23,122.21Z"/><path class="cls-13" d="M80.86,132c-.43,4.2-9.65.77-8.73-2.06C72.13,130,81.29,127.82,80.86,132Z"/><path class="cls-14" d="M39.14,127.81a1.35,1.35,0,0,0,0-.36c0-.67,0-1.66,0-3s0-2.25,0-2.83l0-.39,0-.33c0-.05,0-.07.08-.07l.15,0h0c0,.16,0,.31,0,.44V123c0,.35,0,.74,0,1.18,0,0,0,.12,0,.24v.23c0,.15,0,.29,0,.45s0,.32,0,.45V126l0,.09h0s0,0,0,0v0a.41.41,0,0,0,0,.16l0,1v.07a.88.88,0,0,0,0,.21.05.05,0,0,0,.06.06l.56,0h.49a.15.15,0,0,1,.11.06.17.17,0,0,1,.05.13c0,.08-.05.13-.17.14H39.52l-.19,0C39.22,128.06,39.16,128,39.14,127.81Z"/><path class="cls-14" d="M43.78,128a.32.32,0,0,1-.07-.2q-.1-.8-.12-1l-.05-.44a3,3,0,0,0-.55,0l-.39,0a2.31,2.31,0,0,0-.38,0,.08.08,0,0,0-.08.06s0,0,0,0l0,.22q0,.2-.12.78a1.72,1.72,0,0,1-.13.46c-.06.12-.11.18-.16.18a.22.22,0,0,1-.14-.06.14.14,0,0,1-.08-.12v-.07q.2-.77.33-1.53l.13-.68.13-.82.12-.72.19-1c.11-.49.17-.83.19-1a3.4,3.4,0,0,0,0-.4c0-.28.06-.48.08-.61a1.15,1.15,0,0,1,.06-.33h.16a.27.27,0,0,0,.19-.06.24.24,0,0,1,.14,0,.14.14,0,0,1,.06.11,10.89,10.89,0,0,0,.07,1.2c0,.23.06.42.07.58.08.93.28,2.69.61,5.26v0A.2.2,0,0,1,44,128,.34.34,0,0,1,43.78,128Zm-.3-1.92c-.07-1-.21-2.59-.41-4.62l-.59,2.9a10.75,10.75,0,0,0-.25,1.58s.14.07.41.09a7.06,7.06,0,0,0,.73,0Z"/><path class="cls-14" d="M46,127.77v-.41c0-.11,0-.24,0-.39a1,1,0,0,1,0-.18v-.2a.92.92,0,0,0,0-.26c0-.49,0-1.39-.11-2.71s-.11-2.14-.12-2.6a8.46,8.46,0,0,1-.9,0c-.15,0-.22-.09-.22-.17a.2.2,0,0,1,.21-.12c.21,0,.53,0,.94,0a8.89,8.89,0,0,0,1,.05h.45c.14,0,.2,0,.2.14a.12.12,0,0,1-.07.11.43.43,0,0,1-.17,0l-.46,0-.46,0s0,0,0,0,0,.1,0,.21c0,.7,0,1.77.13,3.2s.12,2.54.12,3.19c0,0,0,.09-.09.14a.32.32,0,0,1-.18.06Z"/><path class="cls-14" d="M49.19,127.77v-.41c0-.11,0-.24,0-.39a1,1,0,0,1,0-.18v-.2a.92.92,0,0,0,0-.26c0-.49,0-1.39-.11-2.71s-.11-2.14-.12-2.6a8.46,8.46,0,0,1-.9,0c-.15,0-.22-.09-.22-.17a.2.2,0,0,1,.21-.12c.21,0,.53,0,.94,0a8.89,8.89,0,0,0,.95.05h.46c.13,0,.19,0,.19.14a.12.12,0,0,1-.07.11.43.43,0,0,1-.17,0,3.52,3.52,0,0,1-.45,0l-.47,0s0,0,0,0,0,.1,0,.21c0,.7.05,1.77.13,3.2s.12,2.54.12,3.19c0,0,0,.09-.09.14a.32.32,0,0,1-.18.06Z"/><path class="cls-14" d="M51.69,127.83v-.14a.53.53,0,0,0,0-.13l0,0a1.29,1.29,0,0,0,.09-.45c0-.17,0-.41,0-.72l0-.72c0-.36,0-.9,0-1.63s0-1.19,0-1.64l0-.65c0-.2,0-.42,0-.66a.32.32,0,0,1,.07-.23.33.33,0,0,1,.24-.07.21.21,0,0,1,.17.07l.32,0a1.94,1.94,0,0,1,.47.1c.14,0,.21.09.21.16s-.07.14-.21.22a3.33,3.33,0,0,0-.88-.21l-.06.07c0,.06,0,.22,0,.46s0,.6,0,.84,0,.54,0,.85.05.3.15.3h.36c.28,0,.43.07.43.2a.34.34,0,0,1-.06.2.18.18,0,0,1-.16.08.33.33,0,0,1-.25-.09l-.35,0h0l-.06,0v0a8.19,8.19,0,0,1,0,.86c0,.28,0,.54,0,.77v.77q0,.42,0,.87a.47.47,0,0,0,.11.33.56.56,0,0,0,.36.08H53c.21,0,.31,0,.31.14s-.16.2-.48.2h-.89C51.78,128.06,51.71,128,51.69,127.83Z"/><path class="cls-14" d="M34.74,136.67V136c0-1,0-1.86-.07-2.44l0-.41a3,3,0,0,1,0-.48c0-.24,0-.47,0-.67l0-.67a2.21,2.21,0,0,0,0-.52,28.11,28.11,0,0,0-1.31,4.58v.17a1.88,1.88,0,0,1-.09.43.48.48,0,0,1-.09.19.2.2,0,0,1-.14.06.32.32,0,0,1-.25-.09.38.38,0,0,1-.07-.27,11.41,11.41,0,0,0-.28-1.52c-.19-.82-.39-1.61-.6-2.36a5,5,0,0,0-.44-1.25c0,.25,0,.85-.09,1.79-.1,1.67-.15,3-.15,3.94v.44a.21.21,0,0,1-.23.14.24.24,0,0,1-.11-.06s-.07-.07-.07-.09c0-.66.06-1.8.17-3.44S31,130.75,31,130a.23.23,0,0,0,0-.11.23.23,0,0,1,0-.09c0-.11.09-.17.28-.17a.2.2,0,0,1,.22.17,1.81,1.81,0,0,1,.05.32v.13a4.24,4.24,0,0,0,.31.87c.14.31.24.59.32.82a3.82,3.82,0,0,0,.12.42c.11.42.19.74.22.94l.15.28a5.44,5.44,0,0,0,.13.53c.06.28.11.5.14.68a2.89,2.89,0,0,1,0,.5,18.62,18.62,0,0,0,.68-2.23c.37-1.36.59-2.22.66-2.6,0,0,0,0,0-.06a.38.38,0,0,1,0-.1c0-.1,0-.24.1-.43s.14-.22.26-.22a.34.34,0,0,1,.17.07.17.17,0,0,1,.1.13,35.81,35.81,0,0,0,.14,4.8v.56c0,.17,0,.36,0,.58a5.25,5.25,0,0,0,.08,1l0,0a.11.11,0,0,0,0,0,.31.31,0,0,1,0,.1.44.44,0,0,1-.07.24.19.19,0,0,1-.17.12C34.81,137.37,34.74,137.13,34.74,136.67Zm-.15-6h0Z"/><path class="cls-14" d="M38.76,136.86s0-.09-.06-.2q-.11-.79-.12-1l-.06-.44a2.92,2.92,0,0,0-.54,0l-.39,0-.38,0c-.05,0-.07,0-.08.05a0,0,0,0,1,0,0l0,.22q0,.19-.12.78a2.2,2.2,0,0,1-.13.46c-.06.12-.12.19-.17.19a.24.24,0,0,1-.14-.06.19.19,0,0,1-.08-.13l0,0v0c.13-.52.24-1,.32-1.54l.13-.67.13-.83.12-.72.2-.94c.1-.5.16-.83.18-1a2.39,2.39,0,0,0,0-.4c0-.27.05-.48.07-.61a1.28,1.28,0,0,1,.07-.32h.15a.26.26,0,0,0,.2-.07.21.21,0,0,1,.13.05.14.14,0,0,1,.06.12,11.11,11.11,0,0,0,.08,1.19c0,.23,0,.43.07.58.07.93.28,2.69.6,5.26v0a.17.17,0,0,1-.08.16C38.86,136.9,38.79,136.89,38.76,136.86Zm-.29-1.92c-.08-1-.21-2.58-.42-4.62l-.58,2.9a11,11,0,0,0-.25,1.58s.13.07.41.1a6.66,6.66,0,0,0,.73,0Z"/><path class="cls-14" d="M41,136.88a1.31,1.31,0,0,1-.35-.19,1.22,1.22,0,0,1-.28-.36,3.14,3.14,0,0,1-.27-1.25c0-.24,0-.46,0-.65v-1.24c0-.47,0-.93,0-1.37a7.27,7.27,0,0,1,.1-.83,2.88,2.88,0,0,1,.21-.67,1.22,1.22,0,0,1,.33-.49,1,1,0,0,1,.3-.15l.27-.12h.55l.05,0,0,0a.15.15,0,0,1,0,.07l-.14.16H41.4a.5.5,0,0,0-.37.2,1.37,1.37,0,0,0-.26.51,4.41,4.41,0,0,0-.14.64,4.11,4.11,0,0,0-.06.64c0,.24,0,.39,0,.48l0,.06c0,.4,0,.77,0,1.1l0,1.09a5.89,5.89,0,0,0,.06.88,1.72,1.72,0,0,0,.32.79.89.89,0,0,0,.77.35.41.41,0,0,0,.27-.1c.11,0,.17,0,.17.12s0,.11-.14.18a.85.85,0,0,1-.28.15h-.36Z"/><path class="cls-14" d="M44.13,136.88a1.31,1.31,0,0,1-.35-.19,1.22,1.22,0,0,1-.28-.36,3.14,3.14,0,0,1-.27-1.25c0-.24,0-.46,0-.65v-1.24c0-.47,0-.93,0-1.37a7.27,7.27,0,0,1,.1-.83,2.88,2.88,0,0,1,.21-.67,1.22,1.22,0,0,1,.33-.49,1.16,1.16,0,0,1,.3-.15l.27-.12H45l.05,0,0,0a.15.15,0,0,1,0,.07l-.14.16H44.5a.5.5,0,0,0-.37.2,1.53,1.53,0,0,0-.26.51,4.41,4.41,0,0,0-.14.64,5.86,5.86,0,0,0-.06.64c0,.24,0,.39,0,.48l0,.06c0,.4,0,.77,0,1.1l0,1.09a5.89,5.89,0,0,0,.06.88,1.72,1.72,0,0,0,.32.79.89.89,0,0,0,.77.35.41.41,0,0,0,.27-.1c.11,0,.17,0,.17.12s-.05.11-.14.18a.85.85,0,0,1-.28.15h-.36Z"/><path class="cls-14" d="M48.06,136.81c0-1.34-.05-2.31-.05-2.91l0-.05.05-.09a2,2,0,0,0-.05-.41l-.16,0a.73.73,0,0,1-.22,0l-.36-.05a1.05,1.05,0,0,0-.33-.06l-.12.05c0,.25,0,.48,0,.68s0,.43,0,.69l0,0c0,.2,0,.51,0,.91s0,.7,0,.91a.42.42,0,0,1,0,.2.14.14,0,0,1-.13.08c-.16,0-.24-.22-.24-.65s0-.71,0-1v-1a8.43,8.43,0,0,0,0-1.07,2.86,2.86,0,0,0,0-.72c0-.35,0-.77,0-1.27l0-.42,0-.85a.2.2,0,0,1,.06-.14.16.16,0,0,1,.13-.07c.14,0,.22.21.22.63s0,.94,0,1.34,0,.84,0,1.32c0,.08.28.13.83.13h0a.47.47,0,0,0,.3-.08.34.34,0,0,0,.1-.28c0-.39,0-.89-.08-1.5s-.07-1.17-.07-1.5a.14.14,0,0,1,.06-.12.21.21,0,0,1,.13-.05l.1,0a.13.13,0,0,1,.1,0c0,.56,0,1.41.06,2.53s.07,2,.07,2.55c0,.85,0,1.57.07,2.15l-.07.12C48.39,136.85,48.28,136.81,48.06,136.81Zm-.36-3.94,0,0h0Z"/><path class="cls-14" d="M50.28,136.69H50.1c-.15,0-.26,0-.3-.11s0-.09.09-.13l0-.05h.32l0,0,0-.1v-.13c0-.44,0-.84,0-1.19l0-.4,0-.79c0-.29,0-.71,0-1.28l0-1.26c0-.55,0-1-.05-1.26a1.31,1.31,0,0,0-.33,0h-.26c-.14,0-.21-.06-.21-.19s0,0,.1-.08a.47.47,0,0,1,.16-.05,7.55,7.55,0,0,1,.83.05,1.76,1.76,0,0,1,.5.09c.13,0,.2.11.2.19a.25.25,0,0,1,0,.09l-.25,0a.45.45,0,0,0-.31-.07l-.06,0a2,2,0,0,1,0,.57c0,.48,0,.91,0,1.3l0,1.29c0,.33,0,.72,0,1.19s0,.92,0,1.19v.14a1.15,1.15,0,0,0,0,.2.8.8,0,0,0,0,.3v0c0,.07.08.1.24.1h.33c.21,0,.31,0,.31.16a.2.2,0,0,1-.06.15.26.26,0,0,1-.18.06.47.47,0,0,1-.17,0H51a.55.55,0,0,0-.19.06.53.53,0,0,1-.2.06C50.41,136.8,50.31,136.76,50.28,136.69Z"/><path class="cls-14" d="M54.5,136.86s0-.09-.07-.2q-.09-.79-.12-1l-.05-.44a2.92,2.92,0,0,0-.54,0l-.39,0-.39,0s-.07,0-.07.05a0,0,0,0,1,0,0l0,.22a5.87,5.87,0,0,1-.11.78,1.68,1.68,0,0,1-.14.46c0,.12-.11.19-.16.19a.24.24,0,0,1-.14-.06.19.19,0,0,1-.08-.13l0,0v0c.13-.52.24-1,.32-1.54l.13-.67.13-.83.12-.72.2-.94c.1-.5.16-.83.18-1a2.39,2.39,0,0,0,0-.4c0-.27,0-.48.07-.61a1.28,1.28,0,0,1,.07-.32h.15a.26.26,0,0,0,.2-.07.21.21,0,0,1,.13.05.14.14,0,0,1,.06.12,11.11,11.11,0,0,0,.08,1.19c0,.23.05.43.06.58.08.93.29,2.69.61,5.26v0a.19.19,0,0,1-.08.16C54.6,136.9,54.53,136.89,54.5,136.86Zm-.29-1.92c-.08-1-.21-2.58-.42-4.62l-.58,2.9A11,11,0,0,0,53,134.8s.13.07.41.1a6.66,6.66,0,0,0,.73,0Z"/><path class="cls-14" d="M56.69,136.65l0-.4c0-.12,0-.25,0-.4s0-.13,0-.18l0-.2a1,1,0,0,0,0-.26c0-.48,0-1.39-.11-2.71s-.11-2.14-.12-2.6a8.46,8.46,0,0,1-.9,0c-.14,0-.22-.09-.22-.17a.21.21,0,0,1,.21-.12c.22,0,.53,0,1,0a9.08,9.08,0,0,0,.94.06h.46c.13,0,.19,0,.19.14s0,.07-.07.1a.27.27,0,0,1-.16,0l-.46,0-.47,0a0,0,0,0,0,0,0,.82.82,0,0,0,0,.2c0,.71,0,1.77.13,3.2s.12,2.54.12,3.19a.17.17,0,0,1-.1.14.34.34,0,0,1-.17.07Z"/><path class="cls-14" d="M59.06,133v-.39q0-3,.78-3l.15,0a2.85,2.85,0,0,0,.69.15c.14,0,.27.17.41.43a3,3,0,0,1,.34,1,7.2,7.2,0,0,1,.12,1.32l0,0c0,.24,0,.46,0,.64v.66a10,10,0,0,1,0,1,5.75,5.75,0,0,1-.21,1.16,2,2,0,0,1-.23.49,1.08,1.08,0,0,1-.31.33.7.7,0,0,1-.42.13C59.48,137,59.06,135.67,59.06,133Zm1.86,3.08a5.25,5.25,0,0,0,.25-1.24c0-.43,0-.78,0-1s0-.72-.06-1.28-.06-1.06-.06-1.29l0-.08,0-.06a1.33,1.33,0,0,0-.27-.83.78.78,0,0,0-.64-.34.54.54,0,0,0-.6.48c0,.1,0,.26-.05.46a6.49,6.49,0,0,1-.06,1.1q0,.17,0,.51l0,.51c0,.16,0,.31,0,.43v.43A8.75,8.75,0,0,0,59.5,135a8,8,0,0,0,.16.82,1.62,1.62,0,0,0,.25.58.43.43,0,0,0,.38.26Q60.71,136.69,60.92,136.09Z"/></g></svg>