<svg xmlns="http://www.w3.org/2000/svg" viewBox="0 0 18.4 29.98"><defs><style>.cls-1{fill:none;}.cls-2{fill:#4d495b;}.cls-3{fill:#eef8f9;}.cls-4{fill:#dae4e5;}.cls-5{fill:#964236;}.cls-6{fill:#7f372f;}.cls-7{fill:#ea8b5c;}.cls-8{fill:#e57b4c;}.cls-9{fill:#ffd8a6;}.cls-10{fill:#fccb95;}.cls-11{fill:#f7be86;}.cls-12{fill:#fcf1e6;}.cls-13{fill:#451711;}.cls-14{font-size:2.17px;fill:#f5f4ff;font-family:AmaticSC-Regular, Amatic SC;}</style></defs><g id="coffee_types_illustration_pack" data-name="coffee types illustration pack"><rect class="cls-1" width="18.4" height="29.98" rx="8"/><path class="cls-2" d="M5.32,20.33s-.1-1.77,3.76-1.77,3.83,1.77,3.83,1.77.13,1.18-3.83,1.18S5.32,20.33,5.32,20.33Z"/><path class="cls-3" d="M9.17,17.38C4.71,17.38,5,19,5,19s.18.61,1.81.93h0s-.2.68,2.32.68c2.35,0,2.31-.68,2.31-.68h0c1.63-.32,1.81-.93,1.81-.93S13.62,17.38,9.17,17.38Z"/><path class="cls-4" d="M9.14,17.87c-3.09,0-3.2.84-3.2.84s.14.58,3.18.58c2.8,0,3.05-.58,3.05-.58S12.1,17.87,9.14,17.87Z"/><path class="cls-4" d="M9.22,20.09a10.49,10.49,0,0,0-1.17,0,7.76,7.76,0,0,1-1.54-.2c-.06.14.89.22,1.53.27A2.61,2.61,0,0,0,9.22,20.09Z"/><path class="cls-3" d="M12.45,10.45V11s1.81-.44,1.84,1.27-1.84,1.28-1.84,1.28v.57s2.48.3,2.48-2S12.45,10.45,12.45,10.45Z"/><path class="cls-3" d="M12.34,17.79,13,6.88H5.65L6.2,18a1.06,1.06,0,0,0,1.19,1h3.55A1.29,1.29,0,0,0,12.34,17.79Z"/><path class="cls-5" d="M6.18,13.64l.2,4.13a1,1,0,0,0,1.13,1h3.38a1.23,1.23,0,0,0,1.32-1.2l.22-3.91Z"/><path class="cls-6" d="M11.08,13.64l-.22,3.91a1.23,1.23,0,0,1-1.32,1.2h1.35a1.24,1.24,0,0,0,1.32-1.2l.21-3.91Z"/><polygon class="cls-7" points="6.01 9.96 6.2 13.98 12.41 13.98 12.63 9.96 6.01 9.96"/><polygon class="cls-8" points="11.33 9.96 11.11 13.98 12.41 13.98 12.63 9.96 11.33 9.96"/><polygon class="cls-9" points="12.62 10.09 12.8 6.88 5.86 6.88 6.02 10.09 12.62 10.09"/><polygon class="cls-10" points="11.49 6.88 11.31 10.09 12.59 10.09 12.77 6.88 11.49 6.88"/><path class="cls-3" d="M9.3,5.42c-3.51,0-3.65,1.46-3.65,1.46s.62,1.39,3.77,1.39S13,6.88,13,6.88,12.81,5.42,9.3,5.42Z"/><path class="cls-9" d="M11.56,5A2.85,2.85,0,0,0,9.12,2.59a1.78,1.78,0,0,1-.07,1.28c-.32.45-2.32.41-2.44,1.75,0,0-1.05.57-.52,1.49,0,0,.73,1,3.19,1s3.37-1,3.37-1S12.91,5.33,11.56,5Z"/><path class="cls-10" d="M11.56,5A2.86,2.86,0,0,0,9.12,2.59,3.61,3.61,0,0,1,9.2,3a1.69,1.69,0,0,1,1.41,1.05c.31,1.09-.44,1.37-.32,1.9s1.6-.59,1.59.44a1.64,1.64,0,0,1-.46,1.36,3.15,3.15,0,0,0,1.23-.67S12.9,5.33,11.56,5Z"/><path class="cls-11" d="M7,5.81a.65.65,0,0,1-.44-.39c-.13,0,0,.35.44.49s.72,0,.71-.06S7.33,6,7,5.81Z"/><path class="cls-12" d="M8.59,4.3c-.13-.17-.36.16-.6.26a2.26,2.26,0,0,1-.55.11c-.09.06,0,.27.58.18S8.72,4.47,8.59,4.3Z"/><path class="cls-12" d="M6.41,6.23c.07-.23.1-.27,0-.28a.8.8,0,0,0-.35.53c0,.33.21.68.4.56S6.33,6.45,6.41,6.23Z"/><path class="cls-11" d="M11.67,4.67a1.33,1.33,0,0,1-.41.64c-.26.17-.57.18-.57.27s.35,0,.73-.3S11.73,4.66,11.67,4.67Z"/><path class="cls-5" d="M10.81,3.85c-.12-.07-.35.19-.35.19,0,.2.22.25.35.19A.24.24,0,0,0,10.81,3.85Z"/><path class="cls-5" d="M9.12,4.48c-.12-.08-.35.19-.35.19,0,.19.22.25.35.19A.24.24,0,0,0,9.12,4.48Z"/><path class="cls-5" d="M10.39,5.14c-.12-.07-.35.2-.35.2,0,.19.22.25.35.18A.24.24,0,0,0,10.39,5.14Z"/><path class="cls-5" d="M11.56,5.22c-.12-.07-.35.2-.35.2,0,.19.22.25.35.18A.24.24,0,0,0,11.56,5.22Z"/><path class="cls-5" d="M12.39,5.79C12.27,5.71,12,6,12,6c0,.19.22.25.35.19A.24.24,0,0,0,12.39,5.79Z"/><path class="cls-5" d="M11.85,7c-.12-.07-.35.19-.35.19,0,.2.22.25.35.19A.24.24,0,0,0,11.85,7Z"/><path class="cls-5" d="M10.8,6.44c-.12-.08-.35.19-.35.19,0,.2.22.25.35.19A.24.24,0,0,0,10.8,6.44Z"/><path class="cls-5" d="M8.9,7.2c-.12-.08-.35.19-.35.19,0,.2.22.25.35.19A.24.24,0,0,0,8.9,7.2Z"/><path class="cls-5" d="M7.59,6.51c-.12-.07-.34.19-.34.19,0,.2.21.25.34.19A.23.23,0,0,0,7.59,6.51Z"/><path class="cls-5" d="M9,5.79C8.9,5.71,8.67,6,8.67,6c0,.19.22.25.35.19A.24.24,0,0,0,9,5.79Z"/><path class="cls-13" d="M13.58,25.77a2.08,2.08,0,0,1-2.08,2.08H6.82a2.08,2.08,0,0,1-2.08-2.08h0a2.08,2.08,0,0,1,2.08-2.08H11.5a2.08,2.08,0,0,1,2.08,2.08Z"/><path class="cls-13" d="M2.77,24.42c-.36.69,1.4,1.1,1.55.57C4.32,25,3.13,23.73,2.77,24.42Z"/><path class="cls-13" d="M2.25,26.38c.08.84,1.92.15,1.74-.41C4,26,2.16,25.54,2.25,26.38Z"/><path class="cls-13" d="M15.63,24.42c.36.69-1.39,1.1-1.54.57C14.09,25,15.27,23.73,15.63,24.42Z"/><path class="cls-13" d="M16.16,26.38c-.09.84-1.93.15-1.75-.41C14.41,26,16.24,25.54,16.16,26.38Z"/><text class="cls-14" transform="translate(7.67 25.56)">latte<tspan x="-1.69" y="1.77">macchiato</tspan></text></g></svg>